<svg xmlns="http://www.w3.org/2000/svg" xmlns:xlink="http://www.w3.org/1999/xlink" width="85" height="85" viewBox="0 0 85 85">
  <defs>
    <clipPath id="clip-path">
      <rect id="Rectángulo_402143" data-name="Rectángulo 402143" width="57" height="57" transform="translate(193.578 3801)" fill="#013f20" stroke="#707070" stroke-width="1"/>
    </clipPath>
  </defs>
  <g id="Grupo_1102066" data-name="Grupo 1102066" transform="translate(-179.578 -1885)">
    <g id="Grupo_1101974" data-name="Grupo 1101974" transform="translate(0 -1902)">
      <circle id="Elipse_11561" data-name="Elipse 11561" cx="42.5" cy="42.5" r="42.5" transform="translate(179.578 3787)" fill="#f35923"/>
      <g id="Enmascarar_grupo_1098818" data-name="Enmascarar grupo 1098818" clip-path="url(#clip-path)">
        <g id="yo-asi" transform="translate(193.578 3801)">
          <g id="Grupo_1101973" data-name="Grupo 1101973">
            <path id="Trazado_892588" data-name="Trazado 892588" d="M40.96,36.653a1.114,1.114,0,0,0-1.517-1.632,16.1,16.1,0,0,1-20.014,1.5,16.365,16.365,0,0,1-1.878-1.5,1.114,1.114,0,0,0-1.514,1.634,18.611,18.611,0,0,0,2.134,1.7,18.324,18.324,0,0,0,22.788-1.7Z" fill="#013f20"/>
            <path id="Trazado_892589" data-name="Trazado 892589" d="M28.5,4.907A18.247,18.247,0,0,0,16.038,9.8a1.114,1.114,0,0,0,1.516,1.632,16.092,16.092,0,0,1,21.889,0A1.114,1.114,0,1,0,40.96,9.8,18.243,18.243,0,0,0,28.5,4.907Z" fill="#013f20"/>
            <path id="Trazado_892590" data-name="Trazado 892590" d="M56.686,43.054,48.212,34.58a22.675,22.675,0,0,0,1.049-2.055h.729a3.472,3.472,0,0,0,3.468-3.468v-.8a1.114,1.114,0,1,0-2.228,0v.8a1.242,1.242,0,0,1-1.24,1.24H7.009a1.242,1.242,0,0,1-1.24-1.24V17.394a1.242,1.242,0,0,1,1.24-1.24H49.99a1.242,1.242,0,0,1,1.24,1.24V18.46a1.114,1.114,0,1,0,2.228,0V17.394a3.472,3.472,0,0,0-3.468-3.468h-.729a22.755,22.755,0,0,0-41.524,0H7.009a3.472,3.472,0,0,0-3.468,3.468V29.057a3.472,3.472,0,0,0,3.468,3.468h.728A22.789,22.789,0,0,0,8.786,34.58L.313,43.054A1.127,1.127,0,0,0,1,44.95l9.665.906.905,9.665a1.127,1.127,0,0,0,1.9.684L24.12,45.549a23.013,23.013,0,0,0,8.76,0L43.535,56.2a1.127,1.127,0,0,0,1.9-.684l.905-9.665L56,44.95a1.128,1.128,0,0,0,.684-1.9ZM13.991,8.718a20.534,20.534,0,0,1,32.8,5.209H10.2A20.443,20.443,0,0,1,13.991,8.718Zm-.426,44.236-.771-8.225a1.114,1.114,0,0,0-1.005-1l-8.225-.771L10.02,36.5a22.814,22.814,0,0,0,11.59,8.413Zm10.424-9.708a20.663,20.663,0,0,1-12.856-9.089l-.009-.013q-.495-.787-.919-1.619H46.795q-.423.832-.92,1.619a20.519,20.519,0,0,1-21.887,9.1Zm21.222.478a1.114,1.114,0,0,0-1.005,1l-.771,8.225-8.043-8.043a22.894,22.894,0,0,0,11.585-8.418l6.459,6.459Z" fill="#013f20"/>
            <path id="Trazado_892591" data-name="Trazado 892591" d="M17.628,19.093v8.266a1.114,1.114,0,1,0,2.228,0V19.093a1.114,1.114,0,1,0-2.228,0Z" fill="#013f20"/>
            <path id="Trazado_892592" data-name="Trazado 892592" d="M26.185,26.245a2.8,2.8,0,0,1-2.055-.859,1.114,1.114,0,0,0-1.65,1.5,4.988,4.988,0,0,0,3.706,1.591,3.489,3.489,0,0,0,3.557-2.709c.212-1.185-.322-2.731-2.454-3.517-1-.369-1.935-.772-2.236-.9a.5.5,0,0,1-.165-.457.753.753,0,0,1,.6-.6,2.674,2.674,0,0,1,2.2.511,1.114,1.114,0,0,0,1.427-1.711,4.9,4.9,0,0,0-4.27-.934,2.987,2.987,0,0,0-2.163,2.413,2.707,2.707,0,0,0,1.208,2.68,1.121,1.121,0,0,0,.154.084c.048.021,1.189.529,2.473,1,.268.1,1.134.466,1.032,1.036a1.315,1.315,0,0,1-1.365.873Z" fill="#013f20"/>
            <path id="Trazado_892593" data-name="Trazado 892593" d="M31.105,23.226a5.247,5.247,0,1,0,5.247-5.247A5.252,5.252,0,0,0,31.105,23.226Zm8.266,0a3.019,3.019,0,1,1-3.019-3.019A3.022,3.022,0,0,1,39.371,23.226Z" fill="#013f20"/>
            <path id="Trazado_892594" data-name="Trazado 892594" d="M53.372,22.8a1.113,1.113,0,1,0-.6,1.455A1.123,1.123,0,0,0,53.372,22.8Z" fill="#013f20"/>
          </g>
        </g>
      </g>
    </g>
  </g>
</svg>
