<svg xmlns="http://www.w3.org/2000/svg" xmlns:xlink="http://www.w3.org/1999/xlink" width="85" height="85" viewBox="0 0 85 85">
  <defs>
    <clipPath id="clip-path">
      <rect id="Rectángulo_401588" data-name="Rectángulo 401588" width="85" height="85" transform="translate(180 399)" fill="#f35923" stroke="#707070" stroke-width="1"/>
    </clipPath>
  </defs>
  <g id="Grupo_1102057" data-name="Grupo 1102057" transform="translate(-180 -399)">
    <g id="Enmascarar_grupo_1098817" data-name="Enmascarar grupo 1098817" clip-path="url(#clip-path)">
      <g id="gestion-energetica" transform="translate(178.623 397.623)">
        <g id="Grupo_1101972" data-name="Grupo 1101972">
          <g id="Grupo_1101970" data-name="Grupo 1101970">
            <path id="Trazado_892584" data-name="Trazado 892584" d="M68.979,33.9a5.95,5.95,0,0,0-4.2,10.151,1.768,1.768,0,0,1,0,2.5l-3.8,3.8a1.768,1.768,0,0,1-2.5,0,5.95,5.95,0,0,0-10.151,4.2,1.763,1.763,0,0,1-1.764,1.764H41.19a1.763,1.763,0,0,1-1.764-1.764,5.947,5.947,0,0,0-10.151-4.2,1.764,1.764,0,0,1-2.494,0l-3.8-3.8a1.768,1.768,0,0,1,0-2.5,5.949,5.949,0,0,0-4.2-10.151,1.765,1.765,0,0,1-1.764-1.764V26.761A1.765,1.765,0,0,1,18.774,25a5.949,5.949,0,0,0,4.2-10.151,1.764,1.764,0,0,1,0-2.494l3.8-3.8a1.764,1.764,0,0,1,2.494,0,5.949,5.949,0,0,0,10.151-4.2A1.765,1.765,0,0,1,41.19,2.581h5.372a1.765,1.765,0,0,1,1.764,1.764,5.949,5.949,0,0,0,10.151,4.2,1.768,1.768,0,0,1,2.5,0l3.8,3.8a1.764,1.764,0,0,1,0,2.494A5.95,5.95,0,0,0,68.979,25a1.763,1.763,0,0,1,1.764,1.764v5.372A1.763,1.763,0,0,1,68.979,33.9Z" fill="#fdcd56" fill-rule="evenodd"/>
            <path id="Trazado_892585" data-name="Trazado 892585" d="M43.878,43.936A14.487,14.487,0,1,0,29.391,29.449,14.517,14.517,0,0,0,43.878,43.936Z" fill="#f4f6f8" fill-rule="evenodd"/>
            <path id="Trazado_892586" data-name="Trazado 892586" d="M45.139,22.685a.86.86,0,0,0-1.568-.592L39.208,28.6a.861.861,0,0,0,.411,1.284L42.846,31.1a.86.86,0,0,1,.516,1.068l-1.042,3.242a.86.86,0,0,0,1.491.8l4.672-5.838a.86.86,0,0,0-.293-1.31l-3.1-1.52a.86.86,0,0,1-.474-.885l.525-3.975Z" fill="#f5b945" fill-rule="evenodd"/>
          </g>
          <g id="Grupo_1101971" data-name="Grupo 1101971">
            <circle id="Elipse_11575" data-name="Elipse 11575" cx="2.718" cy="2.718" r="2.718" transform="translate(20.374 60.743)" fill="#66d4f1"/>
            <circle id="Elipse_11576" data-name="Elipse 11576" cx="2.718" cy="2.718" r="2.718" transform="translate(20.374 70.239)" fill="#66d4f1"/>
            <circle id="Elipse_11577" data-name="Elipse 11577" cx="2.718" cy="2.718" r="2.718" transform="translate(20.374 79.735)" fill="#66d4f1"/>
          </g>
        </g>
        <path id="Trazado_892587" data-name="Trazado 892587" d="M68.979,35.1A4.744,4.744,0,0,0,65.626,43.2a2.974,2.974,0,0,1,0,4.2l-3.8,3.8a2.973,2.973,0,0,1-4.2,0,4.744,4.744,0,0,0-8.1,3.353,2.966,2.966,0,0,1-2.969,2.969H41.19a2.966,2.966,0,0,1-2.969-2.969,4.743,4.743,0,0,0-8.1-3.353,2.968,2.968,0,0,1-4.2,0l-3.8-3.8a2.974,2.974,0,0,1,0-4.2A4.744,4.744,0,0,0,18.775,35.1a2.969,2.969,0,0,1-2.969-2.969V26.761a2.969,2.969,0,0,1,2.969-2.969A4.744,4.744,0,0,0,22.127,15.7a2.969,2.969,0,0,1,0-4.2l3.8-3.8a2.969,2.969,0,0,1,4.2,0,4.744,4.744,0,0,0,8.1-3.353A2.969,2.969,0,0,1,41.19,1.377h5.372a2.969,2.969,0,0,1,2.969,2.969,4.744,4.744,0,0,0,8.1,3.353,2.973,2.973,0,0,1,4.2,0l3.8,3.8a2.969,2.969,0,0,1,0,4.2,4.744,4.744,0,0,0,3.353,8.095,2.966,2.966,0,0,1,2.969,2.969v5.372A2.966,2.966,0,0,1,68.979,35.1Zm0-2.409a.559.559,0,0,0,.56-.56V26.761a.559.559,0,0,0-.56-.56,7.155,7.155,0,0,1-5.056-12.207.559.559,0,0,0,0-.791l-3.8-3.8a.562.562,0,0,0-.794,0A7.154,7.154,0,0,1,47.123,4.345a.56.56,0,0,0-.56-.56H41.19a.56.56,0,0,0-.56.56A7.154,7.154,0,0,1,28.423,9.4a.56.56,0,0,0-.791,0l-3.8,3.8a.559.559,0,0,0,0,.791A7.154,7.154,0,0,1,18.775,26.2a.56.56,0,0,0-.56.56v5.372a.56.56,0,0,0,.56.56A7.154,7.154,0,0,1,23.831,44.9a.562.562,0,0,0,0,.794l3.8,3.8a.559.559,0,0,0,.791,0,7.152,7.152,0,0,1,12.207,5.056.559.559,0,0,0,.56.56h5.372a.559.559,0,0,0,.56-.56A7.155,7.155,0,0,1,59.33,49.493a.562.562,0,0,0,.794,0l3.8-3.8a.562.562,0,0,0,0-.794,7.155,7.155,0,0,1,5.056-12.207ZM43.878,45.14A15.691,15.691,0,1,1,59.569,29.449,15.722,15.722,0,0,1,43.878,45.14Zm0-2.409A13.282,13.282,0,1,0,30.6,29.449,13.31,13.31,0,0,0,43.878,42.731Zm2.937-23.538-.975,7.379,3.843,1.883a1.2,1.2,0,0,1,.41,1.834L41.829,40.615a1.2,1.2,0,0,1-2.087-1.121l2.373-7.381L38.179,30.63a1.2,1.2,0,0,1-.576-1.8l7.018-10.467a1.2,1.2,0,0,1,2.195.829Zm-3.063,4.793-3.3,4.925,3.587,1.352a1.2,1.2,0,0,1,.722,1.5L44.038,34l3.235-4.042L44,28.354a1.2,1.2,0,0,1-.664-1.239ZM23.093,59.539a3.923,3.923,0,1,1-3.923,3.923A3.925,3.925,0,0,1,23.093,59.539Zm0,2.409a1.514,1.514,0,1,0,1.514,1.514A1.515,1.515,0,0,0,23.093,61.948Zm0,7.087a3.923,3.923,0,1,1-3.923,3.923A3.925,3.925,0,0,1,23.093,69.035Zm0,2.409a1.514,1.514,0,1,0,1.514,1.514A1.515,1.515,0,0,0,23.093,71.444Zm0,7.087a3.923,3.923,0,1,1-3.923,3.923A3.925,3.925,0,0,1,23.093,78.531Zm0,2.409a1.514,1.514,0,1,0,1.514,1.514A1.515,1.515,0,0,0,23.093,80.94Zm6.87-16.274a1.2,1.2,0,1,1,0-2.409H67.379a1.2,1.2,0,1,1,0,2.409Zm0,9.5a1.2,1.2,0,1,1,0-2.409H67.379a1.2,1.2,0,0,1,0,2.409Zm0,9.5a1.2,1.2,0,0,1,0-2.409H67.379a1.2,1.2,0,0,1,0,2.409Z" fill-rule="evenodd"/>
      </g>
    </g>
  </g>
</svg>
