<svg xmlns="http://www.w3.org/2000/svg" xmlns:xlink="http://www.w3.org/1999/xlink" width="85" height="85" viewBox="0 0 85 85">
  <defs>
    <clipPath id="clip-path">
      <rect id="Rectángulo_401665" data-name="Rectángulo 401665" width="53.617" height="53.617" transform="translate(434.466 1136.66)" fill="#fff" stroke="#707070" stroke-width="1"/>
    </clipPath>
  </defs>
  <g id="Grupo_1102058" data-name="Grupo 1102058" transform="translate(-600 -941.201)">
    <g id="Grupo_1101593" data-name="Grupo 1101593" transform="translate(181 -179.799)">
      <path id="Trazado_824488" data-name="Trazado 824488" d="M42.5,0A42.5,42.5,0,1,1,0,42.5,42.5,42.5,0,0,1,42.5,0Z" transform="translate(419 1121)" fill="#f35923"/>
      <g id="Enmascarar_grupo_1098808" data-name="Enmascarar grupo 1098808" clip-path="url(#clip-path)">
        <g id="computer" transform="translate(432.679 1134.873)">
          <path id="Trazado_891517" data-name="Trazado 891517" d="M54.51,15.191V40.213H2.681V15.191A1.793,1.793,0,0,1,4.468,13.4H52.723A1.793,1.793,0,0,1,54.51,15.191Z" fill="#57a4ff"/>
          <path id="Trazado_891518" data-name="Trazado 891518" d="M54.51,15.191V40.213H2.681V36.638H40.213A10.723,10.723,0,0,0,50.936,25.915V15.191A1.793,1.793,0,0,0,49.149,13.4h3.574A1.793,1.793,0,0,1,54.51,15.191Z" fill="#2488ff"/>
          <path id="Trazado_891519" data-name="Trazado 891519" d="M47.361,24.128h3.574V36.638H47.361Z" fill="#ff7956"/>
          <path id="Trazado_891520" data-name="Trazado 891520" d="M40.213,25.915h3.574V36.638H40.213Z" fill="#ffde55"/>
          <path id="Trazado_891521" data-name="Trazado 891521" d="M39.319,54.51H17.872l2.681-3.574H36.638Z" fill="#c6c5ca"/>
          <path id="Trazado_891522" data-name="Trazado 891522" d="M33.064,29.489h3.574v7.149H33.064Z" fill="#00ddc2"/>
          <path id="Trazado_891523" data-name="Trazado 891523" d="M35.03,5.9a8.01,8.01,0,0,1,1.609,4.826,7.384,7.384,0,0,1-.054.894H28.6V2.681A8.035,8.035,0,0,1,35.03,5.9Z" fill="#ff7956"/>
          <path id="Trazado_891524" data-name="Trazado 891524" d="M23.073,16.568A8.041,8.041,0,0,1,28.6,2.681v8.936h7.989a7.534,7.534,0,0,1-.411,1.787,8.036,8.036,0,0,1-13.1,3.163Z" fill="#ffde55"/>
          <path id="Trazado_891525" data-name="Trazado 891525" d="M36.584,14.3a7.534,7.534,0,0,1-.411,1.787A8.04,8.04,0,0,1,20.553,13.4a8.305,8.305,0,0,1,.107-1.34,8.208,8.208,0,0,0,.357,1.34,7.9,7.9,0,0,0,2.055,3.163A8.029,8.029,0,0,0,35.789,14.3Z" fill="#2488ff"/>
          <path id="Trazado_891526" data-name="Trazado 891526" d="M34.851,50.936H22.34l.894-5.362H33.957Z" fill="#57a4ff"/>
          <path id="Trazado_891527" data-name="Trazado 891527" d="M54.51,40.213v3.574a1.793,1.793,0,0,1-1.787,1.787H4.468a1.793,1.793,0,0,1-1.787-1.787V40.213Z" fill="#c6c5ca"/>
          <path id="Trazado_891528" data-name="Trazado 891528" d="M23.234,45.574H33.957v2.681H23.234Z" fill="#2488ff"/>
          <path id="Trazado_891529" data-name="Trazado 891529" d="M10.723,21.447h4.468a4.468,4.468,0,1,1-4.468-4.468Z" fill="#ffde55"/>
          <path id="Trazado_891530" data-name="Trazado 891530" d="M33.064,29.489h3.574v7.149H33.064Z" fill="#00d7df"/>
          <path id="Trazado_891531" data-name="Trazado 891531" d="M47.361,24.128h3.574v1.787H47.361Z" fill="#ff5023"/>
          <path id="Trazado_891532" data-name="Trazado 891532" d="M40.213,25.915h3.574V27.7H40.213Z" fill="#ebbf00"/>
          <path id="Trazado_891533" data-name="Trazado 891533" d="M33.064,29.489h3.574v1.787H33.064Z" fill="#009698"/>
          <path id="Trazado_891534" data-name="Trazado 891534" d="M52.723,12.511H37.353a9.115,9.115,0,0,0,.179-1.787,8.9,8.9,0,0,0-1.3-4.611l3.378-2.538h6.854V1.787H39.319a.879.879,0,0,0-.536.179L35.164,4.683a8.9,8.9,0,0,0-13.136,0L18.408,1.966a.879.879,0,0,0-.536-.179H10.723V3.574h6.854l3.378,2.538a8.9,8.9,0,0,0-1.3,4.611,9.115,9.115,0,0,0,.179,1.787H4.468a2.689,2.689,0,0,0-2.681,2.681v28.6a2.689,2.689,0,0,0,2.681,2.681H22.34v3.574H19.659a.906.906,0,0,0-.715.357l-2.681,3.574a.894.894,0,0,0,.715,1.43H40.213a.894.894,0,0,0,.715-1.43L38.247,50.4a.906.906,0,0,0-.715-.357H34.851V46.468H52.723A2.689,2.689,0,0,0,55.4,43.787v-28.6a2.689,2.689,0,0,0-2.681-2.681ZM29.489,3.637a7.129,7.129,0,0,1,4.236,2.118L31.634,7.328l1.072,1.43L34.8,7.185a7.1,7.1,0,0,1,.947,3.539H29.489Zm-7.1,3.548,2.091,1.573,1.072-1.43L23.466,5.755A7.129,7.129,0,0,1,27.7,3.637v7.98a.894.894,0,0,0,.894.894h6.917A7.144,7.144,0,1,1,22.394,7.185ZM37.085,51.829l1.34,1.787H18.766l1.34-1.787ZM24.128,50.042V46.468h8.936v3.574Zm29.489-6.255a.894.894,0,0,1-.894.894H4.468a.894.894,0,0,1-.894-.894V41.106H53.617Zm0-4.468H3.574V15.191a.894.894,0,0,1,.894-.894H20.41a8.929,8.929,0,0,0,16.371,0H52.723a.894.894,0,0,1,.894.894Z"/>
          <path id="Trazado_891535" data-name="Trazado 891535" d="M48.255,1.787h3.574V3.574H48.255Z"/>
          <path id="Trazado_891536" data-name="Trazado 891536" d="M39.319,5.362h1.787V7.149H39.319Z"/>
          <path id="Trazado_891537" data-name="Trazado 891537" d="M42.893,5.362h8.936V7.149H42.893Z"/>
          <path id="Trazado_891538" data-name="Trazado 891538" d="M39.319,8.936h7.149v1.787H39.319Z"/>
          <path id="Trazado_891539" data-name="Trazado 891539" d="M48.255,8.936h3.574v1.787H48.255Z"/>
          <path id="Trazado_891540" data-name="Trazado 891540" d="M5.362,1.787H8.936V3.574H5.362Z"/>
          <path id="Trazado_891541" data-name="Trazado 891541" d="M16.085,5.362h1.787V7.149H16.085Z"/>
          <path id="Trazado_891542" data-name="Trazado 891542" d="M5.362,5.362H14.3V7.149H5.362Z"/>
          <path id="Trazado_891543" data-name="Trazado 891543" d="M10.723,8.936h7.149v1.787H10.723Z"/>
          <path id="Trazado_891544" data-name="Trazado 891544" d="M5.362,8.936H8.936v1.787H5.362Z"/>
          <path id="Trazado_891545" data-name="Trazado 891545" d="M5.362,28.6H9.83v1.787H5.362Z"/>
          <path id="Trazado_891546" data-name="Trazado 891546" d="M11.617,28.6H28.6v1.787H11.617Z"/>
          <path id="Trazado_891547" data-name="Trazado 891547" d="M5.362,32.17h14.3v1.787H5.362Z"/>
          <path id="Trazado_891548" data-name="Trazado 891548" d="M21.447,32.17H28.6v1.787H21.447Z"/>
          <path id="Trazado_891549" data-name="Trazado 891549" d="M5.362,35.744H14.3v1.787H5.362Z"/>
          <path id="Trazado_891550" data-name="Trazado 891550" d="M16.085,35.744H28.6v1.787H16.085Z"/>
          <path id="Trazado_891551" data-name="Trazado 891551" d="M33.064,37.532h3.574a.894.894,0,0,0,.894-.894V29.489a.894.894,0,0,0-.894-.894H33.064a.894.894,0,0,0-.894.894v7.149A.894.894,0,0,0,33.064,37.532Zm.894-7.149h1.787v5.362H33.957Z"/>
          <path id="Trazado_891552" data-name="Trazado 891552" d="M43.787,25.021H40.213a.894.894,0,0,0-.894.894V36.638a.894.894,0,0,0,.894.894h3.574a.894.894,0,0,0,.894-.894V25.915A.894.894,0,0,0,43.787,25.021Zm-.894,10.723H41.106V26.808h1.787Z"/>
          <path id="Trazado_891553" data-name="Trazado 891553" d="M50.936,23.234H47.361a.894.894,0,0,0-.894.894V36.638a.894.894,0,0,0,.894.894h3.574a.894.894,0,0,0,.894-.894V24.128A.894.894,0,0,0,50.936,23.234Zm-.894,12.511H48.255V25.021h1.787Z"/>
          <path id="Trazado_891554" data-name="Trazado 891554" d="M10.723,26.808a5.367,5.367,0,0,0,5.362-5.362.894.894,0,0,0-.894-.894H11.617V16.979a.894.894,0,0,0-.894-.894,5.362,5.362,0,0,0,0,10.723ZM9.83,17.985v3.462a.894.894,0,0,0,.894.894h3.461A3.574,3.574,0,1,1,9.83,17.985Z"/>
          <path id="Trazado_891555" data-name="Trazado 891555" d="M17.872,21.447h1.787v1.787H17.872Z"/>
          <path id="Trazado_891556" data-name="Trazado 891556" d="M21.447,21.447H28.6v1.787H21.447Z"/>
          <path id="Trazado_891557" data-name="Trazado 891557" d="M17.872,25.021H28.6v1.787H17.872Z"/>
          <path id="Trazado_891558" data-name="Trazado 891558" d="M37.442,26.314l1.535-3.08h4.809a.894.894,0,0,0,.687-.322l4.2-5.04h3.155V16.085H48.255a.894.894,0,0,0-.687.322l-4.2,5.04H38.425a.894.894,0,0,0-.8.494l-1.535,3.08H32.17v1.787h4.468a.894.894,0,0,0,.8-.494Z"/>
        </g>
      </g>
    </g>
  </g>
</svg>
