<svg xmlns="http://www.w3.org/2000/svg" xmlns:xlink="http://www.w3.org/1999/xlink" width="85" height="85" viewBox="0 0 85 85">
  <defs>
    <clipPath id="clip-path">
      <rect id="Rectángulo_401665" data-name="Rectángulo 401665" width="53.617" height="53.617" transform="translate(434.466 1136.66)" fill="#fff" stroke="#707070" stroke-width="1"/>
    </clipPath>
  </defs>
  <g id="Grupo_1102059" data-name="Grupo 1102059" transform="translate(-915 -941.201)">
    <g id="Grupo_1101594" data-name="Grupo 1101594" transform="translate(496 -179.799)">
      <path id="Trazado_824488" data-name="Trazado 824488" d="M42.5,0A42.5,42.5,0,1,1,0,42.5,42.5,42.5,0,0,1,42.5,0Z" transform="translate(419 1121)" fill="#f35923"/>
      <g id="Enmascarar_grupo_1098809" data-name="Enmascarar grupo 1098809" clip-path="url(#clip-path)">
        <g id="mecanico" transform="translate(434.501 1136.667)">
          <g id="Grupo_1101792" data-name="Grupo 1101792">
            <path id="Trazado_891559" data-name="Trazado 891559" d="M37.423,32.151H34.238a12.748,12.748,0,0,0-.949-2.288l2.253-2.253a1.47,1.47,0,0,0,0-2.08L32.33,22.318a1.47,1.47,0,0,0-2.08,0L28,24.571a12.745,12.745,0,0,0-2.288-.949V20.437a1.47,1.47,0,0,0-1.47-1.47H19.695a1.47,1.47,0,0,0-1.47,1.47v3.185a12.748,12.748,0,0,0-2.288.949l-2.253-2.253a1.47,1.47,0,0,0-2.08,0L8.391,25.531a1.471,1.471,0,0,0,0,2.08l2.253,2.253A12.745,12.745,0,0,0,9.7,32.151H6.51a1.47,1.47,0,0,0-1.47,1.47v4.543a1.47,1.47,0,0,0,1.47,1.47H9.7a12.748,12.748,0,0,0,.949,2.288L8.391,44.177a1.47,1.47,0,0,0,0,2.079L11.6,49.469a1.47,1.47,0,0,0,2.08,0l2.253-2.253a12.745,12.745,0,0,0,2.288.949V51.35a1.47,1.47,0,0,0,1.47,1.47h4.543a1.47,1.47,0,0,0,1.47-1.47V48.165A12.745,12.745,0,0,0,28,47.216l2.253,2.253a1.47,1.47,0,0,0,2.08,0l3.213-3.213a1.47,1.47,0,0,0,0-2.079l-2.253-2.253a12.748,12.748,0,0,0,.949-2.288h3.185a1.47,1.47,0,0,0,1.47-1.47V33.622A1.47,1.47,0,0,0,37.423,32.151ZM21.967,40.959a5.066,5.066,0,1,1,5.066-5.066A5.066,5.066,0,0,1,21.967,40.959Z" fill="#a79ba7"/>
            <path id="Trazado_891560" data-name="Trazado 891560" d="M22.456,13.751,19.94,12.5a6.8,6.8,0,0,0,0-1.808l2.516-1.256a.893.893,0,0,0,.4-1.2l-1.233-2.47a.893.893,0,0,0-1.2-.4L17.909,6.619a6.96,6.96,0,0,0-2.6-1.608V2.2a.893.893,0,0,0-.893-.893h-2.76a.893.893,0,0,0-.893.893V5.011a6.96,6.96,0,0,0-2.6,1.608L5.651,5.364a.893.893,0,0,0-1.2.4L3.22,8.234a.893.893,0,0,0,.4,1.2l2.516,1.256a6.8,6.8,0,0,0,0,1.808L3.621,13.751a.893.893,0,0,0-.4,1.2l1.233,2.47a.893.893,0,0,0,1.2.4l2.516-1.256a6.96,6.96,0,0,0,2.6,1.608v2.811a.893.893,0,0,0,.893.893h2.76a.893.893,0,0,0,.893-.893V18.172a6.96,6.96,0,0,0,2.6-1.608l2.516,1.256a.893.893,0,0,0,1.2-.4l1.233-2.47A.894.894,0,0,0,22.456,13.751Zm-9.418.538a2.7,2.7,0,1,1,2.7-2.7A2.7,2.7,0,0,1,13.038,14.29Z" fill="#b5adb6"/>
            <path id="Trazado_891561" data-name="Trazado 891561" d="M46.085,50.685l-5.248,2.086a.51.51,0,0,1-.728-.429l-.7-5.6a.51.51,0,0,1,.768-.471l1.562.923a17.7,17.7,0,0,0-.352-20,1.585,1.585,0,0,1,.256-2.135h0a1.581,1.581,0,0,1,2.307.288A20.862,20.862,0,0,1,44.458,48.8l1.667.985A.511.511,0,0,1,46.085,50.685Z" fill="#99e6fc"/>
            <path id="Trazado_891562" data-name="Trazado 891562" d="M46.084,50.685,40.837,52.77a.509.509,0,0,1-.728-.429l-.075-.6,5.31-2.069a.5.5,0,0,0,.229-.218l.553.327A.51.51,0,0,1,46.084,50.685Z" fill="#62dbfb"/>
            <path id="Trazado_891563" data-name="Trazado 891563" d="M49.3,8.285H45.191V1.372a.586.586,0,0,0-1.127-.226l-4.07,9.738a1.174,1.174,0,0,0,1.083,1.627h4.113v6.913a.586.586,0,0,0,1.127.226l4.07-9.738A1.174,1.174,0,0,0,49.3,8.285Z" fill="#fee97d"/>
            <g id="Grupo_1101788" data-name="Grupo 1101788">
              <path id="Trazado_891564" data-name="Trazado 891564" d="M49.3,8.285H46.682a1.174,1.174,0,0,1,1.083,1.627L45.191,16.07v3.353a.586.586,0,0,0,1.127.226l4.07-9.738A1.174,1.174,0,0,0,49.3,8.285Z" fill="#fcdd5b"/>
            </g>
            <path id="Trazado_891565" data-name="Trazado 891565" d="M21.967,27.682a8.211,8.211,0,1,0,8.211,8.211A8.221,8.221,0,0,0,21.967,27.682Zm0,13.277a5.066,5.066,0,1,1,5.066-5.066A5.066,5.066,0,0,1,21.967,40.959Z" fill="#6c7fd8"/>
            <g id="Grupo_1101789" data-name="Grupo 1101789">
              <path id="Trazado_891566" data-name="Trazado 891566" d="M21.967,27.682a8.217,8.217,0,0,0-1.574.153,8.224,8.224,0,0,1,6.63,7.75,4.768,4.768,0,0,1,0,.616,8.224,8.224,0,0,1-6.63,7.75,8.211,8.211,0,1,0,1.574-16.269Z" fill="#4f66d0"/>
            </g>
            <g id="Grupo_1101790" data-name="Grupo 1101790">
              <path id="Trazado_891567" data-name="Trazado 891567" d="M25.709,20.658v-.221a1.47,1.47,0,0,0-1.47-1.47H21.433A17.327,17.327,0,0,1,25.709,20.658Z" fill="#918291"/>
              <path id="Trazado_891568" data-name="Trazado 891568" d="M33.5,29.65l2.04-2.04a1.47,1.47,0,0,0,0-2.08L32.33,22.318a1.47,1.47,0,0,0-2.08,0l-.976.976A17.461,17.461,0,0,1,33.5,29.65Z" fill="#918291"/>
              <path id="Trazado_891569" data-name="Trazado 891569" d="M33.5,42.136a17.462,17.462,0,0,1-4.23,6.355l.979.979a1.47,1.47,0,0,0,2.08,0l3.213-3.213a1.47,1.47,0,0,0,0-2.079Z" fill="#918291"/>
              <path id="Trazado_891570" data-name="Trazado 891570" d="M21.411,52.821h2.828a1.47,1.47,0,0,0,1.47-1.47v-.226A17.325,17.325,0,0,1,21.411,52.821Z" fill="#918291"/>
              <path id="Trazado_891571" data-name="Trazado 891571" d="M37.423,32.151H34.251a17.539,17.539,0,0,1,0,7.484h3.174a1.47,1.47,0,0,0,1.47-1.47V33.622A1.47,1.47,0,0,0,37.423,32.151Z" fill="#918291"/>
            </g>
            <g id="Grupo_1101791" data-name="Grupo 1101791">
              <path id="Trazado_891572" data-name="Trazado 891572" d="M20.652,10.332l1.8-.9a.893.893,0,0,0,.4-1.2l-1.233-2.47a.893.893,0,0,0-1.2-.4l-1.33.664A10.221,10.221,0,0,1,20.652,10.332Z" fill="#a79ba7"/>
              <path id="Trazado_891573" data-name="Trazado 891573" d="M15.312,2.53V2.2a.893.893,0,0,0-.893-.893h-2.76a.893.893,0,0,0-.274.043A10.22,10.22,0,0,1,15.312,2.53Z" fill="#a79ba7"/>
              <path id="Trazado_891574" data-name="Trazado 891574" d="M11.384,21.833a.893.893,0,0,0,.274.043h2.76a.893.893,0,0,0,.893-.893v-.329A10.218,10.218,0,0,1,11.384,21.833Z" fill="#a79ba7"/>
              <path id="Trazado_891575" data-name="Trazado 891575" d="M22.456,13.751l-1.8-.9a10.221,10.221,0,0,1-1.557,4.3l1.33.664a.893.893,0,0,0,1.2-.4l1.233-2.47A.893.893,0,0,0,22.456,13.751Z" fill="#a79ba7"/>
            </g>
          </g>
          <g id="Grupo_1101797" data-name="Grupo 1101797">
            <g id="Grupo_1101794" data-name="Grupo 1101794">
              <line id="Línea_603" data-name="Línea 603" transform="translate(29.862 16.604)" fill="none" stroke="#000" stroke-linecap="round" stroke-linejoin="round" stroke-miterlimit="10" stroke-width="1.57"/>
              <g id="Grupo_1101793" data-name="Grupo 1101793">
                <line id="Línea_604" data-name="Línea 604" y2="3.453" transform="translate(34.464 10.398)" fill="none" stroke="#000" stroke-linecap="round" stroke-linejoin="round" stroke-miterlimit="10" stroke-width="1.57"/>
                <line id="Línea_605" data-name="Línea 605" x1="3.453" transform="translate(32.737 12.124)" fill="none" stroke="#000" stroke-linecap="round" stroke-linejoin="round" stroke-miterlimit="10" stroke-width="1.57"/>
              </g>
            </g>
            <g id="Grupo_1101795" data-name="Grupo 1101795">
              <path id="Trazado_891576" data-name="Trazado 891576" d="M37.423,32.151H34.238a12.748,12.748,0,0,0-.949-2.288l2.253-2.253a1.471,1.471,0,0,0,0-2.08L32.33,22.318a1.47,1.47,0,0,0-2.08,0L28,24.571a12.745,12.745,0,0,0-2.288-.949V20.437a1.47,1.47,0,0,0-1.47-1.47H19.695a1.47,1.47,0,0,0-1.47,1.47v3.185a12.748,12.748,0,0,0-2.288.949l-2.253-2.253a1.47,1.47,0,0,0-2.08,0L8.391,25.531a1.47,1.47,0,0,0,0,2.08l2.253,2.253A12.745,12.745,0,0,0,9.7,32.151H6.51a1.47,1.47,0,0,0-1.47,1.47v4.543a1.47,1.47,0,0,0,1.47,1.47H9.7a12.748,12.748,0,0,0,.949,2.288L8.391,44.177a1.47,1.47,0,0,0,0,2.079L11.6,49.469a1.47,1.47,0,0,0,2.08,0l2.253-2.253a12.745,12.745,0,0,0,2.288.949V51.35a1.47,1.47,0,0,0,1.47,1.47h4.543a1.47,1.47,0,0,0,1.47-1.47V48.165A12.748,12.748,0,0,0,28,47.216l2.253,2.253a1.47,1.47,0,0,0,2.08,0l3.213-3.213a1.47,1.47,0,0,0,0-2.079l-2.253-2.253a12.745,12.745,0,0,0,.949-2.288h3.185a1.47,1.47,0,0,0,1.47-1.47V33.622A1.47,1.47,0,0,0,37.423,32.151Z" fill="none" stroke="#000" stroke-linecap="round" stroke-linejoin="round" stroke-miterlimit="10" stroke-width="1.57"/>
              <circle id="Elipse_11571" data-name="Elipse 11571" cx="8.211" cy="8.211" r="8.211" transform="translate(13.755 27.682)" fill="none" stroke="#000" stroke-linecap="round" stroke-linejoin="round" stroke-miterlimit="10" stroke-width="1.57"/>
              <path id="Trazado_891577" data-name="Trazado 891577" d="M23.77,31.158a5.066,5.066,0,1,1-3.654.018" fill="none" stroke="#000" stroke-linecap="round" stroke-linejoin="round" stroke-miterlimit="10" stroke-width="1.57"/>
            </g>
            <g id="Grupo_1101796" data-name="Grupo 1101796">
              <circle id="Elipse_11572" data-name="Elipse 11572" cx="2.698" cy="2.698" r="2.698" transform="translate(10.34 8.893)" fill="none" stroke="#000" stroke-linecap="round" stroke-linejoin="round" stroke-miterlimit="10" stroke-width="1.57"/>
              <path id="Trazado_891578" data-name="Trazado 891578" d="M22.456,13.751,19.94,12.5a6.8,6.8,0,0,0,0-1.808l2.516-1.256a.893.893,0,0,0,.4-1.2l-1.233-2.47a.893.893,0,0,0-1.2-.4L17.909,6.619a6.96,6.96,0,0,0-2.6-1.608V2.2a.893.893,0,0,0-.893-.893h-2.76a.893.893,0,0,0-.893.893V5.011a6.961,6.961,0,0,0-2.6,1.608L5.651,5.363a.893.893,0,0,0-1.2.4L3.22,8.234a.893.893,0,0,0,.4,1.2l2.516,1.256a6.8,6.8,0,0,0,0,1.808L3.621,13.751a.893.893,0,0,0-.4,1.2l1.233,2.47a.893.893,0,0,0,1.2.4l2.516-1.256a6.96,6.96,0,0,0,2.6,1.608v2.811a.893.893,0,0,0,.893.893h2.76a.893.893,0,0,0,.893-.893V18.172a6.961,6.961,0,0,0,2.6-1.608l2.516,1.256a.893.893,0,0,0,1.2-.4l1.233-2.47A.894.894,0,0,0,22.456,13.751Z" fill="none" stroke="#000" stroke-linecap="round" stroke-linejoin="round" stroke-miterlimit="10" stroke-width="1.57"/>
            </g>
            <path id="Trazado_891579" data-name="Trazado 891579" d="M44.458,48.8l1.667.985a.51.51,0,0,1-.041.9l-5.248,2.086a.51.51,0,0,1-.728-.429l-.7-5.6a.51.51,0,0,1,.768-.471l1.562.923a17.7,17.7,0,0,0-.352-20,1.585,1.585,0,0,1,.256-2.135h0a1.581,1.581,0,0,1,2.307.288,20.852,20.852,0,0,1,2.243,20.183" fill="none" stroke="#000" stroke-linecap="round" stroke-linejoin="round" stroke-miterlimit="10" stroke-width="1.57"/>
            <path id="Trazado_891580" data-name="Trazado 891580" d="M49.3,8.285H45.191V1.372a.586.586,0,0,0-1.127-.226l-4.07,9.738a1.174,1.174,0,0,0,1.083,1.627h4.113v6.913a.586.586,0,0,0,1.127.226l4.07-9.738A1.174,1.174,0,0,0,49.3,8.285Z" fill="none" stroke="#000" stroke-linecap="round" stroke-linejoin="round" stroke-miterlimit="10" stroke-width="1.57"/>
          </g>
        </g>
      </g>
    </g>
  </g>
</svg>
