<svg xmlns="http://www.w3.org/2000/svg" xmlns:xlink="http://www.w3.org/1999/xlink" width="85" height="85" viewBox="0 0 85 85">
  <defs>
    <clipPath id="clip-path">
      <rect id="Rectángulo_401458" data-name="Rectángulo 401458" width="61" height="61" transform="translate(296.73 6163)" fill="#e6f0eb" stroke="#707070" stroke-width="1"/>
    </clipPath>
  </defs>
  <g id="Grupo_1102064" data-name="Grupo 1102064" transform="translate(-241.879 -4036.25)">
    <g id="Grupo_1101463" data-name="Grupo 1101463" transform="translate(-42.852 -2114.75)">
      <circle id="Elipse_11499" data-name="Elipse 11499" cx="42.5" cy="42.5" r="42.5" transform="translate(284.73 6151)" fill="#016835"/>
      <g id="Enmascarar_grupo_1098708" data-name="Enmascarar grupo 1098708" clip-path="url(#clip-path)">
        <g id="energia-renovable" transform="translate(296.738 6163.008)">
          <path id="Trazado_881824" data-name="Trazado 881824" d="M30.494,60.985a31.243,31.243,0,0,1-4.316-.3,30.021,30.021,0,0,1-9.724-3.12A30.774,30.774,0,0,1,2.82,43.3,29.991,29.991,0,0,1,.141,33.45a30.372,30.372,0,0,1,5.4-20.457L3.938,11.639a1.848,1.848,0,0,1,.639-3.177l8.788-2.754a1.848,1.848,0,0,1,2.384,2.01l-1.227,9.127A1.847,1.847,0,0,1,11.5,18.013L9.85,16.624A24.861,24.861,0,0,0,27.176,55.161a25.564,25.564,0,0,0,3.317.218,24.649,24.649,0,0,0,9.36-1.837,1.878,1.878,0,0,1,.713-.14,1.842,1.842,0,0,1,1.755,1.264l.6,1.807a1.852,1.852,0,0,1-1.052,2.3A30.192,30.192,0,0,1,30.494,60.985ZM13.92,7.41a.071.071,0,0,0-.021,0L5.111,10.168a.061.061,0,0,0-.021.106l2.24,1.888a.893.893,0,0,1,.14,1.217A28.681,28.681,0,0,0,26.426,58.912a29.323,29.323,0,0,0,4.066.286h0a28.411,28.411,0,0,0,10.7-2.087.066.066,0,0,0,.026-.079l-.6-1.807a.057.057,0,0,0-.059-.037.1.1,0,0,0-.038.008,26.427,26.427,0,0,1-10.035,1.969,27.359,27.359,0,0,1-3.55-.233,26.211,26.211,0,0,1-8.466-2.623A26.94,26.94,0,0,1,6.465,42.084a26.172,26.172,0,0,1-2.471-8.511A26.572,26.572,0,0,1,8.959,14.784a.893.893,0,0,1,1.3-.155l2.394,2.018a.05.05,0,0,0,.035.016.062.062,0,0,0,.065-.054l1.227-9.127a.052.052,0,0,0-.013-.047A.066.066,0,0,0,13.92,7.41Z" fill="#e6f0eb"/>
          <path id="Trazado_881825" data-name="Trazado 881825" d="M47.065,55.361a1.85,1.85,0,0,1-1.829-2.1l1.227-9.127a1.848,1.848,0,0,1,3.023-1.167l1.648,1.389a24.815,24.815,0,0,0-4.041-32.394.893.893,0,1,1,1.193-1.33A26.594,26.594,0,0,1,52.026,46.2a.893.893,0,0,1-1.3.155l-2.394-2.018a.061.061,0,0,0-.1.039L47.007,53.5a.062.062,0,0,0,.079.067l8.788-2.754a.061.061,0,0,0,.021-.106l-2.24-1.888a.893.893,0,0,1-.14-1.217A28.68,28.68,0,0,0,34.559,2.073a28.367,28.367,0,0,0-14.768,1.8.067.067,0,0,0-.026.079l.6,1.807a.045.045,0,0,0,.026.03.085.085,0,0,0,.07,0A26.537,26.537,0,0,1,26.98,4.051a26.944,26.944,0,0,1,7.062,0A26.533,26.533,0,0,1,45.131,8.2a.893.893,0,0,1-.984,1.491A24.8,24.8,0,0,0,21.132,7.443a1.881,1.881,0,0,1-1.494-.031,1.819,1.819,0,0,1-.975-1.093l-.6-1.807a1.852,1.852,0,0,1,1.052-2.3A30.337,30.337,0,0,1,34.807.3a30.022,30.022,0,0,1,9.724,3.12A30.774,30.774,0,0,1,58.165,17.681a29.992,29.992,0,0,1,2.679,9.854,30.371,30.371,0,0,1-5.4,20.457l1.606,1.353a1.848,1.848,0,0,1-.639,3.177L47.62,55.276A1.858,1.858,0,0,1,47.065,55.361Z" fill="#e6f0eb"/>
          <path id="Trazado_881826" data-name="Trazado 881826" d="M27.628,49.527a.894.894,0,0,1-.879-1.051L28.8,37.019a.893.893,0,1,1,1.759.315L29.15,45.2,41.964,28.621a.061.061,0,0,0-.049-.1H33.357a.893.893,0,0,1-.854-1.156l3.439-11.177a.061.061,0,0,0-.059-.08h-9.57a1.021,1.021,0,0,0-.994.807L22.061,32.39a.062.062,0,0,0,.06.074h8.242a.893.893,0,1,1,0,1.787H22.121a1.848,1.848,0,0,1-1.808-2.229L23.57,16.548a2.815,2.815,0,0,1,2.743-2.225h9.57a1.848,1.848,0,0,1,1.766,2.392L34.566,26.735h7.349a1.848,1.848,0,0,1,1.462,2.978L28.335,49.18A.893.893,0,0,1,27.628,49.527Z" fill="#e6f0eb"/>
        </g>
      </g>
    </g>
  </g>
</svg>
