<svg xmlns="http://www.w3.org/2000/svg" xmlns:xlink="http://www.w3.org/1999/xlink" width="295" height="332" viewBox="0 0 295 332">
  <defs>
    <clipPath id="clip-path">
      <rect id="Rectángulo_401617" data-name="Rectángulo 401617" width="79.702" height="52.897" fill="none"/>
    </clipPath>
    <clipPath id="clip-path-2">
      <rect id="Rectángulo_401618" data-name="Rectángulo 401618" width="43.969" height="43.959" fill="#8eb7cc"/>
    </clipPath>
    <clipPath id="clip-path-3">
      <rect id="Rectángulo_401625" data-name="Rectángulo 401625" width="32.983" height="44.311" fill="none"/>
    </clipPath>
    <clipPath id="clip-path-4">
      <rect id="Rectángulo_401626" data-name="Rectángulo 401626" width="17.761" height="17.761" fill="none"/>
    </clipPath>
    <clipPath id="clip-path-5">
      <rect id="Rectángulo_401630" data-name="Rectángulo 401630" width="4.27" height="4.276" fill="none"/>
    </clipPath>
    <clipPath id="clip-path-6">
      <rect id="Rectángulo_401631" data-name="Rectángulo 401631" width="2.772" height="4.278" fill="none"/>
    </clipPath>
  </defs>
  <g id="Grupo_1102065" data-name="Grupo 1102065" transform="translate(-705.051 -4496)">
    <g id="Grupo_1101492" data-name="Grupo 1101492" transform="translate(0 -259)">
      <rect id="Rectángulo_401615" data-name="Rectángulo 401615" width="295" height="332" rx="20" transform="translate(705.051 4755)" fill="#fcded3"/>
      <g id="Grupo_1101487" data-name="Grupo 1101487" transform="translate(739.705 4755)">
        <g id="Grupo_1101489" data-name="Grupo 1101489" transform="translate(0 0.001)">
          <g id="Grupo_1101485" data-name="Grupo 1101485">
            <g id="Grupo_1101488" data-name="Grupo 1101488">
              <path id="Trazado_890590" data-name="Trazado 890590" d="M176.892,1283.045a23.161,23.161,0,0,0,4.849,14.237h37.015a23.353,23.353,0,1,0-41.082-20.225,22.93,22.93,0,0,0-.783,5.989" transform="translate(-136.533 -972.283)" fill="#9dc89e"/>
              <path id="Trazado_890591" data-name="Trazado 890591" d="M275.366,1300.075v27.7h1.78v-27.7a.89.89,0,0,0-1.78,0" transform="translate(-212.539 -1002.775)" fill="#fff"/>
              <path id="Trazado_890592" data-name="Trazado 890592" d="M243.72,1341.5l6.958,5.41,1.779,1.379v-2.251l-1.779-1.388-5.864-4.556a.889.889,0,0,0-1.246.151.9.9,0,0,0,.151,1.255" transform="translate(-187.852 -1034.197)" fill="#fff"/>
              <path id="Trazado_890593" data-name="Trazado 890593" d="M275.366,1319.527v2.26l1.78-1.379,3.417-2.661a.9.9,0,0,0,.151-1.255.889.889,0,0,0-1.246-.151l-2.322,1.806Z" transform="translate(-212.539 -1015.866)" fill="#fff"/>
              <path id="Trazado_890594" data-name="Trazado 890594" d="M275.366,1370.226v2.26l1.78-1.388,7.367-5.73a.888.888,0,1,0-1.086-1.406l-6.282,4.885Z" transform="translate(-212.539 -1052.621)" fill="#fff"/>
              <path id="Trazado_890595" data-name="Trazado 890595" d="M95.55,836.714H4.209A4.21,4.21,0,0,1,0,832.5V667.291a4.209,4.209,0,0,1,4.209-4.209H95.55a4.209,4.209,0,0,1,4.209,4.209V832.5a4.209,4.209,0,0,1-4.209,4.21" transform="translate(0 -511.796)" fill="#8eb7cc"/>
              <path id="Trazado_890596" data-name="Trazado 890596" d="M137.985,836.714H46.644a4.209,4.209,0,0,1-4.209-4.21V667.291a4.209,4.209,0,0,1,4.209-4.209h91.341a4.209,4.209,0,0,1,4.209,4.209V832.5a4.209,4.209,0,0,1-4.209,4.21" transform="translate(-32.753 -511.796)" fill="#b1e5ff"/>
              <path id="Trazado_890597" data-name="Trazado 890597" d="M160.379,761.02H92.113A5.717,5.717,0,0,1,86.4,755.3V713.838a5.717,5.717,0,0,1,5.717-5.717h68.266a5.717,5.717,0,0,1,5.717,5.717V755.3a5.717,5.717,0,0,1-5.717,5.717" transform="translate(-66.684 -546.559)" fill="#eefbff"/>
              <g id="Grupo_1101468" data-name="Grupo 1101468" transform="translate(19.712 161.564)" opacity="0.5">
                <g id="Grupo_1101467" data-name="Grupo 1101467">
                  <g id="Grupo_1101466" data-name="Grupo 1101466" clip-path="url(#clip-path)">
                    <path id="Trazado_890598" data-name="Trazado 890598" d="M166.1,746.165v9.147a5.719,5.719,0,0,1-5.717,5.717H92.113a5.719,5.719,0,0,1-5.717-5.717V713.849a5.715,5.715,0,0,1,5.717-5.717h9.913v32.317a5.715,5.715,0,0,0,5.717,5.717Z" transform="translate(-86.396 -708.132)" fill="#b1e5ff"/>
                  </g>
                </g>
              </g>
              <path id="Trazado_890599" data-name="Trazado 890599" d="M205.035,1184.36a23.518,23.518,0,1,1-19.1-23.09,23.512,23.512,0,0,1,19.1,23.09" transform="translate(-121.964 -895.996)" fill="#b1e5ff"/>
              <g id="Grupo_1101471" data-name="Grupo 1101471" transform="translate(36.053 267.914)" opacity="0.3">
                <g id="Grupo_1101470" data-name="Grupo 1101470">
                  <g id="Grupo_1101469" data-name="Grupo 1101469" clip-path="url(#clip-path-2)">
                    <path id="Trazado_890600" data-name="Trazado 890600" d="M201.986,1206.281a23.506,23.506,0,1,1-32.042-32.022,23.5,23.5,0,0,0,32.042,32.022" transform="translate(-158.017 -1174.259)" fill="#8eb7cc"/>
                  </g>
                </g>
              </g>
              <path id="Trazado_890601" data-name="Trazado 890601" d="M250.515,1161.27v17.679a4.416,4.416,0,0,1-8.831,0V1161.27a23.472,23.472,0,0,1,8.831,0" transform="translate(-186.542 -895.996)" fill="#8eb7cc"/>
              <path id="Trazado_890602" data-name="Trazado 890602" d="M179.593,1206.514h0a24.105,24.105,0,0,1-24.079-24.077c0-.451.016-.925.051-1.494.007-.114.014-.228.023-.341.04-.534.089-1.013.15-1.461l.008-.049c.064-.456.142-.91.242-1.409l.06-.292c.107-.505.22-.968.343-1.412l.021-.073c.126-.446.261-.875.422-1.339l.081-.234c.169-.471.346-.926.528-1.352l.051-.115c.178-.409.373-.824.581-1.238l.086-.173c.221-.43.457-.858.7-1.275l.076-.124c.237-.394.487-.786.745-1.163l.074-.111c.273-.4.567-.8.87-1.183l.089-.111c.306-.386.62-.76.933-1.11.348-.387.7-.755,1.065-1.114l.045-.043a24.075,24.075,0,0,1,37.79,29.065c-.252.443-.515.875-.783,1.285l-.052.081a24.342,24.342,0,0,1-1.752,2.339c-.077.091-.156.181-.235.271l-.031.036q-.343.39-.7.766l-.092.1c-.065.069-.13.138-.2.205-.332.335-.646.637-.964.924-.069.063-.14.123-.211.184l-.13.112c-.235.2-.471.4-.712.6-.15.122-.3.24-.456.359-.23.176-.462.345-.7.513l-.127.091c-.1.074-.206.148-.311.22-.355.24-.719.474-1.083.694-.107.064-.214.125-.322.186l-.146.083c-.252.144-.505.285-.762.421-.171.09-.344.18-.519.266-.281.14-.566.272-.855.4l-.16.073c-.084.04-.169.078-.255.115-.395.167-.815.332-1.253.489-.1.035-.2.068-.294.1l-.16.054c-.313.1-.624.2-.94.3-.16.046-.319.093-.481.136-.391.105-.787.2-1.175.285l-.223.052c-.44.09-.905.17-1.424.245-.106.015-.212.028-.318.041l-.1.012q-.546.07-1.1.113l-.084.008c-.116.009-.232.018-.349.025-.552.034-1.043.051-1.5.051m0-47.018a22.906,22.906,0,0,0-16.01,6.52l-.063.061c-.353.346-.688.7-1,1.045s-.615.709-.908,1.078l-.085.106c-.289.368-.567.747-.829,1.126l-.07.106c-.245.359-.483.731-.709,1.107l-.072.117c-.235.4-.46.805-.67,1.213l-.067.135c-.215.428-.4.823-.568,1.209l-.051.114c-.172.4-.341.837-.5,1.287l-.077.221c-.153.443-.282.852-.393,1.248l-.016.053c-.13.465-.236.905-.339,1.389l-.056.277c-.1.477-.17.91-.229,1.325l-.007.047c-.06.441-.107.9-.145,1.409-.009.109-.016.216-.022.324-.033.545-.049,1-.049,1.421a22.962,22.962,0,0,0,22.935,22.938h0c.433,0,.9-.017,1.43-.049.11-.007.218-.016.326-.024l.086-.007q.53-.043,1.053-.108l.107-.013c.1-.012.195-.024.292-.038.5-.071.939-.147,1.355-.233l.214-.049q.565-.122,1.118-.271c.154-.042.306-.086.459-.13.3-.088.6-.182.893-.281l.166-.056c.089-.03.179-.06.268-.091.417-.15.818-.307,1.192-.465.074-.032.149-.066.224-.1l.173-.079c.273-.122.545-.248.813-.381.168-.083.331-.167.494-.253.246-.129.487-.264.726-.4l.152-.086c.1-.055.2-.111.293-.169.347-.209.694-.432,1.032-.661.1-.064.19-.133.284-.2l.132-.1c.225-.16.447-.322.664-.488.145-.112.29-.225.434-.341.23-.186.455-.377.679-.571l.139-.12c.062-.053.125-.106.186-.162.3-.273.6-.561.917-.88.06-.061.119-.124.178-.187l.1-.1c.229-.239.452-.483.671-.732.1-.118.178-.2.252-.291a23.091,23.091,0,0,0,1.666-2.224l.051-.079c.257-.395.508-.807.746-1.227a22.94,22.94,0,0,0-19.963-34.228" transform="translate(-120.031 -894.069)" fill="#8eb7cc"/>
              <path id="Trazado_890603" data-name="Trazado 890603" d="M75.927,1245.092a5.557,5.557,0,1,1-5.557-5.557,5.557,5.557,0,0,1,5.557,5.557" transform="translate(-50.026 -956.728)" fill="#923615"/>
              <path id="Trazado_890604" data-name="Trazado 890604" d="M419.7,1245.092a5.557,5.557,0,1,1-5.557-5.557,5.557,5.557,0,0,1,5.557,5.557" transform="translate(-315.367 -956.728)" fill="#38b449"/>
              <path id="Trazado_890605" data-name="Trazado 890605" d="M242.258,1067.648a5.557,5.557,0,1,1-5.557,5.557,5.557,5.557,0,0,1,5.557-5.557" transform="translate(-182.696 -824.058)" fill="#f35923"/>
              <path id="Trazado_890606" data-name="Trazado 890606" d="M367.73,1119.62a5.557,5.557,0,1,1-7.858,0,5.557,5.557,0,0,1,7.858,0" transform="translate(-276.508 -862.916)" fill="#fabca7"/>
              <path id="Trazado_890607" data-name="Trazado 890607" d="M116.785,1119.62a5.557,5.557,0,1,0,7.858,0,5.557,5.557,0,0,0-7.858,0" transform="translate(-88.884 -862.916)" fill="#c3471c"/>
              <path id="Trazado_890608" data-name="Trazado 890608" d="M102.479,815.365l9.984,5.853a25.54,25.54,0,0,0-2.645,11.208H98.259a36.925,36.925,0,0,1,4.22-17.062" transform="translate(-75.841 -629.335)" fill="#923615"/>
              <path id="Trazado_890609" data-name="Trazado 890609" d="M135.415,752.966l5.6,10.139a25.777,25.777,0,0,0-7.11,7.119l-9.992-5.845a37.329,37.329,0,0,1,11.5-11.412" transform="translate(-95.641 -581.173)" fill="#c3471c"/>
              <path id="Trazado_890610" data-name="Trazado 890610" d="M186.777,732.184a36.719,36.719,0,0,1,15.314-4.049V739.7a25.458,25.458,0,0,0-9.722,2.6Z" transform="translate(-144.163 -562.007)" fill="#f35923"/>
              <path id="Trazado_890611" data-name="Trazado 890611" d="M283.526,732.184l-5.592,10.123a25.458,25.458,0,0,0-9.722-2.6V728.135a36.719,36.719,0,0,1,15.314,4.049" transform="translate(-207.018 -562.007)" fill="#fabca7"/>
              <path id="Trazado_890612" data-name="Trazado 890612" d="M340.315,764.378l-9.992,5.853a25.693,25.693,0,0,0-7.119-7.119l5.608-10.147a37.329,37.329,0,0,1,11.5,11.412" transform="translate(-249.464 -581.173)" fill="#afe1b6"/>
              <path id="Trazado_890613" data-name="Trazado 890613" d="M375.773,832.427H364.206a25.428,25.428,0,0,0-2.645-11.208l9.992-5.853a36.927,36.927,0,0,1,4.22,17.061" transform="translate(-279.069 -629.336)" fill="#38b449"/>
              <path id="Trazado_890614" data-name="Trazado 890614" d="M245.158,868.188a6.667,6.667,0,1,1-6.667-6.667,6.667,6.667,0,0,1,6.667,6.667" transform="translate(-178.932 -664.96)" fill="#615370"/>
              <path id="Trazado_890615" data-name="Trazado 890615" d="M249.048,873.711a5.034,5.034,0,1,1-5.034-5.034,5.034,5.034,0,0,1,5.034,5.034" transform="translate(-184.455 -670.484)" fill="#463b56"/>
              <path id="Trazado_890616" data-name="Trazado 890616" d="M266.262,795.344l19.286-19.694,1.327,1.02-16.122,22.551Z" transform="translate(-205.512 -598.681)" fill="#615370"/>
              <g id="Grupo_1101491" data-name="Grupo 1101491" transform="translate(19.712 220.494)">
                <rect id="Rectángulo_401619" data-name="Rectángulo 401619" width="21.889" height="6.174" fill="#8eb7cc"/>
                <rect id="Rectángulo_401620" data-name="Rectángulo 401620" width="21.889" height="6.174" transform="translate(28.905)" fill="#8eb7cc"/>
                <rect id="Rectángulo_401621" data-name="Rectángulo 401621" width="21.889" height="6.174" transform="translate(57.81)" fill="#8eb7cc"/>
                <rect id="Rectángulo_401622" data-name="Rectángulo 401622" width="21.889" height="6.174" transform="translate(0 10.664)" fill="#8eb7cc"/>
                <rect id="Rectángulo_401623" data-name="Rectángulo 401623" width="21.889" height="6.174" transform="translate(28.905 10.664)" fill="#8eb7cc"/>
                <rect id="Rectángulo_401624" data-name="Rectángulo 401624" width="21.889" height="6.174" transform="translate(57.81 10.664)" fill="#8eb7cc"/>
              </g>
              <g id="Grupo_1101490" data-name="Grupo 1101490" transform="translate(29.76)">
                <path id="Trazado_890617" data-name="Trazado 890617" d="M271.05,375.907a19.564,19.564,0,0,0-7.98-15.606,11.14,11.14,0,0,1-2.1-2.073,10.116,10.116,0,0,1-2.166-6.209V341.395a8.352,8.352,0,0,0-2.719-6.123,9.6,9.6,0,0,0-6.564-2.536c-5.127,0-9.284,3.876-9.284,8.659v10.625a10.365,10.365,0,0,1-4.24,8.261,19.576,19.576,0,0,0-8.007,15.453q-.006.662.035,1.315c.635,10.453,9.955,18.864,21.335,18.942,11.967.082,21.7-8.94,21.7-20.082" transform="translate(-213.36 -268.512)" fill="#f8cd20"/>
                <g id="Grupo_1101474" data-name="Grupo 1101474" transform="translate(14.624 64.225)" opacity="0.5">
                  <g id="Grupo_1101473" data-name="Grupo 1101473">
                    <g id="Grupo_1101472" data-name="Grupo 1101472" clip-path="url(#clip-path-3)">
                      <path id="Trazado_890618" data-name="Trazado 890618" d="M260.967,358.23a10.114,10.114,0,0,1-2.166-6.209V341.4a8.351,8.351,0,0,0-2.719-6.122,9.6,9.6,0,0,0-6.564-2.536c-5.127,0-9.284,3.876-9.284,8.658V352.02a10.366,10.366,0,0,1-4.24,8.261,19.576,19.576,0,0,0-8.007,15.453q-.006.662.034,1.315c5.356-11.116,17.333-18.857,31.249-18.857q.854,0,1.7.038" transform="translate(-227.984 -332.738)" fill="#fb9d7e"/>
                    </g>
                  </g>
                </g>
                <path id="Trazado_890619" data-name="Trazado 890619" d="M292.143,343.543v-4.637c0-5-4.314-9.08-9.655-9.17a9.609,9.609,0,0,0-10.013,9.3v4.51a.276.276,0,0,0,.252.266h.071c2.349,0,16.747,0,19.037,0a.3.3,0,0,1,.043,0h.013a.276.276,0,0,0,.251-.266" transform="translate(-246.153 -266.299)" fill="#12263f"/>
                <path id="Trazado_890620" data-name="Trazado 890620" d="M288.04,371.564H268.608a1.539,1.539,0,1,0,0,3.079H288.04a1.539,1.539,0,0,0,0-3.079" transform="translate(-242.168 -297.13)" fill="#12263f"/>
                <path id="Trazado_890621" data-name="Trazado 890621" d="M288.04,359.857H268.608a1.539,1.539,0,1,0,0,3.078H288.04a1.539,1.539,0,1,0,0-3.078" transform="translate(-242.168 -288.501)" fill="#12263f"/>
                <g id="Grupo_1101477" data-name="Grupo 1101477" transform="translate(34.225 104.528)" opacity="0.74">
                  <g id="Grupo_1101476" data-name="Grupo 1101476">
                    <g id="Grupo_1101475" data-name="Grupo 1101475" clip-path="url(#clip-path-4)">
                      <path id="Trazado_890622" data-name="Trazado 890622" d="M318.287,486.013a2,2,0,0,0-2,2,11.773,11.773,0,0,1-11.759,11.76,2,2,0,1,0,0,4,15.778,15.778,0,0,0,15.76-15.761,2,2,0,0,0-2-2" transform="translate(-302.527 -486.013)" fill="#fff"/>
                    </g>
                  </g>
                </g>
                <path id="Trazado_890623" data-name="Trazado 890623" d="M306.678,596.73h0a1.22,1.22,0,0,0-1.22,1.221v6.094a1.22,1.22,0,1,0,2.44,0v-6.094a1.22,1.22,0,0,0-1.22-1.221" transform="translate(-270.463 -463.089)" fill="#f8cd20"/>
                <path id="Trazado_890624" data-name="Trazado 890624" d="M217.826,567.56h0a1.177,1.177,0,0,0-1.606,0l-4.748,4.424a1.177,1.177,0,1,0,1.6,1.722l4.748-4.423a1.177,1.177,0,0,0,0-1.721" transform="translate(-200.914 -441.356)" fill="#f8cd20"/>
                <path id="Trazado_890625" data-name="Trazado 890625" d="M181.52,496.948h0a1.138,1.138,0,0,0-1.133-1.144l-6.876-.03a1.138,1.138,0,0,0-.01,2.276l6.876.03a1.138,1.138,0,0,0,1.143-1.132" transform="translate(-172.369 -388.68)" fill="#f8cd20"/>
                <path id="Trazado_890626" data-name="Trazado 890626" d="M218.341,414.615h0a1.177,1.177,0,0,0,.008-1.722l-4.722-4.446a1.177,1.177,0,0,0-1.614,1.714l4.722,4.446a1.177,1.177,0,0,0,1.606.008" transform="translate(-201.316 -324.079)" fill="#f8cd20"/>
                <path id="Trazado_890627" data-name="Trazado 890627" d="M381.675,567.7h0a1.177,1.177,0,0,0,0,1.722l4.741,4.43a1.177,1.177,0,0,0,1.607-1.72l-4.741-4.43a1.177,1.177,0,0,0-1.606,0" transform="translate(-326.362 -441.46)" fill="#f8cd20"/>
                <path id="Trazado_890628" data-name="Trazado 890628" d="M412.576,497.863h0A1.138,1.138,0,0,0,413.715,499l6.876-.006a1.138,1.138,0,0,0,0-2.276l-6.876.006a1.138,1.138,0,0,0-1.137,1.139" transform="translate(-349.415 -389.376)" fill="#f8cd20"/>
                <path id="Trazado_890629" data-name="Trazado 890629" d="M382.162,415.158h0a1.177,1.177,0,0,0,1.606,0l4.74-4.431a1.177,1.177,0,1,0-1.607-1.72l-4.74,4.431a1.177,1.177,0,0,0,0,1.722" transform="translate(-326.722 -324.493)" fill="#f8cd20"/>
                <rect id="Rectángulo_401627" data-name="Rectángulo 401627" width="1.704" height="64.625" transform="translate(35.32)" fill="#12263f"/>
              </g>
              <rect id="Rectángulo_401628" data-name="Rectángulo 401628" width="1.329" height="46.213" transform="translate(194.22)" fill="#12263f"/>
              <path id="Trazado_890630" data-name="Trazado 890630" d="M844.755,186.638H840.56a1.306,1.306,0,1,1,0-2.612h4.195a1.306,1.306,0,0,1,0,2.612" transform="translate(-647.773 -142.04)" fill="#12263f"/>
              <path id="Trazado_890631" data-name="Trazado 890631" d="M766.165,158.569a12.5,12.5,0,0,1-12.38-10.452l-1.324-8.636a3.6,3.6,0,0,0-3.573-2.994,3.564,3.564,0,0,0-3.609,3.344l-.186,3.788-2.31-.114.186-3.788a5.936,5.936,0,0,1,11.778-.587l1.324,8.636a10.18,10.18,0,0,0,10.094,8.489h.083l.019,2.313h-.1" transform="translate(-573.312 -103.561)" fill="#12263f"/>
              <path id="Trazado_890632" data-name="Trazado 890632" d="M862.73,158.569h-.1l.019-2.313h.083a10.179,10.179,0,0,0,10.094-8.489l1.324-8.636a5.936,5.936,0,0,1,11.778.587l.186,3.787-2.31.114-.186-3.788a3.564,3.564,0,0,0-3.609-3.344,3.6,3.6,0,0,0-3.573,2.994l-1.324,8.636a12.505,12.505,0,0,1-12.38,10.452" transform="translate(-665.814 -103.561)" fill="#12263f"/>
              <path id="Trazado_890633" data-name="Trazado 890633" d="M731.243,221.9a5.683,5.683,0,0,0-2.318-4.533,3.225,3.225,0,0,1-.611-.6,2.937,2.937,0,0,1-.629-1.8v-3.086a2.426,2.426,0,0,0-.79-1.779,2.789,2.789,0,0,0-1.907-.736,2.611,2.611,0,0,0-2.7,2.515v3.086a3.011,3.011,0,0,1-1.232,2.4,5.687,5.687,0,0,0-2.326,4.489q0,.192.01.382a6.283,6.283,0,0,0,12.5-.331" transform="translate(-554.749 -161.596)" fill="#f8cd20"/>
              <path id="Trazado_890634" data-name="Trazado 890634" d="M947.246,221.9a5.683,5.683,0,0,0-2.318-4.533,3.235,3.235,0,0,1-.611-.6,2.937,2.937,0,0,1-.629-1.8v-3.086a2.426,2.426,0,0,0-.79-1.779,2.79,2.79,0,0,0-1.907-.736,2.611,2.611,0,0,0-2.7,2.515v3.086a3.011,3.011,0,0,1-1.232,2.4,5.687,5.687,0,0,0-2.326,4.489q0,.192.01.382a6.283,6.283,0,0,0,12.5-.331" transform="translate(-721.469 -161.596)" fill="#f8cd20"/>
              <path id="Trazado_890635" data-name="Trazado 890635" d="M839.245,247.112a5.683,5.683,0,0,0-2.318-4.533,3.239,3.239,0,0,1-.611-.6,2.938,2.938,0,0,1-.629-1.8v-3.087a2.426,2.426,0,0,0-.79-1.779,2.79,2.79,0,0,0-1.907-.736,2.611,2.611,0,0,0-2.7,2.515v3.087a3.011,3.011,0,0,1-1.232,2.4,5.687,5.687,0,0,0-2.326,4.489q0,.192.01.382a6.283,6.283,0,0,0,12.5-.331" transform="translate(-638.109 -181.053)" fill="#f8cd20"/>
              <path id="Trazado_890636" data-name="Trazado 890636" d="M717.867,182.778a14.511,14.511,0,0,1-3.821-9.687v-.151a5.54,5.54,0,1,0-11.081,0v.151a14.51,14.51,0,0,1-3.821,9.687,6.884,6.884,0,0,0-1.772,4.62v1.53h22.267V187.4a6.884,6.884,0,0,0-1.772-4.62" transform="translate(-538.262 -129.207)" fill="#f35923"/>
              <path id="Trazado_890637" data-name="Trazado 890637" d="M933.87,182.778a14.511,14.511,0,0,1-3.821-9.687v-.151a5.54,5.54,0,1,0-11.081,0v.151a14.51,14.51,0,0,1-3.821,9.687,6.883,6.883,0,0,0-1.772,4.62v1.53h22.267V187.4a6.884,6.884,0,0,0-1.772-4.62" transform="translate(-704.983 -129.207)" fill="#f35923"/>
              <path id="Trazado_890638" data-name="Trazado 890638" d="M825.868,207.986a14.511,14.511,0,0,1-3.821-9.687v-.151a5.54,5.54,0,0,0-11.081,0v.151a14.51,14.51,0,0,1-3.821,9.687,6.883,6.883,0,0,0-1.772,4.62v1.53H827.64v-1.53a6.884,6.884,0,0,0-1.772-4.62" transform="translate(-621.622 -148.664)" fill="#f35923"/>
              <path id="Trazado_890639" data-name="Trazado 890639" d="M710.972,167.978a5.561,5.561,0,0,0-3.072,4.959v.153a14.516,14.516,0,0,1-3.821,9.687,6.853,6.853,0,0,0-1.772,4.622v1.527h-4.936V187.4a6.875,6.875,0,0,1,1.772-4.622,14.517,14.517,0,0,0,3.821-9.687v-.153a5.543,5.543,0,0,1,8.008-4.959" transform="translate(-538.261 -129.207)" fill="#c3471c"/>
              <path id="Trazado_890640" data-name="Trazado 890640" d="M926.97,167.978a5.561,5.561,0,0,0-3.072,4.959v.153a14.516,14.516,0,0,1-3.821,9.687,6.875,6.875,0,0,0-1.772,4.622v1.527h-4.936V187.4a6.875,6.875,0,0,1,1.772-4.622,14.516,14.516,0,0,0,3.821-9.687v-.153a5.543,5.543,0,0,1,8.008-4.959" transform="translate(-704.978 -129.207)" fill="#c3471c"/>
              <path id="Trazado_890641" data-name="Trazado 890641" d="M818.981,193.18a5.55,5.55,0,0,0-3.076,4.964v.148a14.509,14.509,0,0,1-3.821,9.687,6.893,6.893,0,0,0-1.772,4.622v1.531H805.38V212.6a6.86,6.86,0,0,1,1.439-4.224c.106-.139.217-.268.333-.4.277-.305.537-.625.786-.948a14.37,14.37,0,0,0,3.035-8.739v-.148a5.543,5.543,0,0,1,8.008-4.964" transform="translate(-621.627 -148.66)" fill="#c3471c"/>
              <path id="Trazado_890642" data-name="Trazado 890642" d="M392.542,919.11h3.429l4.989-17.84h52.732L448.7,919.11h3.437l41.753-149.276h-3.437l-4.72,16.876H433.011l4.721-16.876H434.3Zm85.382-104.473H425.2l7.011-25.074h52.724Zm-7.811,27.927H417.382L424.4,817.49h52.724ZM462.3,870.49H409.571l7.011-25.074h52.732ZM401.76,898.417l7.011-25.074H461.5l-7.011,25.074Z" transform="translate(-302.981 -594.192)" fill="#257699"/>
              <rect id="Rectángulo_401629" data-name="Rectángulo 401629" width="3.107" height="149.292" transform="translate(187.821 175.626)" fill="#257699"/>
              <path id="Trazado_890643" data-name="Trazado 890643" d="M693.772,366.176c.067.773.138,1.547.213,2.305.168,1.633.041,3.288.549,4.6.052.131,2.806,3.2,2.806,3.2s.74.788,1.816,1.741q.1.09.2.18a.428.428,0,0,0,.041.037c.276.236.575.486.885.732a15.533,15.533,0,0,0,2.548,1.681,6.035,6.035,0,0,0,1.442.546,9.3,9.3,0,0,0,1.961.224,7.3,7.3,0,0,0,1.08-.063l.1-.045h0a14.953,14.953,0,0,0,2.163-1.184,55.461,55.461,0,0,0-2.608-8.1c-.011-.019-.191-.273-.5-.706l-.359-.5c-.261-.37-.579-.811-.942-1.308-2.839-3.93-8.312-11.35-10.9-14.107-.624-.665-.99,5.16-.508,10.767" transform="translate(-535.312 -274.281)" fill="#f6a49d"/>
              <path id="Trazado_890644" data-name="Trazado 890644" d="M755.789,379.153l-.154.193-.005.005v.005c-.134.159-.337.412-.61.744-.02.02-.04.044-.065.074-1.24,1.5-3.721,4.445-6.469,7.377-1.037,1.116-2.118,2.252-3.215,3.354a54.392,54.392,0,0,1-5.968,4.683c-.01.005-.015.01-.025.015a.31.31,0,0,1-.049.035,14.9,14.9,0,0,1-2.163,1.186h-.005a6.624,6.624,0,0,1-1.667.045,9.111,9.111,0,0,1-1.925-.422,6.112,6.112,0,0,1-1.384-.69,4.054,4.054,0,0,1-.079-.491c-.02-.139-.03-.278-.04-.422-.01-.174-.015-.347-.01-.516a7.347,7.347,0,0,1,.576-2.739c.089-.2.179-.407.283-.615s.193-.4.308-.6c.114-.218.238-.437.372-.65.114-.183.243-.372.367-.561.094-.124.189-.253.288-.372a2.754,2.754,0,0,1,.268-.327,2.587,2.587,0,0,1,.213-.253,14.3,14.3,0,0,1,1.042-.992c.015-.01.025-.02.04-.03.079-.074.169-.149.253-.223.055-.044.1-.089.159-.139.1-.079.2-.164.3-.248.347-.293.729-.6,1.136-.928.035-.03.06-.05.094-.074.089-.065.174-.134.263-.208.779-.62,1.662-1.29,2.57-1.985a.346.346,0,0,0,.069-.044c4.157-3.136,9.1-6.6,10.538-7.6.1-.079.193-.139.258-.184h.005a1.756,1.756,0,0,1,.149-.1c0-.01.005-.01.005-.01l.03.025,2.922,2.53Z" transform="translate(-564.954 -289.791)" fill="#f6a49d"/>
              <path id="Trazado_890645" data-name="Trazado 890645" d="M694.521,366.352c.067.773.138,1.547.213,2.305.168,1.633.041,3.288.549,4.6.052.131,2.806,3.2,2.806,3.2s.74.788,1.816,1.741l6.968-7.2c-.261-.37-.579-.811-.942-1.308-2.839-3.93-8.312-11.35-10.9-14.107Z" transform="translate(-536.061 -274.457)" fill="#d47c74"/>
              <path id="Trazado_890646" data-name="Trazado 890646" d="M688.072,351.183a7.706,7.706,0,0,1,2.8,2.27c.946,1.23,10.15,12.391,10.15,12.391l-9.418,9.729-4.63-4.3Z" transform="translate(-530.236 -271.059)" fill="#f8cd20"/>
              <path id="Trazado_890647" data-name="Trazado 890647" d="M828.081,351.037s1.1-.41.71-1.157c-.355-.689-1.688-.617-1.688-.617s-.09-.708-1.132-.9c-1.109-.2-6.06,1.032-6.805.479s1.055-1.122,1.684-1.727a4.5,4.5,0,0,0,.938-1.731,24.756,24.756,0,0,0-5.163,2.726,43.3,43.3,0,0,0-5.113,5.3l-.282.338,3.523,3.6s.24-.154.62-.37h0a9.864,9.864,0,0,1,3.429-1.319c1.611-.123,7.222-1.111,7.627-1.49a2.011,2.011,0,0,0,.483-1.1,2.568,2.568,0,0,0,1.131-.642c.327-.41.037-1.4.037-1.4" transform="translate(-626.142 -266.585)" fill="#f6a49d"/>
              <path id="Trazado_890648" data-name="Trazado 890648" d="M600.444,232.9s-7.291-4.564-5.206-13.242,11.024-12.751,11.561-10.664.519,3.007,2.24,2.488c2.335-.7,2.176-2.286,3.6-1.582,2.662,1.319-.581,4.765,2.706,4.458,1.7-.159,2.535.791,2.074,2.7-1.165,4.822-16.972,15.845-16.972,15.845" transform="translate(-459.141 -160.895)" fill="#2e2f4d"/>
              <path id="Trazado_890649" data-name="Trazado 890649" d="M615.454,297.481a2.305,2.305,0,0,1,.634,3.455l-.052.063c-1.152,1.376-3.773,3.349-9,1.739a12.361,12.361,0,0,1-4.169-2.177,2.3,2.3,0,0,1,.294-3.8,2.89,2.89,0,0,0,1.322-1.358c.312-.871.408-6.437.275-9.269-.045-.952-.172-2.855-.172-2.855l8.7,4.8s-.121,2.334-.188,4.227c-.039,1.122-.028,2.087-.025,2.325.013,1.157,1.223,2.158,2.38,2.852" transform="translate(-464.646 -218.646)" fill="#f6a49d"/>
              <path id="Trazado_890650" data-name="Trazado 890650" d="M605.426,281.1c-.345.774-2.02.806-3.741.072s-2.746-1.9-2.491-2.73c.34-1.1,2.02-.806,3.741-.072s2.836,1.956,2.49,2.73" transform="translate(-462.454 -214.358)" fill="#d47c74"/>
              <path id="Trazado_890651" data-name="Trazado 890651" d="M622.873,291.756s-.121,2.334-.188,4.227a4.672,4.672,0,0,1-1.839.272c-4.592-.413-6.431-8.212-6.431-8.212Z" transform="translate(-474.232 -222.326)" fill="#d47c74"/>
              <path id="Trazado_890652" data-name="Trazado 890652" d="M610.219,250.292c.032.253.07.509.113.765,1.042,6.043,5.074,10.448,9.006,9.836,2.206-.344,3.912-2.191,4.8-4.814.046-.135.089-.271.131-.409q.054-.184.1-.373a12.287,12.287,0,0,0,.274-1.327c.048-.3.086-.611.114-.924q.048-.538.056-1.1a16.655,16.655,0,0,0-.242-3.111c-.039-.228-.088-.48-.144-.749-.023-.111-.047-.226-.073-.342q-.024-.112-.051-.225l-.011-.048a21.948,21.948,0,0,0-.935-3.16c-.211.2-1.742.083-3.457-.129-3.158-.391-6.621-.734-8.352,1.92-.741,1.136-1.056,3.9-1.336,4.187" transform="translate(-470.994 -188.268)" fill="#f6a49d"/>
              <path id="Trazado_890653" data-name="Trazado 890653" d="M649.125,278.17l.509-.1c.344-.071.575-.357.5-.617l-.587-1.961a.532.532,0,0,0-.647-.29.585.585,0,0,0-.511.528l.078,2.065c.01.274.317.45.661.38" transform="translate(-500.452 -212.397)" fill="#d47c74"/>
              <path id="Trazado_890654" data-name="Trazado 890654" d="M630.048,269.573c.055.415.352.721.664.683a.677.677,0,0,0,.466-.82c-.055-.415-.352-.721-.664-.683a.676.676,0,0,0-.466.82" transform="translate(-486.291 -207.433)" fill="#4f1d30"/>
              <path id="Trazado_890655" data-name="Trazado 890655" d="M625.53,259.567a.977.977,0,0,0-.123-.175,2.014,2.014,0,0,0-.418-.376,2.2,2.2,0,0,0-.329-.188,2.553,2.553,0,0,0-.4-.147,2.275,2.275,0,0,0-.458-.073,2.235,2.235,0,0,0-.482.013,2.78,2.78,0,0,0-.469.108,3.9,3.9,0,0,0-.42.188c-.126.078-.24.164-.347.243a2.37,2.37,0,0,0-.265.263,1.357,1.357,0,0,0-.19.248c-.051.078-.089.151-.121.209a1.832,1.832,0,0,0-.09.188s.077-.024.2-.074c.06-.026.133-.054.209-.093a2.661,2.661,0,0,1,.266-.109c.1-.035.192-.088.3-.123s.218-.075.33-.115.232-.062.349-.092c.121-.013.237-.057.36-.061a2.912,2.912,0,0,1,.364-.031c.121-.011.241,0,.361,0s.236.013.348.026.221.024.321.042c.2.028.38.064.506.089l.2.043" transform="translate(-479.634 -199.598)" fill="#2e2f4d"/>
              <path id="Trazado_890656" data-name="Trazado 890656" d="M662.919,267.145c.028.417.305.74.619.721a.679.679,0,0,0,.518-.79c-.028-.417-.305-.74-.619-.721a.679.679,0,0,0-.517.79" transform="translate(-511.668 -205.584)" fill="#4f1d30"/>
              <path id="Trazado_890657" data-name="Trazado 890657" d="M658.884,257.228a.962.962,0,0,0-.112-.182,2,2,0,0,0-.393-.4,2.223,2.223,0,0,0-.317-.208,2.545,2.545,0,0,0-.393-.171,2.538,2.538,0,0,0-.935-.117,2.8,2.8,0,0,0-.475.079,3.943,3.943,0,0,0-.432.163c-.131.07-.25.149-.362.222a2.42,2.42,0,0,0-.281.247,1.371,1.371,0,0,0-.206.236c-.056.074-.1.145-.134.2a1.749,1.749,0,0,0-.1.183s.079-.019.2-.062c.061-.022.136-.046.215-.08a2.628,2.628,0,0,1,.272-.092c.1-.03.2-.077.308-.1s.222-.061.336-.095.235-.048.354-.071c.122-.005.241-.042.364-.039a2.921,2.921,0,0,1,.365-.009c.122,0,.241.014.36.02s.234.027.345.047.219.037.318.061c.2.04.375.086.5.119l.2.055" transform="translate(-505.359 -197.704)" fill="#2e2f4d"/>
              <g id="Grupo_1101480" data-name="Grupo 1101480" transform="translate(141.786 63.392)" opacity="0.5">
                <g id="Grupo_1101479" data-name="Grupo 1101479">
                  <g id="Grupo_1101478" data-name="Grupo 1101478" clip-path="url(#clip-path-5)">
                    <path id="Trazado_890658" data-name="Trazado 890658" d="M621.442,280.043a2.147,2.147,0,0,0,2.2,2.083,2.126,2.126,0,0,0,2.071-2.191,2.147,2.147,0,0,0-2.2-2.083,2.126,2.126,0,0,0-2.071,2.191" transform="translate(-621.441 -277.851)" fill="#d47c74"/>
                  </g>
                </g>
              </g>
              <g id="Grupo_1101483" data-name="Grupo 1101483" transform="translate(151.01 63.13)" opacity="0.5">
                <g id="Grupo_1101482" data-name="Grupo 1101482">
                  <g id="Grupo_1101481" data-name="Grupo 1101481" clip-path="url(#clip-path-6)">
                    <path id="Trazado_890659" data-name="Trazado 890659" d="M661.873,278.895a2.146,2.146,0,0,0,2.2,2.083l.071,0q.055-.184.1-.373a12.367,12.367,0,0,0,.274-1.327c.048-.3.086-.611.113-.924a14.472,14.472,0,0,0-.02-1.558,2.086,2.086,0,0,0-.669-.089,2.124,2.124,0,0,0-2.07,2.192" transform="translate(-661.872 -276.702)" fill="#d47c74"/>
                  </g>
                </g>
              </g>
              <path id="Trazado_890660" data-name="Trazado 890660" d="M642.683,298.125a9.215,9.215,0,0,1-5.631.211s1.157,2.337,3.241,2.257,2.39-2.468,2.39-2.468" transform="translate(-491.704 -230.107)" fill="#fff"/>
              <path id="Trazado_890661" data-name="Trazado 890661" d="M604.082,239.729s1.186,2.938,2.656,3.372.759-2.112.89-4.248,1.663-3.224,5.118-1.938a7.1,7.1,0,0,0,6.417-1.053s.576-3.949.511-3.992-10.091-.191-10.2-.169l-.042.011a7.449,7.449,0,0,0-5.372,7.729Z" transform="translate(-466.223 -178.836)" fill="#2e2f4d"/>
              <path id="Trazado_890662" data-name="Trazado 890662" d="M592.086,378.586c.027.64-.137,3.671-4.022,3.786-1.127.033-2.456.076-3.912.115-2.276.065-4.853.142-7.42.219-2.057.055-4.1.115-5.98.17-1,.028-1.953.055-2.834.082-3,.082-5.357-1-5.231-2.7.35-4.629,2.315-39.179,2.307-39.3.443-.153,2.606-.82,4.932-1.515,1.319-.394,2.544-.761,3.223-.969.279-.082.465-.137.53-.159l.263-.076.022.016.1.077a8.092,8.092,0,0,0,3.715,1.806,6.539,6.539,0,0,0,1.176.093,6.109,6.109,0,0,0,1.286-.148,6.261,6.261,0,0,0,.908-.257,8.957,8.957,0,0,0,2-1.034c.109-.077.219-.153.328-.235l1.773.509,3.781,1.089,3.2.914c.039-.2-.656,17.121-.547,20.628.006.159.405,16.754.411,16.891" transform="translate(-434.302 -261.068)" fill="#f8cd20"/>
              <path id="Trazado_890663" data-name="Trazado 890663" d="M582.9,488.814l1.365,17.454-32.775.4,3-20.751Z" transform="translate(-425.665 -375.057)" fill="#f8cd20"/>
              <path id="Trazado_890664" data-name="Trazado 890664" d="M547.624,765.92a3.819,3.819,0,0,1,.023-1.046l.068-.461.352-2.224.06-.4,7.567-37.1.164-1.009h-.009c-.21-.055-6.8-1.6-10.3.913a4.915,4.915,0,0,0-1.553,1.8s0,.014-.009.023a5.94,5.94,0,0,0-.575,2.425c0,.132-.009.26-.009.4,0,5.407-.116,26.761-1.892,33.9a.041.041,0,0,0,0,.023,18.531,18.531,0,0,0-.387,2.913,15.075,15.075,0,0,1-.219,1.758c-.064.411-.119.767-.123.959,0,.046,0,.091,0,.137-.009.53-.009.818-.009.818l8.476-.621-.877-1.233a4.014,4.014,0,0,1-.594-1.215v0a2.838,2.838,0,0,1-.1-.433l0-.014c-.009-.055-.018-.114-.027-.174a1.2,1.2,0,0,1-.014-.128" transform="translate(-417.386 -558.163)" fill="#f6a49d"/>
              <path id="Trazado_890665" data-name="Trazado 890665" d="M548.829,765.92a3.936,3.936,0,0,1,.21-1.607l7.859-39.63.164-1.009h-.009c-.21-.055-6.8-1.6-10.3.913a4.916,4.916,0,0,0-1.553,1.8s0,.014-.009.023c-.069.187-.274,1.055-.576,2.425-1.557,7-.385,26.885-1.9,34.3a.041.041,0,0,0,0,.023,18.531,18.531,0,0,0-.387,2.913l6.549.165,0-.014a1.141,1.141,0,0,1-.027-.174,1.211,1.211,0,0,1-.014-.128" transform="translate(-418.591 -558.163)" fill="#d47c74"/>
              <path id="Trazado_890666" data-name="Trazado 890666" d="M538.775,922.87v.509a.786.786,0,0,0,.049.225.917.917,0,0,0,.093.126.482.482,0,0,0,.049.066v.005a.711.711,0,0,0,.082.055h8.005c.005,0,.005-.005.011-.005.022-.011.038-.033.066-.049a.624.624,0,0,0,.164-.213.57.57,0,0,0,.044-.213l.006-.006-.006-.087.011-.312-.005-.022,3.174.028V923l-.006.2v.164a.6.6,0,0,0,.181.421.588.588,0,0,0,.093.071h12.929a.049.049,0,0,1-.005-.027,4.29,4.29,0,0,0-.082-.706,1.146,1.146,0,0,0-.027-.131,4.54,4.54,0,0,0-1.319-2.216c-.4-.378-6.714-3.42-11.211-5.581l-2.528-1.669a3.033,3.033,0,0,1-1.193-1.926.561.561,0,0,0-1.105.076l-.131,1.352h-.049l-3-.033-3.781-.049h-.038a46.206,46.206,0,0,0-.46,6.391Z" transform="translate(-415.85 -703.278)" fill="#615370"/>
              <path id="Trazado_890667" data-name="Trazado 890667" d="M590.217,963.217v.164a.574.574,0,0,0,.274.492h12.93a.05.05,0,0,1-.005-.028,4.3,4.3,0,0,0-.082-.706c-2.681-.021-7.983-.071-13.11-.126Z" transform="translate(-455.555 -743.297)" fill="#463b54"/>
              <path id="Trazado_890668" data-name="Trazado 890668" d="M538.775,962.463v.509a.788.788,0,0,0,.049.225.924.924,0,0,0,.093.126.5.5,0,0,0,.049.066v.005a.7.7,0,0,0,.082.055h8.005c.005,0,.005-.005.011-.005.022-.011.038-.033.066-.049a.623.623,0,0,0,.164-.213.57.57,0,0,0,.044-.213l.006-.006-.006-.087.011-.312c-3.666-.038-6.911-.076-8.574-.1" transform="translate(-415.85 -742.872)" fill="#463b54"/>
              <path id="Trazado_890669" data-name="Trazado 890669" d="M654.12,764.871a3.924,3.924,0,0,0,.022,1.362,3.97,3.97,0,0,0,.695,1.653l.875,1.231-8.476.624s0-.29.011-.821c0-.044.005-.088.005-.137.011-.471.323-1.943.339-2.714.005-.159.005-.323.005-.493.005-.4.011-.821.011-1.264.005-.126.005-.252.011-.383.077-8.82-3.224-28.228-3.224-34.7a6.262,6.262,0,0,1,.6-2.845,4.912,4.912,0,0,1,1.554-1.806c3.5-2.512,10.084-.969,10.3-.914h.005l-.164,1.012-2.084,37.1-.06.4-.35,2.227Z" transform="translate(-497.373 -558.16)" fill="#f6a49d"/>
              <path id="Trazado_890670" data-name="Trazado 890670" d="M656.849,723.669l-.164,1.012-2.083,37.1-.06.4-.35,2.227-.071.459a3.944,3.944,0,0,0,.022,1.363l-6.549-.164c.005-.159.005-.323.005-.493.005-.4.011-.821.011-1.264.005-.126.005-.252.011-.383.077-8.82-3.224-28.228-3.224-34.7a6.263,6.263,0,0,1,.6-2.845,4.915,4.915,0,0,1,1.554-1.806c3.5-2.512,10.084-.969,10.3-.914Z" transform="translate(-497.373 -558.159)" fill="#d47c74"/>
              <path id="Trazado_890671" data-name="Trazado 890671" d="M613.023,540.621l2.64,8.54v0l0,.018v0l3.676,19.783.585,38.36H632.39l.817-39.232c.046-.708-1.135-33.321-1.135-33.321l-1.039-12.469-.073-.014-.607-.11-3.968-.694h-.014l-10.17.055-.247,1.306-.246,1.292-1.859,9.782-.119.621Z" transform="translate(-473.158 -402.51)" fill="#615370"/>
              <path id="Trazado_890672" data-name="Trazado 890672" d="M532.641,607.64h12.942l5.667-35.707c.594-2.347,2.343-22.084,2.375-22.436v-.027l1.356-7.4,3.11-2.786,2.781-4.224.141-.945,1.42-9.489-2.137-.365-6.384-1.1-7.371-1.269-4.991.027a13.241,13.241,0,0,0-1.315,1.653,18.169,18.169,0,0,0-2.576,5.9c-.1.415-.206.831-.292,1.256-.183.859-.324,1.74-.443,2.626l-.141,1.174c0,.027,0,.05-.009.078-.475,4.279-.078,27.281-.137,28.629Z" transform="translate(-411.116 -402.819)" fill="#615370"/>
              <path id="Trazado_890673" data-name="Trazado 890673" d="M654.866,922.87v.509a.785.785,0,0,0,.049.225.915.915,0,0,0,.093.126.487.487,0,0,0,.049.066v.005a.706.706,0,0,0,.082.055h8.005c.005,0,.005-.005.011-.005.022-.011.038-.033.066-.049a.627.627,0,0,0,.164-.213.571.571,0,0,0,.044-.213l.005-.006-.005-.087.011-.312-.005-.022,3.173.028V923l-.005.2v.164a.6.6,0,0,0,.181.421.583.583,0,0,0,.093.071h12.929a.049.049,0,0,1-.005-.027,4.277,4.277,0,0,0-.082-.706,1.121,1.121,0,0,0-.027-.131,4.541,4.541,0,0,0-1.319-2.216c-.4-.378-6.714-3.42-11.211-5.581l-2.528-1.669a3.033,3.033,0,0,1-1.193-1.926.561.561,0,0,0-1.105.076l-.131,1.352h-.049l-3-.033-3.781-.049h-.038a46.225,46.225,0,0,0-.459,6.391Z" transform="translate(-505.454 -703.278)" fill="#615370"/>
              <path id="Trazado_890674" data-name="Trazado 890674" d="M706.307,963.217v.164a.574.574,0,0,0,.273.492h12.93a.049.049,0,0,1-.006-.028,4.285,4.285,0,0,0-.082-.706c-2.681-.021-7.983-.071-13.11-.126Z" transform="translate(-545.159 -743.297)" fill="#463b54"/>
              <path id="Trazado_890675" data-name="Trazado 890675" d="M654.866,962.463v.509a.786.786,0,0,0,.049.225.923.923,0,0,0,.093.126.5.5,0,0,0,.049.066v.005a.7.7,0,0,0,.082.055h8.005c.005,0,.005-.005.011-.005.022-.011.038-.033.066-.049a.626.626,0,0,0,.164-.213.572.572,0,0,0,.044-.213l.005-.006-.005-.087.011-.312c-3.666-.038-6.911-.076-8.574-.1" transform="translate(-505.454 -742.872)" fill="#463b54"/>
              <path id="Trazado_890676" data-name="Trazado 890676" d="M583.977,535.218l-9.1-.537-9.181-.208-14.91-.334.142-1.171.711-5.784.427-3.464.268-2.167h.427l.75-.006,2.046-.011,4.99-.027,7.617-.038,10.172-.055h.011l4.044-.016.459-.005H583Z" transform="translate(-425.119 -402.437)" fill="#615370"/>
              <path id="Trazado_890677" data-name="Trazado 890677" d="M619.646,612.561l-1.368-4.651,10.806-4.241Z" transform="translate(-477.214 -465.939)" fill="#524660"/>
              <path id="Trazado_890678" data-name="Trazado 890678" d="M622.795,553.356l-.77-.284,2.535-6.854,3.252-1.9,2.334-11.492.8.164-2.408,11.853-3.315,1.933Z" transform="translate(-480.106 -411.261)" fill="#524660"/>
              <rect id="Rectángulo_401632" data-name="Rectángulo 401632" width="12.448" height="0.821" transform="translate(143.93 133.609) rotate(-79.024)" fill="#524660"/>
              <path id="Trazado_890679" data-name="Trazado 890679" d="M552.776,544.941l-.239-.785c.074-.023,7.411-2.35,8.193-9.955l.817.084c-.839,8.156-8.692,10.632-8.771,10.656" transform="translate(-426.472 -412.32)" fill="#524660"/>
              <path id="Trazado_890680" data-name="Trazado 890680" d="M678.979,545.028c-4.945-1.392-4.821-10.11-4.813-10.48l.82.017c0,.084-.121,8.453,4.215,9.674Z" transform="translate(-520.349 -412.588)" fill="#524660"/>
              <path id="Trazado_890681" data-name="Trazado 890681" d="M586.047,531.578h-31.1l-.429,3.466h31.775Z" transform="translate(-428.001 -410.296)" fill="#524660"/>
              <rect id="Rectángulo_401633" data-name="Rectángulo 401633" width="3.146" height="4.651" transform="translate(134.438 120.691)" fill="#615370"/>
              <rect id="Rectángulo_401634" data-name="Rectángulo 401634" width="3.146" height="4.651" transform="translate(150.853 120.691)" fill="#615370"/>
              <path id="Trazado_890682" data-name="Trazado 890682" d="M630.423,533.909H625.9a1.089,1.089,0,0,1-1.089-1.088v-2.246a1.09,1.09,0,0,1,1.089-1.088h4.525a1.089,1.089,0,0,1,1.088,1.088v2.246a1.089,1.089,0,0,1-1.088,1.088m-4.525-3.6a.269.269,0,0,0-.268.268v2.246a.269.269,0,0,0,.268.268h4.525a.268.268,0,0,0,.268-.268v-2.246a.268.268,0,0,0-.268-.268Z" transform="translate(-482.255 -408.682)" fill="#f8cd9e"/>
              <path id="Trazado_890683" data-name="Trazado 890683" d="M629.554,538.174h-2.747v-.844h2.747a.422.422,0,1,1,0,.844" transform="translate(-483.797 -414.736)" fill="#f8cd9e"/>
              <path id="Trazado_890684" data-name="Trazado 890684" d="M666.446,360.648l-4.317-4.164-.547-14.626,3.781,1.089Z" transform="translate(-510.637 -263.862)" fill="#615370"/>
              <path id="Trazado_890685" data-name="Trazado 890685" d="M599.968,359.246l-3.349,4.476-2.189-23.484c1.319-.394,2.544-.761,3.223-.969Z" transform="translate(-458.808 -261.863)" fill="#615370"/>
              <path id="Trazado_890686" data-name="Trazado 890686" d="M588.323,424.179l-12.152.616-18.6-1.346,8-3.031,1.8-21.449v-.027a4.6,4.6,0,0,1,.076-.547,4.9,4.9,0,0,1,4.771-4.011l8.859-.093a4.913,4.913,0,0,1,4.892,4.1,4.711,4.711,0,0,1,.055.487l.006.06,1.394,21.442.673,1.06Z" transform="translate(-430.358 -304.331)" fill="#615370"/>
              <path id="Trazado_890687" data-name="Trazado 890687" d="M619.181,412.825H600.522a4.534,4.534,0,0,1,.077-.547H619.12a4.8,4.8,0,0,1,.055.487Z" transform="translate(-463.509 -318.215)" fill="#524660"/>
              <path id="Trazado_890688" data-name="Trazado 890688" d="M616.618,400.954a.718.718,0,1,1-.718-.718.718.718,0,0,1,.718.718" transform="translate(-474.824 -308.92)" fill="#524660"/>
              <path id="Trazado_890689" data-name="Trazado 890689" d="M662.783,400.954a.718.718,0,1,1-.718-.718.718.718,0,0,1,.718.718" transform="translate(-510.456 -308.92)" fill="#524660"/>
              <path id="Trazado_890690" data-name="Trazado 890690" d="M618.634,435.6a6.987,6.987,0,0,1-6.979-6.979v-5.148h13.959v5.148a6.987,6.987,0,0,1-6.979,6.979m-6.221-11.369v4.39a6.221,6.221,0,0,0,12.443,0v-4.39Z" transform="translate(-472.102 -326.855)" fill="#524660"/>
              <path id="Trazado_890691" data-name="Trazado 890691" d="M637.114,682.849l-.009-38.713-5.457-24.031.8-.182,5.477,24.12.009,38.805Z" transform="translate(-487.533 -478.485)" fill="#524660"/>
              <path id="Trazado_890692" data-name="Trazado 890692" d="M546.679,649.613l-.817-.076,3.9-41.968-.542-31.332.82-.015.54,31.378Z" transform="translate(-421.32 -444.754)" fill="#524660"/>
              <path id="Trazado_890693" data-name="Trazado 890693" d="M582.478,709.946a4.352,4.352,0,0,0,2.749,2.717,3.813,3.813,0,0,0,1.009.164.077.077,0,0,0,.046,0,3.987,3.987,0,0,0,.954-.087c.1-.023.215-.055.315-.087a4.345,4.345,0,0,0,1.2-.539l.379-1.123a4.638,4.638,0,0,1-1.238.813,3.9,3.9,0,0,1-.8.265,3.538,3.538,0,0,1-.644.078h-.041a3.062,3.062,0,0,1-.977-.142,3.676,3.676,0,0,1-2.311-2.306,6.082,6.082,0,0,1-.165-3.667c.027-.109.06-.224.092-.333a6.34,6.34,0,0,1,.5-1.2,5.156,5.156,0,0,1,3.334-2.763,3.247,3.247,0,0,1,3.188,1.068l0-.964a3.941,3.941,0,0,0-3.325-.776,5.965,5.965,0,0,0-3.941,3.393,7.223,7.223,0,0,0-.411,1.046c-.055.183-.1.365-.146.553a6.707,6.707,0,0,0,.233,3.891" transform="translate(-449.262 -541.042)" fill="#524660"/>
              <path id="Trazado_890694" data-name="Trazado 890694" d="M675.217,711.415h-.088a3.693,3.693,0,0,1-2.84-1.609,6.141,6.141,0,0,1-1.127-3.836c.005-.2.022-.4.044-.6.3-2.6,2.063-4.624,4.131-4.624h.088a3.342,3.342,0,0,1,1.8.6l-.093-.854a3.9,3.9,0,0,0-1.691-.432h-.1c-2.5,0-4.547,2.32-4.831,5.373-.016.169-.027.339-.033.514a6.837,6.837,0,0,0,1.264,4.262,4.356,4.356,0,0,0,3.376,1.888h.1a4.044,4.044,0,0,0,.859-.093,3.948,3.948,0,0,0,.744-.241l.093-.826a3.653,3.653,0,0,1-.733.328,3.134,3.134,0,0,1-.963.148" transform="translate(-517.498 -540.338)" fill="#524660"/>
              <path id="Trazado_890695" data-name="Trazado 890695" d="M677.1,273.825a2.167,2.167,0,0,0,.365-.413c.415-.617.89-1.375,1.428-2.3,1.32-2.28,9.754-23.948,10.467-25.79a.04.04,0,0,0,.01-.021l.04-.1-.287.094h0l-.045-.025-.449-.181-2.311-.927-.671-.274-2.092-.845-.376.514-1.011,1.735-12.42,21.334-.091.161-.881,1.513,2.257,4.865.423.918c1.5.887,4.325.925,5.65-.253" transform="translate(-516.185 -187.587)" fill="#f6a49d"/>
              <path id="Trazado_890696" data-name="Trazado 890696" d="M735.872,199.032s.043-.226.114-.61c0-.024.009-.048.012-.074.01-.044.019-.092.028-.144.329-1.771.794-4.412,1.01-5.969.275-2.006-2.726-2.9-2.726-2.9s.038-.067.109-.185l0,0c.469-.8,2.273-3.872,2.734-4.774.53-1.042-.294-2.617-.294-2.617s-4.378,4.025-5.524,7.56A35.3,35.3,0,0,0,730.2,197.9c-.011.167-.016.258-.016.258Z" transform="translate(-563.585 -140.287)" fill="#f6a49d"/>
              <path id="Trazado_890697" data-name="Trazado 890697" d="M746.792,211.509c.477-.928,4.486-7.426,4.732-8.08.566-1.509-.418-1.524-.418-1.524.293-1.841-1.063-2.166-1.063-2.166a1.514,1.514,0,0,0-1.134-1.151c-.755-.195-3.173,2.453-4.133,3.547-.248.286-.4.463-.4.463l-.775,8.524,0,.028.219.02s2.947.392,2.975.338" transform="translate(-573.941 -153.273)" fill="#f6a49d"/>
              <path id="Trazado_890698" data-name="Trazado 890698" d="M560.346,342.4a4.647,4.647,0,0,0,4.252,2.8,4.331,4.331,0,0,0,.594-.037l16.531-2.512,10.184-1.548,2.068-11.732-13.453,2.5-16.358,3.037a4.684,4.684,0,0,0-3.644,3.187l-.338,1.087a4.628,4.628,0,0,0,.164,3.22" transform="translate(-432.208 -254.227)" fill="#f6a49d"/>
              <path id="Trazado_890699" data-name="Trazado 890699" d="M569.564,353.562a4.569,4.569,0,0,0,.9.091,4.4,4.4,0,0,0,.594-.036l16.531-2.512-1.2-10.782-16.358,3.037a4.6,4.6,0,0,0-1.078.329c-1.964,2.95-1.9,8.271.607,9.873" transform="translate(-438.079 -262.677)" fill="#d47c74"/>
              <path id="Trazado_890700" data-name="Trazado 890700" d="M577.332,340.764l1.372,12.254s-14.911,3.526-18.145,1.456-2.4-10.3,1.59-11.69Z" transform="translate(-431.128 -263.017)" fill="#f8cd20"/>
              <path id="Trazado_890701" data-name="Trazado 890701" d="M559.8,389.692a53.964,53.964,0,0,1,1.735,12.413s2-7.633.771-10.062-2.506-2.352-2.506-2.352" transform="translate(-432.081 -300.782)" fill="#f8cd20"/>
              <path id="Trazado_890702" data-name="Trazado 890702" d="M710.785,1196.206H678.422v-11.435c0-3.837,2.648-6.959,5.9-6.959h20.556c3.255,0,5.9,3.122,5.9,6.959Zm-28.89-4.094h25.418v-7.341a2.678,2.678,0,0,0-2.431-2.866H684.325a2.678,2.678,0,0,0-2.431,2.866Z" transform="translate(-523.636 -909.087)" fill="#f35923"/>
              <path id="Trazado_890703" data-name="Trazado 890703" d="M657.787,1270.657H590.258a3.28,3.28,0,0,1-3.28-3.28v-38.8a3.28,3.28,0,0,1,3.28-3.281h67.529a3.28,3.28,0,0,1,3.28,3.281v38.8a3.28,3.28,0,0,1-3.28,3.28" transform="translate(-453.055 -945.74)" fill="#fabca7"/>
              <path id="Trazado_890704" data-name="Trazado 890704" d="M653.976,1280.757H580.919a2.46,2.46,0,0,1-2.46-2.46v-3.049a2.46,2.46,0,0,1,2.46-2.46h73.057a2.46,2.46,0,0,1,2.46,2.46v3.049a2.46,2.46,0,0,1-2.46,2.46" transform="translate(-446.48 -982.394)" fill="#923615"/>
              <rect id="Rectángulo_401635" data-name="Rectángulo 401635" width="77.977" height="0.982" transform="translate(131.979 293.887)" fill="#c3471c"/>
              <path id="Trazado_890705" data-name="Trazado 890705" d="M724.159,1256.161v12.555H703.021v-12.555h8.871v1.31a1.7,1.7,0,0,0,3.4,0v-1.31Z" transform="translate(-542.622 -969.56)" fill="#c3471c"/>
              <rect id="Rectángulo_401636" data-name="Rectángulo 401636" width="21.138" height="1.855" transform="translate(160.399 291.95)" fill="#f35923"/>
              <path id="Trazado_890706" data-name="Trazado 890706" d="M621.981,1340.915h-3.292a2.009,2.009,0,0,1-2.009-2.009v-16.86a2.009,2.009,0,0,1,2.009-2.009h3.292a2.009,2.009,0,0,1,2.009,2.009v16.86a2.009,2.009,0,0,1-2.009,2.009" transform="translate(-475.98 -1018.863)" fill="#f35923"/>
              <path id="Trazado_890707" data-name="Trazado 890707" d="M680.3,1340.915h-3.292a2.009,2.009,0,0,1-2.009-2.009v-16.86a2.009,2.009,0,0,1,2.009-2.009H680.3a2.009,2.009,0,0,1,2.009,2.009v16.86a2.009,2.009,0,0,1-2.009,2.009" transform="translate(-520.996 -1018.863)" fill="#f35923"/>
              <path id="Trazado_890708" data-name="Trazado 890708" d="M738.625,1340.915h-3.292a2.009,2.009,0,0,1-2.009-2.009v-16.86a2.009,2.009,0,0,1,2.009-2.009h3.292a2.009,2.009,0,0,1,2.009,2.009v16.86a2.009,2.009,0,0,1-2.009,2.009" transform="translate(-566.011 -1018.863)" fill="#f35923"/>
              <path id="Trazado_890709" data-name="Trazado 890709" d="M796.947,1340.915h-3.292a2.009,2.009,0,0,1-2.009-2.009v-16.86a2.009,2.009,0,0,1,2.009-2.009h3.292a2.009,2.009,0,0,1,2.009,2.009v16.86a2.009,2.009,0,0,1-2.009,2.009" transform="translate(-611.027 -1018.863)" fill="#f35923"/>
              <path id="Trazado_890710" data-name="Trazado 890710" d="M855.269,1340.915h-3.292a2.009,2.009,0,0,1-2.009-2.009v-16.86a2.009,2.009,0,0,1,2.009-2.009h3.292a2.009,2.009,0,0,1,2.009,2.009v16.86a2.009,2.009,0,0,1-2.009,2.009" transform="translate(-656.042 -1018.863)" fill="#f35923"/>
            </g>
          </g>
        </g>
      </g>
    </g>
  </g>
</svg>
