<svg xmlns="http://www.w3.org/2000/svg" xmlns:xlink="http://www.w3.org/1999/xlink" width="324.486" height="253" viewBox="0 0 324.486 253">
  <defs>
    <clipPath id="clip-path">
      <rect id="Rectángulo_401435" data-name="Rectángulo 401435" width="324.486" height="253" fill="none"/>
    </clipPath>
  </defs>
  <g id="Grupo_1102061" data-name="Grupo 1102061" transform="translate(-231.468 -502.411)">
    <g id="Grupo_1099516" data-name="Grupo 1099516" transform="translate(231.468 502.411)">
      <rect id="Rectángulo_401405" data-name="Rectángulo 401405" width="256.149" height="145.653" transform="translate(37.009 48.015)" fill="#cce1d7"/>
      <path id="Trazado_881556" data-name="Trazado 881556" d="M316.64,172.782v62.842H90.105V174.679l36.889-18.227,30.406,2.266,27.033-.668,31.478-15.875,27.219,11.67,23.244-3.487,34.55,11.63Z" transform="translate(-36.594 -57.74)" fill="#016835"/>
      <g id="Grupo_1099515" data-name="Grupo 1099515">
        <g id="Grupo_1099514" data-name="Grupo 1099514" clip-path="url(#clip-path)">
          <path id="Trazado_881557" data-name="Trazado 881557" d="M89.86,174.792a.359.359,0,0,1-.16-.68l36.71-18.227a.325.325,0,0,1,.186-.036l30.585,2.266,26.918-.666L215.5,141.609a.359.359,0,0,1,.3-.009l27.125,11.629,23.209-3.507a.371.371,0,0,1,.169.015L300.795,161.4a.373.373,0,0,1,.089.044L316.6,172.241a.359.359,0,1,1-.406.592l-15.674-10.767-34.353-11.621-23.225,3.51a.376.376,0,0,1-.2-.026l-27.064-11.6-31.329,15.8a.353.353,0,0,1-.153.039l-27.033.668-30.523-2.26L90.019,174.755a.354.354,0,0,1-.159.037" transform="translate(-36.348 -57.495)" fill="#fff"/>
          <path id="Trazado_881558" data-name="Trazado 881558" d="M90.105,253.527l36.71-15.551L157.4,220.817l27.033-.353,31.657-15.348,27.219,24.857,22.885-5.754,34.55-8.7,15.895,6.963v38.7H90.105Z" transform="translate(-36.594 -83.302)" fill="#013f20"/>
          <path id="Trazado_881559" data-name="Trazado 881559" d="M151.8,167.706a.179.179,0,0,1-.179-.179v-1.435a.179.179,0,0,1,.359,0v1.435a.179.179,0,0,1-.179.179" transform="translate(-61.575 -67.381)" fill="#cfccff"/>
          <path id="Trazado_881560" data-name="Trazado 881560" d="M151.8,243.624a.18.18,0,0,1-.179-.179v-2.879a.179.179,0,1,1,.359,0v2.879a.18.18,0,0,1-.179.179m0-7.2a.179.179,0,0,1-.179-.179v-2.879a.179.179,0,1,1,.359,0v2.879a.179.179,0,0,1-.179.179m0-7.2a.18.18,0,0,1-.179-.179v-2.88a.179.179,0,1,1,.359,0v2.88a.18.18,0,0,1-.179.179m0-7.2a.18.18,0,0,1-.179-.179v-2.879a.179.179,0,1,1,.359,0v2.879a.18.18,0,0,1-.179.179m0-7.2a.179.179,0,0,1-.179-.179v-2.879a.179.179,0,1,1,.359,0v2.879a.179.179,0,0,1-.179.179m0-7.2a.18.18,0,0,1-.179-.179v-2.879a.179.179,0,1,1,.359,0v2.879a.18.18,0,0,1-.179.179m0-7.2a.18.18,0,0,1-.179-.179v-2.88a.179.179,0,1,1,.359,0v2.88a.18.18,0,0,1-.179.179m0-7.2a.179.179,0,0,1-.179-.179v-2.879a.179.179,0,1,1,.359,0v2.879a.179.179,0,0,1-.179.179m0-7.2a.18.18,0,0,1-.179-.179v-2.879a.179.179,0,1,1,.359,0v2.879a.18.18,0,0,1-.179.179m0-7.2a.179.179,0,0,1-.179-.179v-2.88a.179.179,0,1,1,.359,0v2.88a.179.179,0,0,1-.179.179" transform="translate(-61.575 -71.315)" fill="#cfccff"/>
          <path id="Trazado_881561" data-name="Trazado 881561" d="M151.8,298.6a.18.18,0,0,1-.179-.179V296.99a.179.179,0,1,1,.359,0v1.435a.18.18,0,0,1-.179.179" transform="translate(-61.575 -120.541)" fill="#cfccff"/>
          <path id="Trazado_881562" data-name="Trazado 881562" d="M203.3,171.522a.179.179,0,0,1-.179-.179v-1.435a.179.179,0,1,1,.359,0v1.435a.179.179,0,0,1-.179.179" transform="translate(-82.491 -68.931)" fill="#cfccff"/>
          <path id="Trazado_881563" data-name="Trazado 881563" d="M203.3,245.215a.18.18,0,0,1-.179-.179v-2.794a.179.179,0,1,1,.359,0v2.794a.18.18,0,0,1-.179.179m0-6.985a.179.179,0,0,1-.179-.179v-2.794a.179.179,0,1,1,.359,0v2.794a.179.179,0,0,1-.179.179m0-6.984a.18.18,0,0,1-.179-.18v-2.794a.179.179,0,0,1,.359,0v2.794a.18.18,0,0,1-.179.18m0-6.985a.18.18,0,0,1-.179-.179v-2.794a.179.179,0,1,1,.359,0v2.794a.18.18,0,0,1-.179.179m0-6.985a.18.18,0,0,1-.179-.179V214.3a.179.179,0,1,1,.359,0V217.1a.18.18,0,0,1-.179.179m0-6.985a.18.18,0,0,1-.179-.179v-2.794a.179.179,0,1,1,.359,0v2.794a.18.18,0,0,1-.179.179m0-6.985a.179.179,0,0,1-.179-.179v-2.794a.179.179,0,1,1,.359,0v2.794a.179.179,0,0,1-.179.179m0-6.985a.179.179,0,0,1-.179-.179v-2.793a.179.179,0,1,1,.359,0v2.793a.179.179,0,0,1-.179.179m0-6.984a.18.18,0,0,1-.179-.179v-2.794a.179.179,0,1,1,.359,0v2.794a.18.18,0,0,1-.179.179m0-6.985a.179.179,0,0,1-.179-.179v-2.794a.179.179,0,1,1,.359,0v2.794a.179.179,0,0,1-.179.179" transform="translate(-82.491 -72.778)" fill="#cfccff"/>
          <path id="Trazado_881564" data-name="Trazado 881564" d="M203.3,298.6a.18.18,0,0,1-.179-.179V296.99a.179.179,0,1,1,.359,0v1.435a.18.18,0,0,1-.179.179" transform="translate(-82.491 -120.541)" fill="#cfccff"/>
          <path id="Trazado_881565" data-name="Trazado 881565" d="M248.817,170.4a.179.179,0,0,1-.179-.179v-1.435a.179.179,0,0,1,.359,0v1.435a.179.179,0,0,1-.179.179" transform="translate(-100.977 -68.474)" fill="#cfccff"/>
          <path id="Trazado_881566" data-name="Trazado 881566" d="M248.817,244.746a.18.18,0,0,1-.179-.179v-2.819a.179.179,0,1,1,.359,0v2.819a.18.18,0,0,1-.179.179m0-7.048a.18.18,0,0,1-.179-.179V234.7a.179.179,0,1,1,.359,0v2.819a.18.18,0,0,1-.179.179m0-7.048a.179.179,0,0,1-.179-.179v-2.819a.179.179,0,1,1,.359,0v2.819a.179.179,0,0,1-.179.179m0-7.048a.179.179,0,0,1-.179-.179v-2.819a.179.179,0,0,1,.359,0v2.819a.179.179,0,0,1-.179.179m0-7.048a.179.179,0,0,1-.179-.179v-2.819a.179.179,0,1,1,.359,0v2.819a.179.179,0,0,1-.179.179m0-7.048a.179.179,0,0,1-.179-.179V206.51a.179.179,0,1,1,.359,0v2.819a.179.179,0,0,1-.179.179m0-7.047a.18.18,0,0,1-.179-.18v-2.819a.179.179,0,1,1,.359,0v2.819a.18.18,0,0,1-.179.18m0-7.048a.179.179,0,0,1-.179-.179v-2.819a.179.179,0,0,1,.359,0v2.819a.179.179,0,0,1-.179.179m0-7.047a.18.18,0,0,1-.179-.179v-2.819a.179.179,0,1,1,.359,0v2.819a.18.18,0,0,1-.179.179m0-7.048a.179.179,0,0,1-.179-.179v-2.819a.179.179,0,1,1,.359,0v2.819a.179.179,0,0,1-.179.179" transform="translate(-100.977 -72.346)" fill="#cfccff"/>
          <path id="Trazado_881567" data-name="Trazado 881567" d="M248.817,298.6a.18.18,0,0,1-.179-.179V296.99a.179.179,0,1,1,.359,0v1.435a.18.18,0,0,1-.179.179" transform="translate(-100.977 -120.541)" fill="#cfccff"/>
          <path id="Trazado_881568" data-name="Trazado 881568" d="M301.821,143.667a.18.18,0,0,1-.179-.179v-1.435a.179.179,0,1,1,.359,0v1.435a.18.18,0,0,1-.179.179" transform="translate(-122.503 -57.618)" fill="#cfccff"/>
          <path id="Trazado_881569" data-name="Trazado 881569" d="M301.821,233.863a.18.18,0,0,1-.179-.179v-2.876a.179.179,0,1,1,.359,0v2.876a.18.18,0,0,1-.179.179m0-7.189a.18.18,0,0,1-.179-.179V223.62a.179.179,0,1,1,.359,0v2.875a.18.18,0,0,1-.179.179m0-7.188a.18.18,0,0,1-.179-.179v-2.876a.179.179,0,1,1,.359,0v2.876a.18.18,0,0,1-.179.179m0-7.189a.18.18,0,0,1-.179-.179v-2.876a.179.179,0,1,1,.359,0v2.876a.18.18,0,0,1-.179.179m0-7.189a.18.18,0,0,1-.179-.18v-2.875a.179.179,0,1,1,.359,0v2.875a.18.18,0,0,1-.179.18m0-7.189a.18.18,0,0,1-.179-.179v-2.876a.179.179,0,1,1,.359,0v2.876a.18.18,0,0,1-.179.179m0-7.189a.18.18,0,0,1-.179-.179v-2.876a.179.179,0,1,1,.359,0v2.876a.18.18,0,0,1-.179.179m0-7.188a.18.18,0,0,1-.179-.179v-2.876a.179.179,0,1,1,.359,0v2.876a.18.18,0,0,1-.179.179m0-7.189a.18.18,0,0,1-.179-.179V173.3a.179.179,0,1,1,.359,0v2.876a.18.18,0,0,1-.179.179m0-7.189a.18.18,0,0,1-.179-.179v-2.875a.179.179,0,1,1,.359,0v2.875a.18.18,0,0,1-.179.179m0-7.188a.18.18,0,0,1-.179-.179V158.92a.179.179,0,1,1,.359,0V161.8a.18.18,0,0,1-.179.179m0-7.189a.18.18,0,0,1-.179-.179v-2.876a.179.179,0,1,1,.359,0v2.876a.18.18,0,0,1-.179.179" transform="translate(-122.503 -61.549)" fill="#cfccff"/>
          <path id="Trazado_881570" data-name="Trazado 881570" d="M301.821,298.6a.18.18,0,0,1-.179-.179V296.99a.179.179,0,1,1,.359,0v1.435a.18.18,0,0,1-.179.179" transform="translate(-122.503 -120.541)" fill="#cfccff"/>
          <path id="Trazado_881571" data-name="Trazado 881571" d="M347.654,163.316a.18.18,0,0,1-.179-.179V161.7a.179.179,0,1,1,.359,0v1.435a.18.18,0,0,1-.179.179" transform="translate(-141.117 -65.598)" fill="#cfccff"/>
          <path id="Trazado_881572" data-name="Trazado 881572" d="M347.654,241.795a.18.18,0,0,1-.179-.179v-2.977a.179.179,0,1,1,.359,0v2.977a.18.18,0,0,1-.179.179m0-7.444a.18.18,0,0,1-.179-.179v-2.978a.179.179,0,1,1,.359,0v2.978a.18.18,0,0,1-.179.179m0-7.444a.18.18,0,0,1-.179-.179v-2.978a.179.179,0,1,1,.359,0v2.978a.18.18,0,0,1-.179.179m0-7.444a.18.18,0,0,1-.179-.179v-2.978a.179.179,0,1,1,.359,0v2.978a.18.18,0,0,1-.179.179m0-7.445a.18.18,0,0,1-.179-.179v-2.977a.179.179,0,1,1,.359,0v2.977a.18.18,0,0,1-.179.179m0-7.444a.18.18,0,0,1-.179-.179v-2.978a.179.179,0,0,1,.359,0v2.978a.18.18,0,0,1-.179.179m0-7.444a.18.18,0,0,1-.179-.179v-2.978a.179.179,0,0,1,.359,0v2.978a.18.18,0,0,1-.179.179m0-7.444a.18.18,0,0,1-.179-.179v-2.978a.179.179,0,1,1,.359,0v2.978a.18.18,0,0,1-.179.179m0-7.445a.18.18,0,0,1-.179-.179v-2.978a.179.179,0,1,1,.359,0v2.978a.18.18,0,0,1-.179.179m0-7.444a.18.18,0,0,1-.179-.179v-2.978a.179.179,0,1,1,.359,0v2.978a.18.18,0,0,1-.179.179" transform="translate(-141.117 -69.634)" fill="#cfccff"/>
          <path id="Trazado_881573" data-name="Trazado 881573" d="M347.654,298.6a.18.18,0,0,1-.179-.179V296.99a.179.179,0,1,1,.359,0v1.435a.18.18,0,0,1-.179.179" transform="translate(-141.117 -120.541)" fill="#cfccff"/>
          <path id="Trazado_881574" data-name="Trazado 881574" d="M386.793,157.384a.18.18,0,0,1-.179-.179V155.77a.179.179,0,1,1,.359,0v1.435a.18.18,0,0,1-.179.179" transform="translate(-157.012 -63.189)" fill="#cfccff"/>
          <path id="Trazado_881575" data-name="Trazado 881575" d="M386.793,239.45a.18.18,0,0,1-.179-.179v-2.842a.179.179,0,1,1,.359,0v2.842a.18.18,0,0,1-.179.179m0-7.106a.18.18,0,0,1-.179-.179v-2.842a.179.179,0,1,1,.359,0v2.842a.18.18,0,0,1-.179.179m0-7.106a.18.18,0,0,1-.179-.179v-2.842a.179.179,0,0,1,.359,0v2.842a.18.18,0,0,1-.179.179m0-7.106a.18.18,0,0,1-.179-.179V215.11a.179.179,0,1,1,.359,0v2.842a.18.18,0,0,1-.179.179m0-7.106a.18.18,0,0,1-.179-.179V208a.179.179,0,1,1,.359,0v2.843a.18.18,0,0,1-.179.179m0-7.106a.18.18,0,0,1-.179-.179V200.9a.179.179,0,1,1,.359,0v2.843a.18.18,0,0,1-.179.179m0-7.106a.18.18,0,0,1-.179-.179v-2.842a.179.179,0,1,1,.359,0v2.842a.18.18,0,0,1-.179.179m0-7.106a.18.18,0,0,1-.179-.179v-2.842a.179.179,0,1,1,.359,0v2.842a.18.18,0,0,1-.179.179m0-7.106a.18.18,0,0,1-.179-.179v-2.843a.179.179,0,0,1,.359,0v2.843a.18.18,0,0,1-.179.179m0-7.106a.18.18,0,0,1-.179-.179v-2.842a.179.179,0,1,1,.359,0v2.842a.18.18,0,0,1-.179.179m0-7.106a.18.18,0,0,1-.179-.179v-2.842a.179.179,0,1,1,.359,0v2.842a.18.18,0,0,1-.179.179" transform="translate(-157.012 -67.086)" fill="#cfccff"/>
          <path id="Trazado_881576" data-name="Trazado 881576" d="M386.793,298.6a.18.18,0,0,1-.179-.179V296.99a.179.179,0,1,1,.359,0v1.435a.18.18,0,0,1-.179.179" transform="translate(-157.012 -120.541)" fill="#cfccff"/>
          <path id="Trazado_881577" data-name="Trazado 881577" d="M444.97,177.027a.18.18,0,0,1-.179-.179v-1.435a.179.179,0,0,1,.359,0v1.435a.18.18,0,0,1-.179.179" transform="translate(-180.639 -71.166)" fill="#cfccff"/>
          <path id="Trazado_881578" data-name="Trazado 881578" d="M444.97,247.377a.18.18,0,0,1-.179-.179v-2.949a.179.179,0,0,1,.359,0V247.2a.18.18,0,0,1-.179.179m0-7.372a.18.18,0,0,1-.179-.179v-2.949a.179.179,0,0,1,.359,0v2.949a.18.18,0,0,1-.179.179m0-7.371a.18.18,0,0,1-.179-.179v-2.949a.179.179,0,0,1,.359,0v2.949a.18.18,0,0,1-.179.179m0-7.372a.18.18,0,0,1-.179-.18v-2.948a.179.179,0,0,1,.359,0v2.948a.18.18,0,0,1-.179.18m0-7.372a.18.18,0,0,1-.179-.179v-2.948a.179.179,0,0,1,.359,0v2.948a.18.18,0,0,1-.179.179m0-7.372a.18.18,0,0,1-.179-.179v-2.949a.179.179,0,0,1,.359,0v2.949a.18.18,0,0,1-.179.179m0-7.371a.18.18,0,0,1-.179-.179v-2.949a.179.179,0,1,1,.359,0v2.949a.18.18,0,0,1-.179.179m0-7.371a.18.18,0,0,1-.179-.179v-2.949a.179.179,0,1,1,.359,0V195.6a.18.18,0,0,1-.179.179m0-7.372a.18.18,0,0,1-.179-.179v-2.949a.179.179,0,0,1,.359,0v2.949a.18.18,0,0,1-.179.179" transform="translate(-180.639 -75.172)" fill="#cfccff"/>
          <path id="Trazado_881579" data-name="Trazado 881579" d="M444.97,298.6a.18.18,0,0,1-.179-.179V296.99a.179.179,0,1,1,.359,0v1.435a.18.18,0,0,1-.179.179" transform="translate(-180.639 -120.541)" fill="#cfccff"/>
          <path id="Trazado_881580" data-name="Trazado 881580" d="M348.6,160.043a2.607,2.607,0,1,1-2.607-2.607,2.607,2.607,0,0,1,2.607,2.607" transform="translate(-139.457 -63.938)" fill="#fff7d6"/>
          <path id="Trazado_881581" data-name="Trazado 881581" d="M348.4,160.47a1.982,1.982,0,1,1-1.982-1.982,1.982,1.982,0,0,1,1.982,1.982" transform="translate(-139.884 -64.365)" fill="#f8cd20"/>
          <path id="Trazado_881582" data-name="Trazado 881582" d="M445.918,173.754a2.607,2.607,0,1,1-2.607-2.607,2.607,2.607,0,0,1,2.607,2.607" transform="translate(-178.979 -69.506)" fill="#fff7d6"/>
          <path id="Trazado_881583" data-name="Trazado 881583" d="M445.721,174.181a1.982,1.982,0,1,1-1.982-1.982,1.982,1.982,0,0,1,1.982,1.982" transform="translate(-179.407 -69.934)" fill="#f8cd20"/>
          <path id="Trazado_881584" data-name="Trazado 881584" d="M302.768,140.393a2.607,2.607,0,1,1-2.607-2.607,2.607,2.607,0,0,1,2.607,2.607" transform="translate(-120.843 -55.958)" fill="#fff7d6"/>
          <path id="Trazado_881585" data-name="Trazado 881585" d="M302.571,140.82a1.982,1.982,0,1,1-1.982-1.982,1.982,1.982,0,0,1,1.982,1.982" transform="translate(-121.271 -56.385)" fill="#f8cd20"/>
          <path id="Trazado_881586" data-name="Trazado 881586" d="M249.765,167.124a2.607,2.607,0,1,1-2.607-2.607,2.606,2.606,0,0,1,2.607,2.607" transform="translate(-99.317 -66.814)" fill="#fff7d6"/>
          <path id="Trazado_881587" data-name="Trazado 881587" d="M249.567,167.551a1.982,1.982,0,1,1-1.982-1.982,1.982,1.982,0,0,1,1.982,1.982" transform="translate(-99.745 -67.241)" fill="#f8cd20"/>
          <path id="Trazado_881588" data-name="Trazado 881588" d="M204.244,168.249a2.607,2.607,0,1,1-2.607-2.607,2.606,2.606,0,0,1,2.607,2.607" transform="translate(-80.83 -67.271)" fill="#fff7d6"/>
          <path id="Trazado_881589" data-name="Trazado 881589" d="M204.047,168.676a1.982,1.982,0,1,1-1.982-1.982,1.982,1.982,0,0,1,1.982,1.982" transform="translate(-81.258 -67.698)" fill="#f8cd20"/>
          <path id="Trazado_881590" data-name="Trazado 881590" d="M152.743,164.432a2.607,2.607,0,1,1-2.607-2.607,2.607,2.607,0,0,1,2.607,2.607" transform="translate(-59.915 -65.721)" fill="#fff7d6"/>
          <path id="Trazado_881591" data-name="Trazado 881591" d="M152.546,164.859a1.982,1.982,0,1,1-1.982-1.982,1.982,1.982,0,0,1,1.982,1.982" transform="translate(-60.342 -66.148)" fill="#f8cd20"/>
          <path id="Trazado_881592" data-name="Trazado 881592" d="M319.462,218.928H89.5V100.181h.717v118.03H319.462Z" transform="translate(-36.348 -40.686)" fill="#fff"/>
          <rect id="Rectángulo_401406" data-name="Rectángulo 401406" width="25.555" height="5.555" transform="translate(208.519 56.475)" fill="#38b449"/>
          <rect id="Rectángulo_401407" data-name="Rectángulo 401407" width="39.82" height="5.555" transform="translate(240.227 56.475)" fill="#38b449"/>
          <path id="Trazado_881593" data-name="Trazado 881593" d="M390.778,147.6a12.214,12.214,0,1,1-12.214-12.214A12.214,12.214,0,0,1,390.778,147.6" transform="translate(-148.782 -54.983)" fill="#fff7d6"/>
          <path id="Trazado_881594" data-name="Trazado 881594" d="M389.051,151.335a6.752,6.752,0,1,1-6.752-6.752,6.752,6.752,0,0,1,6.752,6.752" transform="translate(-152.518 -58.718)" fill="#ffe992"/>
          <path id="Trazado_881595" data-name="Trazado 881595" d="M388.371,152.806a4.6,4.6,0,1,1-4.6-4.6,4.6,4.6,0,0,1,4.6,4.6" transform="translate(-153.988 -60.189)" fill="#ffe168"/>
          <path id="Trazado_881596" data-name="Trazado 881596" d="M387.691,154.277a2.45,2.45,0,1,1-2.45-2.45,2.45,2.45,0,0,1,2.45,2.45" transform="translate(-155.459 -61.66)" fill="#f8cd20"/>
          <rect id="Rectángulo_401408" data-name="Rectángulo 401408" width="116.733" height="86.416" transform="translate(0 0.001)" fill="#013f20"/>
          <path id="Trazado_881597" data-name="Trazado 881597" d="M39.774,90.592l-10.9,15.474A36.385,36.385,0,0,1,15.314,87.773l17.959-5.93a17.338,17.338,0,0,0,6.5,8.749" transform="translate(-6.219 -33.238)" fill="#fff"/>
          <path id="Trazado_881598" data-name="Trazado 881598" d="M95.355,47.836a36.3,36.3,0,0,1-57.2,29.677l10.9-15.474A17.38,17.38,0,1,0,59.056,30.454V11.537a36.3,36.3,0,0,1,36.3,36.3" transform="translate(-15.496 -4.685)" fill="#f8cd20"/>
          <path id="Trazado_881599" data-name="Trazado 881599" d="M48.53,11.536V30.454A17.386,17.386,0,0,0,32.024,53.29L14.064,59.22A36.31,36.31,0,0,1,48.53,11.536" transform="translate(-4.97 -4.685)" fill="#f35923"/>
          <rect id="Rectángulo_401409" data-name="Rectángulo 401409" width="22.636" height="4.398" transform="translate(87.431 61.705)" fill="#38b449"/>
          <rect id="Rectángulo_401410" data-name="Rectángulo 401410" width="28.458" height="4.398" transform="translate(81.609 71.21)" fill="#38b449"/>
          <rect id="Rectángulo_401411" data-name="Rectángulo 401411" width="7.222" height="4.86" transform="translate(97.291 36.801)" fill="#f8cd20"/>
          <rect id="Rectángulo_401412" data-name="Rectángulo 401412" width="7.222" height="4.86" transform="translate(97.291 25.588)" fill="#fff"/>
          <rect id="Rectángulo_401413" data-name="Rectángulo 401413" width="7.222" height="4.86" transform="translate(97.291 14.374)" fill="#f35923"/>
          <path id="Trazado_881600" data-name="Trazado 881600" d="M120.211,89.648H2.761V2.514h117.45ZM3.478,88.93H119.494V3.231H3.478Z" transform="translate(-1.121 -1.021)" fill="#c3471c"/>
          <rect id="Rectángulo_401414" data-name="Rectángulo 401414" width="33.837" height="4.999" transform="translate(126.408 26.479)" fill="#013f20"/>
          <rect id="Rectángulo_401415" data-name="Rectángulo 401415" width="33.837" height="4.999" transform="translate(126.408 6.852)" fill="#013f20"/>
          <rect id="Rectángulo_401416" data-name="Rectángulo 401416" width="21.123" height="4.999" transform="translate(126.408 14.304)" fill="#013f20"/>
          <rect id="Rectángulo_401417" data-name="Rectángulo 401417" width="16.294" height="3.605" transform="translate(22.855 102.189)" fill="#013f20"/>
          <rect id="Rectángulo_401418" data-name="Rectángulo 401418" width="32.033" height="3.605" transform="translate(14.986 107.774)" fill="#013f20"/>
          <rect id="Rectángulo_401419" data-name="Rectángulo 401419" width="23.701" height="3.605" transform="translate(19.152 113.359)" fill="#013f20"/>
          <rect id="Rectángulo_401420" data-name="Rectángulo 401420" width="16.294" height="3.605" transform="translate(22.855 128.93)" fill="#013f20"/>
          <rect id="Rectángulo_401421" data-name="Rectángulo 401421" width="32.033" height="3.605" transform="translate(14.986 134.515)" fill="#013f20"/>
          <rect id="Rectángulo_401422" data-name="Rectángulo 401422" width="23.701" height="3.605" transform="translate(19.152 140.1)" fill="#013f20"/>
          <rect id="Rectángulo_401423" data-name="Rectángulo 401423" width="44.081" height="85.725" transform="translate(278.739 75.615)" fill="#38b449"/>
          <path id="Trazado_881601" data-name="Trazado 881601" d="M515.749,215.814h-44.8V129.371h44.8Zm-44.081-.718h43.363V130.088H471.668Z" transform="translate(-191.263 -52.54)" fill="#c3471c"/>
          <rect id="Rectángulo_401424" data-name="Rectángulo 401424" width="8.043" height="22.672" transform="translate(285.092 133.136)" fill="#fff"/>
          <rect id="Rectángulo_401425" data-name="Rectángulo 401425" width="8.043" height="70.082" transform="translate(296.758 85.726)" fill="#f8cd20"/>
          <rect id="Rectángulo_401426" data-name="Rectángulo 401426" width="8.043" height="41.895" transform="translate(308.423 113.914)" fill="#f35923"/>
          <rect id="Rectángulo_401427" data-name="Rectángulo 401427" width="9.629" height="4.444" transform="translate(274.862 203.679)" fill="#f35923"/>
          <rect id="Rectángulo_401428" data-name="Rectángulo 401428" width="9.629" height="4.444" transform="translate(274.862 212.752)" fill="#f35923"/>
          <rect id="Rectángulo_401429" data-name="Rectángulo 401429" width="9.629" height="4.444" transform="translate(274.862 221.825)" fill="#f35923"/>
          <rect id="Rectángulo_401430" data-name="Rectángulo 401430" width="30.357" height="4.444" transform="translate(288.188 203.679)" fill="#016835"/>
          <rect id="Rectángulo_401431" data-name="Rectángulo 401431" width="26.855" height="4.444" transform="translate(288.188 212.752)" fill="#016835"/>
          <rect id="Rectángulo_401432" data-name="Rectángulo 401432" width="32.409" height="4.444" transform="translate(288.188 221.825)" fill="#016835"/>
          <path id="Trazado_881602" data-name="Trazado 881602" d="M421.729,404.956c0,4.911-14.257,8.893-31.844,8.893s-31.844-3.982-31.844-8.893,14.257-8.893,31.844-8.893,31.844,3.982,31.844,8.893" transform="translate(-145.408 -160.85)" fill="#8eb7cc"/>
          <path id="Trazado_881603" data-name="Trazado 881603" d="M433.421,403.974c0,1.386-2.679,4.5-5.882,6.059-2.4,1.17-6.475.593-8.377.223-.647-.124-1.047-.223-1.047-.223l.554-3.5a23.069,23.069,0,0,1,2.579-2.171,16.947,16.947,0,0,1,5.466-2.741c4.319-1.124,6.706.963,6.706,2.356" transform="translate(-169.806 -162.975)" fill="#1b348c"/>
          <path id="Trazado_881604" data-name="Trazado 881604" d="M434.137,403.974c0,1.386-2.679,4.5-5.882,6.059-2.4,1.17-6.475.593-8.377.223a54.458,54.458,0,0,1,2.086-5.9,16.947,16.947,0,0,1,5.466-2.741c4.319-1.124,6.706.963,6.706,2.356" transform="translate(-170.522 -162.975)" fill="#001552"/>
          <path id="Trazado_881605" data-name="Trazado 881605" d="M398.762,411.949s-11.439,1.156-18.595-2.014a5.68,5.68,0,0,1,.255-.79c.646-1.614,2.7-5.04,8.3-3.773,1.811.408,3.34.841,4.623,1.249h.009a23.255,23.255,0,0,1,5.4,2.286,11.832,11.832,0,0,1,0,3.042" transform="translate(-154.394 -164.518)" fill="#1b348c"/>
          <path id="Trazado_881606" data-name="Trazado 881606" d="M398.762,412.991s-11.439,1.156-18.595-2.014a5.68,5.68,0,0,1,.255-.79c2.15.646,6.017,1.564,8.3.587a19.164,19.164,0,0,0,4.623-3.111h.009a23.257,23.257,0,0,1,5.4,2.286,11.832,11.832,0,0,1,0,3.042" transform="translate(-154.394 -165.56)" fill="#001552"/>
          <path id="Trazado_881607" data-name="Trazado 881607" d="M427.966,297.323S426.114,318.2,425,328.893c0,0-1.392,27.911-1.808,35.409a43.212,43.212,0,0,1-7.914,0s-.309-4.829-.7-10.978c-.617-9.93-1.421-23.29-1.406-25.264.014-1.622-.847-9.521-1.687-16.9-.423-3.66-.839-7.2-1.14-9.773-.295-2.468-.488-4.061-.488-4.061Z" transform="translate(-166.454 -120.749)" fill="#1b348c"/>
          <path id="Trazado_881608" data-name="Trazado 881608" d="M427.966,297.323S426.114,318.2,425,328.893c0,0-1.392,27.911-1.808,35.409a43.212,43.212,0,0,1-7.914,0s-.309-4.829-.7-10.978l.179-2.21s.236-18.476,0-23.2-3.272-16.76-3.272-16.76l.639-8.926-1.779-.847c-.295-2.468-.488-4.061-.488-4.061Z" transform="translate(-166.454 -120.749)" fill="#001552"/>
          <path id="Trazado_881609" data-name="Trazado 881609" d="M404.7,297.233c-.144.61-7.125,30.1-7.125,30.508s3.2,37.353,3.2,37.353a19.817,19.817,0,0,1-7.354.811c-.7-.043-1.119-.115-1.119-.115l-7.225-38.05c.423-3.889,1.162-29.626,1.162-29.626l6.042-.294,12.219-.589.2-.007Z" transform="translate(-156.386 -120.71)" fill="#1b348c"/>
          <path id="Trazado_881610" data-name="Trazado 881610" d="M399.146,327.747c0,.417,3.2,37.353,3.2,37.353a19.8,19.8,0,0,1-7.354.811l-6.042-36.635,4.133-1.944,6.343-24.3s-3.86-3.775-5.575-5.2a3.059,3.059,0,0,0-.768-.538l12.987-.05h.2c-.144.609-7.125,30.1-7.125,30.508" transform="translate(-157.961 -120.715)" fill="#001552"/>
          <path id="Trazado_881611" data-name="Trazado 881611" d="M407.676,185.232s-1.716-2.271-2.216-3.066-.858-7.731-.786-8.731,3-5.219,7.078-4.433,4.647,5.291,4.218,9.151-1.788,6.935-3.5,7.365-3.926.872-4.79-.286" transform="translate(-164.343 -68.596)" fill="#ffb3a0"/>
          <path id="Trazado_881612" data-name="Trazado 881612" d="M416.514,200.62l-10.5-1.858a35.9,35.9,0,0,0,1.858-6.077c.352-2.361,1.069-2.791,1.069-2.791l6.58,1.435s.222,3.042.488,5.69c.129,1.234.273,2.382.395,3.092.043.216.079.387.115.51" transform="translate(-164.889 -77.12)" fill="#ffb3a0"/>
          <path id="Trazado_881613" data-name="Trazado 881613" d="M417,204.982l-9.514-2.533s6.35-.473,9.119-.559c.13,1.234.273,2.382.395,3.092" transform="translate(-165.488 -81.992)" fill="#c1897c"/>
          <path id="Trazado_881614" data-name="Trazado 881614" d="M405.792,175.567a11.063,11.063,0,0,0-.988-1.794,11.467,11.467,0,0,0-1.143-1.134,36.812,36.812,0,0,1-1.384-4.064c-.257-1.245-.659-2.746.586-3.735a5.268,5.268,0,0,1,2.929-.988,5.3,5.3,0,0,1,4.284-2.013c3.112-.147,6.553.936,8.347,4.294a9.969,9.969,0,0,1,.805,7.824c-.476,1.72-3.661,6-4.027,6.809s-2.087,2.892-3.038,3.112a6.464,6.464,0,0,1-4.393-1.647,7.422,7.422,0,0,1-1.428-3.954,8.361,8.361,0,0,0-.549-2.709" transform="translate(-163.263 -65.721)" fill="#360700"/>
          <path id="Trazado_881615" data-name="Trazado 881615" d="M406.557,184.722a2.482,2.482,0,0,1-1.731-1.517c-.485-1.282-.473-2.612.395-2.554s.978.442.978.442Z" transform="translate(-164.278 -73.365)" fill="#c1897c"/>
          <path id="Trazado_881616" data-name="Trazado 881616" d="M454.541,246.292c-.051.093-.754,1.076-1.794,2.5-.309.423-.653.876-1.012,1.349-3.229,4.19-8.093,9.658-8.215,10.031-.187.552-4.162,2.5-5.834,2.5v-4.994s2.827-.668,4.4-.108l6.249-13.317-4.814-5.834,1.794-1.09,4.133-2.519s4.721,7.032,5.094,7.771a8.468,8.468,0,0,1,0,3.709" transform="translate(-177.754 -95.362)" fill="#ffb3a0"/>
          <path id="Trazado_881617" data-name="Trazado 881617" d="M454.075,247.247s-.559,1.176-2.339,4.621c-3.228,4.19-8.093,9.658-8.215,10.031-.186.552-4.161,2.5-5.834,2.5v-3.523c1.471-.036,3.8-.308,4.4-1.579l6.249-13.317-4.815-5.834,1.794-1.09h1.119s4.449,5.532,5.489,6.378,2.152,1.816,2.152,1.816" transform="translate(-177.754 -97.085)" fill="#c1897c"/>
          <path id="Trazado_881618" data-name="Trazado 881618" d="M447.42,224.94a17.8,17.8,0,0,1-3.013,4.154,9.856,9.856,0,0,1-3.839,2.512l-7.871-6.3,2.232-12.771.359-2.03Z" transform="translate(-175.727 -85.49)" fill="#f6b34f"/>
          <path id="Trazado_881619" data-name="Trazado 881619" d="M444.408,230.483a9.856,9.856,0,0,1-3.839,2.512l-7.871-6.3,2.231-12.771,3.882,11.107Z" transform="translate(-175.728 -86.879)" fill="#f70"/>
          <path id="Trazado_881620" data-name="Trazado 881620" d="M418.692,257.594s-.244.05-.71.129a107.776,107.776,0,0,1-14.077,1.428,98.253,98.253,0,0,1-16.876-.725s2.131-25.091,2.131-26.3c0-.6-.38-6.17-.768-11.66v-.007c-.394-5.6-.789-11.085-.789-11.085l1.141-2.841,2.82-7.039s21.016,3.588,25.177,6.536c0,0,1.291,19.746-.086,26.656-.093.459,2.038,24.9,2.038,24.9" transform="translate(-157.181 -81.02)" fill="#f6b34f"/>
          <path id="Trazado_881621" data-name="Trazado 881621" d="M429.522,269.406a107.669,107.669,0,0,1-14.077,1.428c1.995-2,8.517-8.653,8.675-9.98.186-1.579.509-16.761.509-16.761l2.734-15.828s.18,15.921,0,16.387c-.172.416,1.794,20.944,2.16,24.754" transform="translate(-168.721 -92.703)" fill="#f70"/>
          <path id="Trazado_881622" data-name="Trazado 881622" d="M389.136,211.35l-.352,13.926c-.394-5.6-.789-11.085-.789-11.085Z" transform="translate(-157.573 -85.834)" fill="#f70"/>
          <path id="Trazado_881623" data-name="Trazado 881623" d="M385.309,185.032l-3.544,7.039-6.264-5.058-3.107-2.512s-1.04-2.224-.7-3.057,5.7-17.565,5.7-17.565l2.985.761c-1.04,4.377-2.246,15.369-2.246,15.369Z" transform="translate(-150.926 -66.555)" fill="#ffb3a0"/>
          <path id="Trazado_881624" data-name="Trazado 881624" d="M376.619,199.65l-.6.775-3.107-2.512s-.072-1.3.832-.947,2.87,2.684,2.87,2.684" transform="translate(-151.449 -79.968)" fill="#c1897c"/>
          <path id="Trazado_881625" data-name="Trazado 881625" d="M380.839,183.457l1.691-13.426s-3.5,14.415-3.379,14.768Z" transform="translate(-153.98 -69.053)" fill="#c1897c"/>
          <path id="Trazado_881626" data-name="Trazado 881626" d="M385.308,196.062l-2.82,7.039-1.141,2.841-6.328-4.965-3.394-2.669a31.774,31.774,0,0,1,6.508-7.268Z" transform="translate(-150.925 -77.585)" fill="#f6b34f"/>
          <path id="Trazado_881627" data-name="Trazado 881627" d="M384.809,209.9l-1.141,2.841-6.328-4.965c2.892.8,7.47,2.124,7.47,2.124" transform="translate(-153.245 -84.381)" fill="#f70"/>
          <path id="Trazado_881628" data-name="Trazado 881628" d="M381.251,159.2s-.278-4.166,0-4.791,3.055-2.292,3.889-2.014a13.623,13.623,0,0,1,2.569,1.666s-1.215,2.993-1.076,3.409-2.4,2.493-2.4,2.493l-1.911.625Z" transform="translate(-154.784 -61.879)" fill="#ffb3a0"/>
          <path id="Trazado_881629" data-name="Trazado 881629" d="M387.717,160.7a8.053,8.053,0,0,0,2.326-.417c.694-.347.972-.243.937.208s-1.84,1.642-2.187,1.758-2.43.846-2.43.846Z" transform="translate(-156.91 -65.011)" fill="#ffb3a0"/>
          <path id="Trazado_881630" data-name="Trazado 881630" d="M152.423,236.816s-.447.086-1.118.206c-.254.049-.537.1-.842.159-1.1.207-2.467.455-3.525.649-.492.084-.916.163-1.222.217l-1.656-21.656-.126-1.655a10.015,10.015,0,0,1,5.788,5.581c1.475,4.135,2.7,16.5,2.7,16.5" transform="translate(-58.455 -87.209)" fill="#f04965"/>
          <path id="Trazado_881631" data-name="Trazado 881631" d="M150.548,238.006c-1.6.3-3.771.7-4.746.866l-1.656-21.656.454-.448c-.133.372,2.02,1.8,3.412,6.373,1.207,4,2.2,11.989,2.536,14.865" transform="translate(-58.541 -88.034)" fill="#982c44"/>
          <path id="Trazado_881632" data-name="Trazado 881632" d="M151.663,276.27a4.694,4.694,0,0,1-2.672,1.9,2.506,2.506,0,0,1-.583.131c-.645.048.551-1.56.837-3.139a16.766,16.766,0,0,0,.145-3.588,12.12,12.12,0,0,0-1.131,2.188l-.2.709a2.35,2.35,0,0,1-.774-2.264c.343-1.355,2.2-3.225,2.237-3.941.007-.177.011-.65,0-1.294-.032-1.962-.162-5.532-.367-7.219-.105-.877-.475-3.643-.884-6.678,1.058-.194,2.429-.442,3.525-.649.305-.054.589-.109.842-.158.045,4.032.1,8.155.109,9.575.015,3.1-.611,13.3-1.086,14.431" transform="translate(-59.789 -102.45)" fill="#ffb3a0"/>
          <path id="Trazado_881633" data-name="Trazado 881633" d="M153.359,252.264l-.885,1.214s-.548,10.636-2.231,13.489c-.032-1.961-.162-5.531-.367-7.219-.105-.877-.475-3.643-.884-6.678,1.058-.194,2.429-.442,3.525-.649.305-.055.589-.109.842-.159" transform="translate(-60.509 -102.45)" fill="#c1897c"/>
          <path id="Trazado_881634" data-name="Trazado 881634" d="M150.192,289.319a6.61,6.61,0,0,1-.519,2.05,2.511,2.511,0,0,1-.583.132c-.645.048.552-1.561.837-3.139a16.8,16.8,0,0,0,.144-3.589.731.731,0,0,1,.577.371c.214.371-.415,3.674-.457,4.176" transform="translate(-60.472 -115.652)" fill="#c1897c"/>
          <path id="Trazado_881635" data-name="Trazado 881635" d="M142.672,401.58c0,4.911-12.435,8.893-27.774,8.893s-27.774-3.982-27.774-8.893,12.435-8.893,27.774-8.893,27.774,3.981,27.774,8.893" transform="translate(-35.383 -159.479)" fill="#8eb7cc"/>
          <path id="Trazado_881636" data-name="Trazado 881636" d="M155.9,403.387c-.028.094-.318.173-1.031.186a51,51,0,0,1-5.733-.459,29.5,29.5,0,0,1-9.045-2.621,1.572,1.572,0,0,1-.224-1.571c.382-.858,1.637-4.686,1.637-4.686l5.394,1.145s4.251,3.823,4.988,4.253,3.782.907,4.391,1.685-.308,1.843-.377,2.068" transform="translate(-56.752 -160.107)" fill="#1b348c"/>
          <path id="Trazado_881637" data-name="Trazado 881637" d="M154.871,403.573a51.077,51.077,0,0,1-5.733-.458,29.488,29.488,0,0,1-9.046-2.622,1.571,1.571,0,0,1-.224-1.571c.382-.859,1.638-4.686,1.638-4.686l5.394,1.146a26.645,26.645,0,0,1-4.833.23s-.074,2.738.73,3.854,6.751,2.086,8.476,2.348,3.583.216,3.711.9a1.264,1.264,0,0,1-.112.863" transform="translate(-56.752 -160.107)" fill="#001552"/>
          <path id="Trazado_881638" data-name="Trazado 881638" d="M125.6,407.105a2.358,2.358,0,0,1-2.339,1.908c-1.774-.072-5.754-.8-7.178-2.523a48.874,48.874,0,0,0,.206-5.091,41.468,41.468,0,0,1,.052-4.239l4.474-.507a.05.05,0,0,1,.018-.005s1.707,4.659,2.128,5.535,2.561,3.313,2.7,4.177a1.8,1.8,0,0,1-.059.744" transform="translate(-47.143 -161.088)" fill="#1b348c"/>
          <path id="Trazado_881639" data-name="Trazado 881639" d="M125.6,407.109a2.358,2.358,0,0,1-2.339,1.908c-1.774-.072-5.754-.8-7.178-2.523a48.874,48.874,0,0,0,.206-5.091,41.467,41.467,0,0,1,.052-4.239l4.474-.507a7.207,7.207,0,0,0-2.121,1.057c-.561.552-.769,1-.672,2.419s.371,5.055.371,5.055a3.521,3.521,0,0,0,2.408,1.82c1.4.4,3.318.851,4.069.431a4.258,4.258,0,0,1,.73-.332" transform="translate(-47.143 -161.091)" fill="#001552"/>
          <path id="Trazado_881640" data-name="Trazado 881640" d="M144.318,333.431c-1.45,8.077-2.93,15.791-2.93,15.791s-4.717-.05-6.666-1.416c0,0,1.9-8.222,1.856-14.1s2.294-17.8,2.294-17.8l-12.7-22.272,2.82-13.059,1.926.485,8.984,2.249s6.646,30.326,7.153,32.063c.252.89-1.219,9.67-2.733,18.055" transform="translate(-51.24 -113.949)" fill="#1b348c"/>
          <path id="Trazado_881641" data-name="Trazado 881641" d="M144.945,317.873l-.628,15.558c-1.45,8.077-2.93,15.791-2.93,15.791s-4.717-.05-6.666-1.415c0,0,1.9-8.222,1.856-14.1s2.294-17.8,2.294-17.8l-12.7-22.273,2.82-13.059,1.925.485c.761,2.775,1.45,5.694,1.45,5.694s3.534,18.722,4.211,19.179,4.607,9.357,5.292,10.169a11.117,11.117,0,0,0,3.08,1.766" transform="translate(-51.24 -113.95)" fill="#001552"/>
          <path id="Trazado_881642" data-name="Trazado 881642" d="M124.144,284.051c-.39,6.722-5.117,27.448-6.126,33.029-1.1,6.109-1.6,32.428-1.6,32.428a15.1,15.1,0,0,1-4.376.667c-.755.013-1.234-.029-1.234-.029s-1.6-9.946-2.352-16.13-.147-17.616.074-19.612-1.674-11.665-2.873-18.437.72-14.194.72-14.194,3.847-.762,7.96-1.128c4.513-.395,9.332-.311,9.772,1.785a.6.6,0,0,1,.025.112,8.685,8.685,0,0,1,.006,1.509" transform="translate(-42.751 -113.901)" fill="#1b348c"/>
          <path id="Trazado_881643" data-name="Trazado 881643" d="M110.084,284.535s-2.743,3.994-2.674,7.044,4.132,22.977,4.478,23.739,3.671,1.405,3.671,1.405a10.235,10.235,0,0,1-3.841.607,29.822,29.822,0,0,0-1.994,9.083c-.17,4.217,1.853,20.252,2.32,23.888-.754.014-1.233-.027-1.233-.027s-1.6-9.946-2.352-16.13-.147-17.616.073-19.612-1.674-11.665-2.873-18.437.722-14.194.722-14.194,3.847-.762,7.96-1.128l9.772,1.785,3.3.6a11.857,11.857,0,0,1-3.266,1.022c-5.643,1.081-14.059.357-14.059.357" transform="translate(-42.751 -114.027)" fill="#001552"/>
          <path id="Trazado_881644" data-name="Trazado 881644" d="M118.4,173.057s-7.463.536-8.727,5.832-1.073,8.311-3.836,11.42-5.047,5.308-3.887,12.036,1.62,11.9,1.168,15.985-1.1,8.258.755,9.67a14.041,14.041,0,0,1,10.624-2.816c6.15,1.012,4.895-32.668,4.895-32.668Z" transform="translate(-41.28 -70.282)" fill="#360700"/>
          <path id="Trazado_881645" data-name="Trazado 881645" d="M130.1,210.252a14,14,0,0,1-3.065.261,3.4,3.4,0,0,1-.758-.1,11.078,11.078,0,0,1-3.377-1.549,10.22,10.22,0,0,0,1.388-3.25,10.958,10.958,0,0,0,.292-1.741s5.774.041,5.444,2.18a14.03,14.03,0,0,0,0,3.7c.039.312.076.5.076.5" transform="translate(-49.912 -82.798)" fill="#ffb3a0"/>
          <path id="Trazado_881646" data-name="Trazado 881646" d="M131.049,210.252a14,14,0,0,1-3.065.261,3.4,3.4,0,0,1-.758-.1c-.1-.344-.244-.735-.4-1.163-.475-1.239-1.141-2.7-1.584-3.636a10.959,10.959,0,0,0,.292-1.741s5.774.041,5.444,2.18a14.031,14.031,0,0,0,0,3.7c.039.312.076.5.076.5" transform="translate(-50.862 -82.798)" fill="#c1897c"/>
          <path id="Trazado_881647" data-name="Trazado 881647" d="M141.291,179.77s2.032-.49,2.426,2.174-1.849,5.854-3.278,6.268.852-8.441.852-8.441" transform="translate(-56.844 -72.994)" fill="#360700"/>
          <path id="Trazado_881648" data-name="Trazado 881648" d="M141.25,192.2s-.9,4.485.79,6.713c0,0-2.041-1.109-1.758-6.358Z" transform="translate(-56.96 -78.056)" fill="#360700"/>
          <path id="Trazado_881649" data-name="Trazado 881649" d="M133.9,183.339s-.687,2.835-.893,4.4-.029,2.48-.146,3.6a8.409,8.409,0,0,1-4.689,6.229s-4.42-2.206-5.619-4.426-1.243-6.444-.259-9.554,2.617-4.547,6.19-4.4,5.5,2.155,5.416,4.155" transform="translate(-49.386 -72.766)" fill="#ffb3a0"/>
          <path id="Trazado_881650" data-name="Trazado 881650" d="M131.211,204.5a.611.611,0,0,0,.2.175c.067.048.136.094.207.135a1.593,1.593,0,0,0,.468.188,1.138,1.138,0,0,0,.459,0,.91.91,0,0,0,.211-.071.328.328,0,0,0,.156-.148.042.042,0,0,0-.048-.062c-.064.018-.121.037-.184.06a.7.7,0,0,1-.183.043.941.941,0,0,1-.4-.048,1.469,1.469,0,0,1-.374-.2c-.055-.039-.107-.081-.159-.124a.677.677,0,0,0-.2-.144c-.11-.04-.2.1-.145.189" transform="translate(-53.281 -82.973)" fill="#982c44"/>
          <path id="Trazado_881651" data-name="Trazado 881651" d="M134.253,199.681l-.14,1.083h.54Z" transform="translate(-54.466 -81.095)" fill="#c1897c"/>
          <path id="Trazado_881652" data-name="Trazado 881652" d="M137.311,195.765c.03.385-.078.707-.242.72s-.321-.289-.352-.673.078-.707.242-.72.321.289.351.673" transform="translate(-55.522 -79.231)" fill="#221f4f"/>
          <path id="Trazado_881653" data-name="Trazado 881653" d="M131.235,196.243c.03.385-.078.707-.242.72s-.321-.289-.352-.673.078-.707.242-.72.321.289.352.673" transform="translate(-53.054 -79.425)" fill="#221f4f"/>
          <path id="Trazado_881654" data-name="Trazado 881654" d="M137.526,192.428a.759.759,0,0,0-.514-.12,2.073,2.073,0,0,0-.517.065,2.043,2.043,0,0,0-.459.187,1.8,1.8,0,0,0-.206.126.47.47,0,0,0-.175.166c-.013.03.009.075.047.069a.572.572,0,0,0,.178-.087,1.748,1.748,0,0,1,.213-.1,1.868,1.868,0,0,1,.455-.109,1.828,1.828,0,0,1,.445,0c.075.009.151.022.225.037.037.008.074.02.111.027a.343.343,0,0,0,.151-.013c.115-.026.114-.177.046-.245" transform="translate(-55.091 -78.1)" fill="#221f4f"/>
          <path id="Trazado_881655" data-name="Trazado 881655" d="M130.371,193.569a2.566,2.566,0,0,0-1.219-.239,2.522,2.522,0,0,0-.574.059c-.17.042-.373.128-.421.309a.051.051,0,0,0,.054.061,2.547,2.547,0,0,0,.447-.146,2.479,2.479,0,0,1,.529-.077,2.372,2.372,0,0,1,1.124.157.069.069,0,0,0,.061-.124" transform="translate(-52.047 -78.515)" fill="#221f4f"/>
          <path id="Trazado_881656" data-name="Trazado 881656" d="M121.909,185.277s7.959.941,11.132-3.8c0,0,1.681-2.032-.334-5.31s-7.761-4.179-10.782-1.342-2.7,8.671-1.606,10.195Z" transform="translate(-48.549 -70.311)" fill="#360700"/>
          <path id="Trazado_881657" data-name="Trazado 881657" d="M121.959,193.053s-1.137-1.382-1.89-.458-.6,3.125,1.744,4.079Z" transform="translate(-48.598 -78.088)" fill="#c1897c"/>
          <path id="Trazado_881658" data-name="Trazado 881658" d="M124.008,192.934a15.242,15.242,0,0,0-.444,7.461,11.057,11.057,0,0,1-.334-7.493Z" transform="translate(-49.853 -78.342)" fill="#360700"/>
          <path id="Trazado_881659" data-name="Trazado 881659" d="M131.336,238.277c.154.96.836,17.215.836,17.215C115.483,257.585,107.144,254,107.144,254c.172-.429.337-.852.495-1.274a72.511,72.511,0,0,0,3.929-15.248,71.265,71.265,0,0,0-1.534-10.365,49.8,49.8,0,0,1-1.523-9.188c-.08-2.06.144-3.752.93-4.534,1.295-1.286,4.138-1.371,5.8-1.3.753.038,1.261.1,1.261.1l5.268.686,4.861.521,2.364.251s5.884,10.163,5.919,11.688-3.722,11.973-3.576,12.932" transform="translate(-43.513 -86.128)" fill="#f04965"/>
          <path id="Trazado_881660" data-name="Trazado 881660" d="M129.148,219.594l-3.408-.434-.663,2.269c-1.53-1.991-3.19-4.132-3.19-4.132l5.322,11.885a9.639,9.639,0,0,0,.562-3.637Z" transform="translate(-49.501 -88.249)" fill="#982c44"/>
          <path id="Trazado_881661" data-name="Trazado 881661" d="M129.342,217.956c-.283.04-.58.072-.9.1a5,5,0,0,1-3.155-1,18.189,18.189,0,0,1-4.512-4.945c.753.038,1.261.1,1.261.1l2.972.386,2.3.3,1.856.2,1.524.165.729.074.751.082c1.321,3,.247,4.13-2.824,4.538" transform="translate(-49.05 -86.142)" fill="#ffb3a0"/>
          <path id="Trazado_881662" data-name="Trazado 881662" d="M134.575,214.413l-1.363.6c-.268.959-.626,2.142-.975,3.282-.283.04-.58.073-.9.1a5,5,0,0,1-3.155-1,9.053,9.053,0,0,0,.284-2.636,4.154,4.154,0,0,0-.159-.657l-.4-1.163,2.3.3,1.856.2,1.524.165.729.074Z" transform="translate(-51.945 -86.476)" fill="#c1897c"/>
          <path id="Trazado_881663" data-name="Trazado 881663" d="M131.674,241.669s-4.446.752-6.2.822-6.643.59-6.643.59l1.281,7.285s-4.875-7.5-5.622-6.381-1.033,14.056-1.033,14.056l-5.477-1.922a72.511,72.511,0,0,0,3.929-15.248,71.265,71.265,0,0,0-1.534-10.365,49.8,49.8,0,0,1-1.523-9.189l3.808-.89,4.333,6.262,3.991,2.091s2.719,3.549,3.507,3.648a26.57,26.57,0,0,0,3.221-.084l-1.007,3.5s6.077-1.959,8.548-7.111c.034,1.532-3.722,11.973-3.576,12.932" transform="translate(-43.852 -89.521)" fill="#982c44"/>
          <path id="Trazado_881664" data-name="Trazado 881664" d="M110.663,213.029a3.643,3.643,0,0,1,4.2.821c2.211,1.973,6.81,10.39,6.81,10.39l-4.236,7.731s-8.375-10.959-9.169-12.566-.162-5.363,2.395-6.375" transform="translate(-43.839 -86.38)" fill="#f04965"/>
          <path id="Trazado_881665" data-name="Trazado 881665" d="M134.112,213.056a2.911,2.911,0,0,1-1.391.58,7.568,7.568,0,0,1-.782.116s-2.314,14.086-3.236,15.121a3.678,3.678,0,0,1-4.776,1.05,35.9,35.9,0,0,1,1.374-5.987c.975-2.889,2.795-6.4,3.152-9.029a6.748,6.748,0,0,0-.309-3.873,6.481,6.481,0,0,0-1.953-2.017s.88-.541,2.931.118c0,0,2.069-1.78,3.416-1.437s2.406,2.153,2.6,3.13a2.566,2.566,0,0,1-1.022,2.229" transform="translate(-50.329 -84.332)" fill="#ffb3a0"/>
          <path id="Trazado_881666" data-name="Trazado 881666" d="M126.844,243.661a4.24,4.24,0,0,1-2.918-.3s1.609-3.041,2.884-2.561c1.188.447,1.074,1.966.033,2.856" transform="translate(-50.329 -97.775)" fill="#c1897c"/>
          <path id="Trazado_881667" data-name="Trazado 881667" d="M139.24,215.874c-.308.491-1.029.01-1.041.69a7.482,7.482,0,0,1-.782.116,3.543,3.543,0,0,1,1.238-1.71c.778-.4.886.413.585.9" transform="translate(-55.808 -87.261)" fill="#c1897c"/>
          <path id="Trazado_881668" data-name="Trazado 881668" d="M241.433,109.943H212.247V97.657h29.186Zm-28.469-.717h27.751V98.374H212.964Z" transform="translate(-86.198 -39.661)" fill="#013f20"/>
          <rect id="Rectángulo_401433" data-name="Rectángulo 401433" width="28.469" height="11.568" transform="translate(126.408 58.355)" fill="#fff"/>
          <g id="Grupo_1099518" data-name="Grupo 1099518" transform="translate(139.247 62.1)">
            <path id="Trazado_881669" data-name="Trazado 881669" d="M234.471,107.291v-.439l1.685-2.2h.679l-1.66,2.2-.318-.1h2.711v.537Zm1.876.777v-.777l.02-.537v-.689h.6v2Z" transform="translate(-234.471 -104.6)" fill="#016835"/>
            <path id="Trazado_881670" data-name="Trazado 881670" d="M240.671,109.91a.413.413,0,0,1-.283-.7.42.42,0,0,1,.567,0,.384.384,0,0,1,.118.3.4.4,0,0,1-.4.406" transform="translate(-236.826 -106.408)" fill="#016835"/>
            <path id="Trazado_881671" data-name="Trazado 881671" d="M242.186,107.291v-.439l1.685-2.2h.679l-1.66,2.2-.317-.1h2.711v.537Zm1.877.777v-.777l.019-.537v-.689h.6v2Z" transform="translate(-237.605 -104.6)" fill="#016835"/>
            <path id="Trazado_881672" data-name="Trazado 881672" d="M248.075,108.068v-3.175l.279.289h-1v-.533h1.358v3.42Z" transform="translate(-239.702 -104.6)" fill="#016835"/>
            <path id="Trazado_881673" data-name="Trazado 881673" d="M252.208,108.083a1.338,1.338,0,0,1-.73-.2,1.379,1.379,0,0,1-.511-.6,2.546,2.546,0,0,1,0-1.91,1.381,1.381,0,0,1,.511-.6,1.4,1.4,0,0,1,1.463,0,1.4,1.4,0,0,1,.51.6,2.516,2.516,0,0,1,0,1.91,1.4,1.4,0,0,1-.51.6,1.337,1.337,0,0,1-.733.2m0-.552a.681.681,0,0,0,.415-.129.843.843,0,0,0,.276-.4,2.356,2.356,0,0,0,0-1.361.846.846,0,0,0-.276-.4.722.722,0,0,0-.823,0,.841.841,0,0,0-.279.4,2.369,2.369,0,0,0,0,1.361.838.838,0,0,0,.279.4.678.678,0,0,0,.408.129" transform="translate(-241.095 -104.566)" fill="#016835"/>
          </g>
          <path id="Trazado_881674" data-name="Trazado 881674" d="M220.009,104.589l-2.071,3.588h4.143Z" transform="translate(-88.509 -42.476)" fill="#f35923"/>
          <path id="Trazado_881675" data-name="Trazado 881675" d="M241.433,84.48H212.247V72.194h29.186Zm-28.469-.717h27.751V72.911H212.964Z" transform="translate(-86.198 -29.32)" fill="#013f20"/>
          <rect id="Rectángulo_401434" data-name="Rectángulo 401434" width="28.469" height="11.569" transform="translate(126.408 43.233)" fill="#fff"/>
          <g id="Grupo_1099517" data-name="Grupo 1099517" transform="translate(136.214 46.979)">
            <path id="Trazado_881676" data-name="Trazado 881676" d="M230.087,82.605V79.43l.279.289h-1v-.533h1.358v3.42Z" transform="translate(-229.364 -79.137)" fill="#016835"/>
            <path id="Trazado_881677" data-name="Trazado 881677" d="M232.711,81.829v-.439l1.685-2.2h.679l-1.66,2.2-.318-.1h2.711v.537Zm1.876.777v-.777l.02-.537V80.6h.6v2Z" transform="translate(-230.722 -79.137)" fill="#016835"/>
            <path id="Trazado_881678" data-name="Trazado 881678" d="M238.91,84.447a.413.413,0,0,1-.283-.7.42.42,0,0,1,.567,0,.384.384,0,0,1,.118.3.4.4,0,0,1-.4.406" transform="translate(-233.077 -80.945)" fill="#016835"/>
            <path id="Trazado_881679" data-name="Trazado 881679" d="M241.563,82.654a2.4,2.4,0,0,1-.706-.105,1.731,1.731,0,0,1-.579-.29l.273-.493a1.486,1.486,0,0,0,.45.245,1.654,1.654,0,0,0,.552.093.883.883,0,0,0,.532-.14.475.475,0,0,0,.015-.749.926.926,0,0,0-.567-.137h-.313v-.435l.977-1.162.083.239h-1.836v-.533h2.33v.425l-.977,1.162-.333-.2h.191a1.38,1.38,0,0,1,.945.281.92.92,0,0,1,.315.72,1.019,1.019,0,0,1-.147.533,1.048,1.048,0,0,1-.447.394,1.707,1.707,0,0,1-.76.148" transform="translate(-233.795 -79.137)" fill="#016835"/>
            <path id="Trazado_881680" data-name="Trazado 881680" d="M246.778,82.621a1.949,1.949,0,0,1-.738-.127,1.094,1.094,0,0,1-.484-.359.893.893,0,0,1-.17-.545.836.836,0,0,1,.166-.528,1.023,1.023,0,0,1,.478-.327,2.554,2.554,0,0,1,1.5,0,1.03,1.03,0,0,1,.483.33.833.833,0,0,1,.169.526.887.887,0,0,1-.173.545,1.109,1.109,0,0,1-.489.359,1.966,1.966,0,0,1-.74.127m0-1.666a1.961,1.961,0,0,1-.679-.105.94.94,0,0,1-.437-.308.779.779,0,0,1-.154-.486.823.823,0,0,1,.159-.506,1.031,1.031,0,0,1,.447-.33,1.959,1.959,0,0,1,1.334,0,1.047,1.047,0,0,1,.45.33.818.818,0,0,1,.161.506.778.778,0,0,1-.154.486.941.941,0,0,1-.442.308,2,2,0,0,1-.684.105m0,1.168a.936.936,0,0,0,.556-.147.5.5,0,0,0,0-.806.936.936,0,0,0-.556-.147.917.917,0,0,0-.552.147.506.506,0,0,0,0,.806.917.917,0,0,0,.552.147m0-1.558a.789.789,0,0,0,.479-.129.438.438,0,0,0,0-.706.806.806,0,0,0-.474-.127.784.784,0,0,0-.469.127.444.444,0,0,0,0,.706.77.77,0,0,0,.472.129" transform="translate(-235.87 -79.104)" fill="#016835"/>
            <path id="Trazado_881681" data-name="Trazado 881681" d="M252.208,82.621a1.338,1.338,0,0,1-.73-.2,1.379,1.379,0,0,1-.511-.6,2.546,2.546,0,0,1,0-1.91,1.381,1.381,0,0,1,.511-.6,1.4,1.4,0,0,1,1.463,0,1.4,1.4,0,0,1,.51.6,2.516,2.516,0,0,1,0,1.91,1.4,1.4,0,0,1-.51.6,1.337,1.337,0,0,1-.733.2m0-.552a.681.681,0,0,0,.415-.129.843.843,0,0,0,.276-.4,2.356,2.356,0,0,0,0-1.361.846.846,0,0,0-.276-.4.722.722,0,0,0-.823,0,.841.841,0,0,0-.279.4,2.369,2.369,0,0,0,0,1.361.838.838,0,0,0,.279.4.678.678,0,0,0,.408.129" transform="translate(-238.061 -79.104)" fill="#016835"/>
          </g>
          <path id="Trazado_881682" data-name="Trazado 881682" d="M220.009,79.125l-2.071,3.588h4.143Z" transform="translate(-88.509 -32.134)" fill="#f35923"/>
        </g>
      </g>
    </g>
  </g>
</svg>
