<svg xmlns="http://www.w3.org/2000/svg" xmlns:xlink="http://www.w3.org/1999/xlink" width="85" height="85" viewBox="0 0 85 85">
  <defs>
    <clipPath id="clip-path">
      <rect id="Rectángulo_401604" data-name="Rectángulo 401604" width="54" height="54" transform="translate(196.051 3091)" fill="#fff" stroke="#707070" stroke-width="1"/>
    </clipPath>
    <clipPath id="clip-path-2">
      <path id="path7830" d="M0-54H54V0H0Z"/>
    </clipPath>
  </defs>
  <g id="Grupo_1102059" data-name="Grupo 1102059" transform="translate(-180.051 -2801)">
    <circle id="Elipse_11528" data-name="Elipse 11528" cx="42.5" cy="42.5" r="42.5" transform="translate(180.051 2801)" fill="#38b449"/>
    <g id="Enmascarar_grupo_1098713" data-name="Enmascarar grupo 1098713" transform="translate(0 -274)" clip-path="url(#clip-path)">
      <g id="g7824" transform="translate(196.051 3145)">
        <g id="g7826">
          <g id="g7828" clip-path="url(#clip-path-2)">
            <g id="g7834" transform="translate(53.209 -27)">
              <path id="path7836" d="M0,0A25.32,25.32,0,0,1-25.32,25.32,25.32,25.32,0,0,1-50.641,0,25.32,25.32,0,0,1-25.32-25.32,25.32,25.32,0,0,1,0,0" fill="#fe646f"/>
            </g>
            <g id="g7838" transform="translate(9.703 -27)">
              <path id="path7840" d="M0,0A25.324,25.324,0,0,1,21.753-25.069a25.526,25.526,0,0,0-3.567-.251A25.32,25.32,0,0,0-7.135,0a25.32,25.32,0,0,0,25.32,25.32,25.526,25.526,0,0,0,3.567-.251A25.324,25.324,0,0,1,0,0" fill="#fb2b3a"/>
            </g>
            <g id="g7842" transform="translate(53.209 -27)">
              <path id="path7844" d="M0,0A25.32,25.32,0,0,1-25.32,25.32,25.32,25.32,0,0,1-50.641,0,25.32,25.32,0,0,1-25.32-25.32,25.32,25.32,0,0,1,0,0Z" fill="none" stroke="#000" stroke-linecap="round" stroke-linejoin="round" stroke-miterlimit="10" stroke-width="1.582"/>
            </g>
            <g id="g7846" transform="translate(49.149 -27)">
              <path id="path7848" d="M0,0A21.26,21.26,0,0,1-21.26,21.26,21.26,21.26,0,0,1-42.52,0,21.26,21.26,0,0,1-21.26-21.26,21.26,21.26,0,0,1,0,0" fill="#fff"/>
            </g>
            <g id="g7850" transform="translate(12.34 -27)">
              <path id="path7852" d="M0,0A21.264,21.264,0,0,1,18.4-21.069a21.469,21.469,0,0,0-2.856-.191A21.26,21.26,0,0,0-5.711,0a21.26,21.26,0,0,0,21.26,21.26,21.469,21.469,0,0,0,2.856-.191A21.264,21.264,0,0,1,0,0" fill="#eaf9fa"/>
            </g>
            <g id="g7854" transform="translate(37.786 -8.181)">
              <path id="path7856" d="M0,0A21.256,21.256,0,0,0,11.362-18.819,21.26,21.26,0,0,0-9.9-40.079a21.26,21.26,0,0,0-21.26,21.26A21.26,21.26,0,0,0-9.9,2.441,21.249,21.249,0,0,0-3.4,1.43" fill="none" stroke="#000" stroke-linecap="round" stroke-linejoin="round" stroke-miterlimit="10" stroke-width="1.582"/>
            </g>
            <g id="g7858" transform="translate(28.009 -44.194)">
              <path id="path7860" d="M0,0H-.12a17.2,17.2,0,0,0-17.2,17.2h4.6A12.6,12.6,0,0,1-.12,4.6h.088Z" fill="#05e39c"/>
            </g>
            <g id="g7862" transform="translate(40.09 -39.116)">
              <path id="path7864" d="M0,0A17.2,17.2,0,0,0-12.081-5.079l-.032,4.6A12.6,12.6,0,0,1,.386,11.606a.528.528,0,0,0,.526.51H4.457a.528.528,0,0,0,.528-.543A17.2,17.2,0,0,0,0,0" fill="#ffe177"/>
            </g>
            <g id="g7866" transform="translate(37.336 -41.37)">
              <path id="path7868" d="M0,0A17.115,17.115,0,0,0-9.447-2.825a17.2,17.2,0,0,0-17.2,17.2h4.6a12.6,12.6,0,0,1,12.6-12.6A12.6,12.6,0,0,1,3.14,13.86a.528.528,0,0,0,.527.51H7.212a.528.528,0,0,0,.528-.544A17.136,17.136,0,0,0,2.859,2.361" fill="none" stroke="#000" stroke-linecap="round" stroke-linejoin="round" stroke-miterlimit="10" stroke-width="1.582"/>
            </g>
            <g id="g7870" transform="translate(28.009 -44.195)">
              <path id="path7872" d="M0,0-.032,4.6" fill="none" stroke="#000" stroke-linecap="round" stroke-linejoin="round" stroke-miterlimit="10" stroke-width="1.582"/>
            </g>
            <g id="g7874" transform="translate(44.192 -32.464)">
              <path id="path7876" d="M0,0A17.2,17.2,0,0,0-2.582-4.9L-6.251-2.127A12.537,12.537,0,0,1-3.717,4.956a.528.528,0,0,0,.526.509H.355a.528.528,0,0,0,.528-.543A17.194,17.194,0,0,0,0,0" fill="#fe646f"/>
            </g>
            <g id="g7878" transform="translate(44.192 -32.464)">
              <path id="path7880" d="M0,0A17.2,17.2,0,0,0-2.582-4.9L-6.251-2.127A12.537,12.537,0,0,1-3.717,4.956a.528.528,0,0,0,.526.509H.355a.528.528,0,0,0,.528-.543A17.194,17.194,0,0,0,0,0Z" fill="none" stroke="#000" stroke-linecap="round" stroke-linejoin="round" stroke-miterlimit="10" stroke-width="1.582"/>
            </g>
            <g id="g7882" transform="translate(34.313 -27)">
              <path id="path7884" d="M0,0A6.425,6.425,0,0,1-6.425,6.425,6.425,6.425,0,0,1-12.849,0,6.425,6.425,0,0,1-6.425-6.425,6.425,6.425,0,0,1,0,0" fill="#02c7dd"/>
            </g>
            <g id="g7886" transform="translate(25.014 -27)">
              <path id="path7888" d="M0,0A6.426,6.426,0,0,1,4.649-6.174a6.421,6.421,0,0,0-1.775-.25A6.424,6.424,0,0,0-3.55,0,6.425,6.425,0,0,0,2.875,6.425a6.421,6.421,0,0,0,1.775-.25A6.426,6.426,0,0,1,0,0" fill="#07b1cd"/>
            </g>
            <g id="g7890" transform="translate(34.088 -28.688)">
              <path id="path7892" d="M0,0A6.426,6.426,0,0,0-6.2-4.737a6.424,6.424,0,0,0-6.425,6.425A6.425,6.425,0,0,0-6.2,8.112a6.426,6.426,0,0,0,6.1-4.421" fill="none" stroke="#000" stroke-linecap="round" stroke-linejoin="round" stroke-miterlimit="10" stroke-width="1.582"/>
            </g>
            <g id="g7894" transform="translate(29.536 -28.465)">
              <path id="path7896" d="M0,0-13.986-12.67a.158.158,0,0,0-.235.209L-3.3,2.929a2.2,2.2,0,0,0,1.648.74A2.2,2.2,0,0,0-.183,3.112,2.2,2.2,0,0,0,0,0" fill="#af66da"/>
            </g>
            <g id="g7898" transform="translate(28.743 -26.578)">
              <path id="path7900" d="M0,0A2.2,2.2,0,0,1-1.648-.74L-8.33-10.152l-4.862-4.4a.158.158,0,0,0-.235.209L-2.5,1.043a2.2,2.2,0,0,0,1.648.74A2.2,2.2,0,0,0,.611,1.226a2.2,2.2,0,0,0,.738-1.69A2.2,2.2,0,0,1,0,0" fill="#9857bd"/>
            </g>
            <g id="g7902" transform="translate(29.536 -28.465)">
              <path id="path7904" d="M0,0-13.986-12.67a.158.158,0,0,0-.235.209L-3.3,2.929a2.2,2.2,0,0,0,1.648.74A2.2,2.2,0,0,0-.183,3.112,2.2,2.2,0,0,0,0,0Z" fill="none" stroke="#000" stroke-linecap="round" stroke-linejoin="round" stroke-miterlimit="10" stroke-width="1.582"/>
            </g>
            <g id="g7906" transform="translate(48.775 -10.968)">
              <path id="path7908" d="M0,0H-31.906A1.074,1.074,0,0,1-32.98-1.074v-8.972a1.074,1.074,0,0,1,1.074-1.074H0a1.074,1.074,0,0,1,1.074,1.074v8.972A1.074,1.074,0,0,1,0,0" fill="#d4f3f6"/>
            </g>
            <g id="g7910" transform="translate(27.105 -12.041)">
              <path id="path7912" d="M0,0V-8.972a1.074,1.074,0,0,1,1.074-1.074h-11.31A1.074,1.074,0,0,0-11.31-8.972V0a1.074,1.074,0,0,0,1.074,1.074H1.074A1.074,1.074,0,0,1,0,0" fill="#a6e7f0"/>
            </g>
            <g id="g7914" transform="translate(48.775 -10.968)">
              <path id="path7916" d="M0,0H-31.906A1.074,1.074,0,0,1-32.98-1.074v-8.972a1.074,1.074,0,0,1,1.074-1.074H0a1.074,1.074,0,0,1,1.074,1.074v8.972A1.074,1.074,0,0,1,0,0Z" fill="none" stroke="#000" stroke-linecap="round" stroke-linejoin="round" stroke-miterlimit="10" stroke-width="1.582"/>
            </g>
            <g id="g7918" transform="translate(25.131 -18.32)">
              <path id="path7920" d="M0,0H20.085" fill="#fff" stroke="#000" stroke-linecap="round" stroke-linejoin="round" stroke-miterlimit="10" stroke-width="1.582"/>
            </g>
            <g id="g7922" transform="translate(45.216 -14.735)">
              <path id="path7924" d="M0,0H-18.086" fill="#fff" stroke="#000" stroke-linecap="round" stroke-linejoin="round" stroke-miterlimit="10" stroke-width="1.582"/>
            </g>
            <g id="g7926" transform="translate(11.225 -29.524)">
              <path id="path7928" d="M0,0-10.144,17.569a2.148,2.148,0,0,0,1.86,3.221H12a2.148,2.148,0,0,0,1.86-3.221L3.72,0A2.148,2.148,0,0,0,0,0" fill="#ffe177"/>
            </g>
            <g id="g7930" transform="translate(5.55 -11.955)">
              <path id="path7932" d="M0,0,9.769-16.921l-.374-.648a2.148,2.148,0,0,0-3.72,0L-4.468,0a2.148,2.148,0,0,0,1.86,3.221H1.86A2.147,2.147,0,0,1,0,0" fill="#ffd15c"/>
            </g>
            <g id="g7934" transform="translate(11.225 -29.524)">
              <path id="path7936" d="M0,0-10.144,17.569a2.148,2.148,0,0,0,1.86,3.221H12a2.148,2.148,0,0,0,1.86-3.221L3.72,0A2.148,2.148,0,0,0,0,0Z" fill="none" stroke="#000" stroke-linecap="round" stroke-linejoin="round" stroke-miterlimit="10" stroke-width="1.582"/>
            </g>
            <g id="g7938" transform="translate(13.085 -23.805)">
              <path id="path7940" d="M0,0V7.1" fill="none" stroke="#000" stroke-linecap="round" stroke-linejoin="round" stroke-miterlimit="10" stroke-width="1.582"/>
            </g>
            <g id="g7942" transform="translate(13.085 -12.799)">
              <path id="path7944" d="M0,0V-.725" fill="none" stroke="#000" stroke-linecap="round" stroke-linejoin="round" stroke-miterlimit="10" stroke-width="1.582"/>
            </g>
          </g>
        </g>
      </g>
    </g>
  </g>
</svg>
