<svg xmlns="http://www.w3.org/2000/svg" xmlns:xlink="http://www.w3.org/1999/xlink" width="101.461" height="101.461" viewBox="0 0 101.461 101.461">
  <defs>
    <clipPath id="clip-path">
      <rect id="Rectángulo_402015" data-name="Rectángulo 402015" width="64" height="64" transform="translate(767.73 4043.663)" fill="#fff" stroke="#707070" stroke-width="1"/>
    </clipPath>
  </defs>
  <g id="Grupo_1102060" data-name="Grupo 1102060" transform="translate(-749.27 -3508.97)">
    <g id="Grupo_1102057" data-name="Grupo 1102057">
      <path id="Trazado_891473" data-name="Trazado 891473" d="M50.73,0A50.73,50.73,0,1,1,0,50.73,50.73,50.73,0,0,1,50.73,0Z" transform="translate(749.27 3508.97)" fill="#016835"/>
    </g>
    <g id="Enmascarar_grupo_1098804" data-name="Enmascarar grupo 1098804" transform="translate(0 -516)" clip-path="url(#clip-path)">
      <g id="consumo-responsable" transform="translate(767.73 4043.663)">
        <path id="Trazado_891493" data-name="Trazado 891493" d="M63.832,32.8a1.673,1.673,0,0,0-1.524-.967H54.215l7.834-18.763a1.686,1.686,0,0,0-2.888-1.681L38.891,37.571a1.691,1.691,0,0,0,1.333,2.717h7.52L38.153,60.279A1.7,1.7,0,0,0,39.679,62.7a1.67,1.67,0,0,0,1.294-.619l22.65-27.5A1.672,1.672,0,0,0,63.832,32.8ZM40.525,59.646l9.032-18.824a1.686,1.686,0,0,0-1.52-2.414H40.614L59.749,13.694,52.365,31.371a1.684,1.684,0,0,0,1.554,2.334h7.973Z" fill="#fff"/>
        <path id="Trazado_891494" data-name="Trazado 891494" d="M43.246,19.751a.94.94,0,0,0,1.283.345l3.022-1.744c.284.544.55,1.1.793,1.676a.94.94,0,0,0,1.731-.733C39.4-5.082,3.385,2.2,3.012,28.832A24.5,24.5,0,0,0,41.333,49.047.94.94,0,0,0,40.271,47.5C27.767,56.27,9.906,49.621,5.833,35.285h14.61a.949.949,0,0,0,.94-.951,6.14,6.14,0,0,1,12.279-.185q0,.1,0,.2a.94.94,0,0,0,.94.94h3.683a.94.94,0,0,0,0-1.88h-2.8A8.043,8.043,0,0,0,22.963,27.74l-12.34-5.88a.94.94,0,1,0-.808,1.692L21.45,29.1a8,8,0,0,0-1.9,4.3H5.363a22.586,22.586,0,0,1-.445-3.635h3.51a.94.94,0,0,0,0-1.88H4.911a22.46,22.46,0,0,1,2.563-9.548l3.035,1.753a.94.94,0,0,0,.97-1.611l-.03-.017L8.418,16.716a22.787,22.787,0,0,1,6.991-6.985l1.748,3.029a.94.94,0,0,0,1.645-.91l-.017-.03-1.75-3.03A22.482,22.482,0,0,1,26.58,6.236v3.5a.94.94,0,0,0,1.88,0v-3.5A22.609,22.609,0,0,1,38,8.791L36.256,11.82a.94.94,0,1,0,1.611.97l.017-.03,1.748-3.027a22.582,22.582,0,0,1,6.98,6.989l-3.021,1.745a.94.94,0,0,0-.345,1.283Z" fill="#fff"/>
        <path id="Trazado_891495" data-name="Trazado 891495" d="M24.226,34.345a3.294,3.294,0,1,0,0-.008Zm4.7,0a1.052,1.052,0,1,1,.008-.016v.016Z" fill="#fff"/>
        <path id="Trazado_891496" data-name="Trazado 891496" d="M39.754,52.43a.94.94,0,0,0-1.253-.445h0c-16.636,8.156-36.845-4.6-36.62-23.155C1.707,8.862,24.477-3.653,41.216,7.176A25.712,25.712,0,0,1,50.5,17.5a.94.94,0,0,0,1.686-.832A27.588,27.588,0,0,0,42.223,5.589C24.248-6.035-.187,7.4,0,28.832A27.537,27.537,0,0,0,27.507,56.338a27.261,27.261,0,0,0,11.8-2.654.94.94,0,0,0,.445-1.253Z" fill="#fff"/>
      </g>
    </g>
  </g>
</svg>
