<svg xmlns="http://www.w3.org/2000/svg" xmlns:xlink="http://www.w3.org/1999/xlink" width="101.461" height="101.461" viewBox="0 0 101.461 101.461">
  <defs>
    <clipPath id="clip-path">
      <rect id="Rectángulo_402016" data-name="Rectángulo 402016" width="68" height="68" transform="translate(1185.756 4041.663)" fill="#fff" stroke="#fff" stroke-width="3"/>
    </clipPath>
  </defs>
  <g id="Grupo_1102061" data-name="Grupo 1102061" transform="translate(-1169.295 -3508.97)">
    <g id="Grupo_1102058" data-name="Grupo 1102058">
      <path id="Trazado_891474" data-name="Trazado 891474" d="M50.73,0A50.73,50.73,0,1,1,0,50.73,50.73,50.73,0,0,1,50.73,0Z" transform="translate(1169.295 3508.97)" fill="#016835"/>
    </g>
    <g id="Enmascarar_grupo_1098805" data-name="Enmascarar grupo 1098805" transform="translate(0 -516)" clip-path="url(#clip-path)">
      <g id="consumo-de-energia_6_" data-name="consumo-de-energia (6)" transform="translate(1186.752 4042.665)">
        <path id="Trazado_891497" data-name="Trazado 891497" d="M11.21,7.04A15.712,15.712,0,0,1,23.1,2.53,16.052,16.052,0,0,1,38.11,17.07a15.709,15.709,0,0,1-.03,2.91.755.755,0,0,0,.68.83h.08a.757.757,0,0,0,.75-.68,16.886,16.886,0,0,0,.03-3.18A17.586,17.586,0,0,0,23.17,1.02,17.216,17.216,0,0,0,10.15,5.96a.757.757,0,0,0-.01,1.07.749.749,0,0,0,1.07.01Z" fill="#fff"/>
        <path id="Trazado_891497_-_Contorno" data-name="Trazado 891497 - Contorno" d="M22.286.5c.3,0,.606.007.908.022a18.1,18.1,0,0,1,16.924,16.39,17.377,17.377,0,0,1-.031,3.271A1.252,1.252,0,0,1,38.84,21.31l-.127,0a1.244,1.244,0,0,1-.852-.454,1.258,1.258,0,0,1-.278-.921,15.214,15.214,0,0,0,.029-2.821A15.537,15.537,0,0,0,23.076,3.029c-.253-.012-.509-.018-.762-.018A15.264,15.264,0,0,0,11.56,7.4a1.238,1.238,0,0,1-.879.363A1.26,1.26,0,0,1,9.8,5.6,17.743,17.743,0,0,1,22.286.5ZM38.84,20.31a.258.258,0,0,0,.253-.231,16.386,16.386,0,0,0,.029-3.087A17.082,17.082,0,0,0,23.145,1.519c-.285-.014-.574-.021-.859-.021A16.75,16.75,0,0,0,10.5,6.317a.258.258,0,0,0,0,.365.251.251,0,0,0,.181.078.244.244,0,0,0,.176-.074A16.179,16.179,0,0,1,22.314,2.012c.268,0,.54.006.809.019a16.552,16.552,0,0,1,15.485,15,16.2,16.2,0,0,1-.031,3,.255.255,0,0,0,.213.278Z" fill="#fff"/>
        <path id="Trazado_891498" data-name="Trazado 891498" d="M60.3,24H58.08V18.47a.76.76,0,1,0-1.52,0V24H50.74V18.47a.76.76,0,1,0-1.52,0V24H47a.76.76,0,0,0-.76.76v5.03a7.351,7.351,0,0,0,.21,1.75.756.756,0,1,0,1.47-.35,5.877,5.877,0,0,1-.17-1.39V25.52H59.52V29.8a5.891,5.891,0,0,1-9.68,4.49.752.752,0,0,0-.97,1.15,7.426,7.426,0,0,0,4,1.69v22.8a3.568,3.568,0,0,1-3.56,3.56H18.18a2.69,2.69,0,1,1,0-5.38h.68a4.217,4.217,0,0,0,4.21-4.21V50.99h4.3a.741.741,0,0,0,.71-.51l1.45-4.13h.91a1.319,1.319,0,0,0,1.32-1.32V41.24a1.317,1.317,0,0,0-1.32-1.31h-.51a16.828,16.828,0,0,1,4.74-9.37,17.058,17.058,0,0,0,3.56-5.25.759.759,0,0,0-1.39-.61,15.8,15.8,0,0,1-3.25,4.79,18.268,18.268,0,0,0-5.2,10.42H16.24A18.526,18.526,0,0,0,11,29.45,15.878,15.878,0,0,1,8.55,10.46a.755.755,0,0,0-.28-1.03.776.776,0,0,0-1.03.29,17.394,17.394,0,0,0,2.68,20.8,17.037,17.037,0,0,1,4.78,9.4h-.5a1.317,1.317,0,0,0-1.32,1.31v3.79a1.319,1.319,0,0,0,1.32,1.32h.9l1.45,4.13a.764.764,0,0,0,.71.51h4.3v2.91a2.691,2.691,0,0,1-2.69,2.69h-.68a4.21,4.21,0,0,0,0,8.42H49.35a5.077,5.077,0,0,0,5.07-5.07V37.13a7.4,7.4,0,0,0,6.64-7.35V24.75A.771.771,0,0,0,60.3,24ZM16.7,46.35h2.65c.01,0,.02-.01.03-.01h1.08a.76.76,0,1,0,0-1.52H14.38v-3.4H30.23v3.4H24.02a.76.76,0,1,0,0,1.52h.27c.01,0,.02.01.03.01h3.59l-1.09,3.12H17.79Z" fill="#fff"/>
        <path id="Trazado_891498_-_Contorno" data-name="Trazado 891498 - Contorno" d="M7.908,8.841a1.281,1.281,0,0,1,.6.147L8.522,9a1.256,1.256,0,0,1,.46,1.714A15.378,15.378,0,0,0,11.357,29.1,19.172,19.172,0,0,1,16.672,39.41H27.957a18.888,18.888,0,0,1,5.278-10.272A15.294,15.294,0,0,0,36.382,24.5a1.27,1.27,0,0,1,1.157-.755,1.229,1.229,0,0,1,.505.108,1.26,1.26,0,0,1,.644,1.658,17.539,17.539,0,0,1-3.663,5.4,16.487,16.487,0,0,0-4.506,8.519A1.817,1.817,0,0,1,32.26,41.24v3.79a1.822,1.822,0,0,1-1.82,1.82h-.556l-1.331,3.791a1.239,1.239,0,0,1-1.184.849h-3.8V53.9a4.715,4.715,0,0,1-4.71,4.71h-.68a2.19,2.19,0,1,0,0,4.38H49.31a3.063,3.063,0,0,0,3.06-3.06V37.569a7.91,7.91,0,0,1-3.818-1.743,1.223,1.223,0,0,1-.445-.839,1.249,1.249,0,0,1,.288-.926,1.23,1.23,0,0,1,.956-.45,1.26,1.26,0,0,1,.811.3A5.391,5.391,0,0,0,59.02,29.8V26.02H48.25V29.8a5.362,5.362,0,0,0,.156,1.271l0,.009a1.269,1.269,0,0,1-.929,1.506l-.011,0a1.305,1.305,0,0,1-.279.03,1.256,1.256,0,0,1-1.224-.96,7.843,7.843,0,0,1-.224-1.868V24.76A1.261,1.261,0,0,1,47,23.5h1.72V18.47a1.26,1.26,0,1,1,2.52,0V23.5h4.82V18.47a1.26,1.26,0,1,1,2.52,0V23.5H60.3a1.272,1.272,0,0,1,1.26,1.238V29.78a7.9,7.9,0,0,1-6.64,7.789V59.93a5.576,5.576,0,0,1-5.57,5.57H18.19a4.71,4.71,0,0,1,0-9.42h.68a2.192,2.192,0,0,0,2.19-2.19V51.48h-3.8a1.268,1.268,0,0,1-1.179-.838l0-.007-1.333-3.8H14.2a1.822,1.822,0,0,1-1.82-1.82V41.23a1.817,1.817,0,0,1,1.731-1.808A16.73,16.73,0,0,0,9.563,30.87a17.894,17.894,0,0,1-2.757-21.4A1.277,1.277,0,0,1,7.908,8.841Zm.12,1.027a.278.278,0,0,0-.12-.027.268.268,0,0,0-.236.131,16.894,16.894,0,0,0,2.605,20.2,17.628,17.628,0,0,1,4.917,9.678l.083.572H14.2a.816.816,0,0,0-.82.81v3.79a.821.821,0,0,0,.82.82h1.254L17.02,50.3a.265.265,0,0,0,.24.18h4.8v3.41a3.194,3.194,0,0,1-3.19,3.19h-.68a3.71,3.71,0,0,0,0,7.42H49.35a4.575,4.575,0,0,0,4.57-4.57V36.678l.449-.046A6.869,6.869,0,0,0,60.56,29.78V24.758a.273.273,0,0,0-.26-.258H57.58V18.47a.26.26,0,1,0-.52,0V24.5H50.24V18.47a.26.26,0,1,0-.52,0V24.5H47a.26.26,0,0,0-.26.26v5.03a6.843,6.843,0,0,0,.2,1.631.252.252,0,0,0,.252.2.3.3,0,0,0,.059-.006.261.261,0,0,0,.186-.31,6.362,6.362,0,0,1-.183-1.5V25.02H60.02V29.8a6.391,6.391,0,0,1-10.5,4.873.256.256,0,0,0-.167-.062.234.234,0,0,0-.183.084l-.006.007a.256.256,0,0,0-.06.19.232.232,0,0,0,.083.159l0,0a6.906,6.906,0,0,0,3.731,1.577l.449.046V59.93a4.065,4.065,0,0,1-4.06,4.06H18.18a3.19,3.19,0,1,1,0-6.38h.68a3.714,3.714,0,0,0,3.71-3.71V50.49h4.8a.242.242,0,0,0,.234-.163l0-.012,1.567-4.464H30.44a.821.821,0,0,0,.82-.82V41.24a.816.816,0,0,0-.82-.81H29.352l.083-.572a17.424,17.424,0,0,1,4.879-9.65,16.544,16.544,0,0,0,3.457-5.1l0-.005a.248.248,0,0,0,0-.192.268.268,0,0,0-.14-.148.235.235,0,0,0-.1-.021.27.27,0,0,0-.243.158,16.285,16.285,0,0,1-3.35,4.937,17.825,17.825,0,0,0-5.06,10.134l-.057.435H15.8l-.058-.434a18.1,18.1,0,0,0-5.1-10.175A16.378,16.378,0,0,1,8.116,10.211.255.255,0,0,0,8.027,9.867ZM13.88,40.92H30.73v4.4H24.02a.26.26,0,1,0,0,.52h.27a.52.52,0,0,1,.1.01h4.223l-1.439,4.12h-9.74L16,45.85h3.283a.52.52,0,0,1,.1-.01h1.08a.26.26,0,1,0,0-.52H13.88Zm15.85,1H14.88v2.4h5.58a1.26,1.26,0,1,1,0,2.52H19.451a.52.52,0,0,1-.1.01H17.4l.741,2.12h8.32l.741-2.12H24.32a.52.52,0,0,1-.1-.01h-.2a1.26,1.26,0,1,1,0-2.52h5.71Z" fill="#fff"/>
        <path id="Trazado_891499" data-name="Trazado 891499" d="M17.78,31.67a.758.758,0,0,0,.93-.17L30.58,17.9a.752.752,0,0,0-.57-1.25H24.98l2.41-4.88a.734.734,0,0,0-.04-.73.764.764,0,0,0-.64-.36H19.88a.749.749,0,0,0-.7.47l-.83,2.02a.758.758,0,0,0,1.4.58l.64-1.55H25.5l-2.41,4.88a.734.734,0,0,0,.04.73.764.764,0,0,0,.64.36h4.58l-8.58,9.82,1.51-5.4a.762.762,0,0,0-.73-.96H16.5l2.02-5.02a.754.754,0,1,0-1.4-.56l-2.43,6.06a.781.781,0,0,0,.08.71.756.756,0,0,0,.63.33h4.18l-2.14,7.66A.707.707,0,0,0,17.78,31.67Z" fill="#fff"/>
        <path id="Trazado_891499_-_Contorno" data-name="Trazado 891499 - Contorno" d="M18.14,32.26a1.272,1.272,0,0,1-.6-.151,1.2,1.2,0,0,1-.578-1.449l1.958-7.009H15.4a1.251,1.251,0,0,1-1.046-.553,1.274,1.274,0,0,1-.13-1.17l2.43-6.061a1.254,1.254,0,1,1,2.328.933L17.24,21.13h3.31a1.262,1.262,0,0,1,1.214,1.586l0,.008L20.846,26l6.4-7.328H23.77a1.257,1.257,0,0,1-1.062-.592,1.235,1.235,0,0,1-.064-1.224L24.7,12.7H20.724l-.512,1.241a1.249,1.249,0,0,1-1.159.777,1.259,1.259,0,0,1-1.166-1.738l.83-2.02a1.255,1.255,0,0,1,1.162-.78h6.83a1.257,1.257,0,0,1,1.062.592A1.235,1.235,0,0,1,27.836,12L25.785,16.15H30.01a1.253,1.253,0,0,1,.944,2.082l-11.867,13.6A1.264,1.264,0,0,1,18.14,32.26Zm-.326-16.187a.242.242,0,0,0-.227.156l0,.007-2.43,6.06a.279.279,0,0,0,.032.247.257.257,0,0,0,.214.107h4.839L17.91,30.981a.21.21,0,0,0,.111.251.27.27,0,0,0,.12.028.262.262,0,0,0,.2-.091L30.21,17.564a.254.254,0,0,0,.033-.271.248.248,0,0,0-.233-.143H24.175l2.771-5.611a.236.236,0,0,0-.019-.23.266.266,0,0,0-.218-.128H19.88a.248.248,0,0,0-.238.161l-.83,2.019a.262.262,0,0,0,0,.2.248.248,0,0,0,.139.137.271.271,0,0,0,.1.021.25.25,0,0,0,.234-.158l.768-1.86H26.3l-2.771,5.611a.236.236,0,0,0,.019.23.266.266,0,0,0,.218.128h5.681l-9.3,10.649-.858-.464L20.8,22.46a.249.249,0,0,0-.039-.221l-.01-.013a.255.255,0,0,0-.2-.1H15.76l2.3-5.707a.25.25,0,0,0,0-.2.242.242,0,0,0-.136-.13l-.01,0A.253.253,0,0,0,17.814,16.073Z" fill="#fff"/>
        <path id="Trazado_891500" data-name="Trazado 891500" d="M57.02,28.18a.76.76,0,0,0-.76-.76H51.05a.76.76,0,0,0,0,1.52h5.21A.773.773,0,0,0,57.02,28.18Z" fill="#fff"/>
        <path id="Trazado_891500_-_Contorno" data-name="Trazado 891500 - Contorno" d="M51.05,26.92h5.21a1.261,1.261,0,0,1,1.26,1.26,1.277,1.277,0,0,1-1.248,1.26H51.05a1.26,1.26,0,1,1,0-2.52Zm5.2,1.52a.274.274,0,0,0,.267-.26.26.26,0,0,0-.26-.26H51.05a.26.26,0,1,0,0,.52Z" fill="#fff"/>
        <path id="Trazado_891501" data-name="Trazado 891501" d="M51.92,31.12a.76.76,0,0,0,0,1.52H55.4a.76.76,0,0,0,0-1.52Z" fill="#fff"/>
        <path id="Trazado_891501_-_Contorno" data-name="Trazado 891501 - Contorno" d="M51.92,30.62H55.4a1.26,1.26,0,0,1,0,2.52H51.92a1.26,1.26,0,0,1,0-2.52Zm3.48,1.52a.26.26,0,0,0,0-.52H51.92a.26.26,0,0,0,0,.52Z" fill="#fff"/>
      </g>
    </g>
  </g>
</svg>
