<svg xmlns="http://www.w3.org/2000/svg" xmlns:xlink="http://www.w3.org/1999/xlink" width="400" height="417.662" viewBox="0 0 400 417.662">
  <defs>
    <clipPath id="clip-path">
      <rect id="Rectángulo_401499" data-name="Rectángulo 401499" width="38.277" height="99.429" fill="none"/>
    </clipPath>
    <clipPath id="clip-path-2">
      <rect id="Rectángulo_401500" data-name="Rectángulo 401500" width="77.439" height="33.055" fill="none"/>
    </clipPath>
    <clipPath id="clip-path-3">
      <rect id="Rectángulo_401503" data-name="Rectángulo 401503" width="7.908" height="7.908" fill="none"/>
    </clipPath>
    <clipPath id="clip-path-4">
      <rect id="Rectángulo_400902" data-name="Rectángulo 400902" width="113.066" height="100.239" fill="#f8cd20"/>
    </clipPath>
  </defs>
  <g id="Grupo_1102057" data-name="Grupo 1102057" transform="translate(-915 -4596.354)">
    <g id="Grupo_1099588" data-name="Grupo 1099588" transform="translate(735 2114.174)">
      <path id="_119740" data-name="119740" d="M45.281,0l-.444.154H24.13A24.13,24.13,0,0,0,0,24.285V74.451a24.156,24.156,0,0,0,9.563,19.4c6.572,4.9,13.421,13.2,9.266,25.115-7.226,20.721-3.8,38.8,11.788,51.47s27.669,26.1,11.979,42.434q-.42.438-.812.882c-13.556,15.354-2.116,39.6,18.365,39.6H276.586l-.012-.04A126.6,126.6,0,0,0,273.4.154c-.57,0-1.135.019-1.7.026l-.014-.026Z" transform="translate(285 2891.848) rotate(-90)" fill="#38b449"/>
      <g id="Grupo_1099584" data-name="Grupo 1099584" transform="translate(180 2482.18)">
        <g id="Grupo_1099585" data-name="Grupo 1099585">
          <g id="Grupo_1099582" data-name="Grupo 1099582" transform="translate(0 0)">
            <g id="Grupo_1099586" data-name="Grupo 1099586">
              <path id="Trazado_881778" data-name="Trazado 881778" d="M2,72.108V330.593a13.031,13.031,0,0,0,13.031,13.031H267.978a13.031,13.031,0,0,0,13.031-13.031V72.108Z" transform="translate(-1.186 -42.744)" fill="#fff"/>
              <path id="Trazado_881779" data-name="Trazado 881779" d="M266.793,343.253H13.846A13.861,13.861,0,0,1,0,329.407V70.108H280.638v259.3a13.861,13.861,0,0,1-13.846,13.846M1.629,71.737v257.67a12.231,12.231,0,0,0,12.217,12.217H266.793a12.231,12.231,0,0,0,12.217-12.217V71.737Z" transform="translate(0 -41.558)" fill="#f35923"/>
              <path id="Trazado_881780" data-name="Trazado 881780" d="M281.009,15.032A13.031,13.031,0,0,0,267.978,2H15.031A13.031,13.031,0,0,0,2,15.032V30.551H281.009Z" transform="translate(-1.186 -1.187)" fill="#f35923"/>
              <path id="Trazado_881781" data-name="Trazado 881781" d="M280.638,30.18H0V13.847A13.861,13.861,0,0,1,13.846,0H266.793a13.861,13.861,0,0,1,13.846,13.846ZM1.629,28.551h277.38v-14.7A12.231,12.231,0,0,0,266.793,1.63H13.846A12.231,12.231,0,0,0,1.629,13.847Z" transform="translate(0 -0.001)" fill="#f35923"/>
              <path id="Trazado_881782" data-name="Trazado 881782" d="M54.079,28.476a5.7,5.7,0,1,1-5.7-5.7,5.7,5.7,0,0,1,5.7,5.7" transform="translate(-25.298 -13.501)" fill="#fff"/>
              <rect id="Rectángulo_401480" data-name="Rectángulo 401480" width="16.832" height="123.268" transform="translate(237.302 154.105)" fill="#afe1b6"/>
              <rect id="Rectángulo_401481" data-name="Rectángulo 401481" width="16.832" height="118.455" transform="translate(202.169 158.955)" fill="#99c2ae"/>
              <rect id="Rectángulo_401482" data-name="Rectángulo 401482" width="16.832" height="98.591" transform="translate(167.036 178.945)" fill="#afe1b6"/>
              <rect id="Rectángulo_401483" data-name="Rectángulo 401483" width="16.832" height="84.719" transform="translate(131.903 192.859)" fill="#99c2ae"/>
              <rect id="Rectángulo_401484" data-name="Rectángulo 401484" width="16.832" height="59.383" transform="translate(96.77 218.493)" fill="#afe1b6"/>
              <rect id="Rectángulo_401485" data-name="Rectángulo 401485" width="16.832" height="38.295" transform="translate(61.637 239.704)" fill="#99c2ae"/>
              <rect id="Rectángulo_401486" data-name="Rectángulo 401486" width="16.832" height="26.001" transform="translate(26.504 252.223)" fill="#afe1b6"/>
              <path id="Trazado_881783" data-name="Trazado 881783" d="M124.808,425.38H93.387a4.877,4.877,0,0,0-4.877,4.877v19.2a4.878,4.878,0,0,0,4.877,4.877H113.14l5.93,9.328,5.943-9.349a4.867,4.867,0,0,0,4.673-4.857v-19.2a4.877,4.877,0,0,0-4.877-4.877" transform="translate(-52.466 -252.153)" fill="#afe1b6"/>
              <path id="Trazado_881784" data-name="Trazado 881784" d="M127.36,441.345l2.485,5.035,5.557.808-4.021,3.919.949,5.534-4.97-2.613-4.97,2.613.949-5.534-4.021-3.919,5.557-.808Z" transform="translate(-70.728 -261.617)" fill="#016835"/>
              <path id="Trazado_881785" data-name="Trazado 881785" d="M292.25,205.482H62.583V128.108H292.25ZM64.212,203.853H290.621V129.737H64.212Z" transform="translate(-37.097 -75.939)" fill="#dadada"/>
              <rect id="Rectángulo_401487" data-name="Rectángulo 401487" width="228.038" height="1.629" transform="translate(26.3 108.977)" fill="#dadada"/>
              <rect id="Rectángulo_401488" data-name="Rectángulo 401488" width="228.038" height="1.629" transform="translate(26.3 90.041)" fill="#dadada"/>
              <rect id="Rectángulo_401489" data-name="Rectángulo 401489" width="228.038" height="1.629" transform="translate(26.3 71.105)" fill="#dadada"/>
              <rect id="Rectángulo_401490" data-name="Rectángulo 401490" width="1.629" height="75.745" transform="translate(230.72 52.983)" fill="#dadada"/>
              <rect id="Rectángulo_401491" data-name="Rectángulo 401491" width="1.629" height="75.745" transform="translate(207.916 52.983)" fill="#dadada"/>
              <rect id="Rectángulo_401492" data-name="Rectángulo 401492" width="1.629" height="75.745" transform="translate(185.112 52.983)" fill="#dadada"/>
              <rect id="Rectángulo_401493" data-name="Rectángulo 401493" width="1.629" height="75.745" transform="translate(162.308 52.983)" fill="#dadada"/>
              <rect id="Rectángulo_401494" data-name="Rectángulo 401494" width="1.629" height="75.745" transform="translate(139.505 52.983)" fill="#dadada"/>
              <rect id="Rectángulo_401495" data-name="Rectángulo 401495" width="1.629" height="75.745" transform="translate(116.701 52.983)" fill="#dadada"/>
              <rect id="Rectángulo_401496" data-name="Rectángulo 401496" width="1.629" height="75.745" transform="translate(93.897 52.983)" fill="#dadada"/>
              <rect id="Rectángulo_401497" data-name="Rectángulo 401497" width="1.629" height="75.745" transform="translate(71.093 52.983)" fill="#dadada"/>
              <rect id="Rectángulo_401498" data-name="Rectángulo 401498" width="1.629" height="75.745" transform="translate(48.29 52.983)" fill="#dadada"/>
              <path id="Trazado_881786" data-name="Trazado 881786" d="M82.83,204.917a6.752,6.752,0,0,1-1.337-.14c-3.627-.733-4.287-3.992-4.817-6.611-.549-2.715-.992-4.387-3.08-4.565-2.405-.2-6.508,2.853-8.523,4.985l-1.184-1.119c1.54-1.629,6.314-5.794,9.846-5.489,3.411.291,4.01,3.252,4.539,5.865.606,3,1.148,4.854,3.542,5.337,3.975.8,5.6-3.244,7.045-7.825L93.9,179.4c.78-2.471,1.664-5.272,3.644-7.366,1.932-2.042,5.453-3.328,8.176-1.686,2.035,1.227,3.069,3.593,3.073,7.031,0,.621-.018,1.273-.038,1.964-.074,2.54-.157,5.42.767,7.428a3.572,3.572,0,0,0,2.136,1.938,2.248,2.248,0,0,0,1.925-.294c1.894-1.231,2.121-3.534,2.362-5.971a14.669,14.669,0,0,1,.9-4.453,4.887,4.887,0,0,1,6.4-2.6c5.437,1.991,5.186,8.557,5.021,12.9l-.018.484c-.114,3.1.235,7.462,2.539,10.605a4.079,4.079,0,0,0,3.29,1.9,3.275,3.275,0,0,0,2.6-1.83c1.175-1.973,1.317-4.692,1.455-7.321.042-.8.081-1.555.15-2.283l1.084-11.532c.45-4.777,2.107-7.634,4.794-8.262a3.732,3.732,0,0,1,3.127.517c1.379.977,2.217,2.976,2.56,6.111a18.381,18.381,0,0,1-.007,2.808c-.167,3.294-.1,5.5,2.3,6.126a4.007,4.007,0,0,0,3.973-1.917,13.847,13.847,0,0,0,1.575-5.667c.075-.568.15-1.131.241-1.684.636-3.863,1.433-8.411,2.529-12.859l.014-.058c.613-2.487,1.453-5.894,4.062-7.406a4.6,4.6,0,0,1,4.5-.361c2.337,1.13,3.782,4.369,4.178,7.077a34,34,0,0,1,.182,5.52,23.142,23.142,0,0,0,.57,7.147c.665,2.135,2.809,4.814,5.5,4.088,2.864-.774,3.459-3.251,4.147-6.119.134-.557.272-1.134.43-1.69,1.265-4.484,3-10.626,6.881-14.589a7.682,7.682,0,0,1,9.171-1.332c4.525,2.5,4.482,7.948,4.446,12.758a22.953,22.953,0,0,0,.534,6.646c.749,2.344,2.032,3.8,3.812,4.341a4.833,4.833,0,0,0,4-.4c2.186-1.3,3.5-4.3,4-6.677l.215-1.026c1.027-4.933,2.435-11.689,5.619-15.427a7.545,7.545,0,0,1,7.888-2.724,8.727,8.727,0,0,1,6.081,7.038c.073.415.137.833.2,1.251a16.188,16.188,0,0,0,.866,3.728,4.13,4.13,0,0,0,3.176,2.8,4.815,4.815,0,0,0,4.326-2.12,19.469,19.469,0,0,0,2.161-3.931c.388-.853.79-1.734,1.26-2.577,4.276-7.665,13.283-10.67,20.286-10.926,8.137-.3,16.017,2.263,22.973,4.523l-.5,1.55c-6.828-2.218-14.563-4.731-22.41-4.445-6.561.24-14.978,3.018-18.924,10.092-.438.786-.826,1.636-1.2,2.459a20.974,20.974,0,0,1-2.355,4.253,6.424,6.424,0,0,1-5.834,2.737,5.762,5.762,0,0,1-4.464-3.8,17.7,17.7,0,0,1-.969-4.1c-.062-.406-.124-.812-.195-1.215a7.1,7.1,0,0,0-4.905-5.749,5.976,5.976,0,0,0-6.22,2.209c-2.915,3.42-4.273,9.941-5.265,14.7l-.215,1.03c-.744,3.518-2.526,6.413-4.767,7.742a6.4,6.4,0,0,1-5.3.553c-2.294-.69-3.986-2.559-4.895-5.4a23.95,23.95,0,0,1-.611-7.155c.035-4.568.071-9.292-3.6-11.32a6.047,6.047,0,0,0-7.221,1.046c-3.592,3.667-5.26,9.576-6.478,13.892-.148.526-.283,1.086-.413,1.629-.707,2.946-1.509,6.285-5.306,7.311-3.383.914-6.462-1.912-7.479-5.175a24.3,24.3,0,0,1-.643-7.666,32.3,32.3,0,0,0-.165-5.251c-.334-2.279-1.565-5.02-3.275-5.846a3.023,3.023,0,0,0-2.972.3c-2.01,1.165-2.724,4.06-3.3,6.386l-.014.058c-1.083,4.394-1.874,8.9-2.5,12.734-.088.536-.161,1.082-.234,1.633a15.036,15.036,0,0,1-1.816,6.33c-1.121,1.756-3.458,3.218-5.758,2.617-3.856-1.008-3.658-4.924-3.513-7.784a17.33,17.33,0,0,0,.014-2.549c-.356-3.249-1.22-4.49-1.882-4.959a2.144,2.144,0,0,0-1.815-.26c-2.58.6-3.327,4.537-3.543,6.828L139.9,190c-.066.695-.1,1.433-.145,2.216-.141,2.7-.3,5.75-1.682,8.069a4.884,4.884,0,0,1-3.925,2.624,5.6,5.6,0,0,1-4.682-2.565c-2.581-3.521-2.976-8.267-2.854-11.628l.018-.486c.156-4.105.371-9.727-3.953-11.311a3.275,3.275,0,0,0-4.346,1.727,13.334,13.334,0,0,0-.77,3.954c-.255,2.588-.544,5.52-3.095,7.177a3.864,3.864,0,0,1-3.266.493,5.169,5.169,0,0,1-3.163-2.822c-1.084-2.355-.994-5.437-.915-8.157.02-.678.038-1.318.037-1.915,0-2.829-.772-4.725-2.285-5.638-1.991-1.2-4.655-.17-6.151,1.411-1.723,1.822-2.547,4.433-3.274,6.737l-5.025,15.922c-1.1,3.5-2.873,9.1-7.594,9.1" transform="translate(-37.872 -88.031)" fill="#f35923"/>
              <path id="Trazado_881787" data-name="Trazado 881787" d="M233.674,272.773a3.665,3.665,0,1,1-3.665-3.665,3.665,3.665,0,0,1,3.665,3.665" transform="translate(-134.17 -159.52)" fill="#923615"/>
              <path id="Trazado_881788" data-name="Trazado 881788" d="M566.674,144.773a3.665,3.665,0,1,1-3.665-3.665,3.665,3.665,0,0,1,3.665,3.665" transform="translate(-331.563 -83.645)" fill="#923615"/>
              <path id="Trazado_881789" data-name="Trazado 881789" d="M864.831,772.348A13.7,13.7,0,0,1,862.485,776c-5.359,5.685-13.178-.6-18.553-17.218l-10.588-21.713,4.072-18.6s3.307-6.679,8.8-9.154a9.743,9.743,0,0,1,8.845.326c10.588,5.441,15.214,51.05,9.774,62.713" transform="translate(-493.982 -419.921)" fill="#102048"/>
              <path id="Trazado_881790" data-name="Trazado 881790" d="M883.563,772.348A13.7,13.7,0,0,1,881.217,776c.179-50.268-9.106-64.391-16.273-66.688a9.743,9.743,0,0,1,8.845.326c10.588,5.441,15.214,51.05,9.774,62.713" transform="translate(-512.714 -419.921)" fill="#86a7ff"/>
              <path id="Trazado_881791" data-name="Trazado 881791" d="M717.327,873.116a13.7,13.7,0,0,1-3.09,3.045c-6.476,4.37-12.724-3.481-14.321-20.87l-5.563-23.509,8.057-17.254s4.692-5.79,10.591-7a9.744,9.744,0,0,1,8.558,2.26c9.135,7.632,3.635,53.145-4.233,63.329" transform="translate(-411.593 -478.549)" fill="#102048"/>
              <path id="Trazado_881792" data-name="Trazado 881792" d="M744.471,873.116a13.7,13.7,0,0,1-3.09,3.045c11.211-49,5.253-64.819-1.236-68.634a9.744,9.744,0,0,1,8.558,2.26c9.135,7.632,3.635,53.145-4.233,63.329" transform="translate(-438.737 -478.549)" fill="#86a7ff"/>
              <path id="Trazado_881793" data-name="Trazado 881793" d="M631.736,693.72a100.272,100.272,0,0,1-14.155,12.461,58.661,58.661,0,0,1-15.54,8.373c-10.034,3.323-20.606,2.167-28.131-10.653-14.025-23.864-11-78.3-8.389-105.733.961-10.018,1.873-16.436,1.873-16.436l46.831-12.624.554,3.958,1.548,10.946,8.617,61.394Z" transform="translate(-333.911 -337.351)" fill="#1f3c88"/>
              <g id="Grupo_1099574" data-name="Grupo 1099574" transform="translate(259.548 277.774)" opacity="0.6">
                <g id="Grupo_1099573" data-name="Grupo 1099573">
                  <g id="Grupo_1099572" data-name="Grupo 1099572" clip-path="url(#clip-path)">
                    <path id="Trazado_881794" data-name="Trazado 881794" d="M675.628,760.7s-14.22,15.719-29.7,20.834c-16.843-34.224-3.7-99.429-3.7-99.429l26.6,30.282Z" transform="translate(-637.351 -682.108)" fill="#102048"/>
                  </g>
                </g>
              </g>
              <path id="Trazado_881795" data-name="Trazado 881795" d="M730.6,670.394s-27.089,47.239-58.364,35.559a20.663,20.663,0,0,1-7.917-5.587c-19.563-21.257-21.99-88.01-22.153-114.79-.049-7.021.065-11.288.065-11.288s9.4-3.453,19.286-7.037c10.409-3.763,21.339-7.688,22.381-7.9,2.232-.44,4.154,1.89,5.8,6.043,7.721,19.466,9.415,78.937,9.415,78.937l24.971-14.253c12.217,13.846,6.516,40.316,6.516,40.316" transform="translate(-380.65 -331.536)" fill="#1f3c88"/>
              <path id="Trazado_881796" data-name="Trazado 881796" d="M627.328,703.579c-1.858-13.257-2.882-30.892-3.039-33.746l-12.1-8.528.939-1.332,12.744,8.984.021.395c.01.2,1.04,19.679,3.047,34Z" transform="translate(-362.889 -391.213)" fill="#3a6bea"/>
              <path id="Trazado_881797" data-name="Trazado 881797" d="M717.012,681.3a16.678,16.678,0,0,1-16.587-15L689.353,556.071l1.621-.163L702.046,666.13a15.038,15.038,0,0,0,23.629,10.787l34.605-24.4.939,1.332-34.605,24.4a16.647,16.647,0,0,1-9.6,3.049" transform="translate(-408.628 -329.526)" fill="#3a6bea"/>
              <g id="Grupo_1099577" data-name="Grupo 1099577" transform="translate(231.609 227.762)" opacity="0.6">
                <g id="Grupo_1099576" data-name="Grupo 1099576">
                  <g id="Grupo_1099575" data-name="Grupo 1099575" clip-path="url(#clip-path-2)">
                    <path id="Trazado_881798" data-name="Trazado 881798" d="M646.183,565.394a221.214,221.214,0,0,1-26.633,12.8c-6.239,2.541-13.259,5.082-20.9,7.379a219.324,219.324,0,0,1-29.907,6.776c.961-10.018,1.873-16.436,1.873-16.436l46.831-12.624.554,3.958c10.409-3.763,21.339-7.688,22.381-7.9,2.232-.44,4.154,1.89,5.8,6.043" transform="translate(-568.744 -559.298)" fill="#102048"/>
                  </g>
                </g>
              </g>
              <path id="Trazado_881799" data-name="Trazado 881799" d="M469.168,177.751,460.078,193.1,448.4,191.19c-.538-2.623-1.108-5.375-1.645-8.145-2.411-12.412-4.382-25.036-2.15-26.47,1.58-1.026,2.427,1.108,2.867,3.046-.391-3.323-.652-8.682,1.466-9.692,2.232-1.059,3.421,4.528,3.926,7.851-.326-3.242-.554-8.861,1.645-10.295,2.476-1.613,3.4,6.6,3.7,10.116-.13-2.818-.13-8.519,2-9.04,2.541-.6,3.046,12.119,3.111,14.839,0-1.466.2-5.555,2.313-5.327,2.59.261,3.535,19.677,3.535,19.677" transform="translate(-262.969 -87.303)" fill="#f9b384"/>
              <path id="Trazado_881800" data-name="Trazado 881800" d="M473.718,222.108l-9.089,15.344-11.679-1.906c-.538-2.623-1.108-5.375-1.645-8.145Z" transform="translate(-267.52 -131.66)" fill="#e28b6d"/>
              <path id="Trazado_881801" data-name="Trazado 881801" d="M547.378,293.373l-31.422,36.178-3.6,4.137c-10.376-2.8-19.172-10.555-26.5-20.541-21.469-29.206-30.51-77.6-30.51-77.6l20.769-13.439c23.619,92.034,71.265,71.265,71.265,71.265" transform="translate(-269.915 -131.66)" fill="#f8cd20"/>
              <path id="Trazado_881802" data-name="Trazado 881802" d="M561.116,457.787l-.749,4.284-3.6,4.137c-10.376-2.8-19.172-10.555-26.5-20.541,5.994,4.512,21.208,14.9,30.852,12.119" transform="translate(-314.325 -264.179)" fill="#c29e0a"/>
              <path id="Trazado_881803" data-name="Trazado 881803" d="M642.014,469.139c-16.191,10.8-36.341,13.911-55.3,14.986-5.522.309-11.044.407-16.566.179-2.671-.114-5.8,0-8.373-.863-4.887-1.629-1.629-5.7,2.443-9.366s5.7-59.455,5.7-59.455l39.094-17.511,30.135,8.959.619,22.8.342,12.184.407,14.921a9.012,9.012,0,0,0,3.193,6.6c2.916,2.509.831,4.887-1.694,6.565" transform="translate(-331.549 -235.394)" fill="#f8cd20"/>
              <path id="Trazado_881804" data-name="Trazado 881804" d="M743.264,487.292a22.773,22.773,0,0,1-9.92-6.483l9.578-5.7Z" transform="translate(-434.705 -281.631)" fill="#c29e0a"/>
              <path id="Trazado_881805" data-name="Trazado 881805" d="M908.758,226.018l4.307,17.306,11.735,1.524c1.267-2.358,2.6-4.832,3.912-7.331,5.869-11.2,11.378-22.728,9.651-24.741-1.219-1.436-2.642.365-3.62,2.1,1.328-3.071,3.114-8.131,1.375-9.706-1.834-1.655-4.576,3.357-6.013,6.4,1.242-3.012,3.072-8.33,1.376-10.334-1.91-2.255-5.153,5.343-6.443,8.63.933-2.662,2.568-8.124.673-9.236-2.261-1.306-6.394,10.737-7.236,13.324.42-1.4,1.405-5.377-.689-5.766-2.556-.493-9.029,17.837-9.029,17.837" transform="translate(-538.685 -118.866)" fill="#f9b384"/>
              <path id="Trazado_881806" data-name="Trazado 881806" d="M908.758,263.127l4.307,17.306,11.735,1.524c1.267-2.358,2.6-4.832,3.912-7.331Z" transform="translate(-538.685 -155.974)" fill="#e28b6d"/>
              <path id="Trazado_881807" data-name="Trazado 881807" d="M688.344,316.466s54.569,11,89.759-53.339l16.042,18.83s-45.31,74.342-87.476,73.2Z" transform="translate(-408.03 -155.974)" fill="#f8cd20"/>
              <path id="Trazado_881808" data-name="Trazado 881808" d="M655.016,440.924a17.907,17.907,0,0,1-12.142-5.07l1.2-1.106c.38.409,9.454,9.91,22.122.312l.984,1.3c-4.5,3.41-8.633,4.565-12.161,4.565" transform="translate(-381.077 -257.706)" fill="#c29e0a"/>
              <rect id="Rectángulo_401501" data-name="Rectángulo 401501" width="39.441" height="1.629" transform="translate(235.383 221.254) rotate(-86.445)" fill="#c29e0a"/>
              <path id="Trazado_881809" data-name="Trazado 881809" d="M905.282,309.181c-6.8-6.8-13.447-20.014-13.727-20.573l1.457-.729c.067.135,6.808,13.536,13.421,20.15Z" transform="translate(-528.488 -170.647)" fill="#c29e0a"/>
              <rect id="Rectángulo_401502" data-name="Rectángulo 401502" width="24.723" height="1.629" transform="matrix(0.857, -0.516, 0.516, 0.857, 188.266, 116.084)" fill="#c29e0a"/>
              <path id="Trazado_881810" data-name="Trazado 881810" d="M665.441,466.156a2.715,2.715,0,1,1-2.715-2.715,2.715,2.715,0,0,1,2.715,2.715" transform="translate(-391.235 -274.715)" fill="#f35923"/>
              <path id="Trazado_881811" data-name="Trazado 881811" d="M676.244,347.227l-2.968,22.947a9.6,9.6,0,0,1-10.75,8.292h-.006a9.6,9.6,0,0,1-8.286-10.755l2.968-22.948Z" transform="translate(-387.763 -204.366)" fill="#f9b384"/>
              <path id="Trazado_881812" data-name="Trazado 881812" d="M665.642,365.076s-2.622,9.866-11.272,12.838l2.049-15.838Z" transform="translate(-387.891 -214.628)" fill="#102048"/>
              <path id="Trazado_881813" data-name="Trazado 881813" d="M642.5,303.492s-3.132,13.6-3.7,23.276c-.326,5.574,7.083,14.235,20.309,2.215l8.141-7.735.631-13.374-12.205-5.423Z" transform="translate(-378.659 -179.285)" fill="#f9b384"/>
              <path id="Trazado_881814" data-name="Trazado 881814" d="M657.505,307.233s1.231-7.393-2.136-10.025c0,0-19.432,5.862-28.327-11.354,0,0,5.768,2.119,12.238-2.261,5.909-4,16.073-6.434,21.655,3.487,0,0,13.955-.666,3.579,20.1Z" transform="translate(-371.692 -166.04)" fill="#652b14"/>
              <path id="Trazado_881815" data-name="Trazado 881815" d="M704.754,343.182c-2.22,3.174-6.192,4.227-8.874,2.352s-3.055-5.968-.835-9.142,6.192-4.227,8.873-2.352,3.055,5.968.835,9.142" transform="translate(-411.145 -197.459)" fill="#f9b384"/>
              <path id="Trazado_881816" data-name="Trazado 881816" d="M647.849,335.194a1.086,1.086,0,1,1-1.086-1.086,1.086,1.086,0,0,1,1.086,1.086" transform="translate(-382.739 -198.05)" fill="#102048"/>
              <path id="Trazado_881817" data-name="Trazado 881817" d="M668.016,336.694a1.086,1.086,0,1,1-1.086-1.086,1.086,1.086,0,0,1,1.086,1.086" transform="translate(-394.693 -198.939)" fill="#102048"/>
              <path id="Trazado_881818" data-name="Trazado 881818" d="M649.313,346.382a.407.407,0,0,1-.281-.112,3.024,3.024,0,0,1-1.192-2.709,3.571,3.571,0,0,1,2.006-2.217l.632-2.592a.407.407,0,1,1,.792.193l-.728,2.983-.191.079c-.015.007-1.512.639-1.711,1.706a2.3,2.3,0,0,0,.954,1.967.407.407,0,0,1-.281.7" transform="translate(-383.999 -200.618)" fill="#102048"/>
              <path id="Trazado_881819" data-name="Trazado 881819" d="M647.866,326.425a.406.406,0,0,1-.3-.134c-1.669-1.848-4.1-.6-4.124-.591a.407.407,0,1,1-.379-.721c.03-.015,3.019-1.545,5.107.766a.407.407,0,0,1-.3.68" transform="translate(-381.059 -192.336)" fill="#102048"/>
              <path id="Trazado_881820" data-name="Trazado 881820" d="M668.613,329.98a.406.406,0,0,1-.3-.136,4.056,4.056,0,0,0-4.868-.862.407.407,0,0,1-.383-.719,4.94,4.94,0,0,1,5.857,1.038.407.407,0,0,1-.3.679" transform="translate(-392.915 -194.261)" fill="#102048"/>
              <path id="Trazado_881821" data-name="Trazado 881821" d="M652.057,360.29a6.649,6.649,0,0,1-1.041-.072.407.407,0,0,1,.136-.8,6.588,6.588,0,0,0,5.534-1.838.407.407,0,0,1,.607.543,6.94,6.94,0,0,1-5.235,2.17" transform="translate(-385.702 -211.881)" fill="#102048"/>
              <g id="Grupo_1099580" data-name="Grupo 1099580" transform="translate(274.68 138.67)" opacity="0.4">
                <g id="Grupo_1099579" data-name="Grupo 1099579">
                  <g id="Grupo_1099578" data-name="Grupo 1099578" clip-path="url(#clip-path-3)">
                    <path id="Trazado_881822" data-name="Trazado 881822" d="M682.419,344.476a3.954,3.954,0,1,1-3.954-3.954,3.954,3.954,0,0,1,3.954,3.954" transform="translate(-674.511 -340.522)" fill="#eb5d60"/>
                  </g>
                </g>
              </g>
              <path id="Trazado_881823" data-name="Trazado 881823" d="M703.584,347.339a.408.408,0,0,1-.4-.508,4.535,4.535,0,0,1,2.07-2.677,4.613,4.613,0,0,1,3.824-.049.407.407,0,0,1-.275.766,3.845,3.845,0,0,0-3.166,0,3.731,3.731,0,0,0-1.664,2.159.407.407,0,0,1-.394.307" transform="translate(-416.823 -203.747)" fill="#102048"/>
            </g>
          </g>
        </g>
      </g>
      <g id="Grupo_1099384" data-name="Grupo 1099384" transform="translate(346.144 2799.604)">
        <g id="Grupo_1098724" data-name="Grupo 1098724" transform="translate(0 0)">
          <g id="Grupo_1098723" data-name="Grupo 1098723" clip-path="url(#clip-path-4)">
            <path id="Trazado_872910" data-name="Trazado 872910" d="M4.514,2.257A2.257,2.257,0,1,1,2.257,0,2.257,2.257,0,0,1,4.514,2.257" fill="#f8cd20"/>
            <path id="Trazado_872911" data-name="Trazado 872911" d="M33.468,2.257A2.257,2.257,0,1,1,31.211,0a2.257,2.257,0,0,1,2.257,2.257" transform="translate(-7.243)" fill="#f8cd20"/>
            <path id="Trazado_872912" data-name="Trazado 872912" d="M62.421,2.257A2.257,2.257,0,1,1,60.164,0a2.257,2.257,0,0,1,2.257,2.257" transform="translate(-14.486)" fill="#f8cd20"/>
            <path id="Trazado_872913" data-name="Trazado 872913" d="M91.374,2.257A2.257,2.257,0,1,1,89.117,0a2.257,2.257,0,0,1,2.257,2.257" transform="translate(-21.729)" fill="#f8cd20"/>
            <path id="Trazado_872914" data-name="Trazado 872914" d="M120.328,2.257A2.257,2.257,0,1,1,118.071,0a2.257,2.257,0,0,1,2.257,2.257" transform="translate(-28.972)" fill="#f8cd20"/>
            <path id="Trazado_872915" data-name="Trazado 872915" d="M149.281,2.257A2.257,2.257,0,1,1,147.024,0a2.257,2.257,0,0,1,2.257,2.257" transform="translate(-36.215)" fill="#f8cd20"/>
            <path id="Trazado_872916" data-name="Trazado 872916" d="M4.514,34.172a2.257,2.257,0,1,1-2.257-2.257,2.257,2.257,0,0,1,2.257,2.257" transform="translate(0 -7.984)" fill="#f8cd20"/>
            <path id="Trazado_872917" data-name="Trazado 872917" d="M33.468,34.172a2.257,2.257,0,1,1-2.257-2.257,2.257,2.257,0,0,1,2.257,2.257" transform="translate(-7.243 -7.984)" fill="#f8cd20"/>
            <path id="Trazado_872918" data-name="Trazado 872918" d="M62.421,34.172a2.257,2.257,0,1,1-2.257-2.257,2.257,2.257,0,0,1,2.257,2.257" transform="translate(-14.486 -7.984)" fill="#f8cd20"/>
            <path id="Trazado_872919" data-name="Trazado 872919" d="M91.374,34.172a2.257,2.257,0,1,1-2.257-2.257,2.257,2.257,0,0,1,2.257,2.257" transform="translate(-21.729 -7.984)" fill="#f8cd20"/>
            <path id="Trazado_872920" data-name="Trazado 872920" d="M120.328,34.172a2.257,2.257,0,1,1-2.257-2.257,2.258,2.258,0,0,1,2.257,2.257" transform="translate(-28.972 -7.984)" fill="#f8cd20"/>
            <path id="Trazado_872921" data-name="Trazado 872921" d="M149.281,34.172a2.257,2.257,0,1,1-2.257-2.257,2.257,2.257,0,0,1,2.257,2.257" transform="translate(-36.215 -7.984)" fill="#f8cd20"/>
            <path id="Trazado_872922" data-name="Trazado 872922" d="M4.514,66.087A2.257,2.257,0,1,1,2.257,63.83a2.257,2.257,0,0,1,2.257,2.257" transform="translate(0 -15.968)" fill="#f8cd20"/>
            <path id="Trazado_872923" data-name="Trazado 872923" d="M33.468,66.087a2.257,2.257,0,1,1-2.257-2.257,2.257,2.257,0,0,1,2.257,2.257" transform="translate(-7.243 -15.968)" fill="#f8cd20"/>
            <path id="Trazado_872924" data-name="Trazado 872924" d="M62.421,66.087a2.257,2.257,0,1,1-2.257-2.257,2.257,2.257,0,0,1,2.257,2.257" transform="translate(-14.486 -15.968)" fill="#f8cd20"/>
            <path id="Trazado_872925" data-name="Trazado 872925" d="M91.374,66.087a2.257,2.257,0,1,1-2.257-2.257,2.257,2.257,0,0,1,2.257,2.257" transform="translate(-21.729 -15.968)" fill="#f8cd20"/>
            <path id="Trazado_872926" data-name="Trazado 872926" d="M120.328,66.087a2.257,2.257,0,1,1-2.257-2.257,2.258,2.258,0,0,1,2.257,2.257" transform="translate(-28.972 -15.968)" fill="#f8cd20"/>
            <path id="Trazado_872927" data-name="Trazado 872927" d="M149.281,66.087a2.257,2.257,0,1,1-2.257-2.257,2.257,2.257,0,0,1,2.257,2.257" transform="translate(-36.215 -15.968)" fill="#f8cd20"/>
            <path id="Trazado_872928" data-name="Trazado 872928" d="M4.514,98a2.257,2.257,0,1,1-2.257-2.257A2.257,2.257,0,0,1,4.514,98" transform="translate(0 -23.951)" fill="#f8cd20"/>
            <path id="Trazado_872929" data-name="Trazado 872929" d="M33.468,98a2.257,2.257,0,1,1-2.257-2.257A2.257,2.257,0,0,1,33.468,98" transform="translate(-7.243 -23.951)" fill="#f8cd20"/>
            <path id="Trazado_872930" data-name="Trazado 872930" d="M62.421,98a2.257,2.257,0,1,1-2.257-2.257A2.257,2.257,0,0,1,62.421,98" transform="translate(-14.486 -23.951)" fill="#f8cd20"/>
            <path id="Trazado_872931" data-name="Trazado 872931" d="M91.374,98a2.257,2.257,0,1,1-2.257-2.257A2.257,2.257,0,0,1,91.374,98" transform="translate(-21.729 -23.951)" fill="#f8cd20"/>
            <path id="Trazado_872932" data-name="Trazado 872932" d="M120.328,98a2.257,2.257,0,1,1-2.257-2.257A2.258,2.258,0,0,1,120.328,98" transform="translate(-28.972 -23.951)" fill="#f8cd20"/>
            <path id="Trazado_872933" data-name="Trazado 872933" d="M149.281,98a2.257,2.257,0,1,1-2.257-2.257A2.257,2.257,0,0,1,149.281,98" transform="translate(-36.215 -23.951)" fill="#f8cd20"/>
            <path id="Trazado_872934" data-name="Trazado 872934" d="M4.514,129.917a2.257,2.257,0,1,1-2.257-2.257,2.257,2.257,0,0,1,2.257,2.257" transform="translate(0 -31.935)" fill="#f8cd20"/>
            <path id="Trazado_872935" data-name="Trazado 872935" d="M33.468,129.917a2.257,2.257,0,1,1-2.257-2.257,2.257,2.257,0,0,1,2.257,2.257" transform="translate(-7.243 -31.935)" fill="#f8cd20"/>
            <path id="Trazado_872936" data-name="Trazado 872936" d="M62.421,129.917a2.257,2.257,0,1,1-2.257-2.257,2.257,2.257,0,0,1,2.257,2.257" transform="translate(-14.486 -31.935)" fill="#f8cd20"/>
            <path id="Trazado_872937" data-name="Trazado 872937" d="M91.374,129.917a2.257,2.257,0,1,1-2.257-2.257,2.257,2.257,0,0,1,2.257,2.257" transform="translate(-21.729 -31.935)" fill="#f8cd20"/>
            <path id="Trazado_872938" data-name="Trazado 872938" d="M120.328,129.917a2.257,2.257,0,1,1-2.257-2.257,2.258,2.258,0,0,1,2.257,2.257" transform="translate(-28.972 -31.935)" fill="#f8cd20"/>
            <path id="Trazado_872939" data-name="Trazado 872939" d="M149.281,129.917a2.257,2.257,0,1,1-2.257-2.257,2.257,2.257,0,0,1,2.257,2.257" transform="translate(-36.215 -31.935)" fill="#f8cd20"/>
          </g>
        </g>
      </g>
    </g>
  </g>
</svg>
