<svg xmlns="http://www.w3.org/2000/svg" xmlns:xlink="http://www.w3.org/1999/xlink" width="85" height="85" viewBox="0 0 85 85">
  <defs>
    <clipPath id="clip-path">
      <rect id="Rectángulo_401458" data-name="Rectángulo 401458" width="61" height="61" transform="translate(421.188 1939)" fill="#fff" stroke="#707070" stroke-width="1"/>
    </clipPath>
  </defs>
  <g id="Grupo_1102057" data-name="Grupo 1102057" transform="translate(-409.188 -1848)">
    <circle id="Elipse_11499" data-name="Elipse 11499" cx="42.5" cy="42.5" r="42.5" transform="translate(409.188 1848)" fill="#fabca7"/>
    <g id="Enmascarar_grupo_1098800" data-name="Enmascarar grupo 1098800" transform="translate(0 -79)" clip-path="url(#clip-path)">
      <g id="energia" transform="translate(420.234 1938.046)">
        <path id="Trazado_891403" data-name="Trazado 891403" d="M28.321,11.964,22.7,26.524l4.7.645-4.147,11.3,4.331.922-3.317,11.55L38.826,37.49l-5.1-1.946,4.32-10.31-4.32-1.474,6.481-11.8Z" fill="#ffca28"/>
        <path id="Trazado_891404" data-name="Trazado 891404" d="M28.85,46.709l2.665-9.28-4.331-.922,4.147-11.3-4.7-.645,4.862-12.594H28.321L22.7,26.524l4.7.645-4.147,11.3,4.331.922-3.317,11.55Z" fill="#ffb300"/>
        <g id="Grupo_1101740" data-name="Grupo 1101740">
          <path id="Trazado_891405" data-name="Trazado 891405" d="M53,9.911A30.442,30.442,0,0,0,11.585,8.366v-6.4a.983.983,0,0,0-1.966,0V10.6a.991.991,0,0,0,1,.983H19.24a.983.983,0,0,0,0-1.966h-6.1A28.5,28.5,0,0,1,54.8,47.805a.983.983,0,0,0,1.609,1.131A30.367,30.367,0,0,0,53,9.911Z"/>
          <path id="Trazado_891406" data-name="Trazado 891406" d="M53.213,51.932a1,1,0,0,0-.925-.609H43.669a.983.983,0,0,0,0,1.966h6.1A28.5,28.5,0,0,1,8.107,15.1.983.983,0,1,0,6.5,13.972,30.463,30.463,0,0,0,51.322,54.543v6.4a.983.983,0,0,0,1.966,0V52.305a1.435,1.435,0,0,0-.075-.374Z"/>
          <path id="Trazado_891407" data-name="Trazado 891407" d="M25.281,19.839a.984.984,0,0,0-1.271.563L21.783,26.17a.983.983,0,0,0,.784,1.328l3.49.48L22.33,38.134a.984.984,0,0,0,.718,1.3l3.3.7L23.322,50.673a.983.983,0,0,0,1.612.994l14.56-13.454a.984.984,0,0,0-.317-1.64l-4.151-1.585,3.927-9.373a.982.982,0,0,0-.588-1.31l-3.212-1.1,5.917-10.77a.983.983,0,0,0-.861-1.456H28.321a.983.983,0,0,0-.917.629l-1.915,4.961a.983.983,0,0,0,1.834.708L29,12.947h9.552L32.866,23.286a.982.982,0,0,0,.543,1.4l3.324,1.135-3.913,9.339a.984.984,0,0,0,.556,1.3L37,37.843,26.182,47.836l2.346-8.17a.983.983,0,0,0-.74-1.233l-3.222-.685,3.757-10.239a.982.982,0,0,0-.79-1.312l-3.469-.477,1.78-4.609a.983.983,0,0,0-.563-1.271Z"/>
        </g>
      </g>
    </g>
  </g>
</svg>
