<svg xmlns="http://www.w3.org/2000/svg" xmlns:xlink="http://www.w3.org/1999/xlink" width="85" height="85" viewBox="0 0 85 85">
  <defs>
    <clipPath id="clip-path">
      <rect id="Rectángulo_402012" data-name="Rectángulo 402012" width="61" height="61" transform="translate(769.5 1939)" fill="#fff" stroke="#707070" stroke-width="1"/>
    </clipPath>
  </defs>
  <g id="Grupo_1102058" data-name="Grupo 1102058" transform="translate(-757.5 -1848)">
    <circle id="Elipse_11563" data-name="Elipse 11563" cx="42.5" cy="42.5" r="42.5" transform="translate(757.5 1848)" fill="#fabca7"/>
    <g id="Enmascarar_grupo_1098799" data-name="Enmascarar grupo 1098799" transform="translate(0 -79)" clip-path="url(#clip-path)">
      <g id="consumo-de-energia_4_" data-name="consumo-de-energia (4)" transform="translate(767.466 1936.965)">
        <path id="Trazado_891394" data-name="Trazado 891394" d="M32.928,50.072h2.765V37.035h7.675V50.072h2.765l-6.6,7.253Z" fill="#fc6655" fill-rule="evenodd"/>
        <path id="Trazado_891395" data-name="Trazado 891395" d="M22.715,50.63H33.373v4.055a4.067,4.067,0,0,1-4.055,4.055H26.771a4.067,4.067,0,0,1-4.055-4.055Z" fill="#cad0d7" fill-rule="evenodd"/>
        <path id="Trazado_891396" data-name="Trazado 891396" d="M28.044,9.706A16.478,16.478,0,0,1,39.256,38.261a7.53,7.53,0,0,0-2.487,5.7v5.789a3.406,3.406,0,0,1-3.394,3.4H22.717a3.4,3.4,0,0,1-3.394-3.4V43.964a7.53,7.53,0,0,0-2.487-5.7A16.478,16.478,0,0,1,28.044,9.706Z" fill="#fcc72d" fill-rule="evenodd"/>
        <path id="Trazado_891397" data-name="Trazado 891397" d="M23.835,15.746h8.929L30.3,22.09h5.462L22.748,36.622l3.06-10.359H20.324Z" fill="#fa9e37" fill-rule="evenodd"/>
        <path id="Trazado_891398" data-name="Trazado 891398" d="M47.219,55.031h2.765V41.994h7.675V55.031h2.765l-6.6,7.253Z" fill="#fc6655" fill-rule="evenodd"/>
        <path id="Trazado_891399" data-name="Trazado 891399" d="M49.984,34h7.675v4.275H49.984Z" fill="#e1535a" fill-rule="evenodd"/>
        <path id="Trazado_891400" data-name="Trazado 891400" d="M19.321,47.679v2.074a3.406,3.406,0,0,0,3.394,3.4H33.373a3.363,3.363,0,0,0,1.853-.554,3.4,3.4,0,0,0,1.543-2.842V47.679Z" fill="#363a42" fill-rule="evenodd"/>
        <path id="Trazado_891401" data-name="Trazado 891401" d="M19.321,43.964H36.769v4.955H19.321Z" fill="#444c4c" fill-rule="evenodd"/>
        <path id="Trazado_891402" data-name="Trazado 891402" d="M50.733,34.749h6.188v2.788H50.733ZM49.246,34v4.276a.744.744,0,0,0,.743.743h7.675a.743.743,0,0,0,.743-.743V34a.744.744,0,0,0-.743-.743H49.989a.744.744,0,0,0-.743.743Zm4.581,27.18-4.919-5.4h1.083a.744.744,0,0,0,.743-.743V42.744h6.188V55.037a.743.743,0,0,0,.743.743h1.083Zm7.283-6.448a.745.745,0,0,0-.68-.444H58.409V42a.744.744,0,0,0-.743-.743H49.991a.743.743,0,0,0-.743.743V54.292H47.225a.745.745,0,0,0-.55,1.245l6.6,7.254a.745.745,0,0,0,1.1,0l6.6-7.255a.744.744,0,0,0,.131-.8ZM24.376,16.5h7.306l-2.068,5.331a.745.745,0,0,0,.694,1.013h3.8L24.4,33.673l2.124-7.192a.745.745,0,0,0-.714-.954H21.362ZM20.33,27.013h4.489l-2.778,9.4a.743.743,0,0,0,1.267.707L36.322,22.592a.744.744,0,0,0-.555-1.24H31.392L33.46,16.02a.745.745,0,0,0-.694-1.014H23.838a.742.742,0,0,0-.705.508L19.621,26.031a.743.743,0,0,0,.1.671.754.754,0,0,0,.607.311ZM7.643,26.19a.743.743,0,0,1-.743.743H4.639a.743.743,0,0,1,0-1.487H6.9A.744.744,0,0,1,7.643,26.19Zm2.734-10.2a.744.744,0,0,1-1.015.273L7.4,15.13a.744.744,0,1,1,.745-1.289l1.958,1.13A.744.744,0,0,1,10.377,15.986Zm5.324-9.7a.744.744,0,1,1,1.289-.745L18.119,7.5a.744.744,0,1,1-1.287.745ZM49.2,25.446h2.261a.743.743,0,0,1,0,1.487H49.2a.743.743,0,1,1,0-1.487Zm-3.477-9.46a.744.744,0,0,1,.272-1.015l1.958-1.13A.744.744,0,1,1,48.7,15.13l-1.957,1.13a.743.743,0,0,1-1.018-.273ZM37.981,7.5l1.13-1.957a.744.744,0,1,1,1.29.743L39.27,8.244A.744.744,0,1,1,37.981,7.5ZM27.306,5.039V2.778a.743.743,0,0,1,1.487,0V5.039a.743.743,0,0,1-1.487,0ZM39.536,56.225l-3.228-3.547a4.127,4.127,0,0,0,1.209-2.92V43.969a6.793,6.793,0,0,1,2.249-5.158c.353-.328.686-.674,1.008-1.027h1.854V50.077a.745.745,0,0,0,.743.745h1.083ZM29.323,58H26.776a3.315,3.315,0,0,1-3.311-3.312V53.9h9.169v.793A3.316,3.316,0,0,1,29.323,58Zm-9.252-8.245v-.09H36.029v.09a2.654,2.654,0,0,1-2.651,2.651H22.722a2.652,2.652,0,0,1-2.651-2.651Zm15.958-1.577H20.071V44.714H36.029ZM17.345,37.722a8.174,8.174,0,0,1,2.689,5.5H36.063a8.176,8.176,0,0,1,2.69-5.5,15.735,15.735,0,1,0-21.409,0ZM46.82,49.777a.744.744,0,0,1-.13.8l-6.6,7.253a.742.742,0,0,1-1.1,0l-3.914-4.3a4.135,4.135,0,0,1-.951.3v.864a4.8,4.8,0,0,1-4.8,4.8H26.777a4.8,4.8,0,0,1-4.8-4.8v-.864a4.143,4.143,0,0,1-3.394-4.068V43.972a6.793,6.793,0,0,0-2.249-5.158A17.229,17.229,0,1,1,41.988,36.3h1.388a.744.744,0,0,1,.743.743V49.335h2.022a.739.739,0,0,1,.679.442Z" fill-rule="evenodd"/>
      </g>
    </g>
  </g>
</svg>
