<svg xmlns="http://www.w3.org/2000/svg" xmlns:xlink="http://www.w3.org/1999/xlink" width="85" height="85" viewBox="0 0 85 85">
  <defs>
    <clipPath id="clip-path">
      <rect id="Rectángulo_401665" data-name="Rectángulo 401665" width="53.617" height="53.617" transform="translate(434.466 1136.66)" fill="#fff" stroke="#707070" stroke-width="1"/>
    </clipPath>
  </defs>
  <g id="Grupo_1102058" data-name="Grupo 1102058" transform="translate(-914.975 -995)">
    <g id="Grupo_1101594" data-name="Grupo 1101594" transform="translate(495.975 -126)">
      <path id="Trazado_824488" data-name="Trazado 824488" d="M42.5,0A42.5,42.5,0,1,1,0,42.5,42.5,42.5,0,0,1,42.5,0Z" transform="translate(419 1121)" fill="#f35923"/>
      <g id="Enmascarar_grupo_1098815" data-name="Enmascarar grupo 1098815" clip-path="url(#clip-path)">
        <g id="layer1" transform="translate(434.466 1136.66)">
          <path id="rect820" d="M6.7,0A3.364,3.364,0,0,0,3.353,3.353V17.307A4.687,4.687,0,0,0,.81,19.313,5.832,5.832,0,0,0,0,22.332v7.129a17.006,17.006,0,0,0,1.3,5.077c.316.886.627,1.744.854,2.461a7.155,7.155,0,0,1,.352,1.533V41.7a2.507,2.507,0,0,0-.834,1.862V51.1a2.529,2.529,0,0,0,2.512,2.518H15.919a2.528,2.528,0,0,0,2.51-2.518V43.56A2.522,2.522,0,0,0,16.994,41.3c.143-.573.435-1.36.761-2.274a14.912,14.912,0,0,0,.91-3.834H34.253l3.92,7.846a2.52,2.52,0,0,0-1.311,2.2V51.1a2.528,2.528,0,0,0,2.51,2.518H51.1A2.535,2.535,0,0,0,53.617,51.1V45.236a2.527,2.527,0,0,0-1.566-2.322,14.361,14.361,0,0,1,.656-1.63,8.62,8.62,0,0,0,.91-3.587V3.353A3.365,3.365,0,0,0,50.264,0Zm0,1.676h43.56a1.655,1.655,0,0,1,1.676,1.677V27.79a2.326,2.326,0,0,0-.841-.147,2.194,2.194,0,0,0-.834.152V5.863a2.521,2.521,0,0,0-2.51-2.51H9.214A2.521,2.521,0,0,0,6.7,5.863V20.414c-.051-.022-.1-.046-.154-.067a2.7,2.7,0,0,0-1.522-.18V3.353A1.655,1.655,0,0,1,6.7,1.675ZM8.379,21.937V5.863a.813.813,0,0,1,.834-.834h38.54a.813.813,0,0,1,.834.834v21.1a2.221,2.221,0,0,0-.834-.151,2.42,2.42,0,0,0-1.242.322A2.491,2.491,0,0,0,44.4,25.967a2.662,2.662,0,0,0-.841.146v-3.49h2.505a.839.839,0,0,0,0-1.677H43.56a2.514,2.514,0,1,0-5.028,0H30.994a.839.839,0,0,0,0,1.677h7.538v7.759l-.988-1.712a2.942,2.942,0,0,0-4-1.077,2.9,2.9,0,0,0-1.433,2.566H10.515c-.386-.423-.736-.767-.965-1.046-.261-.317-.335-.488-.335-.628V24.878a5.776,5.776,0,0,0-.834-2.941ZM41.05,6.7a2.528,2.528,0,0,0-2.518,2.51H30.994a.839.839,0,0,0,0,1.677h7.538a2.514,2.514,0,0,0,5.028,0h2.517a.839.839,0,0,0,0-1.677H43.56A2.521,2.521,0,0,0,41.05,6.7Zm0,1.676a.813.813,0,0,1,.834.834v1.677a.839.839,0,1,1-1.677,0V9.214A.82.82,0,0,1,41.05,8.379Zm-21.78.834a9.227,9.227,0,0,0-9.214,9.215V21.78a.838.838,0,0,0,.834.843h16.75a.838.838,0,0,0,.843-.843V18.429A9.227,9.227,0,0,0,19.27,9.214Zm-.841,1.723v.8a.838.838,0,0,0,1.676,0v-.8a7.5,7.5,0,0,1,3.873,1.6l-.565.565A.84.84,0,0,0,24.6,14.286l.565-.565a7.5,7.5,0,0,1,1.6,3.873h-.787a.838.838,0,1,0,0,1.676h.833v1.676H22.623a3.336,3.336,0,0,0-.821-2.189l1.409-1.409a.835.835,0,1,0-1.181-1.181L20.4,17.791a3.315,3.315,0,0,0-1.126-.2,3.364,3.364,0,0,0-3.351,3.351H11.732V19.27h.834a.838.838,0,0,0,0-1.676h-.789a7.5,7.5,0,0,1,1.6-3.873l.565.565A.838.838,0,0,0,15.121,13.1l-.561-.561a7.5,7.5,0,0,1,3.87-1.6Zm15.916,1.63a2.521,2.521,0,0,0-2.51,2.51h-.841a.839.839,0,0,0,0,1.677h.841a2.514,2.514,0,1,0,5.028,0h9.214a.839.839,0,0,0,0-1.677H36.863A2.528,2.528,0,0,0,34.345,12.566Zm0,1.676a.82.82,0,0,1,.843.834v1.677a.839.839,0,1,1-1.677,0V15.076A.813.813,0,0,1,34.345,14.242ZM3.353,19.111v9.377a.838.838,0,0,0,1.676,0V22.374c0-.4.091-.46.2-.519a.864.864,0,0,1,.692.043,3.153,3.153,0,0,1,1.62,3.017v3.569a2.685,2.685,0,0,0,.718,1.7c.366.443.78.831,1.168,1.268a5.1,5.1,0,0,1,1.466,3.736.838.838,0,0,0,1.676,0h4.416a13.57,13.57,0,0,1-.805,3.271,17.124,17.124,0,0,0-.717,2.592H4.187V38.532a6.909,6.909,0,0,0-.427-2.04c-.244-.771-.566-1.633-.879-2.51a18.7,18.7,0,0,1-1.206-4.521V22.332a4.3,4.3,0,0,1,.563-2.152,2.828,2.828,0,0,1,1.114-1.068Zm15.917.159a1.663,1.663,0,0,1,1.676,1.676H17.595A1.663,1.663,0,0,1,19.27,19.27Zm22.615,1.676V31.835a.838.838,0,0,0,1.676,0V28.484a.838.838,0,1,1,1.676,0v3.351a.838.838,0,0,0,1.676,0V29.318a.839.839,0,0,1,1.677,0v2.517a.838.838,0,0,0,1.676,0V30.159a.838.838,0,1,1,1.676,0V37.7a7.018,7.018,0,0,1-.766,2.906,10.876,10.876,0,0,0-.818,2.122H39.892L33.944,30.809a1.275,1.275,0,0,1,.432-1.764,1.239,1.239,0,0,1,1.72.458l2.554,4.421a.838.838,0,0,0,1.558-.414c0-4.187,0-8.382,0-12.565a.839.839,0,1,1,1.677,0ZM11.738,31.835H32.579l.836,1.676H12.375a6.741,6.741,0,0,0-.637-1.676ZM4.187,42.726H15.919a.813.813,0,0,1,.834.834V51.1a.818.818,0,0,1-.834.841H4.187a.818.818,0,0,1-.834-.841V43.56a.813.813,0,0,1,.834-.834ZM39.373,44.4H51.1a.818.818,0,0,1,.841.834V51.1a.824.824,0,0,1-.841.841H39.373a.824.824,0,0,1-.841-.841V45.236A.818.818,0,0,1,39.373,44.4Z" fill="#fff"/>
        </g>
      </g>
    </g>
  </g>
</svg>
