<svg xmlns="http://www.w3.org/2000/svg" xmlns:xlink="http://www.w3.org/1999/xlink" width="70" height="70" viewBox="0 0 70 70">
  <defs>
    <clipPath id="clip-path">
      <rect id="Rectángulo_402209" data-name="Rectángulo 402209" width="70" height="70" transform="translate(195.051 5968)" fill="#016835" stroke="#016835" stroke-width="1"/>
    </clipPath>
  </defs>
  <g id="Grupo_1102063" data-name="Grupo 1102063" transform="translate(-195 -3320.326)">
    <g id="Enmascarar_grupo_1098823" data-name="Enmascarar grupo 1098823" transform="translate(-0.051 -2647.674)" clip-path="url(#clip-path)">
      <g id="priorizar" transform="translate(195.051 5968)">
        <g id="Grupo_1102031" data-name="Grupo 1102031">
          <path id="Elipse_11559" data-name="Elipse 11559" d="M6.849-1.027A7.877,7.877,0,1,1-1.027,6.849,7.886,7.886,0,0,1,6.849-1.027Zm0,13.7A5.822,5.822,0,1,0,1.027,6.849,5.829,5.829,0,0,0,6.849,12.671Z" transform="translate(9.502 32.26)" fill="#016835"/>
          <path id="Trazado_891369" data-name="Trazado 891369" d="M45.26,15.274H43.2V9.5L42.047,10.8l-1.53-1.372,3.046-3.4h1.7Z" fill="#f35923"/>
          <path id="Trazado_891370" data-name="Trazado 891370" d="M47.622,40.137H40.254V38.118l4.355-3.432a1.687,1.687,0,0,0,.651-1.33,1.476,1.476,0,0,0-2.951,0v.822H40.254v-.822a3.53,3.53,0,0,1,7.061,0A3.73,3.73,0,0,1,45.881,36.3l-2.262,1.783h4Z" fill="#016835"/>
          <g id="Grupo_1102030" data-name="Grupo 1102030">
            <path id="Trazado_891371" data-name="Trazado 891371" d="M43.924,60.411H42.691V58.356h1.233a1.027,1.027,0,1,0,0-2.055H41.282V54.247h2.642a3.082,3.082,0,1,1,0,6.164Z" fill="#016835"/>
            <path id="Trazado_891372" data-name="Trazado 891372" d="M43.924,64.521H41.282V62.466h2.642a1.027,1.027,0,1,0,0-2.055H42.691V58.356h1.233a3.082,3.082,0,1,1,0,6.164Z" fill="#016835"/>
          </g>
          <path id="Trazado_891373" data-name="Trazado 891373" d="M66.233,21.233h-27.4a3.771,3.771,0,0,1-3.767-3.767V3.767A3.771,3.771,0,0,1,38.836,0H61.321V2.055H38.836a1.714,1.714,0,0,0-1.712,1.712v13.7a1.714,1.714,0,0,0,1.712,1.712h27.4a1.714,1.714,0,0,0,1.712-1.712V3.767a1.714,1.714,0,0,0-1.712-1.712H63.375V0h2.858A3.771,3.771,0,0,1,70,3.767v13.7A3.771,3.771,0,0,1,66.233,21.233Z" fill="#f35923"/>
          <path id="Línea_583" data-name="Línea 583" d="M11.507,1.027H0V-1.027H11.507Z" transform="translate(51.986 32.26)" fill="#016835"/>
          <path id="Línea_584" data-name="Línea 584" d="M7.4,1.027H0V-1.027H7.4Z" transform="translate(51.986 37.74)" fill="#016835"/>
          <path id="Línea_585" data-name="Línea 585" d="M13.151,1.027H0V-1.027H13.151Z" transform="translate(50.342 56.644)" fill="#016835"/>
          <path id="Línea_586" data-name="Línea 586" d="M9.041,1.027H0V-1.027H9.041Z" transform="translate(50.342 62.123)" fill="#016835"/>
          <path id="Trazado_891374" data-name="Trazado 891374" d="M66.233,45.616h-27.4a3.771,3.771,0,0,1-3.767-3.767v-13.7a3.771,3.771,0,0,1,3.767-3.767h27.4A3.771,3.771,0,0,1,70,28.151v13.7A3.771,3.771,0,0,1,66.233,45.616Zm-27.4-19.178a1.714,1.714,0,0,0-1.712,1.712v13.7a1.714,1.714,0,0,0,1.712,1.712h27.4a1.714,1.714,0,0,0,1.712-1.712v-13.7a1.714,1.714,0,0,0-1.712-1.712Z" fill="#016835"/>
          <path id="Trazado_891375" data-name="Trazado 891375" d="M66.233,70H43.855V67.945H66.233a1.714,1.714,0,0,0,1.712-1.712v-13.7a1.714,1.714,0,0,0-1.712-1.712h-27.4a1.714,1.714,0,0,0-1.712,1.712v13.7a1.714,1.714,0,0,0,1.712,1.712H41.8V70H38.836a3.771,3.771,0,0,1-3.767-3.767v-13.7a3.771,3.771,0,0,1,3.767-3.767h27.4A3.771,3.771,0,0,1,70,52.534v13.7A3.771,3.771,0,0,1,66.233,70Z" fill="#016835"/>
          <path id="Trazado_891376" data-name="Trazado 891376" d="M17.26,26.282H15.205V12.671A3.771,3.771,0,0,1,18.973,8.9H30.479v2.055H18.973a1.714,1.714,0,0,0-1.712,1.712Z" fill="#016835"/>
          <path id="Trazado_891377" data-name="Trazado 891377" d="M27.439,14.768l-1.453-1.453,3.383-3.383L25.986,6.548,27.439,5.1l4.836,4.836Z" fill="#016835"/>
          <path id="Trazado_891378" data-name="Trazado 891378" d="M21.166,23.022l6.745,3.9L27.5,30.666l1.75,3.029L32.7,35.212v7.8l-3.449,1.517L27.5,47.553l.408,3.743-6.745,3.9L18.1,52.955H14.607L11.536,55.2,4.791,51.3,5.2,47.553l-1.75-3.029L0,43.008v-7.8l3.449-1.517L5.2,30.666l-.408-3.743,6.745-3.9,3.058,2.232h3.515Zm-2.388,4.287H13.923l-2.518-1.838L6.979,28.032l.336,3.08L4.892,35.305,2.055,36.553v5.114l2.837,1.247,2.423,4.193-.336,3.08,4.427,2.56L13.936,50.9h4.829L21.3,52.748l4.427-2.561-.336-3.08,2.423-4.193,2.837-1.248V36.553L27.81,35.305l-2.423-4.193.336-3.08L21.3,25.471Z" fill="#016835"/>
        </g>
        <g id="Grupo_1102032" data-name="Grupo 1102032">
          <path id="Línea_587" data-name="Línea 587" d="M2.055,1.027H0V-1.027H2.055Z" transform="translate(52.405 10.616)" fill="#f35923"/>
          <path id="Línea_588" data-name="Línea 588" d="M2.055,1.027H0V-1.027H2.055Z" transform="translate(56.514 10.616)" fill="#f35923"/>
        </g>
      </g>
    </g>
  </g>
</svg>
