<svg xmlns="http://www.w3.org/2000/svg" width="820" height="456" viewBox="0 0 820 456">
  <g id="Grupo_1102064" data-name="Grupo 1102064" transform="translate(-389.578 -3580)">
    <path id="Trazado_892710" data-name="Trazado 892710" d="M20,0H800a20,20,0,0,1,20,20V436a20,20,0,0,1-20,20H20A20,20,0,0,1,0,436V20A20,20,0,0,1,20,0Z" transform="translate(389.578 3580)" fill="#f7fcff"/>
    <path id="Trazado_892711" data-name="Trazado 892711" d="M0,0H295V154H0Z" transform="translate(494.578 3666)" fill="#38b449"/>
    <path id="Trazado_892712" data-name="Trazado 892712" d="M0,0H295V154H0Z" transform="translate(494.578 3840)" fill="#f8cd20"/>
    <path id="Trazado_892713" data-name="Trazado 892713" d="M0,0H295V154H0Z" transform="translate(809.578 3666)" fill="#b1e5ff"/>
    <path id="Trazado_892714" data-name="Trazado 892714" d="M0,0H295V154H0Z" transform="translate(809.578 3840)" fill="#f35923"/>
    <path id="Trazado_892715" data-name="Trazado 892715" d="M12.227-14.219v9.307a5.349,5.349,0,0,1-.674,2.739A4.365,4.365,0,0,1,9.619-.41,6.812,6.812,0,0,1,6.641.2,5.885,5.885,0,0,1,2.549-1.152,4.806,4.806,0,0,1,1.025-4.844v-9.375H4.473v9.443q.059,2.334,2.168,2.334a2.1,2.1,0,0,0,1.611-.586,2.739,2.739,0,0,0,.547-1.9v-9.287Zm8.379,6.631-1.084-.078a1.947,1.947,0,0,0-1.992.977V0H14.238V-10.566h3.086l.107,1.357a2.548,2.548,0,0,1,2.314-1.553,3.209,3.209,0,0,1,.918.117Zm.8,2.227a7.134,7.134,0,0,1,.527-2.832,4.245,4.245,0,0,1,1.514-1.9,3.99,3.99,0,0,1,2.295-.669A3.173,3.173,0,0,1,28.32-9.648l.117-.918h2.988V-.4a4.455,4.455,0,0,1-.649,2.427A4.167,4.167,0,0,1,28.9,3.608a6.91,6.91,0,0,1-2.852.552,5.961,5.961,0,0,1-2.251-.439,4.063,4.063,0,0,1-1.665-1.143L23.506.645a3.018,3.018,0,0,0,2.422,1.084A1.96,1.96,0,0,0,28.115-.518V-.85A3.09,3.09,0,0,1,25.723.2,3.819,3.819,0,0,1,22.6-1.284a6.13,6.13,0,0,1-1.191-3.96Zm3.3.205A3.759,3.759,0,0,0,25.2-3.1a1.541,1.541,0,0,0,1.367.757,1.748,1.748,0,0,0,1.553-.713V-7.5a1.7,1.7,0,0,0-1.533-.723,1.551,1.551,0,0,0-1.377.786A4.287,4.287,0,0,0,24.707-5.156ZM38.408.2a5.432,5.432,0,0,1-3.936-1.45,5.008,5.008,0,0,1-1.5-3.774V-5.3a6.489,6.489,0,0,1,.6-2.861,4.395,4.395,0,0,1,1.753-1.919,5.292,5.292,0,0,1,2.734-.679A4.574,4.574,0,0,1,41.572-9.38a5.43,5.43,0,0,1,1.289,3.853v1.279H36.318a2.372,2.372,0,0,0,.771,1.4,2.3,2.3,0,0,0,1.543.508,2.958,2.958,0,0,0,2.441-1.094l1.5,1.777A4.2,4.2,0,0,1,40.835-.308,5.891,5.891,0,0,1,38.408.2Zm-.371-8.418q-1.445,0-1.719,1.914h3.32v-.254a1.63,1.63,0,0,0-.4-1.226A1.593,1.593,0,0,0,38.037-8.223Zm9.17-2.344.107,1.24a3.583,3.583,0,0,1,3.018-1.436,3.015,3.015,0,0,1,2.466.986,4.7,4.7,0,0,1,.845,2.969V0h-3.3V-6.67a1.783,1.783,0,0,0-.322-1.177,1.491,1.491,0,0,0-1.172-.376,1.569,1.569,0,0,0-1.436.762V0H44.121V-10.566ZM59.3-13.193v2.627h1.738v2.285H59.3v4.834a1.234,1.234,0,0,0,.215.83,1.152,1.152,0,0,0,.85.234,4.828,4.828,0,0,0,.82-.059V-.088A6.074,6.074,0,0,1,59.326.2a3.448,3.448,0,0,1-2.51-.8,3.282,3.282,0,0,1-.811-2.432V-8.281H54.658v-2.285h1.348v-2.627ZM67.441.2a5.432,5.432,0,0,1-3.936-1.45A5.008,5.008,0,0,1,62-5.029V-5.3a6.489,6.489,0,0,1,.6-2.861,4.395,4.395,0,0,1,1.753-1.919,5.292,5.292,0,0,1,2.734-.679A4.574,4.574,0,0,1,70.605-9.38a5.43,5.43,0,0,1,1.289,3.853v1.279H65.352a2.372,2.372,0,0,0,.771,1.4,2.3,2.3,0,0,0,1.543.508,2.958,2.958,0,0,0,2.441-1.094l1.5,1.777A4.2,4.2,0,0,1,69.868-.308,5.891,5.891,0,0,1,67.441.2ZM67.07-8.223q-1.445,0-1.719,1.914h3.32v-.254a1.63,1.63,0,0,0-.4-1.226A1.593,1.593,0,0,0,67.07-8.223Z" transform="translate(606.578 3641)" fill="#12263f"/>
    <path id="Trazado_892716" data-name="Trazado 892716" d="M-13.8,0h-3.408V-5.937h-5.049V0h-3.428V-14.219h3.428v5.645h5.049v-5.645H-13.8Zm7.969,0a3.716,3.716,0,0,1-.312-.947A3.06,3.06,0,0,1-8.687.2a3.749,3.749,0,0,1-2.539-.9,2.875,2.875,0,0,1-1.045-2.271A2.955,2.955,0,0,1-11-5.576,6.468,6.468,0,0,1-7.31-6.455h1.016v-.559q0-1.462-1.26-1.462A1.03,1.03,0,0,0-8.726-7.319h-3.291a2.95,2.95,0,0,1,1.3-2.487,5.479,5.479,0,0,1,3.325-.956,4.8,4.8,0,0,1,3.193.986,3.429,3.429,0,0,1,1.2,2.705v4.678A4.79,4.79,0,0,0-2.544-.166V0ZM-7.9-2.148a1.836,1.836,0,0,0,1.021-.264,1.653,1.653,0,0,0,.581-.6V-4.7h-.957Q-8.97-4.7-8.97-3.154a.942.942,0,0,0,.3.728A1.1,1.1,0,0,0-7.9-2.148ZM3.3-2.344A1.464,1.464,0,0,0,4.37-2.72a1.379,1.379,0,0,0,.371-1.05H7.827A3.653,3.653,0,0,1,6.582-.918,4.631,4.631,0,0,1,3.374.2,4.689,4.689,0,0,1-.259-1.25a5.7,5.7,0,0,1-1.328-4v-.137A6.436,6.436,0,0,1-1-8.218,4.3,4.3,0,0,1,.708-10.1a5.081,5.081,0,0,1,2.637-.659A4.573,4.573,0,0,1,6.616-9.619a4.053,4.053,0,0,1,1.211,3.1H4.741a1.807,1.807,0,0,0-.4-1.26,1.382,1.382,0,0,0-1.074-.439q-1.279,0-1.494,1.631A11.508,11.508,0,0,0,1.7-5.166a4.52,4.52,0,0,0,.381,2.207A1.319,1.319,0,0,0,3.3-2.344ZM14.331.2A5.432,5.432,0,0,1,10.4-1.255a5.008,5.008,0,0,1-1.5-3.774V-5.3a6.489,6.489,0,0,1,.6-2.861,4.395,4.395,0,0,1,1.753-1.919,5.292,5.292,0,0,1,2.734-.679A4.574,4.574,0,0,1,17.5-9.38a5.43,5.43,0,0,1,1.289,3.853v1.279H12.241a2.372,2.372,0,0,0,.771,1.4,2.3,2.3,0,0,0,1.543.508A2.958,2.958,0,0,0,17-3.437L18.5-1.66A4.2,4.2,0,0,1,16.758-.308,5.891,5.891,0,0,1,14.331.2ZM13.96-8.223q-1.445,0-1.719,1.914h3.32v-.254a1.63,1.63,0,0,0-.4-1.226A1.593,1.593,0,0,0,13.96-8.223ZM26.5-7.588l-1.084-.078a1.947,1.947,0,0,0-1.992.977V0H20.132V-10.566h3.086l.107,1.357a2.548,2.548,0,0,1,2.314-1.553,3.209,3.209,0,0,1,.918.117Z" transform="translate(642.578 3750)" fill="#12263f"/>
    <path id="Trazado_892717" data-name="Trazado 892717" d="M-4.5-3.2H-5.758L-6.281,0H-7.836l.523-3.2H-9.047v-1.43h1.969L-6.734-6.7H-8.461v-1.43H-6.5l.539-3.25h1.547l-.531,3.25h1.258l.539-3.25h1.555l-.539,3.25h1.8V-6.7H-2.367l-.344,2.063H-.922V-3.2H-2.945L-3.469,0H-5.023Zm-1.023-1.43h1.258L-3.922-6.7H-5.18ZM6.547,0H3.906V-8.406l-2.594.758v-2L6.3-11.375h.242Z" transform="translate(517.578 3692)" fill="#12263f"/>
    <path id="Trazado_892718" data-name="Trazado 892718" d="M-4.5-3.2H-5.758L-6.281,0H-7.836l.523-3.2H-9.047v-1.43h1.969L-6.734-6.7H-8.461v-1.43H-6.5l.539-3.25h1.547l-.531,3.25h1.258l.539-3.25h1.555l-.539,3.25h1.8V-6.7H-2.367l-.344,2.063H-.922V-3.2H-2.945L-3.469,0H-5.023Zm-1.023-1.43h1.258L-3.922-6.7H-5.18ZM3.117-6.789H4.359A1.291,1.291,0,0,0,5.836-8.234a1.25,1.25,0,0,0-.352-.918,1.333,1.333,0,0,0-.992-.355,1.427,1.427,0,0,0-.91.3.93.93,0,0,0-.387.758H.563a2.7,2.7,0,0,1,.5-1.6,3.3,3.3,0,0,1,1.387-1.1A4.741,4.741,0,0,1,4.4-11.539a4.658,4.658,0,0,1,2.984.867A2.883,2.883,0,0,1,8.469-8.289,2.4,2.4,0,0,1,8.02-6.9,3.2,3.2,0,0,1,6.711-5.844a3.058,3.058,0,0,1,1.422,1A2.623,2.623,0,0,1,8.648-3.2,2.935,2.935,0,0,1,7.477-.758,4.864,4.864,0,0,1,4.4.156,5.045,5.045,0,0,1,2.324-.27,3.25,3.25,0,0,1,.875-1.449,3.067,3.067,0,0,1,.383-3.164H3.031a1.185,1.185,0,0,0,.422.906,1.489,1.489,0,0,0,1.039.383A1.56,1.56,0,0,0,5.6-2.262a1.293,1.293,0,0,0,.414-.988,1.511,1.511,0,0,0-.43-1.219A1.8,1.8,0,0,0,4.4-4.828H3.117Z" transform="translate(834.578 3692)" fill="#12263f"/>
    <path id="Trazado_892719" data-name="Trazado 892719" d="M-4.5-3.2H-5.758L-6.281,0H-7.836l.523-3.2H-9.047v-1.43h1.969L-6.734-6.7H-8.461v-1.43H-6.5l.539-3.25h1.547l-.531,3.25h1.258l.539-3.25h1.555l-.539,3.25h1.8V-6.7H-2.367l-.344,2.063H-.922V-3.2H-2.945L-3.469,0H-5.023Zm-1.023-1.43h1.258L-3.922-6.7H-5.18ZM8.648,0H.711V-1.719L4.367-5.562A4.364,4.364,0,0,0,5.719-8.008,1.7,1.7,0,0,0,5.4-9.125a1.144,1.144,0,0,0-.93-.383A1.158,1.158,0,0,0,3.492-9a2.1,2.1,0,0,0-.375,1.277H.477A3.736,3.736,0,0,1,1-9.652a3.671,3.671,0,0,1,1.453-1.387,4.317,4.317,0,0,1,2.078-.5,4.246,4.246,0,0,1,2.84.852,3.04,3.04,0,0,1,1,2.445,3.551,3.551,0,0,1-.25,1.309A5.739,5.739,0,0,1,7.34-5.6a19.581,19.581,0,0,1-1.7,1.871l-1.469,1.7H8.648Z" transform="translate(517.578 3867)" fill="#12263f"/>
    <path id="Trazado_892720" data-name="Trazado 892720" d="M-4.5-3.2H-5.758L-6.281,0H-7.836l.523-3.2H-9.047v-1.43h1.969L-6.734-6.7H-8.461v-1.43H-6.5l.539-3.25h1.547l-.531,3.25h1.258l.539-3.25h1.555l-.539,3.25h1.8V-6.7H-2.367l-.344,2.063H-.922V-3.2H-2.945L-3.469,0H-5.023Zm-1.023-1.43h1.258L-3.922-6.7H-5.18Zm13.188.188H8.82v2.031H7.664V0H5.031V-2.414H.633L.477-4.023l4.555-7.328v-.023H7.664Zm-4.68,0H5.031v-3.5l-.164.266Z" transform="translate(834.578 3867)" fill="#12263f"/>
    <path id="Trazado_892721" data-name="Trazado 892721" d="M-30.244-4.824V0h-3.428V-14.219H-28a6.608,6.608,0,0,1,2.886.6,4.526,4.526,0,0,1,1.943,1.709,4.667,4.667,0,0,1,.688,2.515A4.114,4.114,0,0,1-23.97-6.069a6.179,6.179,0,0,1-4.087,1.245Zm0-2.646H-28a2.118,2.118,0,0,0,1.519-.5,1.85,1.85,0,0,0,.522-1.406,2.287,2.287,0,0,0-.537-1.592,1.9,1.9,0,0,0-1.465-.605h-2.285ZM-17.334,0h-3.3V-15h3.3Zm7.979,0a3.716,3.716,0,0,1-.312-.947A3.06,3.06,0,0,1-12.207.2a3.749,3.749,0,0,1-2.539-.9,2.875,2.875,0,0,1-1.045-2.271,2.955,2.955,0,0,1,1.27-2.6,6.468,6.468,0,0,1,3.691-.879h1.016v-.559q0-1.462-1.26-1.462a1.03,1.03,0,0,0-1.172,1.158h-3.291a2.95,2.95,0,0,1,1.3-2.487,5.479,5.479,0,0,1,3.325-.956,4.8,4.8,0,0,1,3.193.986,3.429,3.429,0,0,1,1.2,2.705v4.678A4.79,4.79,0,0,0-6.064-.166V0Zm-2.061-2.148A1.836,1.836,0,0,0-10.4-2.412a1.653,1.653,0,0,0,.581-.6V-4.7h-.957q-1.719,0-1.719,1.543a.942.942,0,0,0,.3.728A1.1,1.1,0,0,0-11.416-2.148Zm9.746-8.418.107,1.24a3.583,3.583,0,0,1,3.018-1.436,3.015,3.015,0,0,1,2.466.986,4.7,4.7,0,0,1,.845,2.969V0h-3.3V-6.67a1.783,1.783,0,0,0-.322-1.177A1.491,1.491,0,0,0-.029-8.223a1.569,1.569,0,0,0-1.436.762V0H-4.756V-10.566ZM11.7.2a5.432,5.432,0,0,1-3.936-1.45,5.008,5.008,0,0,1-1.5-3.774V-5.3a6.489,6.489,0,0,1,.6-2.861,4.395,4.395,0,0,1,1.753-1.919,5.292,5.292,0,0,1,2.734-.679A4.574,4.574,0,0,1,14.863-9.38a5.43,5.43,0,0,1,1.289,3.853v1.279H9.609a2.372,2.372,0,0,0,.771,1.4,2.3,2.3,0,0,0,1.543.508,2.958,2.958,0,0,0,2.441-1.094l1.5,1.777A4.2,4.2,0,0,1,14.126-.308,5.891,5.891,0,0,1,11.7.2Zm-.371-8.418q-1.445,0-1.719,1.914h3.32v-.254a1.63,1.63,0,0,0-.4-1.226A1.593,1.593,0,0,0,11.328-8.223ZM23.428,0a3.716,3.716,0,0,1-.312-.947A3.06,3.06,0,0,1,20.576.2a3.749,3.749,0,0,1-2.539-.9,2.875,2.875,0,0,1-1.045-2.271,2.955,2.955,0,0,1,1.27-2.6,6.468,6.468,0,0,1,3.691-.879h1.016v-.559q0-1.462-1.26-1.462a1.03,1.03,0,0,0-1.172,1.158H17.246a2.95,2.95,0,0,1,1.3-2.487,5.479,5.479,0,0,1,3.325-.956,4.8,4.8,0,0,1,3.193.986,3.429,3.429,0,0,1,1.2,2.705v4.678a4.79,4.79,0,0,0,.449,2.227V0ZM21.367-2.148a1.836,1.836,0,0,0,1.021-.264,1.653,1.653,0,0,0,.581-.6V-4.7h-.957q-1.719,0-1.719,1.543a.942.942,0,0,0,.3.728A1.1,1.1,0,0,0,21.367-2.148ZM34.482-7.588,33.4-7.666a1.947,1.947,0,0,0-1.992.977V0H28.115V-10.566H31.2l.107,1.357a2.548,2.548,0,0,1,2.314-1.553,3.209,3.209,0,0,1,.918.117Z" transform="translate(957.578 3750)" fill="#12263f"/>
    <path id="Trazado_892722" data-name="Trazado 892722" d="M-33.877,0V-14.219h4.58a6.737,6.737,0,0,1,3.389.854,6.006,6.006,0,0,1,2.349,2.412,7.283,7.283,0,0,1,.854,3.491v.654a7.325,7.325,0,0,1-.825,3.5A6.032,6.032,0,0,1-25.854-.884,6.589,6.589,0,0,1-29.2,0Zm3.428-11.572v8.936h1.191a2.666,2.666,0,0,0,2.266-1.05,5.145,5.145,0,0,0,.791-3.12v-.615a5.1,5.1,0,0,0-.791-3.105,2.713,2.713,0,0,0-2.3-1.045ZM-15.986.2a5.432,5.432,0,0,1-3.936-1.45,5.008,5.008,0,0,1-1.5-3.774V-5.3a6.489,6.489,0,0,1,.6-2.861,4.395,4.395,0,0,1,1.753-1.919,5.292,5.292,0,0,1,2.734-.679A4.574,4.574,0,0,1-12.822-9.38a5.43,5.43,0,0,1,1.289,3.853v1.279h-6.543a2.372,2.372,0,0,0,.771,1.4,2.3,2.3,0,0,0,1.543.508A2.958,2.958,0,0,0-13.32-3.437l1.5,1.777A4.2,4.2,0,0,1-13.56-.308,5.891,5.891,0,0,1-15.986.2Zm-.371-8.418q-1.445,0-1.719,1.914h3.32v-.254a1.63,1.63,0,0,0-.4-1.226A1.593,1.593,0,0,0-16.357-8.223ZM-6.738,0h-3.3V-15h3.3ZM.4.2a5.432,5.432,0,0,1-3.936-1.45,5.008,5.008,0,0,1-1.5-3.774V-5.3a6.489,6.489,0,0,1,.6-2.861,4.395,4.395,0,0,1,1.753-1.919,5.292,5.292,0,0,1,2.734-.679A4.574,4.574,0,0,1,3.564-9.38,5.43,5.43,0,0,1,4.854-5.527v1.279H-1.689a2.372,2.372,0,0,0,.771,1.4,2.3,2.3,0,0,0,1.543.508A2.958,2.958,0,0,0,3.066-3.437L4.57-1.66A4.2,4.2,0,0,1,2.827-.308,5.891,5.891,0,0,1,.4.2ZM.029-8.223q-1.445,0-1.719,1.914h3.32v-.254a1.63,1.63,0,0,0-.4-1.226A1.593,1.593,0,0,0,.029-8.223ZM5.791-5.361a7.134,7.134,0,0,1,.527-2.832,4.245,4.245,0,0,1,1.514-1.9,3.99,3.99,0,0,1,2.295-.669,3.173,3.173,0,0,1,2.578,1.113l.117-.918h2.988V-.4a4.455,4.455,0,0,1-.649,2.427,4.167,4.167,0,0,1-1.88,1.582,6.91,6.91,0,0,1-2.852.552,5.961,5.961,0,0,1-2.251-.439A4.063,4.063,0,0,1,6.514,2.578L7.891.645a3.018,3.018,0,0,0,2.422,1.084A1.96,1.96,0,0,0,12.5-.518V-.85A3.09,3.09,0,0,1,10.107.2,3.819,3.819,0,0,1,6.982-1.284a6.13,6.13,0,0,1-1.191-3.96Zm3.3.205A3.759,3.759,0,0,0,9.58-3.1a1.541,1.541,0,0,0,1.367.757A1.748,1.748,0,0,0,12.5-3.057V-7.5a1.7,1.7,0,0,0-1.533-.723,1.551,1.551,0,0,0-1.377.786A4.287,4.287,0,0,0,9.092-5.156ZM23.633,0a3.716,3.716,0,0,1-.312-.947A3.06,3.06,0,0,1,20.781.2a3.749,3.749,0,0,1-2.539-.9A2.875,2.875,0,0,1,17.2-2.979a2.955,2.955,0,0,1,1.27-2.6,6.468,6.468,0,0,1,3.691-.879h1.016v-.559q0-1.462-1.26-1.462a1.03,1.03,0,0,0-1.172,1.158H17.451a2.95,2.95,0,0,1,1.3-2.487,5.479,5.479,0,0,1,3.325-.956,4.8,4.8,0,0,1,3.193.986,3.429,3.429,0,0,1,1.2,2.705v4.678a4.79,4.79,0,0,0,.449,2.227V0ZM21.572-2.148a1.836,1.836,0,0,0,1.021-.264,1.653,1.653,0,0,0,.581-.6V-4.7h-.957Q20.5-4.7,20.5-3.154a.942.942,0,0,0,.3.728A1.1,1.1,0,0,0,21.572-2.148ZM34.688-7.588,33.6-7.666a1.947,1.947,0,0,0-1.992.977V0H28.32V-10.566h3.086l.107,1.357a2.548,2.548,0,0,1,2.314-1.553,3.209,3.209,0,0,1,.918.117Z" transform="translate(642.578 3924)" fill="#12263f"/>
    <path id="Trazado_892723" data-name="Trazado 892723" d="M-27.3-6.035H-32.69v3.4h6.367V0h-9.795V-14.219H-26.3v2.646H-32.69v3H-27.3ZM-21.606,0h-3.3V-15h3.3Zm5.5,0h-3.3V-10.566h3.3Zm-3.5-13.291a1.469,1.469,0,0,1,.508-1.152,1.916,1.916,0,0,1,1.318-.449,1.916,1.916,0,0,1,1.318.449,1.469,1.469,0,0,1,.508,1.152,1.469,1.469,0,0,1-.508,1.152,1.916,1.916,0,0,1-1.318.449,1.916,1.916,0,0,1-1.318-.449A1.469,1.469,0,0,1-19.6-13.291Zm8.633,2.725.107,1.24a3.633,3.633,0,0,1,3.018-1.436A2.675,2.675,0,0,1-5.142-9.17a3.517,3.517,0,0,1,3.105-1.592q3.213,0,3.3,3.887V0h-3.3V-6.67A2.014,2.014,0,0,0-2.31-7.852a1.164,1.164,0,0,0-1-.371,1.559,1.559,0,0,0-1.455.869l.01.137V0h-3.3V-6.65a2.117,2.117,0,0,0-.264-1.2,1.161,1.161,0,0,0-1.006-.371,1.578,1.578,0,0,0-1.445.869V0h-3.291V-10.566ZM6.616,0h-3.3V-10.566h3.3ZM3.12-13.291a1.469,1.469,0,0,1,.508-1.152,1.916,1.916,0,0,1,1.318-.449,1.916,1.916,0,0,1,1.318.449,1.469,1.469,0,0,1,.508,1.152,1.469,1.469,0,0,1-.508,1.152,1.916,1.916,0,0,1-1.318.449,1.916,1.916,0,0,1-1.318-.449A1.469,1.469,0,0,1,3.12-13.291Zm8.545,2.725.107,1.24a3.583,3.583,0,0,1,3.018-1.436,3.015,3.015,0,0,1,2.466.986A4.7,4.7,0,0,1,18.1-6.807V0H14.8V-6.67a1.783,1.783,0,0,0-.322-1.177,1.491,1.491,0,0,0-1.172-.376,1.569,1.569,0,0,0-1.436.762V0H8.579V-10.566ZM25.874,0a3.716,3.716,0,0,1-.312-.947A3.06,3.06,0,0,1,23.022.2a3.749,3.749,0,0,1-2.539-.9,2.875,2.875,0,0,1-1.045-2.271,2.955,2.955,0,0,1,1.27-2.6A6.468,6.468,0,0,1,24.4-6.455h1.016v-.559q0-1.462-1.26-1.462a1.03,1.03,0,0,0-1.172,1.158H19.692A2.95,2.95,0,0,1,21-9.806a5.479,5.479,0,0,1,3.325-.956,4.8,4.8,0,0,1,3.193.986,3.429,3.429,0,0,1,1.2,2.705v4.678a4.79,4.79,0,0,0,.449,2.227V0ZM23.813-2.148a1.836,1.836,0,0,0,1.021-.264,1.653,1.653,0,0,0,.581-.6V-4.7h-.957q-1.719,0-1.719,1.543a.942.942,0,0,0,.3.728A1.1,1.1,0,0,0,23.813-2.148ZM36.929-7.588l-1.084-.078a1.947,1.947,0,0,0-1.992.977V0H30.562V-10.566h3.086l.107,1.357a2.548,2.548,0,0,1,2.314-1.553,3.209,3.209,0,0,1,.918.117Z" transform="translate(957.578 3924)" fill="#12263f"/>
    <path id="Trazado_892724" data-name="Trazado 892724" d="M4.727,0H1.309V-14.219H4.727Zm5.342-10.566.107,1.24a3.633,3.633,0,0,1,3.018-1.436A2.675,2.675,0,0,1,15.9-9.17,3.517,3.517,0,0,1,19-10.762q3.213,0,3.3,3.887V0H19V-6.67a2.014,2.014,0,0,0-.273-1.182,1.164,1.164,0,0,0-1-.371,1.559,1.559,0,0,0-1.455.869l.01.137V0h-3.3V-6.65a2.117,2.117,0,0,0-.264-1.2,1.161,1.161,0,0,0-1.006-.371,1.578,1.578,0,0,0-1.445.869V0H6.982V-10.566ZM33.994-5.205a6.372,6.372,0,0,1-1.108,3.931A3.554,3.554,0,0,1,29.893.2,3.046,3.046,0,0,1,27.5-.869V4.063H24.209V-10.566h3.076l.1.977a3.046,3.046,0,0,1,2.49-1.172,3.582,3.582,0,0,1,3.037,1.44,6.45,6.45,0,0,1,1.084,3.96ZM30.7-5.41q0-2.812-1.641-2.812a1.549,1.549,0,0,0-1.562.84v4.16a1.6,1.6,0,0,0,1.582.879q1.572,0,1.621-2.715Zm4.326.029A6.236,6.236,0,0,1,35.645-8.2a4.4,4.4,0,0,1,1.768-1.9,5.323,5.323,0,0,1,2.705-.664,4.858,4.858,0,0,1,3.74,1.47,5.64,5.64,0,0,1,1.367,4v.117a5.472,5.472,0,0,1-1.372,3.921A4.871,4.871,0,0,1,40.137.2a4.927,4.927,0,0,1-3.623-1.353,5.29,5.29,0,0,1-1.475-3.667Zm3.291.205a3.932,3.932,0,0,0,.459,2.148,1.529,1.529,0,0,0,1.357.684q1.758,0,1.8-2.705v-.332q0-2.842-1.816-2.842-1.65,0-1.787,2.451ZM53.066-7.588l-1.084-.078a1.947,1.947,0,0,0-1.992.977V0H46.7V-10.566h3.086l.107,1.357a2.548,2.548,0,0,1,2.314-1.553,3.209,3.209,0,0,1,.918.117Zm5.508-5.605v2.627h1.738v2.285H58.574v4.834a1.234,1.234,0,0,0,.215.83,1.152,1.152,0,0,0,.85.234,4.828,4.828,0,0,0,.82-.059V-.088A6.074,6.074,0,0,1,58.6.2a3.448,3.448,0,0,1-2.51-.8,3.282,3.282,0,0,1-.811-2.432V-8.281H53.936v-2.285h1.348v-2.627ZM67.559,0a3.716,3.716,0,0,1-.312-.947A3.06,3.06,0,0,1,64.707.2a3.749,3.749,0,0,1-2.539-.9,2.875,2.875,0,0,1-1.045-2.271,2.955,2.955,0,0,1,1.27-2.6,6.468,6.468,0,0,1,3.691-.879H67.1v-.559q0-1.462-1.26-1.462a1.03,1.03,0,0,0-1.172,1.158H61.377a2.95,2.95,0,0,1,1.3-2.487,5.479,5.479,0,0,1,3.325-.956,4.8,4.8,0,0,1,3.193.986A3.429,3.429,0,0,1,70.4-7.07v4.678A4.79,4.79,0,0,0,70.85-.166V0ZM65.5-2.148a1.836,1.836,0,0,0,1.021-.264,1.653,1.653,0,0,0,.581-.6V-4.7h-.957q-1.719,0-1.719,1.543a.942.942,0,0,0,.3.728A1.1,1.1,0,0,0,65.5-2.148Zm9.746-8.418.107,1.24a3.583,3.583,0,0,1,3.018-1.436,3.015,3.015,0,0,1,2.466.986,4.7,4.7,0,0,1,.845,2.969V0h-3.3V-6.67a1.783,1.783,0,0,0-.322-1.177,1.491,1.491,0,0,0-1.172-.376,1.569,1.569,0,0,0-1.436.762V0H72.158V-10.566Zm12.09-2.627v2.627h1.738v2.285H87.334v4.834a1.234,1.234,0,0,0,.215.83,1.152,1.152,0,0,0,.85.234,4.828,4.828,0,0,0,.82-.059V-.088A6.074,6.074,0,0,1,87.363.2a3.448,3.448,0,0,1-2.51-.8,3.282,3.282,0,0,1-.811-2.432V-8.281H82.7v-2.285h1.348v-2.627ZM95.479.2a5.432,5.432,0,0,1-3.936-1.45,5.008,5.008,0,0,1-1.5-3.774V-5.3a6.489,6.489,0,0,1,.6-2.861,4.395,4.395,0,0,1,1.753-1.919,5.292,5.292,0,0,1,2.734-.679A4.574,4.574,0,0,1,98.643-9.38a5.43,5.43,0,0,1,1.289,3.853v1.279H93.389a2.372,2.372,0,0,0,.771,1.4,2.3,2.3,0,0,0,1.543.508,2.958,2.958,0,0,0,2.441-1.094l1.5,1.777A4.2,4.2,0,0,1,97.905-.308,5.891,5.891,0,0,1,95.479.2Zm-.371-8.418q-1.445,0-1.719,1.914h3.32v-.254a1.63,1.63,0,0,0-.4-1.226A1.593,1.593,0,0,0,95.107-8.223Z" transform="translate(469.578 3797) rotate(-90)" fill="#12263f"/>
    <path id="Trazado_892725" data-name="Trazado 892725" d="M12.949,0H9.541L4.5-8.848V0H1.074V-14.219H4.5L9.531-5.371v-8.848h3.418Zm1.6-5.381A6.236,6.236,0,0,1,15.166-8.2a4.4,4.4,0,0,1,1.768-1.9,5.323,5.323,0,0,1,2.705-.664,4.858,4.858,0,0,1,3.74,1.47,5.64,5.64,0,0,1,1.367,4v.117a5.472,5.472,0,0,1-1.372,3.921A4.871,4.871,0,0,1,19.658.2a4.927,4.927,0,0,1-3.623-1.353,5.29,5.29,0,0,1-1.475-3.667Zm3.291.205A3.932,3.932,0,0,0,18.3-3.027a1.529,1.529,0,0,0,1.357.684q1.758,0,1.8-2.705v-.332q0-2.842-1.816-2.842-1.65,0-1.787,2.451ZM34.648,0h-3.3V-10.566h3.3Zm-3.5-13.291a1.469,1.469,0,0,1,.508-1.152,1.916,1.916,0,0,1,1.318-.449,1.916,1.916,0,0,1,1.318.449,1.469,1.469,0,0,1,.508,1.152,1.469,1.469,0,0,1-.508,1.152,1.916,1.916,0,0,1-1.318.449,1.916,1.916,0,0,1-1.318-.449A1.469,1.469,0,0,1,31.152-13.291Zm8.633,2.725.107,1.24a3.633,3.633,0,0,1,3.018-1.436A2.675,2.675,0,0,1,45.615-9.17a3.516,3.516,0,0,1,3.105-1.592q3.213,0,3.3,3.887V0h-3.3V-6.67a2.014,2.014,0,0,0-.273-1.182,1.164,1.164,0,0,0-1-.371A1.559,1.559,0,0,0,46-7.354l.01.137V0h-3.3V-6.65a2.117,2.117,0,0,0-.264-1.2,1.161,1.161,0,0,0-1.006-.371,1.578,1.578,0,0,0-1.445.869V0H36.7V-10.566ZM63.711-5.205A6.372,6.372,0,0,1,62.6-1.274,3.554,3.554,0,0,1,59.609.2,3.046,3.046,0,0,1,57.217-.869V4.063H53.926V-10.566H57l.1.977a3.046,3.046,0,0,1,2.49-1.172,3.582,3.582,0,0,1,3.037,1.44,6.45,6.45,0,0,1,1.084,3.96ZM60.42-5.41q0-2.812-1.641-2.812a1.549,1.549,0,0,0-1.562.84v4.16a1.6,1.6,0,0,0,1.582.879q1.572,0,1.621-2.715Zm4.326.029A6.236,6.236,0,0,1,65.361-8.2a4.4,4.4,0,0,1,1.768-1.9,5.323,5.323,0,0,1,2.705-.664,4.858,4.858,0,0,1,3.74,1.47,5.64,5.64,0,0,1,1.367,4v.117a5.472,5.472,0,0,1-1.372,3.921A4.871,4.871,0,0,1,69.854.2,4.927,4.927,0,0,1,66.23-1.157a5.29,5.29,0,0,1-1.475-3.667Zm3.291.205A3.932,3.932,0,0,0,68.5-3.027a1.529,1.529,0,0,0,1.357.684q1.758,0,1.8-2.705v-.332q0-2.842-1.816-2.842-1.65,0-1.787,2.451ZM82.783-7.588,81.7-7.666a1.947,1.947,0,0,0-1.992.977V0H76.416V-10.566H79.5l.107,1.357a2.548,2.548,0,0,1,2.314-1.553,3.209,3.209,0,0,1,.918.117Zm5.508-5.605v2.627h1.738v2.285H88.291v4.834a1.234,1.234,0,0,0,.215.83,1.152,1.152,0,0,0,.85.234,4.828,4.828,0,0,0,.82-.059V-.088A6.074,6.074,0,0,1,88.32.2a3.448,3.448,0,0,1-2.51-.8A3.282,3.282,0,0,1,85-3.037V-8.281H83.652v-2.285H85v-2.627ZM97.275,0a3.716,3.716,0,0,1-.312-.947A3.06,3.06,0,0,1,94.424.2a3.749,3.749,0,0,1-2.539-.9A2.875,2.875,0,0,1,90.84-2.979a2.955,2.955,0,0,1,1.27-2.6A6.468,6.468,0,0,1,95.8-6.455h1.016v-.559q0-1.462-1.26-1.462a1.03,1.03,0,0,0-1.172,1.158H91.094a2.95,2.95,0,0,1,1.3-2.487,5.479,5.479,0,0,1,3.325-.956,4.8,4.8,0,0,1,3.193.986,3.429,3.429,0,0,1,1.2,2.705v4.678a4.79,4.79,0,0,0,.449,2.227V0ZM95.215-2.148a1.836,1.836,0,0,0,1.021-.264,1.653,1.653,0,0,0,.581-.6V-4.7h-.957q-1.719,0-1.719,1.543a.942.942,0,0,0,.3.728A1.1,1.1,0,0,0,95.215-2.148Zm9.746-8.418.107,1.24a3.583,3.583,0,0,1,3.018-1.436,3.015,3.015,0,0,1,2.466.986,4.7,4.7,0,0,1,.845,2.969V0h-3.3V-6.67a1.783,1.783,0,0,0-.322-1.177,1.491,1.491,0,0,0-1.172-.376,1.569,1.569,0,0,0-1.436.762V0h-3.291V-10.566Zm12.09-2.627v2.627h1.738v2.285h-1.738v4.834a1.234,1.234,0,0,0,.215.83,1.152,1.152,0,0,0,.85.234,4.828,4.828,0,0,0,.82-.059V-.088A6.074,6.074,0,0,1,117.08.2a3.448,3.448,0,0,1-2.51-.8,3.282,3.282,0,0,1-.811-2.432V-8.281h-1.348v-2.285h1.348v-2.627ZM125.2.2a5.432,5.432,0,0,1-3.936-1.45,5.008,5.008,0,0,1-1.5-3.774V-5.3a6.489,6.489,0,0,1,.6-2.861,4.395,4.395,0,0,1,1.753-1.919,5.292,5.292,0,0,1,2.734-.679,4.574,4.574,0,0,1,3.516,1.382,5.43,5.43,0,0,1,1.289,3.853v1.279h-6.543a2.372,2.372,0,0,0,.771,1.4,2.3,2.3,0,0,0,1.543.508,2.958,2.958,0,0,0,2.441-1.094l1.5,1.777a4.2,4.2,0,0,1-1.743,1.353A5.891,5.891,0,0,1,125.2.2Zm-.371-8.418q-1.445,0-1.719,1.914h3.32v-.254a1.63,1.63,0,0,0-.4-1.226A1.593,1.593,0,0,0,124.824-8.223Z" transform="translate(469.578 3982) rotate(-90)" fill="#12263f"/>
    <path id="Trazado_892726" data-name="Trazado 892726" d="M12.227-14.219v9.307a5.349,5.349,0,0,1-.674,2.739A4.365,4.365,0,0,1,9.619-.41,6.812,6.812,0,0,1,6.641.2,5.885,5.885,0,0,1,2.549-1.152,4.806,4.806,0,0,1,1.025-4.844v-9.375H4.473v9.443q.059,2.334,2.168,2.334a2.1,2.1,0,0,0,1.611-.586,2.739,2.739,0,0,0,.547-1.9v-9.287Zm8.379,6.631-1.084-.078a1.947,1.947,0,0,0-1.992.977V0H14.238V-10.566h3.086l.107,1.357a2.548,2.548,0,0,1,2.314-1.553,3.209,3.209,0,0,1,.918.117Zm.8,2.227a7.134,7.134,0,0,1,.527-2.832,4.245,4.245,0,0,1,1.514-1.9,3.99,3.99,0,0,1,2.295-.669A3.173,3.173,0,0,1,28.32-9.648l.117-.918h2.988V-.4a4.455,4.455,0,0,1-.649,2.427A4.167,4.167,0,0,1,28.9,3.608a6.91,6.91,0,0,1-2.852.552,5.961,5.961,0,0,1-2.251-.439,4.063,4.063,0,0,1-1.665-1.143L23.506.645a3.018,3.018,0,0,0,2.422,1.084A1.96,1.96,0,0,0,28.115-.518V-.85A3.09,3.09,0,0,1,25.723.2,3.819,3.819,0,0,1,22.6-1.284a6.13,6.13,0,0,1-1.191-3.96Zm3.3.205A3.759,3.759,0,0,0,25.2-3.1a1.541,1.541,0,0,0,1.367.757,1.748,1.748,0,0,0,1.553-.713V-7.5a1.7,1.7,0,0,0-1.533-.723,1.551,1.551,0,0,0-1.377.786A4.287,4.287,0,0,0,24.707-5.156ZM38.408.2a5.432,5.432,0,0,1-3.936-1.45,5.008,5.008,0,0,1-1.5-3.774V-5.3a6.489,6.489,0,0,1,.6-2.861,4.395,4.395,0,0,1,1.753-1.919,5.292,5.292,0,0,1,2.734-.679A4.574,4.574,0,0,1,41.572-9.38a5.43,5.43,0,0,1,1.289,3.853v1.279H36.318a2.372,2.372,0,0,0,.771,1.4,2.3,2.3,0,0,0,1.543.508,2.958,2.958,0,0,0,2.441-1.094l1.5,1.777A4.2,4.2,0,0,1,40.835-.308,5.891,5.891,0,0,1,38.408.2Zm-.371-8.418q-1.445,0-1.719,1.914h3.32v-.254a1.63,1.63,0,0,0-.4-1.226A1.593,1.593,0,0,0,38.037-8.223Zm9.17-2.344.107,1.24a3.583,3.583,0,0,1,3.018-1.436,3.015,3.015,0,0,1,2.466.986,4.7,4.7,0,0,1,.845,2.969V0h-3.3V-6.67a1.783,1.783,0,0,0-.322-1.177,1.491,1.491,0,0,0-1.172-.376,1.569,1.569,0,0,0-1.436.762V0H44.121V-10.566ZM59.3-13.193v2.627h1.738v2.285H59.3v4.834a1.234,1.234,0,0,0,.215.83,1.152,1.152,0,0,0,.85.234,4.828,4.828,0,0,0,.82-.059V-.088A6.074,6.074,0,0,1,59.326.2a3.448,3.448,0,0,1-2.51-.8,3.282,3.282,0,0,1-.811-2.432V-8.281H54.658v-2.285h1.348v-2.627ZM67.441.2a5.432,5.432,0,0,1-3.936-1.45A5.008,5.008,0,0,1,62-5.029V-5.3a6.489,6.489,0,0,1,.6-2.861,4.395,4.395,0,0,1,1.753-1.919,5.292,5.292,0,0,1,2.734-.679A4.574,4.574,0,0,1,70.605-9.38a5.43,5.43,0,0,1,1.289,3.853v1.279H65.352a2.372,2.372,0,0,0,.771,1.4,2.3,2.3,0,0,0,1.543.508,2.958,2.958,0,0,0,2.441-1.094l1.5,1.777A4.2,4.2,0,0,1,69.868-.308,5.891,5.891,0,0,1,67.441.2ZM67.07-8.223q-1.445,0-1.719,1.914h3.32v-.254a1.63,1.63,0,0,0-.4-1.226A1.593,1.593,0,0,0,67.07-8.223Z" transform="translate(921.578 3641)" fill="#12263f"/>
  </g>
</svg>
