<svg xmlns="http://www.w3.org/2000/svg" xmlns:xlink="http://www.w3.org/1999/xlink" width="275.051" height="159.369" viewBox="0 0 275.051 159.369">
  <defs>
    <clipPath id="clip-path">
      <rect id="Rect치ngulo_400902" data-name="Rect치ngulo 400902" width="72.922" height="64.648" fill="#f8cd20"/>
    </clipPath>
    <clipPath id="clip-path-2">
      <rect id="Rect치ngulo_401794" data-name="Rect치ngulo 401794" width="150" height="150" transform="translate(409.949 5849)" fill="#fff" stroke="#707070" stroke-width="1"/>
    </clipPath>
  </defs>
  <g id="Grupo_1102068" data-name="Grupo 1102068" transform="translate(-265 -1998.035)">
    <g id="Grupo_1101644" data-name="Grupo 1101644" transform="translate(-144.949 -3842.965)">
      <path id="_119740" data-name="119740" d="M27.59,154.369l-.271-.094H14.7A14.7,14.7,0,0,1,0,139.572V109.006A14.719,14.719,0,0,1,5.827,97.184c4-2.987,8.178-8.044,5.646-15.3C7.07,69.256,9.16,58.243,18.655,50.52s16.859-15.9,7.3-25.855q-.256-.267-.495-.537C17.2,14.772,24.17,0,36.65,0H168.526l-.007.025a77.137,77.137,0,0,1-1.934,154.25c-.347,0-.692-.011-1.037-.016l-.008.016Z" transform="translate(441.277 5841)" fill="#38b449"/>
      <g id="Grupo_1101577" data-name="Grupo 1101577" transform="translate(551.925 5935.72)">
        <g id="Grupo_1098724" data-name="Grupo 1098724" transform="translate(0 0)">
          <g id="Grupo_1098723" data-name="Grupo 1098723" clip-path="url(#clip-path)">
            <path id="Trazado_872910" data-name="Trazado 872910" d="M0,1.456A1.456,1.456,0,1,0,1.456,0,1.456,1.456,0,0,0,0,1.456" transform="translate(70.01)" fill="#f8cd20"/>
            <path id="Trazado_872911" data-name="Trazado 872911" d="M28.954,1.456A1.456,1.456,0,1,0,30.41,0a1.456,1.456,0,0,0-1.456,1.456" transform="translate(27.054)" fill="#f8cd20"/>
            <path id="Trazado_872912" data-name="Trazado 872912" d="M57.907,1.456A1.456,1.456,0,1,0,59.363,0a1.456,1.456,0,0,0-1.456,1.456" transform="translate(-15.901)" fill="#f8cd20"/>
            <path id="Trazado_872913" data-name="Trazado 872913" d="M86.86,1.456A1.456,1.456,0,1,0,88.316,0,1.456,1.456,0,0,0,86.86,1.456" transform="translate(-58.856)" fill="#f8cd20"/>
            <path id="Trazado_872914" data-name="Trazado 872914" d="M115.813,1.456A1.456,1.456,0,1,0,117.269,0a1.456,1.456,0,0,0-1.456,1.456" transform="translate(-101.811)" fill="#f8cd20"/>
            <path id="Trazado_872915" data-name="Trazado 872915" d="M144.767,1.456A1.456,1.456,0,1,0,146.223,0a1.456,1.456,0,0,0-1.456,1.456" transform="translate(-144.767)" fill="#f8cd20"/>
            <path id="Trazado_872916" data-name="Trazado 872916" d="M0,33.371a1.456,1.456,0,1,0,1.456-1.456A1.456,1.456,0,0,0,0,33.371" transform="translate(70.01 -16.481)" fill="#f8cd20"/>
            <path id="Trazado_872917" data-name="Trazado 872917" d="M28.954,33.371a1.456,1.456,0,1,0,1.456-1.456,1.456,1.456,0,0,0-1.456,1.456" transform="translate(27.054 -16.481)" fill="#f8cd20"/>
            <path id="Trazado_872918" data-name="Trazado 872918" d="M57.907,33.371a1.456,1.456,0,1,0,1.456-1.456,1.456,1.456,0,0,0-1.456,1.456" transform="translate(-15.901 -16.481)" fill="#f8cd20"/>
            <path id="Trazado_872919" data-name="Trazado 872919" d="M86.86,33.371a1.456,1.456,0,1,0,1.456-1.456,1.456,1.456,0,0,0-1.456,1.456" transform="translate(-58.856 -16.481)" fill="#f8cd20"/>
            <path id="Trazado_872920" data-name="Trazado 872920" d="M115.813,33.371a1.456,1.456,0,1,0,1.456-1.456,1.456,1.456,0,0,0-1.456,1.456" transform="translate(-101.811 -16.481)" fill="#f8cd20"/>
            <path id="Trazado_872921" data-name="Trazado 872921" d="M144.767,33.371a1.456,1.456,0,1,0,1.456-1.456,1.456,1.456,0,0,0-1.456,1.456" transform="translate(-144.767 -16.481)" fill="#f8cd20"/>
            <path id="Trazado_872922" data-name="Trazado 872922" d="M0,65.286A1.456,1.456,0,1,0,1.456,63.83,1.456,1.456,0,0,0,0,65.286" transform="translate(70.01 -32.961)" fill="#f8cd20"/>
            <path id="Trazado_872923" data-name="Trazado 872923" d="M28.954,65.286A1.456,1.456,0,1,0,30.41,63.83a1.456,1.456,0,0,0-1.456,1.456" transform="translate(27.054 -32.961)" fill="#f8cd20"/>
            <path id="Trazado_872924" data-name="Trazado 872924" d="M57.907,65.286a1.456,1.456,0,1,0,1.456-1.456,1.456,1.456,0,0,0-1.456,1.456" transform="translate(-15.901 -32.961)" fill="#f8cd20"/>
            <path id="Trazado_872925" data-name="Trazado 872925" d="M86.86,65.286a1.456,1.456,0,1,0,1.456-1.456,1.456,1.456,0,0,0-1.456,1.456" transform="translate(-58.856 -32.961)" fill="#f8cd20"/>
            <path id="Trazado_872926" data-name="Trazado 872926" d="M115.813,65.286a1.456,1.456,0,1,0,1.456-1.456,1.456,1.456,0,0,0-1.456,1.456" transform="translate(-101.811 -32.961)" fill="#f8cd20"/>
            <path id="Trazado_872927" data-name="Trazado 872927" d="M144.767,65.286a1.456,1.456,0,1,0,1.456-1.456,1.456,1.456,0,0,0-1.456,1.456" transform="translate(-144.767 -32.961)" fill="#f8cd20"/>
            <path id="Trazado_872928" data-name="Trazado 872928" d="M0,97.2a1.456,1.456,0,1,0,1.456-1.456A1.456,1.456,0,0,0,0,97.2" transform="translate(70.01 -49.442)" fill="#f8cd20"/>
            <path id="Trazado_872929" data-name="Trazado 872929" d="M28.954,97.2a1.456,1.456,0,1,0,1.456-1.456A1.456,1.456,0,0,0,28.954,97.2" transform="translate(27.054 -49.442)" fill="#f8cd20"/>
            <path id="Trazado_872930" data-name="Trazado 872930" d="M57.907,97.2a1.456,1.456,0,1,0,1.456-1.456A1.456,1.456,0,0,0,57.907,97.2" transform="translate(-15.901 -49.442)" fill="#f8cd20"/>
            <path id="Trazado_872931" data-name="Trazado 872931" d="M86.86,97.2a1.456,1.456,0,1,0,1.456-1.456A1.456,1.456,0,0,0,86.86,97.2" transform="translate(-58.856 -49.442)" fill="#f8cd20"/>
            <path id="Trazado_872932" data-name="Trazado 872932" d="M115.813,97.2a1.456,1.456,0,1,0,1.456-1.456,1.456,1.456,0,0,0-1.456,1.456" transform="translate(-101.811 -49.442)" fill="#f8cd20"/>
            <path id="Trazado_872933" data-name="Trazado 872933" d="M144.767,97.2a1.456,1.456,0,1,0,1.456-1.456,1.456,1.456,0,0,0-1.456,1.456" transform="translate(-144.767 -49.442)" fill="#f8cd20"/>
            <path id="Trazado_872934" data-name="Trazado 872934" d="M0,129.116a1.456,1.456,0,1,0,1.456-1.456A1.456,1.456,0,0,0,0,129.116" transform="translate(70.01 -65.923)" fill="#f8cd20"/>
            <path id="Trazado_872935" data-name="Trazado 872935" d="M28.954,129.116a1.456,1.456,0,1,0,1.456-1.456,1.456,1.456,0,0,0-1.456,1.456" transform="translate(27.054 -65.923)" fill="#f8cd20"/>
            <path id="Trazado_872936" data-name="Trazado 872936" d="M57.907,129.116a1.456,1.456,0,1,0,1.456-1.456,1.456,1.456,0,0,0-1.456,1.456" transform="translate(-15.901 -65.923)" fill="#f8cd20"/>
            <path id="Trazado_872937" data-name="Trazado 872937" d="M86.86,129.116a1.456,1.456,0,1,0,1.456-1.456,1.456,1.456,0,0,0-1.456,1.456" transform="translate(-58.856 -65.923)" fill="#f8cd20"/>
            <path id="Trazado_872938" data-name="Trazado 872938" d="M115.813,129.116a1.456,1.456,0,1,0,1.456-1.456,1.456,1.456,0,0,0-1.456,1.456" transform="translate(-101.811 -65.923)" fill="#f8cd20"/>
            <path id="Trazado_872939" data-name="Trazado 872939" d="M144.767,129.116a1.456,1.456,0,1,0,1.456-1.456,1.456,1.456,0,0,0-1.456,1.456" transform="translate(-144.767 -65.923)" fill="#f8cd20"/>
          </g>
        </g>
      </g>
      <g id="Enmascarar_grupo_1098791" data-name="Enmascarar grupo 1098791" clip-path="url(#clip-path-2)">
        <g id="Artboard351" transform="translate(407.833 5846.884)">
          <g id="Grupo_1101652" data-name="Grupo 1101652">
            <g id="Grupo_1101651" data-name="Grupo 1101651">
              <g id="Grupo_1101648" data-name="Grupo 1101648">
                <path id="Trazado_891257" data-name="Trazado 891257" d="M91.566,16.564a61.877,61.877,0,0,1,18.14,7.518l11.787-5.229L135.381,32.74l-5.229,11.787a61.877,61.877,0,0,1,7.518,18.14L149.7,67.3V86.945L137.67,91.575a61.923,61.923,0,0,1-7.518,18.131l5.229,11.787-13.888,13.9-11.787-5.238a61.89,61.89,0,0,1-18.14,7.527L86.937,149.7H67.288L62.659,137.67a61.923,61.923,0,0,1-18.131-7.518L32.74,135.39l-13.9-13.9,5.238-11.779a62.085,62.085,0,0,1-7.527-18.14L4.536,86.945V67.3l12.019-4.629a61.889,61.889,0,0,1,7.527-18.14L18.844,32.74l13.9-13.888,11.779,5.229a62.073,62.073,0,0,1,18.14-7.518L67.288,4.536H86.937Z" fill="#ffe177" fill-rule="evenodd"/>
                <path id="Trazado_891258" data-name="Trazado 891258" d="M117.533,20.61l3.96-1.757L135.381,32.74l-5.229,11.787a61.877,61.877,0,0,1,7.518,18.14L149.7,67.3V86.945L137.67,91.575a61.923,61.923,0,0,1-7.518,18.131l5.229,11.787-13.888,13.9-3.96-1.757,12.139-12.139-5.238-11.787a61.923,61.923,0,0,0,7.518-18.131l12.027-4.629V67.3l-12.027-4.629a61.878,61.878,0,0,0-7.518-18.14l5.238-11.787Zm-86.55,0,1.757-1.757,11.779,5.229c-.831.463-1.654.943-2.46,1.449Zm60.583-4.046a61.877,61.877,0,0,1,18.14,7.518l-3.249,1.449c-5.607-3.455-14.2-7.441-20.609-8.967L81.219,4.536h5.718ZM44.528,130.152,32.74,135.39l-1.757-1.757,11.076-4.921Q43.268,129.457,44.528,130.152Zm65.178,0a61.89,61.89,0,0,1-18.14,7.527L86.937,149.7H81.219l4.629-12.019c6.412-1.526,15-5.512,20.617-8.967Z" fill="#ffd064" fill-rule="evenodd"/>
                <path id="Trazado_891259" data-name="Trazado 891259" d="M77.112,25.025a52.092,52.092,0,1,1-52.087,52.1A52.1,52.1,0,0,1,77.112,25.025Z" fill="#eceff1" fill-rule="evenodd"/>
                <path id="Trazado_891260" data-name="Trazado 891260" d="M77.112,25.025c1.185,0,2.36.042,3.534.127a52.089,52.089,0,0,0,0,103.94c-1.175.074-2.349.116-3.534.116a52.092,52.092,0,0,1,0-104.183Z" fill="#d1d1d6" fill-rule="evenodd"/>
              </g>
              <g id="Grupo_1101649" data-name="Grupo 1101649">
                <path id="Trazado_891261" data-name="Trazado 891261" d="M82.857,109.361H71.609v5.176a3.422,3.422,0,0,0,3.412,3.412h4.428a3.421,3.421,0,0,0,3.408-3.412Z" fill="#685e68" fill-rule="evenodd"/>
                <path id="Trazado_891262" data-name="Trazado 891262" d="M68.033,102.713l.078,5a3.441,3.441,0,0,0,3.412,3.412H82.948a3.4,3.4,0,0,0,3.408-3.412l-.074-5c-5.957.189-12.251,0-18.249,0Z" fill="#837683" fill-rule="evenodd"/>
                <path id="Trazado_891263" data-name="Trazado 891263" d="M89.657,97.476c1.007-17.184,8.457-16.49,8.457-28.149a20.993,20.993,0,1,0-41.986,0c0,11.659,7.445,10.964,8.457,28.149.452,3.4,2.388,4.16,3.511,4.16C84.8,101.636,87.762,103.288,89.657,97.476Z" fill="#ffe177" fill-rule="evenodd"/>
                <path id="Trazado_891264" data-name="Trazado 891264" d="M89.657,97.476c1.007-17.184,8.457-16.49,8.457-28.149a21,21,0,0,0-21-21c-.391,0-.777.012-1.163.033A21,21,0,0,1,95.782,69.327c0,11.659-7.449,10.964-8.46,28.149-1.122,3.449-2.623,4.271-7.153,4.366,6.389.095,8.189-.382,9.488-4.366Z" fill="#ffd064" fill-rule="evenodd"/>
                <path id="Trazado_891265" data-name="Trazado 891265" d="M80.613,111.124h2.335a3.4,3.4,0,0,0,3.408-3.412l-.074-5c-.773.025-1.55.041-2.331.058l.074,4.941a3.4,3.4,0,0,1-3.412,3.412Z" fill="#685e68" fill-rule="evenodd"/>
                <path id="Trazado_891266" data-name="Trazado 891266" d="M64.584,97.476v3.412A3.422,3.422,0,0,0,68,104.3H86.245a3.422,3.422,0,0,0,3.412-3.412V97.476Z" fill="#a79ba7" fill-rule="evenodd"/>
                <path id="Trazado_891267" data-name="Trazado 891267" d="M83.91,104.3h2.335a3.422,3.422,0,0,0,3.412-3.412V97.476H87.322v3.412A3.42,3.42,0,0,1,83.91,104.3Z" fill="#837683" fill-rule="evenodd"/>
              </g>
              <g id="Grupo_1101650" data-name="Grupo 1101650">
                <path id="Trazado_891268" data-name="Trazado 891268" d="M77.117,82.374A12.838,12.838,0,1,0,64.279,69.537,12.858,12.858,0,0,0,77.117,82.374Z" fill="#8ac9fe" fill-rule="evenodd"/>
                <path id="Trazado_891269" data-name="Trazado 891269" d="M78.123,56.738a12.838,12.838,0,0,0,0,25.6q-.5.039-1.006.039a12.838,12.838,0,1,1,0-25.675q.508,0,1.006.039Z" fill="#60b7ff" fill-rule="evenodd"/>
              </g>
            </g>
            <path id="Trazado_891270" data-name="Trazado 891270" d="M93.38,14.536a64.162,64.162,0,0,1,16.5,6.836l10.635-4.729a2.419,2.419,0,0,1,2.694.5L137.09,31.027a2.418,2.418,0,0,1,.5,2.69L132.88,44.354a64.056,64.056,0,0,1,6.839,16.521l10.847,4.175a2.42,2.42,0,0,1,1.551,2.258V86.946a2.419,2.419,0,0,1-1.551,2.258l-10.849,4.175a64.714,64.714,0,0,1-6.839,16.5l4.713,10.64a2.418,2.418,0,0,1-.5,2.69L123.206,137.09a2.418,2.418,0,0,1-2.69.5l-10.635-4.71a63.959,63.959,0,0,1-16.5,6.837L89.2,150.566a2.419,2.419,0,0,1-2.258,1.551H67.308a2.42,2.42,0,0,1-2.258-1.551l-4.175-10.848a64.588,64.588,0,0,1-16.518-6.84l-10.64,4.713a2.418,2.418,0,0,1-2.69-.5L17.144,123.206a2.419,2.419,0,0,1-.5-2.694l4.728-10.633a64.548,64.548,0,0,1-6.852-16.5L3.667,89.2a2.419,2.419,0,0,1-1.551-2.258V67.308A2.42,2.42,0,0,1,3.667,65.05l10.851-4.176a64.627,64.627,0,0,1,6.854-16.517L16.644,33.721a2.419,2.419,0,0,1,.5-2.694L31.027,17.144a2.419,2.419,0,0,1,2.694-.5l10.635,4.729a64.151,64.151,0,0,1,16.5-6.837L65.05,3.665a2.42,2.42,0,0,1,2.257-1.548H86.946A2.419,2.419,0,0,1,89.2,3.669Zm-4.065,2.912L85.284,6.956H68.967l-4.05,10.5a2.42,2.42,0,0,1-1.7,1.483,59.329,59.329,0,0,0-17.425,7.221,2.42,2.42,0,0,1-2.252.151L33.273,21.741,21.741,33.273l4.566,10.269a2.42,2.42,0,0,1-.151,2.252,59.815,59.815,0,0,0-7.242,17.45,2.419,2.419,0,0,1-1.483,1.693L6.956,68.969V85.285L17.43,89.316a2.419,2.419,0,0,1,1.483,1.691,59.7,59.7,0,0,0,7.241,17.429,2.419,2.419,0,0,1,.153,2.255L21.741,120.96l11.535,11.535,10.27-4.549a2.419,2.419,0,0,1,2.244.149,59.758,59.758,0,0,0,17.449,7.224,2.42,2.42,0,0,1,1.7,1.485l4.031,10.474H85.285L89.316,136.8a2.42,2.42,0,0,1,1.7-1.485,59.115,59.115,0,0,0,17.422-7.219,2.42,2.42,0,0,1,2.252-.154l10.27,4.549,11.536-11.536-4.549-10.27a2.419,2.419,0,0,1,.149-2.244,59.877,59.877,0,0,0,7.224-17.431,2.42,2.42,0,0,1,1.485-1.7l10.474-4.031V68.969L136.8,64.938a2.42,2.42,0,0,1-1.485-1.7A59.228,59.228,0,0,0,128.1,45.794a2.419,2.419,0,0,1-.152-2.249l4.549-10.27L120.96,21.741l-10.269,4.566a2.42,2.42,0,0,1-2.252-.151,59.329,59.329,0,0,0-17.425-7.221,2.419,2.419,0,0,1-1.7-1.486ZM77.1,22.607A54.509,54.509,0,1,1,22.607,77.1,54.5,54.5,0,0,1,77.1,22.607Zm0,4.839A49.671,49.671,0,1,0,126.788,77.1,49.639,49.639,0,0,0,77.1,27.446Zm-14.94,70.1c-.578-9.666-3.348-13.3-5.457-17.032a20.476,20.476,0,0,1-3-11.186,23.417,23.417,0,0,1,46.833,0,20.476,20.476,0,0,1-3,11.186c-2.114,3.74-4.893,7.384-5.461,17.1l0,3.271a5.851,5.851,0,0,1-3.406,5.3v1.523a5.855,5.855,0,0,1-3.5,5.343v1.482a5.853,5.853,0,0,1-5.825,5.832H74.9a5.861,5.861,0,0,1-5.832-5.832v-1.483a5.848,5.848,0,0,1-3.5-5.343v-1.521a5.848,5.848,0,0,1-3.413-5.3Zm25.073,2.348H67v.993a1,1,0,0,0,.993.993H86.247a.993.993,0,0,0,.986-.994Zm-3.407,6.826H70.413v.993a1,1,0,0,0,.993.993H82.834a1,1,0,0,0,.993-.993Zm-3.5,6.826H73.91v.993a1,1,0,0,0,.993.993h4.433a.994.994,0,0,0,.986-.993Zm-3.2-62.8A18.578,18.578,0,0,0,58.542,69.327c0,5.25,1.735,7.7,3.526,10.789a33.08,33.08,0,0,1,4.751,14.939h20.6a33.076,33.076,0,0,1,4.751-14.939c1.791-3.09,3.525-5.539,3.525-10.789A18.578,18.578,0,0,0,77.12,50.749Zm0,34.045A15.257,15.257,0,1,1,92.374,69.537,15.287,15.287,0,0,1,77.117,84.794Zm0-4.839A10.418,10.418,0,1,0,66.7,69.537,10.435,10.435,0,0,0,77.117,79.955ZM69.375,71.61A2.419,2.419,0,0,1,72.8,68.188l1.89,1.89,6.843-6.208a2.419,2.419,0,0,1,3.251,3.584l-8.55,7.756A2.419,2.419,0,0,1,72.9,75.13Zm-6-27.345a2.419,2.419,0,0,1-4.192,2.416L56.715,42.4a2.419,2.419,0,1,1,4.192-2.416ZM50.9,54.975a2.419,2.419,0,0,1-2.421,4.189L44.2,56.687A2.419,2.419,0,0,1,46.617,52.5Zm54.86,4.189a2.419,2.419,0,1,1-2.424-4.188l4.278-2.477a2.419,2.419,0,1,1,2.424,4.188ZM95.048,46.684a2.419,2.419,0,0,1-4.189-2.421l2.477-4.285A2.419,2.419,0,1,1,97.524,42.4ZM79.54,41.23a2.419,2.419,0,0,1-4.839,0V36.283a2.419,2.419,0,0,1,4.839,0Z" fill-rule="evenodd"/>
          </g>
        </g>
      </g>
    </g>
  </g>
</svg>
