<svg xmlns="http://www.w3.org/2000/svg" xmlns:xlink="http://www.w3.org/1999/xlink" width="275.051" height="159.369" viewBox="0 0 275.051 159.369">
  <defs>
    <clipPath id="clip-path">
      <rect id="Rect치ngulo_400902" data-name="Rect치ngulo 400902" width="72.922" height="64.648" fill="#f8cd20"/>
    </clipPath>
    <clipPath id="clip-path-2">
      <rect id="Rect치ngulo_401794" data-name="Rect치ngulo 401794" width="150" height="150" transform="translate(409.949 5849)" fill="#fff" stroke="#707070" stroke-width="1"/>
    </clipPath>
  </defs>
  <g id="Grupo_1102065" data-name="Grupo 1102065" transform="translate(-4883.01 9610.965)">
    <g id="Grupo_1101645" data-name="Grupo 1101645" transform="translate(4473.061 -15451.965)">
      <path id="_119740" data-name="119740" d="M27.59,154.369l-.271-.094H14.7A14.7,14.7,0,0,1,0,139.572V109.006A14.719,14.719,0,0,1,5.827,97.184c4-2.987,8.178-8.044,5.646-15.3C7.07,69.256,9.16,58.243,18.655,50.52s16.859-15.9,7.3-25.855q-.256-.267-.495-.537C17.2,14.772,24.17,0,36.65,0H168.526l-.007.025a77.137,77.137,0,0,1-1.934,154.25c-.347,0-.692-.011-1.037-.016l-.008.016Z" transform="translate(441.277 5841)" fill="#38b449"/>
      <g id="Grupo_1101577" data-name="Grupo 1101577" transform="translate(551.925 5935.72)">
        <g id="Grupo_1098724" data-name="Grupo 1098724" transform="translate(0 0)">
          <g id="Grupo_1098723" data-name="Grupo 1098723" clip-path="url(#clip-path)">
            <path id="Trazado_872910" data-name="Trazado 872910" d="M0,1.456A1.456,1.456,0,1,0,1.456,0,1.456,1.456,0,0,0,0,1.456" transform="translate(70.01)" fill="#f8cd20"/>
            <path id="Trazado_872911" data-name="Trazado 872911" d="M28.954,1.456A1.456,1.456,0,1,0,30.41,0a1.456,1.456,0,0,0-1.456,1.456" transform="translate(27.054)" fill="#f8cd20"/>
            <path id="Trazado_872912" data-name="Trazado 872912" d="M57.907,1.456A1.456,1.456,0,1,0,59.363,0a1.456,1.456,0,0,0-1.456,1.456" transform="translate(-15.901)" fill="#f8cd20"/>
            <path id="Trazado_872913" data-name="Trazado 872913" d="M86.86,1.456A1.456,1.456,0,1,0,88.316,0,1.456,1.456,0,0,0,86.86,1.456" transform="translate(-58.856)" fill="#f8cd20"/>
            <path id="Trazado_872914" data-name="Trazado 872914" d="M115.813,1.456A1.456,1.456,0,1,0,117.269,0a1.456,1.456,0,0,0-1.456,1.456" transform="translate(-101.811)" fill="#f8cd20"/>
            <path id="Trazado_872915" data-name="Trazado 872915" d="M144.767,1.456A1.456,1.456,0,1,0,146.223,0a1.456,1.456,0,0,0-1.456,1.456" transform="translate(-144.767)" fill="#f8cd20"/>
            <path id="Trazado_872916" data-name="Trazado 872916" d="M0,33.371a1.456,1.456,0,1,0,1.456-1.456A1.456,1.456,0,0,0,0,33.371" transform="translate(70.01 -16.481)" fill="#f8cd20"/>
            <path id="Trazado_872917" data-name="Trazado 872917" d="M28.954,33.371a1.456,1.456,0,1,0,1.456-1.456,1.456,1.456,0,0,0-1.456,1.456" transform="translate(27.054 -16.481)" fill="#f8cd20"/>
            <path id="Trazado_872918" data-name="Trazado 872918" d="M57.907,33.371a1.456,1.456,0,1,0,1.456-1.456,1.456,1.456,0,0,0-1.456,1.456" transform="translate(-15.901 -16.481)" fill="#f8cd20"/>
            <path id="Trazado_872919" data-name="Trazado 872919" d="M86.86,33.371a1.456,1.456,0,1,0,1.456-1.456,1.456,1.456,0,0,0-1.456,1.456" transform="translate(-58.856 -16.481)" fill="#f8cd20"/>
            <path id="Trazado_872920" data-name="Trazado 872920" d="M115.813,33.371a1.456,1.456,0,1,0,1.456-1.456,1.456,1.456,0,0,0-1.456,1.456" transform="translate(-101.811 -16.481)" fill="#f8cd20"/>
            <path id="Trazado_872921" data-name="Trazado 872921" d="M144.767,33.371a1.456,1.456,0,1,0,1.456-1.456,1.456,1.456,0,0,0-1.456,1.456" transform="translate(-144.767 -16.481)" fill="#f8cd20"/>
            <path id="Trazado_872922" data-name="Trazado 872922" d="M0,65.286A1.456,1.456,0,1,0,1.456,63.83,1.456,1.456,0,0,0,0,65.286" transform="translate(70.01 -32.961)" fill="#f8cd20"/>
            <path id="Trazado_872923" data-name="Trazado 872923" d="M28.954,65.286A1.456,1.456,0,1,0,30.41,63.83a1.456,1.456,0,0,0-1.456,1.456" transform="translate(27.054 -32.961)" fill="#f8cd20"/>
            <path id="Trazado_872924" data-name="Trazado 872924" d="M57.907,65.286a1.456,1.456,0,1,0,1.456-1.456,1.456,1.456,0,0,0-1.456,1.456" transform="translate(-15.901 -32.961)" fill="#f8cd20"/>
            <path id="Trazado_872925" data-name="Trazado 872925" d="M86.86,65.286a1.456,1.456,0,1,0,1.456-1.456,1.456,1.456,0,0,0-1.456,1.456" transform="translate(-58.856 -32.961)" fill="#f8cd20"/>
            <path id="Trazado_872926" data-name="Trazado 872926" d="M115.813,65.286a1.456,1.456,0,1,0,1.456-1.456,1.456,1.456,0,0,0-1.456,1.456" transform="translate(-101.811 -32.961)" fill="#f8cd20"/>
            <path id="Trazado_872927" data-name="Trazado 872927" d="M144.767,65.286a1.456,1.456,0,1,0,1.456-1.456,1.456,1.456,0,0,0-1.456,1.456" transform="translate(-144.767 -32.961)" fill="#f8cd20"/>
            <path id="Trazado_872928" data-name="Trazado 872928" d="M0,97.2a1.456,1.456,0,1,0,1.456-1.456A1.456,1.456,0,0,0,0,97.2" transform="translate(70.01 -49.442)" fill="#f8cd20"/>
            <path id="Trazado_872929" data-name="Trazado 872929" d="M28.954,97.2a1.456,1.456,0,1,0,1.456-1.456A1.456,1.456,0,0,0,28.954,97.2" transform="translate(27.054 -49.442)" fill="#f8cd20"/>
            <path id="Trazado_872930" data-name="Trazado 872930" d="M57.907,97.2a1.456,1.456,0,1,0,1.456-1.456A1.456,1.456,0,0,0,57.907,97.2" transform="translate(-15.901 -49.442)" fill="#f8cd20"/>
            <path id="Trazado_872931" data-name="Trazado 872931" d="M86.86,97.2a1.456,1.456,0,1,0,1.456-1.456A1.456,1.456,0,0,0,86.86,97.2" transform="translate(-58.856 -49.442)" fill="#f8cd20"/>
            <path id="Trazado_872932" data-name="Trazado 872932" d="M115.813,97.2a1.456,1.456,0,1,0,1.456-1.456,1.456,1.456,0,0,0-1.456,1.456" transform="translate(-101.811 -49.442)" fill="#f8cd20"/>
            <path id="Trazado_872933" data-name="Trazado 872933" d="M144.767,97.2a1.456,1.456,0,1,0,1.456-1.456,1.456,1.456,0,0,0-1.456,1.456" transform="translate(-144.767 -49.442)" fill="#f8cd20"/>
            <path id="Trazado_872934" data-name="Trazado 872934" d="M0,129.116a1.456,1.456,0,1,0,1.456-1.456A1.456,1.456,0,0,0,0,129.116" transform="translate(70.01 -65.923)" fill="#f8cd20"/>
            <path id="Trazado_872935" data-name="Trazado 872935" d="M28.954,129.116a1.456,1.456,0,1,0,1.456-1.456,1.456,1.456,0,0,0-1.456,1.456" transform="translate(27.054 -65.923)" fill="#f8cd20"/>
            <path id="Trazado_872936" data-name="Trazado 872936" d="M57.907,129.116a1.456,1.456,0,1,0,1.456-1.456,1.456,1.456,0,0,0-1.456,1.456" transform="translate(-15.901 -65.923)" fill="#f8cd20"/>
            <path id="Trazado_872937" data-name="Trazado 872937" d="M86.86,129.116a1.456,1.456,0,1,0,1.456-1.456,1.456,1.456,0,0,0-1.456,1.456" transform="translate(-58.856 -65.923)" fill="#f8cd20"/>
            <path id="Trazado_872938" data-name="Trazado 872938" d="M115.813,129.116a1.456,1.456,0,1,0,1.456-1.456,1.456,1.456,0,0,0-1.456,1.456" transform="translate(-101.811 -65.923)" fill="#f8cd20"/>
            <path id="Trazado_872939" data-name="Trazado 872939" d="M144.767,129.116a1.456,1.456,0,1,0,1.456-1.456,1.456,1.456,0,0,0-1.456,1.456" transform="translate(-144.767 -65.923)" fill="#f8cd20"/>
          </g>
        </g>
      </g>
      <g id="Enmascarar_grupo_1098792" data-name="Enmascarar grupo 1098792" clip-path="url(#clip-path-2)">
        <g id="tecnologia" transform="translate(409.949 5849)">
          <g id="Grupo_1101664" data-name="Grupo 1101664">
            <g id="Grupo_1101653" data-name="Grupo 1101653">
              <path id="Trazado_891271" data-name="Trazado 891271" d="M125.806,2.419V21.774H101.613V2.419Z" fill="#f0d0b4"/>
            </g>
            <g id="Grupo_1101654" data-name="Grupo 1101654">
              <path id="Trazado_891272" data-name="Trazado 891272" d="M48.387,2.419V21.774H24.194V2.419Z" fill="#f0d0b4"/>
            </g>
            <g id="Grupo_1101655" data-name="Grupo 1101655">
              <path id="Trazado_891273" data-name="Trazado 891273" d="M87.1,2.419V21.774H62.9V2.419Z" fill="#f0d0b4"/>
            </g>
            <g id="Grupo_1101656" data-name="Grupo 1101656">
              <path id="Trazado_891274" data-name="Trazado 891274" d="M137.9,128.226H12.1V45.968a9.678,9.678,0,0,1,9.677-9.677H128.226a9.678,9.678,0,0,1,9.677,9.677Z" fill="#ccd1d9"/>
            </g>
            <g id="Grupo_1101657" data-name="Grupo 1101657">
              <path id="Trazado_891275" data-name="Trazado 891275" d="M125.806,118.548H24.194a2.42,2.42,0,0,1-2.419-2.419V48.387a2.42,2.42,0,0,1,2.419-2.419H125.806a2.42,2.42,0,0,1,2.419,2.419v67.742A2.42,2.42,0,0,1,125.806,118.548Z" fill="#69d6f4"/>
            </g>
            <g id="Grupo_1101658" data-name="Grupo 1101658">
              <path id="Trazado_891276" data-name="Trazado 891276" d="M142.742,128.226H7.258a4.731,4.731,0,0,0-3.411,1.427,4.731,4.731,0,0,0-1.427,3.411A14.528,14.528,0,0,0,16.935,147.58H133.064a14.538,14.538,0,0,0,14.516-14.516,4.853,4.853,0,0,0-4.839-4.839Z" fill="#969faa"/>
            </g>
            <g id="Grupo_1101659" data-name="Grupo 1101659">
              <path id="Trazado_891277" data-name="Trazado 891277" d="M123.387,137.9h9.677v9.677h-9.677Z" fill="#ff826e"/>
            </g>
            <g id="Grupo_1101660" data-name="Grupo 1101660">
              <path id="Trazado_891278" data-name="Trazado 891278" d="M104.032,137.9h9.677v9.677h-9.677Z" fill="#ff826e"/>
            </g>
            <g id="Grupo_1101661" data-name="Grupo 1101661">
              <path id="Trazado_891279" data-name="Trazado 891279" d="M91.935,128.226v4.839A4.853,4.853,0,0,1,87.1,137.9H62.9a4.853,4.853,0,0,1-4.839-4.839v-4.839Z" fill="#ff826e"/>
            </g>
            <g id="Grupo_1101662" data-name="Grupo 1101662">
              <path id="Trazado_891280" data-name="Trazado 891280" d="M113.71,104.032v14.516H98.1v-.073a24.195,24.195,0,1,0-47.3-7.185,23.971,23.971,0,0,0,1.113,7.258H36.29V104.032l6.145-1.96a35.151,35.151,0,0,1,3-7.306l-2.952-5.71L52.766,78.774l5.71,2.952a35.151,35.151,0,0,1,7.306-3l1.96-6.145H82.258l1.96,6.145a35.151,35.151,0,0,1,7.306,3l5.71-2.952,10.282,10.282-2.952,5.71a35.151,35.151,0,0,1,3,7.306Z" fill="#ffc729"/>
            </g>
            <g id="Grupo_1101663" data-name="Grupo 1101663">
              <path id="Trazado_891281" data-name="Trazado 891281" d="M99.193,111.29a24.251,24.251,0,0,1-1.089,7.185v.073H81.387a9.555,9.555,0,0,0,3.29-7.258,9.677,9.677,0,1,0-19.355,0,9.555,9.555,0,0,0,3.29,7.258H51.919a24.194,24.194,0,1,1,47.274-7.258Z" fill="#fcd770"/>
            </g>
          </g>
          <g id="Grupo_1101665" data-name="Grupo 1101665">
            <path id="Trazado_891282" data-name="Trazado 891282" d="M142.742,125.806h-2.419V45.968a12.11,12.11,0,0,0-12.1-12.1h-7.258V38.71h7.258a7.267,7.267,0,0,1,7.258,7.258v79.839H14.516V45.968a7.267,7.267,0,0,1,7.258-7.258h7.258V33.871H21.774a12.11,12.11,0,0,0-12.1,12.1v79.839H7.258A7.267,7.267,0,0,0,0,133.064,16.957,16.957,0,0,0,16.935,150H133.064A16.957,16.957,0,0,0,150,133.064,7.267,7.267,0,0,0,142.742,125.806Zm-82.258,4.839H89.516v2.419a2.42,2.42,0,0,1-2.419,2.419H62.9a2.42,2.42,0,0,1-2.419-2.419Zm50.806,14.516h-4.839v-4.839h4.839Zm19.355,0h-4.839v-4.839h4.839Zm4.839-.244v-9.433H120.968v9.677h-4.839v-9.677H101.613v9.677H16.935a12.11,12.11,0,0,1-12.1-12.1,2.42,2.42,0,0,1,2.419-2.419H55.645v2.419a7.267,7.267,0,0,0,7.258,7.258H87.1a7.267,7.267,0,0,0,7.258-7.258v-2.419h48.387a2.42,2.42,0,0,1,2.419,2.419,12.119,12.119,0,0,1-9.677,11.852Z"/>
            <path id="Trazado_891283" data-name="Trazado 891283" d="M53.226,48.387V43.548H24.194a4.844,4.844,0,0,0-4.839,4.839v67.742a4.844,4.844,0,0,0,4.839,4.839H125.806a4.844,4.844,0,0,0,4.839-4.839V48.387a4.844,4.844,0,0,0-4.839-4.839H96.774v4.839h29.032v67.742h-9.677v-13.86l-6.615-2.119a36.436,36.436,0,0,0-2.223-5.393l3.174-6.167L97.705,75.83,91.539,79a36.544,36.544,0,0,0-5.393-2.223l-2.124-6.619H65.976l-2.119,6.615A36.436,36.436,0,0,0,58.464,79L52.3,75.825l-12.76,12.76,3.174,6.167a36.545,36.545,0,0,0-2.223,5.393l-6.617,2.124v13.86H24.194V48.387Zm0,62.9a21.776,21.776,0,1,1,42.946,4.839H86.078a12.1,12.1,0,1,0-22.156,0H53.831A21.79,21.79,0,0,1,53.226,111.29Zm14.516,0a7.258,7.258,0,1,1,12.61,4.839H69.646a7.234,7.234,0,0,1-1.9-4.839ZM38.71,105.8l5.7-1.824.353-1.251a31.185,31.185,0,0,1,2.79-6.767l.634-1.135-2.734-5.308,7.771-7.771,5.308,2.734,1.135-.634a31.185,31.185,0,0,1,6.767-2.79l1.251-.353L69.506,75H80.492l1.824,5.7,1.251.353a31.186,31.186,0,0,1,6.767,2.79l1.135.634,5.308-2.734,7.771,7.771-2.734,5.308.634,1.135a31.185,31.185,0,0,1,2.79,6.767l.353,1.251,5.7,1.822v10.333H101.156a26.613,26.613,0,1,0-52.311,0H38.71Z"/>
            <path id="Trazado_891284" data-name="Trazado 891284" d="M31.452,9.677h9.677v4.839H31.452Z"/>
            <path id="Trazado_891285" data-name="Trazado 891285" d="M70.161,9.677h9.677v4.839H70.161Z"/>
            <path id="Trazado_891286" data-name="Trazado 891286" d="M108.871,9.677h9.677v4.839h-9.677Z"/>
            <path id="Trazado_891287" data-name="Trazado 891287" d="M72.581,65.322h4.839V24.194h12.1V0H60.484V24.194h12.1ZM65.322,4.839H84.677V19.355H65.322Z"/>
            <path id="Trazado_891288" data-name="Trazado 891288" d="M111.29,33.871H87.1V65.322h4.839V38.71h24.194V24.194h12.1V0H99.193V24.194h12.1ZM104.032,4.839h19.355V19.355H104.032Z"/>
            <path id="Trazado_891289" data-name="Trazado 891289" d="M33.871,38.71H58.064V65.322H62.9V33.871H38.71V24.194h12.1V0H21.774V24.194h12.1ZM26.613,4.839H45.968V19.355H26.613Z"/>
          </g>
        </g>
      </g>
    </g>
  </g>
</svg>
