<svg xmlns="http://www.w3.org/2000/svg" xmlns:xlink="http://www.w3.org/1999/xlink" width="275.051" height="159.368" viewBox="0 0 275.051 159.368">
  <defs>
    <clipPath id="clip-path">
      <rect id="Rect치ngulo_400902" data-name="Rect치ngulo 400902" width="72.922" height="64.648" fill="#f8cd20"/>
    </clipPath>
    <clipPath id="clip-path-2">
      <rect id="Rect치ngulo_401794" data-name="Rect치ngulo 401794" width="150" height="150" transform="translate(409.949 5849)" fill="#fff" stroke="#707070" stroke-width="1"/>
    </clipPath>
  </defs>
  <g id="Grupo_1102067" data-name="Grupo 1102067" transform="translate(-4883.01 9064.466)">
    <g id="Grupo_1101647" data-name="Grupo 1101647" transform="translate(4473.061 -14905.466)">
      <path id="_119740" data-name="119740" d="M27.59,154.369l-.271-.094H14.7A14.7,14.7,0,0,1,0,139.572V109.006A14.719,14.719,0,0,1,5.827,97.184c4-2.987,8.178-8.044,5.646-15.3C7.07,69.256,9.16,58.243,18.655,50.52s16.859-15.9,7.3-25.855q-.256-.267-.495-.537C17.2,14.772,24.17,0,36.65,0H168.526l-.007.025a77.137,77.137,0,0,1-1.934,154.25c-.347,0-.692-.011-1.037-.016l-.008.016Z" transform="translate(441.277 5841)" fill="#38b449"/>
      <g id="Grupo_1101577" data-name="Grupo 1101577" transform="translate(551.925 5935.72)">
        <g id="Grupo_1098724" data-name="Grupo 1098724" transform="translate(0 0)">
          <g id="Grupo_1098723" data-name="Grupo 1098723" clip-path="url(#clip-path)">
            <path id="Trazado_872910" data-name="Trazado 872910" d="M0,1.456A1.456,1.456,0,1,0,1.456,0,1.456,1.456,0,0,0,0,1.456" transform="translate(70.01)" fill="#f8cd20"/>
            <path id="Trazado_872911" data-name="Trazado 872911" d="M28.954,1.456A1.456,1.456,0,1,0,30.41,0a1.456,1.456,0,0,0-1.456,1.456" transform="translate(27.054)" fill="#f8cd20"/>
            <path id="Trazado_872912" data-name="Trazado 872912" d="M57.907,1.456A1.456,1.456,0,1,0,59.363,0a1.456,1.456,0,0,0-1.456,1.456" transform="translate(-15.901)" fill="#f8cd20"/>
            <path id="Trazado_872913" data-name="Trazado 872913" d="M86.86,1.456A1.456,1.456,0,1,0,88.316,0,1.456,1.456,0,0,0,86.86,1.456" transform="translate(-58.856)" fill="#f8cd20"/>
            <path id="Trazado_872914" data-name="Trazado 872914" d="M115.813,1.456A1.456,1.456,0,1,0,117.269,0a1.456,1.456,0,0,0-1.456,1.456" transform="translate(-101.811)" fill="#f8cd20"/>
            <path id="Trazado_872915" data-name="Trazado 872915" d="M144.767,1.456A1.456,1.456,0,1,0,146.223,0a1.456,1.456,0,0,0-1.456,1.456" transform="translate(-144.767)" fill="#f8cd20"/>
            <path id="Trazado_872916" data-name="Trazado 872916" d="M0,33.371a1.456,1.456,0,1,0,1.456-1.456A1.456,1.456,0,0,0,0,33.371" transform="translate(70.01 -16.481)" fill="#f8cd20"/>
            <path id="Trazado_872917" data-name="Trazado 872917" d="M28.954,33.371a1.456,1.456,0,1,0,1.456-1.456,1.456,1.456,0,0,0-1.456,1.456" transform="translate(27.054 -16.481)" fill="#f8cd20"/>
            <path id="Trazado_872918" data-name="Trazado 872918" d="M57.907,33.371a1.456,1.456,0,1,0,1.456-1.456,1.456,1.456,0,0,0-1.456,1.456" transform="translate(-15.901 -16.481)" fill="#f8cd20"/>
            <path id="Trazado_872919" data-name="Trazado 872919" d="M86.86,33.371a1.456,1.456,0,1,0,1.456-1.456,1.456,1.456,0,0,0-1.456,1.456" transform="translate(-58.856 -16.481)" fill="#f8cd20"/>
            <path id="Trazado_872920" data-name="Trazado 872920" d="M115.813,33.371a1.456,1.456,0,1,0,1.456-1.456,1.456,1.456,0,0,0-1.456,1.456" transform="translate(-101.811 -16.481)" fill="#f8cd20"/>
            <path id="Trazado_872921" data-name="Trazado 872921" d="M144.767,33.371a1.456,1.456,0,1,0,1.456-1.456,1.456,1.456,0,0,0-1.456,1.456" transform="translate(-144.767 -16.481)" fill="#f8cd20"/>
            <path id="Trazado_872922" data-name="Trazado 872922" d="M0,65.286A1.456,1.456,0,1,0,1.456,63.83,1.456,1.456,0,0,0,0,65.286" transform="translate(70.01 -32.961)" fill="#f8cd20"/>
            <path id="Trazado_872923" data-name="Trazado 872923" d="M28.954,65.286A1.456,1.456,0,1,0,30.41,63.83a1.456,1.456,0,0,0-1.456,1.456" transform="translate(27.054 -32.961)" fill="#f8cd20"/>
            <path id="Trazado_872924" data-name="Trazado 872924" d="M57.907,65.286a1.456,1.456,0,1,0,1.456-1.456,1.456,1.456,0,0,0-1.456,1.456" transform="translate(-15.901 -32.961)" fill="#f8cd20"/>
            <path id="Trazado_872925" data-name="Trazado 872925" d="M86.86,65.286a1.456,1.456,0,1,0,1.456-1.456,1.456,1.456,0,0,0-1.456,1.456" transform="translate(-58.856 -32.961)" fill="#f8cd20"/>
            <path id="Trazado_872926" data-name="Trazado 872926" d="M115.813,65.286a1.456,1.456,0,1,0,1.456-1.456,1.456,1.456,0,0,0-1.456,1.456" transform="translate(-101.811 -32.961)" fill="#f8cd20"/>
            <path id="Trazado_872927" data-name="Trazado 872927" d="M144.767,65.286a1.456,1.456,0,1,0,1.456-1.456,1.456,1.456,0,0,0-1.456,1.456" transform="translate(-144.767 -32.961)" fill="#f8cd20"/>
            <path id="Trazado_872928" data-name="Trazado 872928" d="M0,97.2a1.456,1.456,0,1,0,1.456-1.456A1.456,1.456,0,0,0,0,97.2" transform="translate(70.01 -49.442)" fill="#f8cd20"/>
            <path id="Trazado_872929" data-name="Trazado 872929" d="M28.954,97.2a1.456,1.456,0,1,0,1.456-1.456A1.456,1.456,0,0,0,28.954,97.2" transform="translate(27.054 -49.442)" fill="#f8cd20"/>
            <path id="Trazado_872930" data-name="Trazado 872930" d="M57.907,97.2a1.456,1.456,0,1,0,1.456-1.456A1.456,1.456,0,0,0,57.907,97.2" transform="translate(-15.901 -49.442)" fill="#f8cd20"/>
            <path id="Trazado_872931" data-name="Trazado 872931" d="M86.86,97.2a1.456,1.456,0,1,0,1.456-1.456A1.456,1.456,0,0,0,86.86,97.2" transform="translate(-58.856 -49.442)" fill="#f8cd20"/>
            <path id="Trazado_872932" data-name="Trazado 872932" d="M115.813,97.2a1.456,1.456,0,1,0,1.456-1.456,1.456,1.456,0,0,0-1.456,1.456" transform="translate(-101.811 -49.442)" fill="#f8cd20"/>
            <path id="Trazado_872933" data-name="Trazado 872933" d="M144.767,97.2a1.456,1.456,0,1,0,1.456-1.456,1.456,1.456,0,0,0-1.456,1.456" transform="translate(-144.767 -49.442)" fill="#f8cd20"/>
            <path id="Trazado_872934" data-name="Trazado 872934" d="M0,129.116a1.456,1.456,0,1,0,1.456-1.456A1.456,1.456,0,0,0,0,129.116" transform="translate(70.01 -65.923)" fill="#f8cd20"/>
            <path id="Trazado_872935" data-name="Trazado 872935" d="M28.954,129.116a1.456,1.456,0,1,0,1.456-1.456,1.456,1.456,0,0,0-1.456,1.456" transform="translate(27.054 -65.923)" fill="#f8cd20"/>
            <path id="Trazado_872936" data-name="Trazado 872936" d="M57.907,129.116a1.456,1.456,0,1,0,1.456-1.456,1.456,1.456,0,0,0-1.456,1.456" transform="translate(-15.901 -65.923)" fill="#f8cd20"/>
            <path id="Trazado_872937" data-name="Trazado 872937" d="M86.86,129.116a1.456,1.456,0,1,0,1.456-1.456,1.456,1.456,0,0,0-1.456,1.456" transform="translate(-58.856 -65.923)" fill="#f8cd20"/>
            <path id="Trazado_872938" data-name="Trazado 872938" d="M115.813,129.116a1.456,1.456,0,1,0,1.456-1.456,1.456,1.456,0,0,0-1.456,1.456" transform="translate(-101.811 -65.923)" fill="#f8cd20"/>
            <path id="Trazado_872939" data-name="Trazado 872939" d="M144.767,129.116a1.456,1.456,0,1,0,1.456-1.456,1.456,1.456,0,0,0-1.456,1.456" transform="translate(-144.767 -65.923)" fill="#f8cd20"/>
          </g>
        </g>
      </g>
      <g id="Enmascarar_grupo_1098794" data-name="Enmascarar grupo 1098794" clip-path="url(#clip-path-2)">
        <g id="infraestructura" transform="translate(408.352 5847.402)">
          <path id="Trazado_891301" data-name="Trazado 891301" d="M89.5,22.341v18.01a1.345,1.345,0,0,1-1.341,1.341H65.031a1.345,1.345,0,0,1-1.341-1.341V22.341Z" fill="#eee"/>
          <path id="Trazado_891302" data-name="Trazado 891302" d="M63.69,22.341H89.505v4.693H63.69Z" fill="#aeaeae"/>
          <path id="Trazado_891303" data-name="Trazado 891303" d="M95.569,22.341H57.626a.671.671,0,0,1-.419-1.194L76.178,5.934a.671.671,0,0,1,.839,0L95.989,21.147A.671.671,0,0,1,95.569,22.341Z" fill="#fb5c3c"/>
          <path id="Trazado_891304" data-name="Trazado 891304" d="M71.957,31.419h9.281V41.692H71.957Z" fill="#aeaeae"/>
          <path id="Trazado_891305" data-name="Trazado 891305" d="M35.647,23.289V41.3a1.345,1.345,0,0,1-1.341,1.341H11.174A1.345,1.345,0,0,1,9.833,41.3V23.289Z" fill="#eee"/>
          <path id="Trazado_891306" data-name="Trazado 891306" d="M9.833,23.289H35.648v4.693H9.833Z" fill="#aeaeae"/>
          <path id="Trazado_891307" data-name="Trazado 891307" d="M41.712,23.289H3.768A.671.671,0,0,1,3.349,22.1L22.32,6.882a.671.671,0,0,1,.839,0L42.131,22.1a.671.671,0,0,1-.419,1.194Z" fill="#fb5c3c"/>
          <path id="Trazado_891308" data-name="Trazado 891308" d="M18.1,32.367h9.281V42.64H18.1Z" fill="#aeaeae"/>
          <path id="Trazado_891309" data-name="Trazado 891309" d="M143.362,23.289V41.3a1.345,1.345,0,0,1-1.341,1.341H118.888a1.345,1.345,0,0,1-1.341-1.341V23.289Z" fill="#eee"/>
          <path id="Trazado_891310" data-name="Trazado 891310" d="M117.548,23.289h25.815v4.693H117.548Z" fill="#aeaeae"/>
          <path id="Trazado_891311" data-name="Trazado 891311" d="M149.427,23.289H111.483a.671.671,0,0,1-.419-1.194L130.035,6.882a.671.671,0,0,1,.839,0L149.846,22.1A.67.67,0,0,1,149.427,23.289Z" fill="#fb5c3c"/>
          <path id="Trazado_891312" data-name="Trazado 891312" d="M125.814,32.367H135.1V42.64h-9.281Z" fill="#aeaeae"/>
          <path id="Trazado_891313" data-name="Trazado 891313" d="M35.647,75.494V93.5a1.345,1.345,0,0,1-1.341,1.341H11.174A1.345,1.345,0,0,1,9.833,93.5V75.494Z" fill="#eee"/>
          <path id="Trazado_891314" data-name="Trazado 891314" d="M9.833,75.494H35.648v4.693H9.833Z" fill="#aeaeae"/>
          <path id="Trazado_891315" data-name="Trazado 891315" d="M41.712,75.494H3.768A.671.671,0,0,1,3.349,74.3L22.32,59.087a.671.671,0,0,1,.839,0L42.131,74.3a.671.671,0,0,1-.419,1.194Z" fill="#fb5c3c"/>
          <path id="Trazado_891316" data-name="Trazado 891316" d="M18.1,84.572h9.281V94.845H18.1Z" fill="#aeaeae"/>
          <path id="Trazado_891317" data-name="Trazado 891317" d="M143.362,75.494V93.5a1.345,1.345,0,0,1-1.341,1.341H118.888a1.345,1.345,0,0,1-1.341-1.341V75.494Z" fill="#eee"/>
          <path id="Trazado_891318" data-name="Trazado 891318" d="M117.548,75.494h25.815v4.693H117.548Z" fill="#aeaeae"/>
          <path id="Trazado_891319" data-name="Trazado 891319" d="M149.427,75.494H111.483a.671.671,0,0,1-.419-1.194l18.972-15.213a.671.671,0,0,1,.839,0L149.846,74.3A.67.67,0,0,1,149.427,75.494Z" fill="#fb5c3c"/>
          <path id="Trazado_891320" data-name="Trazado 891320" d="M125.814,84.572H135.1V94.845h-9.281Z" fill="#aeaeae"/>
          <path id="Trazado_891321" data-name="Trazado 891321" d="M35.647,128.057v18.01a1.345,1.345,0,0,1-1.341,1.341H11.174a1.345,1.345,0,0,1-1.341-1.341v-18.01Z" fill="#eee"/>
          <path id="Trazado_891322" data-name="Trazado 891322" d="M9.833,128.057H35.648v4.693H9.833Z" fill="#aeaeae"/>
          <path id="Trazado_891323" data-name="Trazado 891323" d="M41.712,128.057H3.768a.671.671,0,0,1-.419-1.194L22.32,111.65a.671.671,0,0,1,.839,0l18.972,15.213a.671.671,0,0,1-.419,1.194Z" fill="#fb5c3c"/>
          <path id="Trazado_891324" data-name="Trazado 891324" d="M18.1,137.135h9.281v10.273H18.1Z" fill="#aeaeae"/>
          <path id="Trazado_891325" data-name="Trazado 891325" d="M89.5,128.057v18.01a1.345,1.345,0,0,1-1.341,1.341H65.031a1.345,1.345,0,0,1-1.341-1.341v-18.01Z" fill="#eee"/>
          <path id="Trazado_891326" data-name="Trazado 891326" d="M63.69,128.057H89.505v4.693H63.69Z" fill="#aeaeae"/>
          <path id="Trazado_891327" data-name="Trazado 891327" d="M95.569,128.057H57.626a.671.671,0,0,1-.419-1.194L76.178,111.65a.671.671,0,0,1,.839,0l18.972,15.213A.671.671,0,0,1,95.569,128.057Z" fill="#fb5c3c"/>
          <path id="Trazado_891328" data-name="Trazado 891328" d="M71.957,137.135h9.281v10.273H71.957Z" fill="#aeaeae"/>
          <path id="Trazado_891329" data-name="Trazado 891329" d="M143.362,128.057v18.01a1.345,1.345,0,0,1-1.341,1.341H118.888a1.345,1.345,0,0,1-1.341-1.341v-18.01Z" fill="#eee"/>
          <path id="Trazado_891330" data-name="Trazado 891330" d="M117.548,128.057h25.815v4.693H117.548Z" fill="#aeaeae"/>
          <path id="Trazado_891331" data-name="Trazado 891331" d="M149.427,128.057H111.483a.671.671,0,0,1-.419-1.194l18.972-15.213a.671.671,0,0,1,.839,0l18.972,15.213A.67.67,0,0,1,149.427,128.057Z" fill="#fb5c3c"/>
          <path id="Trazado_891332" data-name="Trazado 891332" d="M125.814,137.135H135.1v10.273h-9.281Z" fill="#aeaeae"/>
          <circle id="Elipse_11557" data-name="Elipse 11557" cx="22.84" cy="22.84" r="22.84" transform="translate(53.758 54.053)" fill="#72c2e9"/>
          <path id="Trazado_891333" data-name="Trazado 891333" d="M85.693,74.608,73.871,92.022a1.2,1.2,0,0,1-2.14-1l3.544-12.256H68.4a1.086,1.086,0,0,1-1.041-1.388l4.65-15.906a1.092,1.092,0,0,1,1.041-.778H80a1.084,1.084,0,0,1,1.041,1.382L77.92,72.915H84.8a1.087,1.087,0,0,1,.9,1.694Z" fill="#f0c020"/>
          <path id="Trazado_891334" data-name="Trazado 891334" d="M109.332,50.053c-2.37-.783-4.818-1.468-6.192-7.387-1.266,5.453-3.294,6.43-6.192,7.387,4.728,1.562,5.441,4.149,6.192,7.387,1.3-5.583,3.439-6.477,6.192-7.387Z" fill="#f0c020"/>
          <path id="Trazado_891335" data-name="Trazado 891335" d="M101.589,57.8c-.686-2.959-1.14-4.914-5.141-6.236a1.593,1.593,0,0,1,0-3.023c2.409-.8,4-1.322,5.141-6.237a1.593,1.593,0,0,1,3.1,0c1.167,5.026,2.91,5.5,5.141,6.236a1.593,1.593,0,0,1,0,3.023c-2.322.767-4,1.322-5.141,6.236A1.592,1.592,0,0,1,101.589,57.8Zm-.91-7.711a8.263,8.263,0,0,1,2.492,2.635,7.869,7.869,0,0,1,2.354-2.656,8.118,8.118,0,0,1-2.38-2.753A7.9,7.9,0,0,1,100.68,50.09Z"/>
          <path id="Trazado_891336" data-name="Trazado 891336" d="M56.248,103.137c-2.37-.783-4.818-1.468-6.192-7.387-1.266,5.453-3.294,6.43-6.192,7.387,4.728,1.562,5.441,4.149,6.192,7.387C51.351,104.942,53.494,104.048,56.248,103.137Z" fill="#f0c020"/>
          <path id="Trazado_891337" data-name="Trazado 891337" d="M48.5,110.885c-.686-2.959-1.14-4.914-5.141-6.236a1.593,1.593,0,0,1,0-3.023c2.409-.8,4-1.322,5.141-6.237a1.593,1.593,0,0,1,3.1,0c1.167,5.026,2.91,5.5,5.141,6.236a1.593,1.593,0,0,1,0,3.023c-2.322.767-4,1.322-5.141,6.236a1.592,1.592,0,0,1-3.1,0Zm-.91-7.711a8.263,8.263,0,0,1,2.492,2.635,7.869,7.869,0,0,1,2.354-2.656,8.118,8.118,0,0,1-2.38-2.753A7.887,7.887,0,0,1,47.6,103.174Z"/>
          <path id="Trazado_891338" data-name="Trazado 891338" d="M63.621,89.87a18.5,18.5,0,0,1-1.307-1.453,1.5,1.5,0,0,1,2.328-1.88,15.2,15.2,0,0,0,1.094,1.215,1.5,1.5,0,0,1-2.115,2.117ZM59.2,82.731a18.345,18.345,0,0,1,4.42-18.815,1.5,1.5,0,1,1,2.115,2.115,15.362,15.362,0,0,0-3.7,15.752,1.5,1.5,0,0,1-2.838.948Z" fill="#c5e5fe"/>
          <path id="Trazado_891339" data-name="Trazado 891339" d="M87.458,89.869a1.5,1.5,0,0,1,0-2.115A15.362,15.362,0,0,0,91.156,72a1.5,1.5,0,1,1,2.838-.948,18.345,18.345,0,0,1-4.42,18.815,1.5,1.5,0,0,1-2.115,0Zm1.094-22.621a15.2,15.2,0,0,0-1.094-1.215,1.5,1.5,0,1,1,2.115-2.117,18.5,18.5,0,0,1,1.307,1.453,1.5,1.5,0,1,1-2.328,1.879Z" fill="#c5e5fe"/>
          <path id="Trazado_891340" data-name="Trazado 891340" d="M13.069,12.381a1.5,1.5,0,1,0,2.1.234,1.534,1.534,0,0,0-2.1-.234Z"/>
          <path id="Trazado_891341" data-name="Trazado 891341" d="M150.783,125.7l-6.523-5.23a1.5,1.5,0,0,0-1.873,2.334.006.006,0,0,1,.006.006l4.686,3.753H113.831l16.624-13.327,2.6,2.082a1.541,1.541,0,0,0,2.106-.234,1.5,1.5,0,0,0-.233-2.1l-2.974-2.386V96.339h10.071a2.859,2.859,0,0,0,2.837-2.837V76.992h4.59a2.171,2.171,0,0,0,1.334-3.86l-18.832-15.1v-13.9h10.071a2.85,2.85,0,0,0,2.837-2.836V24.786h4.59a2.174,2.174,0,0,0,1.334-3.86L131.808,5.715a2.218,2.218,0,0,0-2.711.006l-18.97,15.206a2.172,2.172,0,0,0,1.334,3.86h4.59v6.682H91V23.835h4.59a2.167,2.167,0,0,0,1.334-3.854L77.956,4.769a2.167,2.167,0,0,0-2.717,0L56.269,19.981A2.167,2.167,0,0,0,57.6,23.835h4.59v7.633H37.144V24.786h4.59a2.174,2.174,0,0,0,1.334-3.86L24.092,5.715a2.21,2.21,0,0,0-2.711.006l-3.644,2.92a1.494,1.494,0,0,0-.233,2.1,1.53,1.53,0,0,0,2.106.233l3.13-2.513L39.364,21.795H6.116l4.153-3.333a1.492,1.492,0,0,0,.233-2.1,1.534,1.534,0,0,0-2.1-.233l-5.99,4.8a2.172,2.172,0,0,0,1.334,3.86h4.59V41.3a2.85,2.85,0,0,0,2.837,2.836H21.244v13.9L2.412,73.133a2.172,2.172,0,0,0,1.334,3.86h4.59V93.5a2.858,2.858,0,0,0,2.837,2.837H21.244V110.6L2.412,125.7a2.167,2.167,0,0,0,1.34,3.854H8.336v16.516a2.855,2.855,0,0,0,2.837,2.837H34.307a2.855,2.855,0,0,0,2.837-2.837v-7.437h25.05v7.437A2.855,2.855,0,0,0,65.03,148.9H88.165A2.855,2.855,0,0,0,91,146.068v-7.437h25.05v7.437a2.855,2.855,0,0,0,2.837,2.837h23.135a2.855,2.855,0,0,0,2.837-2.837V129.552h4.584a2.167,2.167,0,0,0,1.34-3.854ZM133.6,93.347h-6.3V86.064h6.3Zm8.264,0h-5.278V84.574a1.5,1.5,0,0,0-1.49-1.5h-9.281a1.51,1.51,0,0,0-1.5,1.5v8.773h-5.272V76.992h22.824ZM147.079,74H113.831l16.624-13.333ZM133.6,41.141h-6.283V33.864H133.6Zm8.27,0h-5.272V32.368a1.5,1.5,0,0,0-1.5-1.5h-9.275a1.488,1.488,0,0,0-1.5,1.5v8.773h-5.278V24.786h22.824ZM113.831,21.794,130.455,8.462l16.624,13.333Zm2.22,12.666V41.3a2.85,2.85,0,0,0,2.837,2.837h10.071v13.9l-18.832,15.1a2.172,2.172,0,0,0,1.334,3.86h4.59v4.286H100.537a24.6,24.6,0,0,0,.4-4.388A24.32,24.32,0,0,0,78.094,52.609V43.188H88.165A2.858,2.858,0,0,0,91,40.351V34.46Zm-50.866-1.5V23.835H88.009V40.2H82.731V31.417a1.5,1.5,0,0,0-1.5-1.5H71.96a1.509,1.509,0,0,0-1.5,1.5V40.2H65.186V32.961Zm8.264-.048h6.3V40.2h-6.3ZM59.973,20.843,76.6,7.516,93.222,20.843ZM37.144,41.3V34.46h25.05v5.891a2.858,2.858,0,0,0,2.836,2.836H75.1v9.421a24.194,24.194,0,0,0-15.75,7.113,1.494,1.494,0,0,0,.006,2.118,1.535,1.535,0,0,0,2.118-.006,21.231,21.231,0,0,1,15.1-6.289l.019,0,.019,0a21.346,21.346,0,1,1-20.652,15.87,1.5,1.5,0,0,0-2.9-.767v.013a24.4,24.4,0,0,0-.409,10.618H37.144V76.992h4.59a2.171,2.171,0,0,0,1.334-3.86l-18.832-15.1v-13.9H34.307A2.85,2.85,0,0,0,37.144,41.3ZM16.606,32.368v8.773H11.328V24.786H34.152V41.141H28.874V32.368a1.488,1.488,0,0,0-1.49-1.5H18.1a1.488,1.488,0,0,0-1.49,1.5Zm2.986,8.773V33.864h6.3v7.277ZM6.116,74,22.74,60.668,39.364,74ZM16.6,84.574v8.773H11.328V76.992H34.152V93.347H28.874V84.574a1.5,1.5,0,0,0-1.49-1.5H18.1a1.51,1.51,0,0,0-1.5,1.5Zm2.992,8.773V86.064h6.289v7.283Zm6.3,52.565h-6.3V138.63h6.3Zm8.264,0H28.874v-8.779a1.5,1.5,0,0,0-1.5-1.5H18.1a1.509,1.509,0,0,0-1.5,1.5v8.779H11.328V129.552H34.152ZM6.116,126.559,22.74,113.233,39.364,126.56H6.116Zm56.078,9.08H37.144v-6.088h4.584a2.168,2.168,0,0,0,1.34-3.854L24.236,110.591V96.339H34.307A2.859,2.859,0,0,0,37.144,93.5V84.271H53.4a24.335,24.335,0,0,0,21.7,16.907V110.6L56.269,125.7a2.167,2.167,0,0,0,1.34,3.854h4.584Zm17.546,10.273H73.456V138.63h6.283Zm8.27,0H82.731v-8.779a1.5,1.5,0,0,0-1.49-1.5H71.954a1.5,1.5,0,0,0-1.49,1.5v8.779H65.186V129.552H88.009ZM59.973,126.559,76.6,113.233,93.222,126.56H59.973Zm56.078,9.08H91v-6.088h4.584a2.168,2.168,0,0,0,1.34-3.854L78.094,110.6v-9.417A24.325,24.325,0,0,0,99.8,84.271h16.254V93.5a2.858,2.858,0,0,0,2.837,2.837h10.071V110.6l-18.832,15.1a2.167,2.167,0,0,0,1.34,3.854h4.584v6.088ZM133.6,145.912h-6.3V138.63h6.3Zm8.264,0h-5.278v-8.779a1.5,1.5,0,0,0-1.5-1.5h-9.275a1.5,1.5,0,0,0-1.5,1.5v8.779h-5.278V129.552h22.824Z"/>
          <path id="Trazado_891342" data-name="Trazado 891342" d="M137.493,116.954a1.5,1.5,0,1,0,2.1-.233A1.534,1.534,0,0,0,137.493,116.954Z"/>
          <path id="Trazado_891343" data-name="Trazado 891343" d="M56.042,66.813a1.495,1.495,0,0,0,1.49-2.591,1.525,1.525,0,0,0-2.041.551,1.5,1.5,0,0,0,.551,2.04Z"/>
          <path id="Trazado_891344" data-name="Trazado 891344" d="M68.4,80.257h4.886L70.294,90.6a2.693,2.693,0,0,0,4.815,2.26L86.932,75.449l0,0A2.585,2.585,0,0,0,84.8,71.418H79.907l2.568-8.935A2.579,2.579,0,0,0,80,59.192H73.048a2.587,2.587,0,0,0-2.477,1.855L65.919,76.963a2.582,2.582,0,0,0,2.48,3.295Zm4.957-18.072h6.092L76.482,72.5a1.5,1.5,0,0,0,1.438,1.909h6.1L73.692,89.623l3.02-10.447a1.5,1.5,0,0,0-1.437-1.911H68.947Z"/>
        </g>
      </g>
    </g>
  </g>
</svg>
