<svg xmlns="http://www.w3.org/2000/svg" xmlns:xlink="http://www.w3.org/1999/xlink" width="85" height="85" viewBox="0 0 85 85">
  <defs>
    <clipPath id="clip-path">
      <rect id="Rectángulo_401665" data-name="Rectángulo 401665" width="53.617" height="53.617" transform="translate(434.466 1136.66)" fill="#fff" stroke="#707070" stroke-width="1"/>
    </clipPath>
  </defs>
  <g id="Grupo_1102061" data-name="Grupo 1102061" transform="translate(-11248 10613)">
    <g id="Grupo_1102055" data-name="Grupo 1102055" transform="translate(10829 -11734)">
      <path id="Trazado_824488" data-name="Trazado 824488" d="M42.5,0A42.5,42.5,0,1,1,0,42.5,42.5,42.5,0,0,1,42.5,0Z" transform="translate(419 1121)" fill="#f35923"/>
      <g id="Enmascarar_grupo_1098826" data-name="Enmascarar grupo 1098826" clip-path="url(#clip-path)">
        <path id="escucha" d="M52.976,2.763h-49A2.312,2.312,0,0,0,1.669,5.072v37.4a2.311,2.311,0,0,0,2.309,2.309H22.4v3.63l-2.6,1.348-.229.117c-.723.366-1.714.867-1.714,2.059a2.254,2.254,0,0,0,2.251,2.251H36.841a2.254,2.254,0,0,0,2.251-2.251c0-1.194-.991-1.694-1.715-2.059l-.229-.117-2.6-1.348v-3.63H52.976a2.311,2.311,0,0,0,2.309-2.309V5.072a2.312,2.312,0,0,0-2.309-2.309ZM3.978,4.1h49a.976.976,0,0,1,.974.974V36.652H3V5.072A.976.976,0,0,1,3.978,4.1Zm29.6,45.314,2.956,1.536c.081.042.161.083.242.123.749.378.982.547.982.868a.918.918,0,0,1-.917.917H20.114a.918.918,0,0,1-.917-.917c0-.32.232-.489.981-.868l.242-.123,2.956-1.536a.665.665,0,0,0,.359-.592V44.784h9.481V48.82a.668.668,0,0,0,.36.592Zm19.4-5.962h-49A.976.976,0,0,1,3,42.475V37.987H53.95v4.488a.976.976,0,0,1-.974.974ZM10.708,35.408h4.514a.668.668,0,0,0,.667-.667V28.4a.668.668,0,0,0-.667-.667H10.708a.668.668,0,0,0-.667.667v6.341A.668.668,0,0,0,10.708,35.408Zm.667-6.341h3.179v5.006H11.375Zm11.6-3.419H18.463a.668.668,0,0,0-.667.667v8.425a.668.668,0,0,0,.667.667h4.514a.668.668,0,0,0,.667-.667V26.316a.667.667,0,0,0-.667-.667Zm-.667,8.425H19.131v-7.09H22.31ZM30.734,22.52H26.22a.668.668,0,0,0-.667.667V34.74a.668.668,0,0,0,.667.667h4.514a.668.668,0,0,0,.667-.667V23.188a.668.668,0,0,0-.667-.667Zm-.667,11.553H26.887V23.856h3.179Zm8.423-15.9H33.975a.668.668,0,0,0-.667.667v15.9a.668.668,0,0,0,.667.667h4.514a.668.668,0,0,0,.667-.667v-15.9a.667.667,0,0,0-.667-.667Zm-.667,15.9H34.643V19.512h3.179Zm8.424-19.893H41.732a.668.668,0,0,0-.667.667V34.741a.668.668,0,0,0,.667.667h4.514a.668.668,0,0,0,.667-.667V14.848A.668.668,0,0,0,46.246,14.181Zm-.667,19.893H42.4V15.515h3.179ZM14.973,21.308a.67.67,0,0,0,.478.2h.02a.668.668,0,0,0,.486-.232l3.47-4.035A2.195,2.195,0,0,0,22,16.6l4.421,1.72c0,.046-.007.091-.007.138a2.2,2.2,0,0,0,4.405,0,2.181,2.181,0,0,0-.178-.865l4.245-4.245A2.182,2.182,0,0,0,35.9,13.6a2.2,2.2,0,0,0,2.2-2.2,2.18,2.18,0,0,0-.208-.928L39.98,8.544h7.852l-1,1.178a.667.667,0,1,0,1.016.865l1.943-2.278a.668.668,0,0,0-.062-.93L47.5,5.388a.667.667,0,0,0-.891.993l.923.826H39.722a.671.671,0,0,0-.452.176l-2.279,2.1A2.2,2.2,0,0,0,33.945,12.4l-4.178,4.178a2.193,2.193,0,0,0-2.86.494l-4.421-1.72c0-.046.007-.091.007-.138a2.2,2.2,0,1,0-4.405,0,2.18,2.18,0,0,0,.329,1.156l-2.993,3.482-3.506-3.61a.667.667,0,0,0-.957.93ZM35.9,10.523a.868.868,0,1,1-.868.868A.869.869,0,0,1,35.9,10.523Zm-7.281,7.066a.868.868,0,1,1-.868.868A.869.869,0,0,1,28.617,17.589Zm-8.328-3.24a.868.868,0,1,1-.721,1.352s0,0,0,0a.86.86,0,0,1-.146-.481A.869.869,0,0,1,20.289,14.349Z" transform="translate(432.797 1134.992)" fill="#fff"/>
      </g>
    </g>
  </g>
</svg>
