<svg xmlns="http://www.w3.org/2000/svg" xmlns:xlink="http://www.w3.org/1999/xlink" width="101.461" height="101.461" viewBox="0 0 101.461 101.461">
  <defs>
    <clipPath id="clip-path">
      <rect id="Rectángulo_401665" data-name="Rectángulo 401665" width="64" height="64" transform="translate(347.512 4043.663)" fill="#fff" stroke="#707070" stroke-width="1"/>
    </clipPath>
  </defs>
  <g id="Grupo_1102059" data-name="Grupo 1102059" transform="translate(-329.051 -3508.97)">
    <g id="Grupo_1102056" data-name="Grupo 1102056">
      <path id="Trazado_824488" data-name="Trazado 824488" d="M50.73,0A50.73,50.73,0,1,1,0,50.73,50.73,50.73,0,0,1,50.73,0Z" transform="translate(329.051 3508.97)" fill="#016835"/>
    </g>
    <g id="Enmascarar_grupo_1098803" data-name="Enmascarar grupo 1098803" transform="translate(0 -516)" clip-path="url(#clip-path)">
      <g id="consumo-de-energia_5_" data-name="consumo-de-energia (5)" transform="translate(345.447 4041.599)">
        <g id="Grupo_1101762" data-name="Grupo 1101762">
          <path id="Trazado_891475" data-name="Trazado 891475" d="M55.742,58.323H36.335a1.032,1.032,0,0,1,0-2.065H55.742a1.032,1.032,0,1,1,0,2.065Z" fill="#fff"/>
        </g>
        <g id="Grupo_1101786" data-name="Grupo 1101786">
          <g id="Grupo_1101772" data-name="Grupo 1101772">
            <g id="Grupo_1101765" data-name="Grupo 1101765">
              <g id="Grupo_1101763" data-name="Grupo 1101763">
                <path id="Trazado_891476" data-name="Trazado 891476" d="M19.406,64.619c-7.019,0-12.387-2.581-12.387-6.09v-6.3A.975.975,0,0,1,8.052,51.2a.975.975,0,0,1,1.032,1.032v6.3c0,1.858,4.439,4.026,10.323,4.026s10.323-2.168,10.323-4.026v-6.3a1.032,1.032,0,0,1,2.065,0v6.3C31.794,62.039,26.426,64.619,19.406,64.619Z" fill="#fff"/>
              </g>
              <g id="Grupo_1101764" data-name="Grupo 1101764">
                <path id="Trazado_891477" data-name="Trazado 891477" d="M19.406,58.323c-7.019,0-12.387-2.581-12.387-6.09a2.2,2.2,0,0,1,.31-1.239,1.045,1.045,0,0,1,1.961.723,1.309,1.309,0,0,0-.1.619c0,1.858,4.439,4.026,10.323,4.026s10.323-2.168,10.323-4.026c0-1.135-1.755-2.477-4.439-3.2a1.014,1.014,0,1,1,.516-1.961c3.716,1.135,5.884,2.994,5.884,5.265,0,3.3-5.368,5.884-12.387,5.884Z" fill="#fff"/>
              </g>
            </g>
            <g id="Grupo_1101768" data-name="Grupo 1101768">
              <g id="Grupo_1101766" data-name="Grupo 1101766">
                <path id="Trazado_891478" data-name="Trazado 891478" d="M14.452,53.161c-7.019,0-12.387-2.581-12.387-6.09v-6.3A.975.975,0,0,1,3.1,39.742a.975.975,0,0,1,1.032,1.032v6.3c0,1.858,4.439,4.026,10.323,4.026s10.323-2.168,10.323-4.026v-6.3a1.032,1.032,0,0,1,2.065,0v6.3C26.839,50.581,21.471,53.161,14.452,53.161Z" fill="#fff"/>
              </g>
              <g id="Grupo_1101767" data-name="Grupo 1101767">
                <path id="Trazado_891479" data-name="Trazado 891479" d="M14.348,46.761c-7.123,0-12.284-2.477-12.284-5.987,0-2.168,2.065-4.129,5.677-5.265a1.078,1.078,0,0,1,.619,2.065c-2.581.826-4.232,2.065-4.232,3.2,0,1.858,4.232,3.923,10.219,3.923,5.884,0,10.323-2.168,10.323-4.026v-.31a1.032,1.032,0,0,1,2.065,0v.31C26.735,44.181,21.368,46.761,14.348,46.761Z" fill="#fff"/>
              </g>
            </g>
            <g id="Grupo_1101771" data-name="Grupo 1101771">
              <g id="Grupo_1101769" data-name="Grupo 1101769">
                <path id="Trazado_891480" data-name="Trazado 891480" d="M19.406,42.219c-7.019,0-12.387-2.581-12.387-6.09v-6.3A.975.975,0,0,1,8.052,28.8a.975.975,0,0,1,1.032,1.032v6.3c0,1.858,4.439,4.026,10.323,4.026s10.323-2.168,10.323-4.026v-6.3a1.032,1.032,0,0,1,2.065,0v6.3C31.794,39.639,26.426,42.219,19.406,42.219Z" fill="#fff"/>
              </g>
              <g id="Grupo_1101770" data-name="Grupo 1101770">
                <path id="Trazado_891481" data-name="Trazado 891481" d="M19.406,35.923c-7.019,0-12.387-2.581-12.387-6.09s5.368-6.09,12.387-6.09,12.387,2.581,12.387,6.09S26.426,35.923,19.406,35.923Zm0-10.116c-5.884,0-10.323,2.168-10.323,4.026s4.439,4.026,10.323,4.026,10.323-2.168,10.323-4.026S25.29,25.806,19.406,25.806Z" fill="#fff"/>
              </g>
            </g>
          </g>
          <g id="Grupo_1101778" data-name="Grupo 1101778">
            <g id="Grupo_1101773" data-name="Grupo 1101773">
              <path id="Trazado_891482" data-name="Trazado 891482" d="M16.206,14.555a3.516,3.516,0,0,1,0-7.019,3.512,3.512,0,0,1,3.3,3.51,1.032,1.032,0,1,1-2.065,0A1.457,1.457,0,0,0,16.206,9.6a1.462,1.462,0,0,0,0,2.89,1.032,1.032,0,1,1,0,2.065Z" fill="#fff"/>
            </g>
            <g id="Grupo_1101774" data-name="Grupo 1101774">
              <path id="Trazado_891483" data-name="Trazado 891483" d="M16.206,19.51A3.512,3.512,0,0,1,12.9,16a1.032,1.032,0,1,1,2.065,0,1.457,1.457,0,0,0,1.239,1.445,1.462,1.462,0,0,0,0-2.89,1.032,1.032,0,1,1,0-2.065,3.516,3.516,0,0,1,0,7.019Z" fill="#fff"/>
            </g>
            <g id="Grupo_1101775" data-name="Grupo 1101775">
              <path id="Trazado_891484" data-name="Trazado 891484" d="M16.206,9.7a.975.975,0,0,1-1.032-1.032V7.019a1.032,1.032,0,0,1,2.065,0V8.671A.975.975,0,0,1,16.206,9.7Z" fill="#fff"/>
            </g>
            <g id="Grupo_1101776" data-name="Grupo 1101776">
              <path id="Trazado_891485" data-name="Trazado 891485" d="M16.206,20.852a.975.975,0,0,1-1.032-1.032V18.477a1.032,1.032,0,1,1,2.065,0v1.342A.975.975,0,0,1,16.206,20.852Z" fill="#fff"/>
            </g>
            <g id="Grupo_1101777" data-name="Grupo 1101777">
              <path id="Trazado_891486" data-name="Trazado 891486" d="M16.206,23.329a9.91,9.91,0,1,1,9.91-9.91,9.912,9.912,0,0,1-9.91,9.91Zm0-17.755a7.845,7.845,0,1,0,7.845,7.845,7.842,7.842,0,0,0-7.845-7.845Z" fill="#fff"/>
            </g>
          </g>
          <g id="Grupo_1101779" data-name="Grupo 1101779">
            <path id="Trazado_891487" data-name="Trazado 891487" d="M53.987,62.865H38.194a.975.975,0,0,1-1.032-1.032V52.439A19.9,19.9,0,0,1,26.839,40.361a1.014,1.014,0,0,1,1.961-.516,17.779,17.779,0,0,0,9.806,11.148.992.992,0,0,1,.619.929V60.9H52.955V51.923a.992.992,0,0,1,.619-.929A18.2,18.2,0,0,0,64,34.581a17.978,17.978,0,0,0-34.477-7.226,1.017,1.017,0,1,1-1.858-.826,20.022,20.022,0,0,1,38.4,7.948A20.1,20.1,0,0,1,55.019,52.439v9.394A.975.975,0,0,1,53.987,62.865Z" fill="#fff"/>
          </g>
          <g id="Grupo_1101782" data-name="Grupo 1101782">
            <g id="Grupo_1101780" data-name="Grupo 1101780">
              <path id="Trazado_891488" data-name="Trazado 891488" d="M43.148,58.323a.975.975,0,0,1-1.032-1.032V31.484a1.032,1.032,0,1,1,2.065,0V57.29A.975.975,0,0,1,43.148,58.323Z" fill="#fff"/>
            </g>
            <g id="Grupo_1101781" data-name="Grupo 1101781">
              <path id="Trazado_891489" data-name="Trazado 891489" d="M49.755,58.323a.975.975,0,0,1-1.032-1.032V31.484a1.032,1.032,0,0,1,2.065,0V57.29A.975.975,0,0,1,49.755,58.323Z" fill="#fff"/>
            </g>
          </g>
          <g id="Grupo_1101783" data-name="Grupo 1101783">
            <path id="Trazado_891490" data-name="Trazado 891490" d="M36.748,32.516a1.115,1.115,0,0,1-.723-.31,1,1,0,0,1,0-1.445l3.1-3.3a1,1,0,0,1,1.445,0l2.581,2.581,2.581-2.581a1,1,0,0,1,1.445,0l2.581,2.581,2.271-2.477a1,1,0,0,1,1.445,0l3.3,3.3a1.022,1.022,0,1,1-1.445,1.445l-2.581-2.581-2.271,2.477a1,1,0,0,1-1.445,0l-2.581-2.581-2.581,2.581a1,1,0,0,1-1.445,0l-2.581-2.581L37.471,32.1A.779.779,0,0,1,36.748,32.516Z" fill="#fff"/>
          </g>
          <g id="Grupo_1101784" data-name="Grupo 1101784">
            <path id="Trazado_891491" data-name="Trazado 891491" d="M43.148,21.677a1.107,1.107,0,0,1-.619-.206l-9.6-8.052-3.51,5.265a1.045,1.045,0,1,1-1.755-1.135l4.129-6.194a1.045,1.045,0,0,1,.723-.413,1.112,1.112,0,0,1,.826.206l9.7,8.155L57.6,6.3a1.024,1.024,0,1,1,1.342,1.548L43.871,21.368a1.115,1.115,0,0,1-.723.31Z" fill="#fff"/>
          </g>
          <g id="Grupo_1101785" data-name="Grupo 1101785">
            <path id="Trazado_891492" data-name="Trazado 891492" d="M58.323,12.8a.975.975,0,0,1-1.032-1.032V8.052H53.471a.975.975,0,0,1-1.032-1.032.975.975,0,0,1,1.032-1.032h4.852a.975.975,0,0,1,1.032,1.032v4.748A.975.975,0,0,1,58.323,12.8Z" fill="#fff"/>
          </g>
        </g>
      </g>
    </g>
  </g>
</svg>
