<svg xmlns="http://www.w3.org/2000/svg" xmlns:xlink="http://www.w3.org/1999/xlink" width="85" height="85" viewBox="0 0 85 85">
  <defs>
    <clipPath id="clip-path">
      <rect id="Rectángulo_401665" data-name="Rectángulo 401665" width="53.617" height="53.617" transform="translate(434.466 1136.66)" fill="#fff" stroke="#707070" stroke-width="1"/>
    </clipPath>
  </defs>
  <g id="Grupo_1102062" data-name="Grupo 1102062" transform="translate(-11516 10613)">
    <g id="Grupo_1102057" data-name="Grupo 1102057" transform="translate(11097 -11734)">
      <path id="Trazado_824488" data-name="Trazado 824488" d="M42.5,0A42.5,42.5,0,1,1,0,42.5,42.5,42.5,0,0,1,42.5,0Z" transform="translate(419 1121)" fill="#f35923"/>
      <g id="Enmascarar_grupo_1098827" data-name="Enmascarar grupo 1098827" clip-path="url(#clip-path)">
        <path id="iteracion" d="M50.933,39.174H40.809a2.162,2.162,0,0,0-2.159,2.159v4.224H33.358V43.323a2.635,2.635,0,0,0-2.632-2.632H10.116a2.635,2.635,0,0,0-2.632,2.632v2.234H4.565A2.368,2.368,0,0,1,2.2,43.192V34.751a4.506,4.506,0,0,1,4.5-4.5H13.65l-.933,3.83a.838.838,0,0,0,.814,1.036H37.315a.838.838,0,0,0,.814-.639l1.03-4.227h7.357a6.183,6.183,0,0,0,6.176-6.176V13.811A4.046,4.046,0,0,0,48.652,9.77h-.658V7.535A2.635,2.635,0,0,0,45.362,4.9H27.428A2.635,2.635,0,0,0,24.8,7.535V9.77H21.739V9.287a.838.838,0,0,0-.705-.827l-2.323-.372a7.956,7.956,0,0,0-.439-1.058l1.38-1.906a.838.838,0,0,0-.086-1.084L17.7,2.173a.838.838,0,0,0-1.084-.086l-1.906,1.38a7.943,7.943,0,0,0-1.058-.439L13.279.705A.838.838,0,0,0,12.452,0H9.811a.838.838,0,0,0-.827.705L8.612,3.028a7.938,7.938,0,0,0-1.058.439L5.648,2.087a.838.838,0,0,0-1.084.086L2.7,4.041a.838.838,0,0,0-.086,1.084L3.991,7.03a7.929,7.929,0,0,0-.439,1.058L1.229,8.46a.838.838,0,0,0-.705.827v2.641a.838.838,0,0,0,.705.827l2.323.372a7.956,7.956,0,0,0,.439,1.058l-1.38,1.906A.838.838,0,0,0,2.7,17.174l1.868,1.868a.838.838,0,0,0,1.084.086l1.906-1.38a7.936,7.936,0,0,0,1.058.439l.372,2.323a.838.838,0,0,0,.827.705h2.641a.838.838,0,0,0,.827-.705l.372-2.323a7.943,7.943,0,0,0,1.058-.439l1.906,1.38a.838.838,0,0,0,1.084-.086l1.868-1.868a.838.838,0,0,0,.086-1.084l-1.38-1.906a7.937,7.937,0,0,0,.439-1.058l2.323-.372a.838.838,0,0,0,.705-.827v-.483H24.8V13.68a2.635,2.635,0,0,0,2.632,2.632H45.362a2.635,2.635,0,0,0,2.632-2.632V11.445h.658a2.368,2.368,0,0,1,2.366,2.365V24.074a4.506,4.506,0,0,1-4.5,4.5H39.567l.933-3.83a.838.838,0,0,0-.814-1.036H15.9a.838.838,0,0,0-.814.639l-1.03,4.227H6.7A6.183,6.183,0,0,0,.524,34.751v8.441a4.046,4.046,0,0,0,4.041,4.041H7.484v2.235A2.635,2.635,0,0,0,10.116,52.1H30.726a2.635,2.635,0,0,0,2.632-2.632V47.233H38.65v4.224a2.162,2.162,0,0,0,2.159,2.159H50.933a2.162,2.162,0,0,0,2.159-2.159V41.333a2.162,2.162,0,0,0-2.159-2.159ZM20.064,11.214l-2.139.342a.838.838,0,0,0-.679.62,6.261,6.261,0,0,1-.682,1.645.838.838,0,0,0,.042.919l1.271,1.755-.857.857-1.756-1.271a.837.837,0,0,0-.919-.042,6.266,6.266,0,0,1-1.645.682.838.838,0,0,0-.62.679l-.343,2.139H10.525L10.183,17.4a.838.838,0,0,0-.62-.679,6.268,6.268,0,0,1-1.645-.682A.838.838,0,0,0,7,16.081L5.244,17.352l-.857-.857,1.271-1.756a.838.838,0,0,0,.042-.919,6.274,6.274,0,0,1-.682-1.645.838.838,0,0,0-.679-.62L2.2,11.214V10l2.139-.342a.838.838,0,0,0,.679-.62A6.266,6.266,0,0,1,5.7,7.394a.838.838,0,0,0-.042-.919L4.387,4.72l.857-.857L7,5.134a.838.838,0,0,0,.919.042,6.266,6.266,0,0,1,1.645-.682.838.838,0,0,0,.62-.679l.342-2.139h1.213l.343,2.139a.838.838,0,0,0,.62.679,6.267,6.267,0,0,1,1.645.682.837.837,0,0,0,.918-.042l1.755-1.271.857.857L16.605,6.476a.838.838,0,0,0-.042.919,6.274,6.274,0,0,1,.682,1.645.838.838,0,0,0,.679.62L20.064,10ZM46.318,13.68a.957.957,0,0,1-.956.956H27.428a.957.957,0,0,1-.956-.956V7.535a.957.957,0,0,1,.956-.956H45.362a.957.957,0,0,1,.956.956ZM16.56,25.384H38.62l-1.963,8.057H14.6ZM31.683,49.467a.957.957,0,0,1-.956.956H10.116a.957.957,0,0,1-.956-.956V43.323a.957.957,0,0,1,.956-.956H30.726a.957.957,0,0,1,.956.956Zm19.734,1.99a.49.49,0,0,1-.484.484H40.809a.49.49,0,0,1-.484-.484V41.333a.49.49,0,0,1,.484-.484H50.933a.49.49,0,0,1,.484.484Zm-2.2-6.493-3.167,3.915a.838.838,0,0,1-.607.31H45.4a.838.838,0,0,1-.592-.245l-2.219-2.219a.838.838,0,0,1,1.185-1.185L45.331,47.1l2.581-3.191a.838.838,0,0,1,1.3,1.054ZM26.057,29.413a.838.838,0,0,1,.838-.838h7.9a.838.838,0,0,1,0,1.676h-7.9A.838.838,0,0,1,26.057,29.413Zm-8.468,0a.838.838,0,0,1,.838-.838H23.69a.838.838,0,1,1,0,1.676H18.426A.838.838,0,0,1,17.588,29.413ZM29.441,46.4a.838.838,0,0,1-.838.838H23.339a.838.838,0,1,1,0-1.676H28.6A.838.838,0,0,1,29.441,46.4Zm-8.468,0a.838.838,0,0,1-.838.838h-7.9a.838.838,0,1,1,0-1.676h7.9A.838.838,0,0,1,20.973,46.4ZM36.978,10.608a.838.838,0,0,1-.838.838H29.117a.838.838,0,0,1,0-1.676H36.14a.838.838,0,0,1,.838.838Zm7.532,0a.838.838,0,0,1-.838.838H38.99a.838.838,0,0,1,0-1.676h4.682A.838.838,0,0,1,44.51,10.608ZM11.132,5.867a4.74,4.74,0,1,0,4.74,4.74,4.746,4.746,0,0,0-4.74-4.74Zm0,7.805A3.065,3.065,0,1,1,14.2,10.608a3.068,3.068,0,0,1-3.065,3.065Z" transform="translate(434.466 1136.66)" fill="#fff"/>
      </g>
    </g>
  </g>
</svg>
