<svg xmlns="http://www.w3.org/2000/svg" xmlns:xlink="http://www.w3.org/1999/xlink" width="58.182" height="58.518" viewBox="0 0 58.182 58.518">
  <defs>
    <clipPath id="clip-path">
      <rect id="Rectángulo_401458" data-name="Rectángulo 401458" width="43.344" height="41.995" fill="#fff" stroke="#707070" stroke-width="1"/>
    </clipPath>
    <clipPath id="clip-path-2">
      <path id="path155" d="M0-61H43.344v41.995H0Z" transform="translate(0 61)" fill="#fff"/>
    </clipPath>
  </defs>
  <g id="Grupo_1102058" data-name="Grupo 1102058" transform="translate(-509.369 -4333.241)">
    <g id="Grupo_1101988" data-name="Grupo 1101988" transform="translate(509.369 4333.241)">
      <ellipse id="Elipse_11499" data-name="Elipse 11499" cx="29.091" cy="29.259" rx="29.091" ry="29.259" transform="translate(0)" fill="#f35923"/>
      <g id="Enmascarar_grupo_1098788" data-name="Enmascarar grupo 1098788" transform="translate(7.419 8.261)" clip-path="url(#clip-path)">
        <g id="g141" transform="translate(0 0)">
          <g id="g143" transform="translate(19.979 11.974)">
            <path id="path145" d="M-.69,15.662a1.667,1.667,0,0,1-1.693-1.64V-.742A1.667,1.667,0,0,1-.69-2.383,1.667,1.667,0,0,1,1-.742V14.021A1.667,1.667,0,0,1-.69,15.662Z" transform="translate(2.383 2.383)" fill="#fff"/>
          </g>
          <g id="g147" transform="translate(12.36 19.356)">
            <path id="path149" d="M14.548.9H-.69A1.667,1.667,0,0,1-2.383-.742,1.667,1.667,0,0,1-.69-2.383H14.548a1.667,1.667,0,0,1,1.693,1.64A1.667,1.667,0,0,1,14.548.9Z" transform="translate(2.383 2.383)" fill="#fff"/>
          </g>
          <g id="g151">
            <g id="g153" clip-path="url(#clip-path-2)">
              <g id="g159" transform="translate(0 0)">
                <path id="path161" d="M-23.375-12.571a22.137,22.137,0,0,1-8.436-1.651,21.649,21.649,0,0,1-6.888-4.5A20.9,20.9,0,0,1-43.343-25.4a20.308,20.308,0,0,1-1.7-8.174,20.308,20.308,0,0,1,1.7-8.174A20.9,20.9,0,0,1-38.7-48.416a21.649,21.649,0,0,1,6.888-4.5,22.137,22.137,0,0,1,8.436-1.651,22.137,22.137,0,0,1,8.436,1.651,21.649,21.649,0,0,1,6.888,4.5,20.9,20.9,0,0,1,4.644,6.674,20.308,20.308,0,0,1,1.7,8.174A20.457,20.457,0,0,1-5.375-21.912a1.727,1.727,0,0,1-2.349.452,1.609,1.609,0,0,1-.467-2.275,17.259,17.259,0,0,0,3.1-9.833c0-9.769-8.2-17.717-18.286-17.717s-18.286,7.948-18.286,17.717,8.2,17.717,18.286,17.717A18.7,18.7,0,0,0-13.916-18.4a1.724,1.724,0,0,1,2.325.553,1.612,1.612,0,0,1-.571,2.253A22.164,22.164,0,0,1-23.375-12.571Z" transform="translate(45.047 54.566)" fill="#fff"/>
              </g>
            </g>
          </g>
        </g>
      </g>
    </g>
  </g>
</svg>
