<svg xmlns="http://www.w3.org/2000/svg" xmlns:xlink="http://www.w3.org/1999/xlink" width="58.349" height="58.518" viewBox="0 0 58.349 58.518">
  <defs>
    <clipPath id="clip-path">
      <rect id="Rectángulo_401790" data-name="Rectángulo 401790" width="43.511" height="41.995" transform="translate(0)" fill="#fff" stroke="#fff" stroke-width="2"/>
    </clipPath>
  </defs>
  <g id="Grupo_1102059" data-name="Grupo 1102059" transform="translate(-987.74 -4333.241)">
    <g id="Grupo_1101987" data-name="Grupo 1101987" transform="translate(987.74 4333.241)">
      <ellipse id="Elipse_11531" data-name="Elipse 11531" cx="29.174" cy="29.259" rx="29.174" ry="29.259" transform="translate(0)" fill="#f35923"/>
      <g id="Enmascarar_grupo_1098789" data-name="Enmascarar grupo 1098789" transform="translate(7.419 8.261)" clip-path="url(#clip-path)">
        <g id="alerta" transform="translate(-0.714 1.657)">
          <path id="Trazado_891213" data-name="Trazado 891213" d="M46.673,26.367a.872.872,0,0,1-.6-.24.8.8,0,0,1,0-1.16.871.871,0,0,1,1.2,0,.8.8,0,0,1,0,1.16A.872.872,0,0,1,46.673,26.367Zm0,0" transform="translate(-12.424 -7.056)" fill="#fff"/>
          <path id="Trazado_891213_-_Contorno" data-name="Trazado 891213 - Contorno" d="M46.387,26.744a1.6,1.6,0,0,1-1.1-.442,1.471,1.471,0,0,1,0-2.134,1.6,1.6,0,0,1,2.21,0,1.471,1.471,0,0,1,0,2.133A1.6,1.6,0,0,1,46.387,26.744Zm0-1.64a.146.146,0,0,0-.1.039.128.128,0,0,0,0,.185.139.139,0,0,0,.193,0,.128.128,0,0,0,0-.186A.146.146,0,0,0,46.387,25.1Z" transform="translate(-12.137 -6.745)" fill="#fff"/>
          <path id="Trazado_891214" data-name="Trazado 891214" d="M39.846,37.364H3.664A3.647,3.647,0,0,1,.5,35.6a3.391,3.391,0,0,1,0-3.531L18.587,1.825a3.726,3.726,0,0,1,6.336,0l7.5,12.54a.8.8,0,0,1-.311,1.12.867.867,0,0,1-1.161-.3l-7.5-12.54a2,2,0,0,0-3.393,0L1.968,32.888a1.815,1.815,0,0,0,0,1.891,1.952,1.952,0,0,0,1.7.945H39.846a1.953,1.953,0,0,0,1.7-.945,1.815,1.815,0,0,0,0-1.891L34.291,20.765a.8.8,0,0,1,.311-1.12.867.867,0,0,1,1.161.3l7.252,12.123a3.391,3.391,0,0,1,0,3.531,3.647,3.647,0,0,1-3.169,1.765Zm0,0" transform="translate(0.714 0.629)" fill="#fff"/>
          <path id="Trazado_891214_-_Contorno" data-name="Trazado 891214 - Contorno" d="M39.559,37.741H3.377a4.358,4.358,0,0,1-3.786-2.11,4.052,4.052,0,0,1,0-4.22L17.682,1.169a4.452,4.452,0,0,1,7.572,0l7.5,12.54a1.453,1.453,0,0,1,.156,1.145,1.507,1.507,0,0,1-.728.916,1.609,1.609,0,0,1-.781.2,1.58,1.58,0,0,1-1.354-.754l-7.5-12.54a1.269,1.269,0,0,0-2.158,0L2.3,32.921a1.155,1.155,0,0,0,0,1.2,1.241,1.241,0,0,0,1.079.6H39.559a1.242,1.242,0,0,0,1.079-.6,1.155,1.155,0,0,0,0-1.2L33.386,20.8a1.482,1.482,0,0,1,.572-2.06,1.607,1.607,0,0,1,.781-.2,1.579,1.579,0,0,1,1.354.755l7.252,12.123a4.052,4.052,0,0,1,0,4.219,4.359,4.359,0,0,1-3.786,2.11ZM21.468.436a2.936,2.936,0,0,0-2.551,1.421L.826,32.1a2.73,2.73,0,0,0,0,2.843,2.936,2.936,0,0,0,2.551,1.421H39.559a2.937,2.937,0,0,0,2.551-1.421,2.73,2.73,0,0,0,0-2.842L34.858,19.978a.138.138,0,0,0-.119-.066.137.137,0,0,0-.067.018.129.129,0,0,0-.05.18l7.252,12.123a2.477,2.477,0,0,1,0,2.579,2.664,2.664,0,0,1-2.314,1.29H3.377a2.663,2.663,0,0,1-2.314-1.29,2.476,2.476,0,0,1,0-2.579L19.154,1.989a2.721,2.721,0,0,1,4.629,0l7.5,12.54a.14.14,0,0,0,.187.048.129.129,0,0,0,.05-.18l-7.5-12.54A2.936,2.936,0,0,0,21.468.436Z" transform="translate(1.002 0.941)" fill="#fff"/>
          <path id="Trazado_891215" data-name="Trazado 891215" d="M29.407,30.378a2.676,2.676,0,0,1-2.719-2.624v-7.4a2.721,2.721,0,0,1,5.438,0v7.4A2.676,2.676,0,0,1,29.407,30.378Zm0-11.01a1,1,0,0,0-1.02.984v7.4a1.02,1.02,0,0,0,2.04,0v-7.4A1,1,0,0,0,29.407,19.368Zm0,0" transform="translate(-6.937 -4.876)" fill="#fff"/>
          <path id="Trazado_891215_-_Contorno" data-name="Trazado 891215 - Contorno" d="M29.12,30.755a3.378,3.378,0,0,1-3.432-3.313v-7.4a3.435,3.435,0,0,1,6.865,0v7.4A3.378,3.378,0,0,1,29.12,30.755Zm0-12.65a1.974,1.974,0,0,0-2.006,1.936v7.4a2.007,2.007,0,0,0,4.012,0v-7.4A1.974,1.974,0,0,0,29.12,18.1Zm0,11.01a1.706,1.706,0,0,1-1.733-1.673v-7.4a1.734,1.734,0,0,1,3.466,0v7.4A1.706,1.706,0,0,1,29.12,29.115Zm0-9.37a.3.3,0,0,0-.306.3v7.4a.307.307,0,0,0,.613,0v-7.4A.3.3,0,0,0,29.12,19.745Z" transform="translate(-6.651 -4.564)" fill="#fff"/>
          <path id="Trazado_891216" data-name="Trazado 891216" d="M29.407,44.211a2.626,2.626,0,1,1,2.719-2.624,2.562,2.562,0,0,1-.8,1.856A2.751,2.751,0,0,1,29.407,44.211Zm0-3.609a.985.985,0,1,0,0,1.969,1.032,1.032,0,0,0,.721-.288.961.961,0,0,0,.3-.7A1,1,0,0,0,29.407,40.6Zm0,0" transform="translate(-6.937 -11.492)" fill="#fff"/>
          <path id="Trazado_891216_-_Contorno" data-name="Trazado 891216 - Contorno" d="M29.12,44.588a3.315,3.315,0,1,1,3.432-3.313,3.234,3.234,0,0,1-1.005,2.343A3.473,3.473,0,0,1,29.12,44.588Zm0-5.249a1.937,1.937,0,1,0,0,3.872,2.03,2.03,0,0,0,1.418-.567,1.89,1.89,0,0,0,.587-1.369A1.974,1.974,0,0,0,29.12,39.339Zm0,3.609a1.674,1.674,0,1,1,1.733-1.673,1.633,1.633,0,0,1-.508,1.183A1.754,1.754,0,0,1,29.12,42.948Zm0-1.969a.3.3,0,1,0,0,.592.306.306,0,0,0,.217-.087.285.285,0,0,0,.09-.209A.3.3,0,0,0,29.12,40.979Z" transform="translate(-6.651 -11.18)" fill="#fff"/>
        </g>
      </g>
    </g>
  </g>
</svg>
