<svg xmlns="http://www.w3.org/2000/svg" xmlns:xlink="http://www.w3.org/1999/xlink" width="246.831" height="330.004" viewBox="0 0 246.831 330.004">
  <defs>
    <clipPath id="clip-path">
      <rect id="Rectángulo_401645" data-name="Rectángulo 401645" width="242.28" height="242.281" fill="none"/>
    </clipPath>
    <clipPath id="clip-path-2">
      <rect id="Rectángulo_401646" data-name="Rectángulo 401646" width="173.929" height="173.929" fill="none"/>
    </clipPath>
    <clipPath id="clip-path-3">
      <rect id="Rectángulo_401647" data-name="Rectángulo 401647" width="5.18" height="5.187" fill="none"/>
    </clipPath>
    <clipPath id="clip-path-4">
      <rect id="Rectángulo_401648" data-name="Rectángulo 401648" width="3.363" height="5.188" fill="none"/>
    </clipPath>
    <clipPath id="clip-path-5">
      <rect id="Rectángulo_401652" data-name="Rectángulo 401652" width="5.101" height="5.108" fill="none"/>
    </clipPath>
    <clipPath id="clip-path-6">
      <rect id="Rectángulo_401653" data-name="Rectángulo 401653" width="3.312" height="5.109" fill="none"/>
    </clipPath>
    <clipPath id="clip-path-7">
      <rect id="Rectángulo_401657" data-name="Rectángulo 401657" width="97.536" height="131.037" fill="none"/>
    </clipPath>
    <clipPath id="clip-path-8">
      <rect id="Rectángulo_401658" data-name="Rectángulo 401658" width="52.522" height="52.523" fill="none"/>
    </clipPath>
  </defs>
  <g id="Grupo_1102068" data-name="Grupo 1102068" transform="translate(-753.169 -5582.093)">
    <g id="Grupo_1101521" data-name="Grupo 1101521" transform="translate(722.043 5546.149)">
      <g id="Grupo_1101523" data-name="Grupo 1101523" transform="translate(31.126 35.944)">
        <g id="Grupo_1101519" data-name="Grupo 1101519" transform="translate(0 0)">
          <g id="Grupo_1101522" data-name="Grupo 1101522" transform="translate(0 0)">
            <g id="Grupo_1101496" data-name="Grupo 1101496" transform="translate(4.551)" opacity="0.2">
              <g id="Grupo_1101495" data-name="Grupo 1101495">
                <g id="Grupo_1101494" data-name="Grupo 1101494" clip-path="url(#clip-path)">
                  <path id="Trazado_890715" data-name="Trazado 890715" d="M366.3,245.152A121.141,121.141,0,1,1,245.156,124.011,121.141,121.141,0,0,1,366.3,245.152" transform="translate(-124.015 -124.011)" fill="#f8cd9e"/>
                </g>
              </g>
            </g>
            <g id="Grupo_1101499" data-name="Grupo 1101499" transform="translate(38.727 34.176)" opacity="0.2">
              <g id="Grupo_1101498" data-name="Grupo 1101498">
                <g id="Grupo_1101497" data-name="Grupo 1101497" clip-path="url(#clip-path-2)">
                  <path id="Trazado_890716" data-name="Trazado 890716" d="M422.813,335.844a86.964,86.964,0,1,1-86.964-86.964,86.964,86.964,0,0,1,86.964,86.964" transform="translate(-248.884 -248.88)" fill="#f8cd9e"/>
                </g>
              </g>
            </g>
            <path id="Trazado_890717" data-name="Trazado 890717" d="M444.932,1199.373H296.311v-40.8a8.326,8.326,0,0,1,8.326-8.326H436.606a8.326,8.326,0,0,1,8.326,8.326Z" transform="translate(-244.603 -869.369)" fill="#016835"/>
            <path id="Trazado_890721" data-name="Trazado 890721" d="M304.113,766.1h0a3.543,3.543,0,0,1,.025,5.182l-14.211,13.38a3.544,3.544,0,0,1-4.858-5.16l14.211-13.38a3.544,3.544,0,0,1,4.834-.023" transform="translate(-235.628 -589.682)" fill="#f8cd20"/>
            <g id="Grupo_1101524" data-name="Grupo 1101524" transform="translate(17.245 21.002)">
              <path id="Trazado_890718" data-name="Trazado 890718" d="M558.89,226.432h0a3.673,3.673,0,0,1-3.672-3.673V204.416a3.673,3.673,0,0,1,7.345,0v18.343a3.673,3.673,0,0,1-3.673,3.673" transform="translate(-449.892 -200.744)" fill="#f8cd20"/>
              <path id="Trazado_890719" data-name="Trazado 890719" d="M302.63,324.781h0a3.542,3.542,0,0,1-4.832,0l-14.291-13.314a3.542,3.542,0,1,1,4.829-5.183L302.627,319.6a3.541,3.541,0,0,1,0,5.18" transform="translate(-251.729 -276.711)" fill="#f8cd20"/>
              <path id="Trazado_890720" data-name="Trazado 890720" d="M197.937,564.562h0a3.425,3.425,0,0,1-3.41,3.442l-20.693.09a3.425,3.425,0,0,1-.03-6.85l20.693-.091a3.425,3.425,0,0,1,3.44,3.408" transform="translate(-170.394 -462.511)" fill="#f8cd20"/>
              <path id="Trazado_890722" data-name="Trazado 890722" d="M775.643,324.325h0a3.542,3.542,0,0,1,0-5.181l14.27-13.332a3.542,3.542,0,1,1,4.836,5.177l-14.269,13.332a3.543,3.543,0,0,1-4.832,0" transform="translate(-609.168 -276.363)" fill="#f8cd20"/>
              <path id="Trazado_890723" data-name="Trazado 890723" d="M864.95,562.114h0a3.425,3.425,0,0,1,3.428-3.422l20.693.017a3.425,3.425,0,1,1-.005,6.85l-20.693-.017a3.425,3.425,0,0,1-3.422-3.428" transform="translate(-674.852 -460.723)" fill="#f8cd20"/>
            </g>
            <path id="Trazado_890724" data-name="Trazado 890724" d="M777.051,764.66h0a3.543,3.543,0,0,1,4.833.005L796.149,778a3.542,3.542,0,0,1-4.838,5.176l-14.266-13.335a3.543,3.543,0,0,1,.006-5.181" transform="translate(-592.946 -588.627)" fill="#fb9d7e"/>
            <path id="Trazado_890725" data-name="Trazado 890725" d="M754.666,724.538c-.082.938-.168,1.877-.258,2.8-.2,1.981-.05,3.989-.666,5.579-.064.159-3.4,3.884-3.4,3.884s-.9.956-2.2,2.112c-.077.073-.159.145-.245.218a.459.459,0,0,1-.05.045c-.335.285-.7.589-1.074.888a18.849,18.849,0,0,1-3.091,2.039,7.34,7.34,0,0,1-1.75.662,11.294,11.294,0,0,1-2.379.272,8.88,8.88,0,0,1-1.31-.077l-.127-.054h0a18.111,18.111,0,0,1-2.624-1.437,67.268,67.268,0,0,1,3.163-9.826c.014-.023.231-.331.6-.857.127-.177.272-.381.435-.607.317-.449.7-.983,1.142-1.586,3.445-4.768,10.084-13.769,13.225-17.114.757-.807,1.2,6.259.616,13.062" transform="translate(-563.574 -550.642)" fill="#d47c74"/>
            <path id="Trazado_890726" data-name="Trazado 890726" d="M662.073,736.224l.187.235.006.006v.006c.162.192.409.5.74.9.024.024.048.054.078.09,1.5,1.818,4.514,5.393,7.848,8.95,1.258,1.354,2.57,2.732,3.9,4.068a65.971,65.971,0,0,0,7.24,5.682c.012.006.018.012.03.018a.355.355,0,0,0,.06.042,18.066,18.066,0,0,0,2.624,1.439h.006a8.017,8.017,0,0,0,2.022.054,11.04,11.04,0,0,0,2.335-.511,7.412,7.412,0,0,0,1.679-.837,4.9,4.9,0,0,0,.1-.6c.024-.169.036-.337.048-.512.012-.211.018-.421.012-.626a8.912,8.912,0,0,0-.7-3.322c-.108-.247-.217-.493-.343-.746s-.235-.487-.373-.722c-.139-.265-.289-.53-.452-.789-.138-.222-.295-.451-.445-.68-.114-.151-.229-.307-.349-.451a3.364,3.364,0,0,0-.325-.4,3.219,3.219,0,0,0-.259-.307,17.348,17.348,0,0,0-1.264-1.2c-.018-.012-.03-.024-.048-.036-.1-.09-.2-.18-.307-.271-.066-.054-.126-.108-.192-.168-.12-.1-.241-.2-.367-.3-.421-.355-.885-.728-1.378-1.125-.042-.036-.072-.06-.114-.09-.108-.078-.211-.163-.319-.253-.945-.752-2.016-1.565-3.118-2.407a.412.412,0,0,1-.084-.054c-5.044-3.8-11.038-8-12.784-9.221-.126-.1-.235-.169-.313-.223h-.006c-.1-.066-.163-.114-.18-.12,0-.012-.006-.012-.006-.012l-.036.03-3.545,3.07Z" transform="translate(-510.257 -565.402)" fill="#d47c74"/>
            <path id="Trazado_890727" data-name="Trazado 890727" d="M765.816,724.705c-.082.938-.168,1.876-.258,2.8-.2,1.981-.05,3.989-.666,5.579-.063.159-3.4,3.884-3.4,3.884s-.9.956-2.2,2.112l-8.453-8.734c.317-.449.7-.983,1.142-1.586,3.444-4.768,10.084-13.769,13.225-17.114Z" transform="translate(-574.723 -550.81)" fill="#d47c74"/>
            <path id="Trazado_890728" data-name="Trazado 890728" d="M766.653,707.191a9.352,9.352,0,0,0-3.4,2.753c-1.148,1.492-12.313,15.032-12.313,15.032l11.425,11.8,5.617-5.216Z" transform="translate(-574.803 -547.576)" fill="#f35923"/>
            <path id="Trazado_890729" data-name="Trazado 890729" d="M610.307,708.185s-1.33-.5-.861-1.4c.431-.836,2.047-.748,2.047-.748s.11-.859,1.374-1.089c1.345-.247,7.351,1.252,8.256.581s-1.28-1.361-2.043-2.1a5.46,5.46,0,0,1-1.139-2.1,30.026,30.026,0,0,1,6.264,3.307,52.531,52.531,0,0,1,6.2,6.429l.343.41-4.273,4.371s-.292-.186-.752-.449h0a11.967,11.967,0,0,0-4.16-1.6c-1.954-.149-8.762-1.348-9.252-1.808a2.44,2.44,0,0,1-.586-1.329,3.118,3.118,0,0,1-1.373-.778c-.4-.5-.044-1.7-.044-1.7" transform="translate(-471.961 -543.319)" fill="#d47c74"/>
            <path id="Trazado_890730" data-name="Trazado 890730" d="M826.582,592.5s8.845-5.538,6.316-16.064-13.373-15.469-14.026-12.937-.63,3.648-2.718,3.018c-2.832-.854-2.64-2.773-4.363-1.919-3.23,1.6.7,5.781-3.283,5.408-2.058-.192-3.075.96-2.516,3.272,1.413,5.849,20.59,19.222,20.59,19.222" transform="translate(-614.676 -442.741)" fill="#2e2f4d"/>
            <path id="Trazado_890731" data-name="Trazado 890731" d="M835.768,655.75a2.8,2.8,0,0,0-.769,4.192l.063.076c1.4,1.67,4.578,4.063,10.919,2.11a15,15,0,0,0,5.058-2.641,2.788,2.788,0,0,0-.357-4.613,3.5,3.5,0,0,1-1.6-1.647c-.378-1.057-.494-7.809-.333-11.245.054-1.154.208-3.463.208-3.463L838.4,644.341s.147,2.831.228,5.128c.048,1.361.033,2.532.03,2.821-.015,1.4-1.484,2.618-2.888,3.459" transform="translate(-635.393 -497.699)" fill="#f6a49d"/>
            <path id="Trazado_890732" data-name="Trazado 890732" d="M874.025,637c.419.939,2.451.978,4.538.088s3.332-2.308,3.021-3.312c-.412-1.333-2.451-.978-4.538-.088s-3.44,2.373-3.021,3.312" transform="translate(-664.143 -493.618)" fill="#d47c74"/>
            <path id="Trazado_890733" data-name="Trazado 890733" d="M849.1,647.843s.147,2.831.228,5.128a5.666,5.666,0,0,0,2.231.33c5.571-.5,7.8-9.962,7.8-9.962Z" transform="translate(-646.096 -501.201)" fill="#d47c74"/>
            <path id="Trazado_890734" data-name="Trazado 890734" d="M843.819,606.447c-.039.307-.084.617-.137.928-1.264,7.332-6.155,12.676-10.926,11.933-2.676-.417-4.746-2.658-5.826-5.84-.056-.163-.108-.328-.159-.5q-.066-.223-.127-.452a14.966,14.966,0,0,1-.333-1.609q-.087-.55-.138-1.121-.058-.652-.068-1.33a20.2,20.2,0,0,1,.294-3.774c.048-.276.107-.582.175-.909.028-.135.056-.274.089-.415q.029-.135.061-.273l.013-.058a26.614,26.614,0,0,1,1.135-3.834c.256.247,2.112.1,4.194-.157,3.831-.474,8.033-.89,10.132,2.329.9,1.378,1.281,4.731,1.621,5.079" transform="translate(-629.392 -468.79)" fill="#f6a49d"/>
            <path id="Trazado_890735" data-name="Trazado 890735" d="M845.67,633.957l-.617-.127c-.417-.086-.7-.434-.6-.749l.712-2.379a.646.646,0,0,1,.784-.352.709.709,0,0,1,.62.641l-.094,2.506c-.013.332-.385.546-.8.46" transform="translate(-642.705 -491.753)" fill="#d47c74"/>
            <path id="Trazado_890736" data-name="Trazado 890736" d="M867.085,624.826c-.066.5-.426.874-.8.828a.821.821,0,0,1-.565-1c.066-.5.427-.875.8-.828a.82.82,0,0,1,.565.995" transform="translate(-658.155 -487.029)" fill="#4f1d30"/>
            <path id="Trazado_890737" data-name="Trazado 890737" d="M861.269,614.736a1.175,1.175,0,0,1,.149-.213,2.445,2.445,0,0,1,.507-.457,2.7,2.7,0,0,1,.4-.229,3.128,3.128,0,0,1,.489-.178,3.09,3.09,0,0,1,1.14-.073,3.384,3.384,0,0,1,.569.131,4.773,4.773,0,0,1,.51.229c.153.094.291.2.421.3a2.918,2.918,0,0,1,.322.319,1.656,1.656,0,0,1,.23.3c.062.094.108.183.147.253a2.187,2.187,0,0,1,.109.229s-.094-.029-.24-.09c-.072-.031-.161-.066-.254-.113a3.273,3.273,0,0,0-.322-.132c-.118-.043-.234-.107-.365-.149s-.265-.091-.4-.14c-.142-.031-.281-.075-.424-.112-.147-.016-.288-.069-.437-.074a3.449,3.449,0,0,0-.441-.038c-.147-.013-.293,0-.438,0s-.286.016-.421.032-.268.029-.39.051c-.247.034-.46.077-.614.108l-.247.052" transform="translate(-654.934 -479.573)" fill="#2e2f4d"/>
            <path id="Trazado_890738" data-name="Trazado 890738" d="M833.862,622.364c-.034.506-.371.9-.751.875a.823.823,0,0,1-.628-.958c.034-.506.37-.9.751-.875a.824.824,0,0,1,.628.959" transform="translate(-634.024 -485.269)" fill="#4f1d30"/>
            <path id="Trazado_890739" data-name="Trazado 890739" d="M827.45,612.393a1.175,1.175,0,0,1,.136-.221,2.432,2.432,0,0,1,.476-.486,2.7,2.7,0,0,1,.385-.252,3.074,3.074,0,0,1,.476-.207,3.079,3.079,0,0,1,1.134-.141,3.355,3.355,0,0,1,.576.1,4.782,4.782,0,0,1,.524.2c.159.085.3.181.439.269a2.884,2.884,0,0,1,.342.3,1.647,1.647,0,0,1,.25.286c.068.09.119.176.162.244a2.167,2.167,0,0,1,.123.222s-.1-.024-.245-.075c-.074-.027-.165-.056-.26-.1a3.244,3.244,0,0,0-.33-.113c-.12-.036-.24-.093-.374-.126s-.27-.074-.408-.115c-.143-.023-.285-.058-.43-.086-.148-.007-.292-.051-.441-.048a3.537,3.537,0,0,0-.443-.012c-.148,0-.293.017-.437.024s-.284.033-.419.057-.266.045-.386.074c-.245.048-.455.1-.606.145l-.244.067" transform="translate(-630.371 -477.77)" fill="#2e2f4d"/>
            <g id="Grupo_1101502" data-name="Grupo 1101502" transform="translate(206.14 139.317)" opacity="0.5">
              <g id="Grupo_1101501" data-name="Grupo 1101501">
                <g id="Grupo_1101500" data-name="Grupo 1101500" clip-path="url(#clip-path-3)">
                  <path id="Trazado_890740" data-name="Trazado 890740" d="M865.736,635.69a2.6,2.6,0,0,1-2.665,2.527,2.579,2.579,0,0,1-2.513-2.658,2.59,2.59,0,1,1,5.178.131" transform="translate(-860.557 -633.031)" fill="#d47c74"/>
                </g>
              </g>
            </g>
            <g id="Grupo_1101505" data-name="Grupo 1101505" transform="translate(196.766 138.999)" opacity="0.5">
              <g id="Grupo_1101504" data-name="Grupo 1101504">
                <g id="Grupo_1101503" data-name="Grupo 1101503" clip-path="url(#clip-path-4)">
                  <path id="Trazado_890741" data-name="Trazado 890741" d="M829.67,634.528a2.6,2.6,0,0,1-2.663,2.527l-.086,0q-.066-.223-.127-.452a14.952,14.952,0,0,1-.333-1.609q-.088-.549-.138-1.121a17.6,17.6,0,0,1,.024-1.891,2.536,2.536,0,0,1,.812-.108,2.577,2.577,0,0,1,2.511,2.659" transform="translate(-826.308 -631.868)" fill="#d47c74"/>
                </g>
              </g>
            </g>
            <path id="Trazado_890742" data-name="Trazado 890742" d="M838.739,653.534a11.179,11.179,0,0,0,6.831.256s-1.4,2.835-3.931,2.739-2.9-2.994-2.9-2.994" transform="translate(-638.57 -508.605)" fill="#fff"/>
            <path id="Trazado_890743" data-name="Trazado 890743" d="M846.673,596.1s-1.439,3.564-3.223,4.091-.921-2.563-1.08-5.153-2.017-3.912-6.209-2.351-7.785-1.278-7.785-1.278-.7-4.79-.62-4.843,12.242-.231,12.374-.205l.051.014a9.036,9.036,0,0,1,6.517,9.376Z" transform="translate(-630.59 -459.814)" fill="#2e2f4d"/>
            <path id="Trazado_890744" data-name="Trazado 890744" d="M808.129,743.047c-.033.777.166,4.454,4.879,4.594,1.367.04,2.98.093,4.746.139,2.761.08,5.888.173,9,.265,2.5.067,4.978.14,7.255.206,1.215.033,2.37.067,3.438.1,3.644.1,6.5-1.215,6.346-3.273-.425-5.616-2.237-47.527-2.251-47.527-.538-.186-3.711-1.148-6.531-1.991-1.6-.478-3.086-.923-3.91-1.175-.339-.1-.564-.166-.644-.193l-.319-.093-.026.02-.12.093a9.818,9.818,0,0,1-4.507,2.19,7.9,7.9,0,0,1-1.427.113,7.4,7.4,0,0,1-1.56-.179,7.63,7.63,0,0,1-1.1-.312,10.812,10.812,0,0,1-2.423-1.255c-.133-.093-.266-.186-.4-.285l-2.151.618-4.587,1.321-3.876,1.108c-.047-.239.8,20.77.664,25.025-.007.193-.491,20.326-.5,20.491" transform="translate(-616.216 -538.068)" fill="#f35923"/>
            <path id="Trazado_890745" data-name="Trazado 890745" d="M806.606,846.96l-1.656,21.174,39.76.491-3.643-25.174Z" transform="translate(-614.03 -646.543)" fill="#f35923"/>
            <path id="Trazado_890746" data-name="Trazado 890746" d="M904.161,1135.244a4.642,4.642,0,0,0-.028-1.268l-.083-.56-.427-2.7-.072-.488-9.18-45.013-.2-1.224h.011c.255-.067,8.244-1.939,12.493,1.108a5.96,5.96,0,0,1,1.884,2.188c.006.005.006.016.011.028a7.209,7.209,0,0,1,.7,2.942c.005.161.011.316.011.482,0,6.56.141,32.466,2.3,41.125a.051.051,0,0,1,.005.028,22.489,22.489,0,0,1,.469,3.534,18.363,18.363,0,0,0,.266,2.133c.078.5.144.931.15,1.163,0,.056.005.111.005.166.011.643.011.992.011.992l-10.282-.754,1.064-1.5a4.858,4.858,0,0,0,.72-1.474v-.006a3.42,3.42,0,0,0,.122-.526l.006-.017c.011-.067.022-.139.033-.211a1.427,1.427,0,0,0,.017-.155" transform="translate(-678.832 -820.792)" fill="#f6a49d"/>
            <path id="Trazado_890747" data-name="Trazado 890747" d="M904.161,1135.244a4.776,4.776,0,0,0-.255-1.95l-9.535-48.077-.2-1.224h.011c.255-.067,8.244-1.939,12.493,1.108a5.96,5.96,0,0,1,1.884,2.188c.006.005.006.016.011.028.083.227.333,1.28.7,2.942,1.889,8.493.467,32.615,2.307,41.607a.051.051,0,0,1,.005.028,22.489,22.489,0,0,1,.469,3.534l-7.944.2.006-.017a1.4,1.4,0,0,0,.033-.211,1.427,1.427,0,0,0,.017-.155" transform="translate(-678.832 -820.792)" fill="#d47c74"/>
            <path id="Trazado_890748" data-name="Trazado 890748" d="M882.794,1287.7v.617a.956.956,0,0,1-.06.272,1.137,1.137,0,0,1-.113.153.6.6,0,0,1-.06.079v.007a.826.826,0,0,1-.1.066H872.75c-.007,0-.007-.007-.013-.007-.027-.013-.047-.04-.08-.06a.757.757,0,0,1-.2-.259.693.693,0,0,1-.053-.259l-.007-.007.007-.106-.013-.379.007-.026-3.85.033v.026l.007.245v.2a.725.725,0,0,1-.219.511.767.767,0,0,1-.113.086H852.538a.061.061,0,0,0,.007-.033,5.164,5.164,0,0,1,.1-.856,1.323,1.323,0,0,1,.033-.159,5.508,5.508,0,0,1,1.6-2.688c.491-.458,8.145-4.149,13.6-6.771l3.067-2.024a3.682,3.682,0,0,0,1.447-2.337.681.681,0,0,1,1.341.093l.159,1.639h.06l3.644-.04,4.587-.06h.047a56.154,56.154,0,0,1,.557,7.753Z" transform="translate(-648.593 -958.887)" fill="#615370"/>
            <path id="Trazado_890749" data-name="Trazado 890749" d="M868.555,1326.178v.2a.723.723,0,0,1-.219.511.742.742,0,0,1-.113.086H852.538a.061.061,0,0,0,.007-.033,5.22,5.22,0,0,1,.1-.856c3.253-.026,9.685-.086,15.9-.153Z" transform="translate(-648.593 -996.97)" fill="#463b54"/>
            <path id="Trazado_890750" data-name="Trazado 890750" d="M935.48,1325.374v.617a.951.951,0,0,1-.06.272,1.1,1.1,0,0,1-.113.153.592.592,0,0,1-.06.08v.007a.868.868,0,0,1-.1.067h-9.711c-.007,0-.007-.007-.013-.007-.027-.013-.047-.04-.08-.059a.757.757,0,0,1-.2-.259.7.7,0,0,1-.053-.259l-.007-.007.007-.106-.013-.379c4.447-.046,8.384-.093,10.4-.119" transform="translate(-701.279 -996.565)" fill="#463b54"/>
            <path id="Trazado_890751" data-name="Trazado 890751" d="M804.381,1133.972a4.766,4.766,0,0,1-.027,1.653,4.822,4.822,0,0,1-.843,2l-1.062,1.494,10.282.757s0-.352-.013-1c0-.053-.007-.106-.007-.166-.013-.571-.391-2.357-.411-3.292-.007-.193-.007-.392-.007-.6-.007-.485-.013-1-.013-1.533-.007-.153-.007-.305-.013-.465-.093-10.7,3.911-34.245,3.911-42.091a7.6,7.6,0,0,0-.724-3.452,5.96,5.96,0,0,0-1.885-2.191c-4.248-3.047-12.234-1.175-12.492-1.109h-.007l.2,1.228,2.528,45.012.073.484.425,2.7Z" transform="translate(-611.211 -820.789)" fill="#f6a49d"/>
            <path id="Trazado_890752" data-name="Trazado 890752" d="M801.07,1083.989l.2,1.228,2.527,45.012.073.484.425,2.7.086.557a4.766,4.766,0,0,1-.027,1.653l7.945-.2c-.007-.193-.007-.392-.007-.6-.007-.485-.013-1-.013-1.533-.007-.153-.007-.305-.013-.465-.093-10.7,3.911-34.245,3.911-42.091a7.6,7.6,0,0,0-.723-3.452,5.96,5.96,0,0,0-1.885-2.191c-4.248-3.047-12.234-1.175-12.493-1.109Z" transform="translate(-611.211 -820.789)" fill="#d47c74"/>
            <path id="Trazado_890753" data-name="Trazado 890753" d="M823.011,902.629l-3.2,10.36v.005l-.005.022v.005l-4.46,24-.709,46.537H799.515l-.992-47.595c-.055-.859,1.377-40.423,1.377-40.423l1.26-15.127.089-.017.737-.133,4.814-.842h.016l12.338.067.3,1.584.3,1.568,2.255,11.867.144.754Z" transform="translate(-609.361 -672.668)" fill="#615370"/>
            <path id="Trazado_890754" data-name="Trazado 890754" d="M873.373,983.853h-15.7L850.8,940.535c-.72-2.848-2.842-26.792-2.881-27.218v-.033l-1.646-8.975-3.773-3.379-3.374-5.125-.172-1.147-1.723-11.512,2.593-.443,7.745-1.335,8.942-1.54,6.055.033a16,16,0,0,1,1.6,2.005,22.035,22.035,0,0,1,3.125,7.152c.127.5.249,1.008.354,1.524.222,1.041.393,2.111.538,3.186l.172,1.424c.005.033.005.061.011.094.576,5.191.094,33.1.166,34.73Z" transform="translate(-637.474 -672.963)" fill="#615370"/>
            <path id="Trazado_890755" data-name="Trazado 890755" d="M765.393,1287.7v.617a.958.958,0,0,1-.06.272,1.132,1.132,0,0,1-.113.153.6.6,0,0,1-.06.079v.007a.831.831,0,0,1-.1.066h-9.711c-.007,0-.007-.007-.013-.007-.026-.013-.047-.04-.08-.06a.756.756,0,0,1-.2-.259.692.692,0,0,1-.053-.259L755,1288.3l.007-.106-.013-.379.007-.026-3.85.033v.026l.007.245v.2a.725.725,0,0,1-.219.511.766.766,0,0,1-.113.086H735.137a.061.061,0,0,0,.006-.033,5.19,5.19,0,0,1,.1-.856,1.335,1.335,0,0,1,.033-.159,5.508,5.508,0,0,1,1.6-2.688c.491-.458,8.145-4.149,13.6-6.771l3.067-2.024a3.682,3.682,0,0,0,1.447-2.337.681.681,0,0,1,1.341.093l.159,1.639h.06l3.644-.04,4.587-.06h.047a56.173,56.173,0,0,1,.557,7.753Z" transform="translate(-563.324 -958.887)" fill="#615370"/>
            <path id="Trazado_890756" data-name="Trazado 890756" d="M751.154,1326.178v.2a.723.723,0,0,1-.219.511.745.745,0,0,1-.113.086H735.137a.061.061,0,0,0,.006-.033,5.227,5.227,0,0,1,.1-.856c3.253-.026,9.685-.086,15.9-.153Z" transform="translate(-563.324 -996.97)" fill="#463b54"/>
            <path id="Trazado_890757" data-name="Trazado 890757" d="M818.079,1325.374v.617a.953.953,0,0,1-.06.272,1.105,1.105,0,0,1-.113.153.593.593,0,0,1-.06.08v.007a.862.862,0,0,1-.1.067h-9.711c-.007,0-.007-.007-.013-.007-.027-.013-.047-.04-.08-.059a.758.758,0,0,1-.2-.259.7.7,0,0,1-.053-.259l-.007-.007.007-.106-.013-.379c4.447-.046,8.384-.093,10.4-.119" transform="translate(-616.01 -996.565)" fill="#463b54"/>
            <path id="Trazado_890758" data-name="Trazado 890758" d="M803.811,896.095l11.042-.651,11.138-.252,18.088-.4-.173-1.421-.863-7.016-.518-4.2-.325-2.629h-.518l-.909-.007-2.482-.013-6.054-.033-9.24-.046-12.34-.066h-.013l-4.905-.02-.557-.007H805Z" transform="translate(-613.202 -672.599)" fill="#615370"/>
            <path id="Trazado_890759" data-name="Trazado 890759" d="M846.233,973.316l1.659-5.642-13.11-5.144Z" transform="translate(-635.697 -733.029)" fill="#524660"/>
            <path id="Trazado_890760" data-name="Trazado 890760" d="M849.225,915.792l-2.952-7.98-4.021-2.346-2.921-14.38.976-.2,2.832,13.942,3.944,2.3,3.076,8.314Z" transform="translate(-639 -680.997)" fill="#524660"/>
            <rect id="Rectángulo_401649" data-name="Rectángulo 401649" width="0.996" height="15.101" transform="translate(204.866 209.865) rotate(-10.98)" fill="#524660"/>
            <path id="Trazado_890761" data-name="Trazado 890761" d="M919.872,905.307c-.1-.029-9.622-3.032-10.639-12.927l.991-.1c.951,9.244,9.848,12.048,9.938,12.076Z" transform="translate(-689.77 -682.006)" fill="#524660"/>
            <path id="Trazado_890762" data-name="Trazado 890762" d="M804.107,905.342l-.27-.959c5.266-1.482,5.115-11.633,5.113-11.735l1-.021c.009.449.16,11.025-5.839,12.715" transform="translate(-613.221 -682.259)" fill="#524660"/>
            <path id="Trazado_890763" data-name="Trazado 890763" d="M806.62,889.624h37.728l.521,4.2H806.321Z" transform="translate(-615.025 -680.078)" fill="#524660"/>
            <rect id="Rectángulo_401650" data-name="Rectángulo 401650" width="3.817" height="5.642" transform="translate(216.418 208.828)" fill="#615370"/>
            <rect id="Rectángulo_401651" data-name="Rectángulo 401651" width="3.817" height="5.642" transform="translate(196.504 208.828)" fill="#615370"/>
            <path id="Trazado_890764" data-name="Trazado 890764" d="M853.18,892.874h-5.49a1.322,1.322,0,0,1-1.32-1.321v-2.724a1.322,1.322,0,0,1,1.32-1.321h5.49a1.322,1.322,0,0,1,1.321,1.321v2.724a1.322,1.322,0,0,1-1.321,1.321m-5.49-4.37a.325.325,0,0,0-.325.325v2.724a.326.326,0,0,0,.325.325h5.49a.326.326,0,0,0,.325-.325v-2.724a.326.326,0,0,0-.325-.325Z" transform="translate(-644.112 -678.541)" fill="#f8cd9e"/>
            <path id="Trazado_890765" data-name="Trazado 890765" d="M860.523,896.463h3.333V895.44h-3.333a.512.512,0,0,0,0,1.023" transform="translate(-654.02 -684.302)" fill="#f8cd9e"/>
            <path id="Trazado_890766" data-name="Trazado 890766" d="M817.329,720.556l5.237-5.051.664-17.743-4.587,1.321Z" transform="translate(-623.02 -540.728)" fill="#615370"/>
            <path id="Trazado_890767" data-name="Trazado 890767" d="M882.254,719.377l4.062,5.43,2.655-28.49c-1.6-.478-3.087-.923-3.91-1.175Z" transform="translate(-670.176 -538.825)" fill="#615370"/>
            <path id="Trazado_890768" data-name="Trazado 890768" d="M807.766,787.045l14.742.747,22.565-1.633-9.7-3.677-2.184-26.021v-.033a5.5,5.5,0,0,0-.093-.664A5.939,5.939,0,0,0,827.3,750.9l-10.747-.113a5.96,5.96,0,0,0-5.934,4.978,5.636,5.636,0,0,0-.066.591l-.007.073-1.691,26.012-.816,1.286Z" transform="translate(-616.075 -579.239)" fill="#615370"/>
            <path id="Trazado_890769" data-name="Trazado 890769" d="M817.935,769.64H840.57a5.439,5.439,0,0,0-.093-.664H818.008a5.728,5.728,0,0,0-.066.591Z" transform="translate(-623.46 -592.451)" fill="#524660"/>
            <path id="Trazado_890770" data-name="Trazado 890770" d="M879.447,757.67a.871.871,0,1,0,.871-.871.871.871,0,0,0-.871.871" transform="translate(-668.137 -583.607)" fill="#524660"/>
            <path id="Trazado_890771" data-name="Trazado 890771" d="M832.76,757.67a.871.871,0,1,0,.871-.871.871.871,0,0,0-.871.871" transform="translate(-634.228 -583.607)" fill="#524660"/>
            <path id="Trazado_890772" data-name="Trazado 890772" d="M835.976,795.01a8.476,8.476,0,0,1-8.466-8.467V780.3h16.933v6.245a8.476,8.476,0,0,1-8.467,8.467m-7.547-13.792v5.325a7.547,7.547,0,1,0,15.095,0v-5.325Z" transform="translate(-630.415 -600.675)" fill="#524660"/>
            <path id="Trazado_890773" data-name="Trazado 890773" d="M842.29,1055.3h-1l.011-47.076.012-.055,6.633-29.207.971.221-6.621,29.152Z" transform="translate(-640.427 -744.968)" fill="#524660"/>
            <path id="Trazado_890774" data-name="Trazado 890774" d="M939.754,1023.806l-4.725-50.913.654-38.12,1,.017-.655,38.066,4.723,50.858Z" transform="translate(-708.506 -712.87)" fill="#524660"/>
            <path id="Trazado_890775" data-name="Trazado 890775" d="M893.3,1067.1c-.05-.227-.111-.449-.177-.67a8.781,8.781,0,0,0-.5-1.269,7.235,7.235,0,0,0-4.781-4.116,4.778,4.778,0,0,0-4.033.942l-.005,1.169a3.94,3.94,0,0,1,3.867-1.3,6.255,6.255,0,0,1,4.044,3.351,7.7,7.7,0,0,1,.609,1.457c.039.133.078.271.111.4a7.381,7.381,0,0,1-.2,4.449,4.459,4.459,0,0,1-2.8,2.8,3.719,3.719,0,0,1-1.185.172h-.05a4.261,4.261,0,0,1-.781-.094,4.74,4.74,0,0,1-.97-.321,5.617,5.617,0,0,1-1.5-.986l.46,1.363a5.278,5.278,0,0,0,1.457.654c.122.039.255.077.382.105a4.839,4.839,0,0,0,1.158.105.094.094,0,0,0,.055,0,4.628,4.628,0,0,0,1.224-.2,5.28,5.28,0,0,0,3.335-3.3,8.139,8.139,0,0,0,.282-4.72" transform="translate(-671.303 -804.5)" fill="#524660"/>
            <path id="Trazado_890776" data-name="Trazado 890776" d="M801.226,1073.6a4.473,4.473,0,0,1-.889-.4l.113,1a4.744,4.744,0,0,0,.9.292,4.915,4.915,0,0,0,1.042.113h.126a5.286,5.286,0,0,0,4.1-2.291,8.294,8.294,0,0,0,1.534-5.171c-.007-.213-.02-.418-.04-.624-.345-3.7-2.828-6.519-5.861-6.519h-.126a4.73,4.73,0,0,0-2.051.525l-.113,1.036a4.051,4.051,0,0,1,2.184-.73h.106c2.509,0,4.646,2.456,5.012,5.609.027.239.046.484.053.73a7.447,7.447,0,0,1-1.368,4.653,4.48,4.48,0,0,1-3.445,1.952h-.106a3.789,3.789,0,0,1-1.168-.18" transform="translate(-610.404 -803.829)" fill="#524660"/>
            <path id="Trazado_890777" data-name="Trazado 890777" d="M932.67,733.517s-.923,9.418-.923,15.143c0,0-1.385-12.1-.646-13.85s1.57-1.293,1.57-1.293" transform="translate(-705.495 -566.657)" fill="#f35923"/>
            <path id="Trazado_890778" data-name="Trazado 890778" d="M201.817,594.472a12.6,12.6,0,0,1-6.639-10.857c-.282-9.539,10.073-11.173,13.458-15.35a18.9,18.9,0,0,0,2.358-3.578.52.52,0,0,1,.984.16,15.735,15.735,0,0,1,.166,3.9c-.3,1.791-.4,2.08-.4,2.08a51.826,51.826,0,0,0,2.966-4.518,8.508,8.508,0,0,0,1.164-3.014.522.522,0,0,1,.989-.141,11.679,11.679,0,0,1,1.6,6.769l-.206,2.869a4,4,0,0,0,2.22-1.346.521.521,0,0,1,.932.356,17.76,17.76,0,0,1-2.712,7.247c-3.132,5.1-16.879,15.427-16.879,15.427" transform="translate(-171.146 -442.741)" fill="#2e2f4d"/>
            <path id="Trazado_890779" data-name="Trazado 890779" d="M218.268,666.011a2.754,2.754,0,0,1,.758,4.128l-.062.074c-1.376,1.645-4.508,4-10.752,2.078a14.768,14.768,0,0,1-4.981-2.6,2.746,2.746,0,0,1,.351-4.542,3.455,3.455,0,0,0,1.58-1.623c.372-1.04.487-7.689.328-11.073-.054-1.137-.205-3.411-.205-3.411l10.394,5.734s-.145,2.788-.224,5.05c-.047,1.341-.033,2.493-.03,2.778.015,1.383,1.462,2.578,2.844,3.407" transform="translate(-176.242 -505.343)" fill="#f6a49d"/>
            <path id="Trazado_890780" data-name="Trazado 890780" d="M206.851,647.55c-.413.925-2.414.963-4.469.086s-3.281-2.273-2.975-3.261c.406-1.312,2.414-.963,4.469-.086s3.388,2.337,2.975,3.261" transform="translate(-174.187 -501.323)" fill="#d47c74"/>
            <path id="Trazado_890781" data-name="Trazado 890781" d="M224.661,658.225s-.145,2.788-.224,5.05a5.582,5.582,0,0,1-2.2.325c-5.486-.494-7.683-9.81-7.683-9.81Z" transform="translate(-185.225 -508.791)" fill="#d47c74"/>
            <path id="Trazado_890782" data-name="Trazado 890782" d="M210.379,617.459c.038.3.083.608.135.914,1.245,7.22,6.062,12.482,10.759,11.751,2.636-.411,4.674-2.618,5.738-5.751.055-.161.107-.323.156-.488q.065-.22.125-.445a14.743,14.743,0,0,0,.328-1.585q.086-.541.136-1.1.057-.642.067-1.309a19.9,19.9,0,0,0-.289-3.717c-.047-.272-.105-.573-.172-.9-.027-.133-.056-.27-.087-.409q-.029-.133-.06-.269c0-.019-.008-.038-.013-.057a26.22,26.22,0,0,0-1.117-3.775c-.252.243-2.08.1-4.13-.155-3.773-.467-7.91-.877-9.978,2.294-.885,1.358-1.262,4.659-1.6,5" transform="translate(-182.19 -476.874)" fill="#f6a49d"/>
            <path id="Trazado_890783" data-name="Trazado 890783" d="M249.273,644.549l.608-.125c.411-.085.686-.427.593-.738l-.7-2.343A.636.636,0,0,0,249,641a.7.7,0,0,0-.611.631l.093,2.467c.012.327.379.538.79.453" transform="translate(-209.798 -499.486)" fill="#d47c74"/>
            <path id="Trazado_890784" data-name="Trazado 890784" d="M230.129,635.557c.065.5.42.861.793.816a.808.808,0,0,0,.557-.98c-.065-.5-.42-.861-.793-.816a.808.808,0,0,0-.557.98" transform="translate(-196.527 -494.834)" fill="#4f1d30"/>
            <path id="Trazado_890785" data-name="Trazado 890785" d="M226.444,625.622a1.179,1.179,0,0,0-.148-.209,2.4,2.4,0,0,0-.5-.45,2.694,2.694,0,0,0-.394-.225,3.055,3.055,0,0,0-.481-.175,3.045,3.045,0,0,0-1.123-.072,3.344,3.344,0,0,0-.561.129,4.665,4.665,0,0,0-.5.225c-.151.093-.287.2-.415.29a2.916,2.916,0,0,0-.317.314,1.637,1.637,0,0,0-.227.3c-.061.093-.106.18-.144.249a2.133,2.133,0,0,0-.107.226s.092-.029.236-.089c.071-.03.158-.065.25-.111a3.156,3.156,0,0,1,.317-.13c.116-.042.23-.105.36-.146s.261-.089.394-.138c.139-.031.277-.074.417-.11.145-.015.284-.068.43-.073a3.471,3.471,0,0,1,.435-.037c.145-.013.288,0,.431,0s.281.015.415.031.264.029.384.05c.244.033.454.076.6.106l.244.051" transform="translate(-190.287 -487.492)" fill="#2e2f4d"/>
            <path id="Trazado_890786" data-name="Trazado 890786" d="M262.864,633.133c.033.5.365.884.74.862a.811.811,0,0,0,.618-.944c-.033-.5-.365-.884-.74-.862a.811.811,0,0,0-.618.944" transform="translate(-220.308 -493.101)" fill="#4f1d30"/>
            <path id="Trazado_890787" data-name="Trazado 890787" d="M259.668,623.314a1.177,1.177,0,0,0-.134-.218,2.4,2.4,0,0,0-.469-.478,2.647,2.647,0,0,0-.379-.249,3.086,3.086,0,0,0-.469-.2,2.7,2.7,0,0,0-.541-.12,2.674,2.674,0,0,0-.576-.019,3.341,3.341,0,0,0-.568.095,4.735,4.735,0,0,0-.516.194c-.156.084-.3.178-.432.265a2.9,2.9,0,0,0-.336.295,1.636,1.636,0,0,0-.245.282c-.067.089-.118.173-.16.24a2.148,2.148,0,0,0-.122.219s.094-.023.241-.074c.073-.026.162-.055.256-.1a3.2,3.2,0,0,1,.325-.111c.119-.035.236-.091.368-.125s.266-.073.4-.114c.141-.022.281-.057.423-.085.146-.006.287-.05.434-.047a3.439,3.439,0,0,1,.436-.011c.145,0,.288.016.43.023s.28.032.412.056.262.044.381.073c.241.048.448.1.6.143l.24.066" transform="translate(-214.396 -485.716)" fill="#2e2f4d"/>
            <g id="Grupo_1101508" data-name="Grupo 1101508" transform="translate(31.247 142.22)" opacity="0.5">
              <g id="Grupo_1101507" data-name="Grupo 1101507">
                <g id="Grupo_1101506" data-name="Grupo 1101506" clip-path="url(#clip-path-5)">
                  <path id="Trazado_890788" data-name="Trazado 890788" d="M221.556,646.256a2.55,2.55,0,1,0,2.474-2.618,2.565,2.565,0,0,0-2.474,2.618" transform="translate(-221.555 -643.637)" fill="#d47c74"/>
                </g>
              </g>
            </g>
            <g id="Grupo_1101511" data-name="Grupo 1101511" transform="translate(42.268 141.907)" opacity="0.5">
              <g id="Grupo_1101510" data-name="Grupo 1101510">
                <g id="Grupo_1101509" data-name="Grupo 1101509" clip-path="url(#clip-path-6)">
                  <path id="Trazado_890789" data-name="Trazado 890789" d="M261.821,645.113a2.564,2.564,0,0,0,2.623,2.488l.085,0q.065-.22.125-.445a14.739,14.739,0,0,0,.328-1.585q.086-.541.136-1.1a17.32,17.32,0,0,0-.024-1.862,2.493,2.493,0,0,0-.8-.107,2.538,2.538,0,0,0-2.473,2.619" transform="translate(-261.82 -642.493)" fill="#d47c74"/>
                </g>
              </g>
            </g>
            <path id="Trazado_890790" data-name="Trazado 890790" d="M243.828,663.828a11.009,11.009,0,0,1-6.727.252s1.383,2.792,3.872,2.7,2.855-2.948,2.855-2.948" transform="translate(-201.599 -516.082)" fill="#fff"/>
            <path id="Trazado_890791" data-name="Trazado 890791" d="M204.275,607.269s1.417,3.51,3.174,4.029.907-2.524,1.064-5.075,1.986-3.852,6.115-2.315,7.666-1.258,7.666-1.258.688-4.717.61-4.769-12.055-.228-12.186-.2l-.05.014a8.9,8.9,0,0,0-6.418,9.233Z" transform="translate(-177.719 -468.035)" fill="#2e2f4d"/>
            <path id="Trazado_890792" data-name="Trazado 890792" d="M198.164,751.979c.033.765-.163,4.386-4.8,4.523-1.346.039-2.935.092-4.674.137-2.719.079-5.8.17-8.864.261-2.458.065-4.9.137-7.145.2-1.2.033-2.334.065-3.386.1-3.589.1-6.4-1.2-6.249-3.223.418-5.53,2.2-46.8,2.216-46.8.529-.183,3.654-1.131,6.432-1.961,1.576-.471,3.04-.909,3.85-1.157.333-.1.556-.163.634-.189l.314-.092.026.02.118.091a9.667,9.667,0,0,0,4.439,2.157,7.793,7.793,0,0,0,1.405.111,7.284,7.284,0,0,0,1.536-.177,7.539,7.539,0,0,0,1.085-.307,10.653,10.653,0,0,0,2.386-1.236c.131-.091.262-.183.392-.281l2.118.608,4.517,1.3,3.818,1.091c.046-.235-.784,20.454-.654,24.644.007.19.484,20.016.49,20.179" transform="translate(-147.805 -545.096)" fill="#f35923"/>
            <path id="Trazado_890793" data-name="Trazado 890793" d="M189.417,854.31l1.631,20.852-39.155.484,3.588-24.791Z" transform="translate(-139.711 -651.92)" fill="#f35923"/>
            <path id="Trazado_890794" data-name="Trazado 890794" d="M293.965,733.17c.081.924.165,1.848.254,2.754.2,1.95.049,3.928.656,5.495.062.156,3.352,3.825,3.352,3.825s.884.942,2.169,2.08q.114.107.241.214a.5.5,0,0,0,.049.045c.33.281.687.58,1.058.875a18.58,18.58,0,0,0,3.044,2.009,7.218,7.218,0,0,0,1.723.652,11.122,11.122,0,0,0,2.343.268,8.73,8.73,0,0,0,1.29-.076l.125-.054h0a17.859,17.859,0,0,0,2.584-1.415,66.24,66.24,0,0,0-3.116-9.677c-.013-.022-.227-.326-.594-.844-.125-.174-.268-.375-.428-.6-.313-.442-.692-.969-1.125-1.562-3.392-4.7-9.931-13.56-13.024-16.853-.746-.795-1.183,6.164-.607,12.863" transform="translate(-242.707 -557.058)" fill="#d47c74"/>
            <path id="Trazado_890795" data-name="Trazado 890795" d="M360.422,744.679l-.184.231-.006.006v.006c-.16.19-.4.492-.729.889-.024.024-.047.053-.077.089-1.482,1.79-4.445,5.31-7.729,8.814-1.239,1.333-2.531,2.691-3.841,4.006a64.96,64.96,0,0,1-7.13,5.6c-.012.006-.018.012-.03.018a.367.367,0,0,1-.059.042,17.8,17.8,0,0,1-2.584,1.416h-.006a7.9,7.9,0,0,1-1.991.053,10.9,10.9,0,0,1-2.3-.5,7.3,7.3,0,0,1-1.654-.824,4.814,4.814,0,0,1-.095-.587c-.024-.166-.036-.332-.048-.5-.012-.207-.018-.415-.012-.616a8.773,8.773,0,0,1,.688-3.272c.107-.243.214-.486.338-.735s.231-.48.368-.711c.136-.261.284-.522.444-.776.136-.219.29-.445.439-.67.112-.148.225-.3.344-.444a3.3,3.3,0,0,1,.32-.391,3.109,3.109,0,0,1,.255-.3c.3-.332.729-.729,1.245-1.185.018-.012.03-.024.047-.036.095-.089.2-.178.3-.267.065-.053.124-.107.189-.166.119-.095.237-.2.362-.3.415-.35.871-.717,1.357-1.109.042-.036.071-.059.113-.089.107-.077.207-.16.314-.249.93-.741,1.985-1.541,3.07-2.371a.407.407,0,0,0,.083-.053c4.967-3.746,10.87-7.883,12.589-9.08.125-.095.231-.166.308-.219h.006a1.962,1.962,0,0,1,.178-.118c0-.012.006-.012.006-.012l.036.03,3.491,3.022Z" transform="translate(-270.485 -571.592)" fill="#d47c74"/>
            <path id="Trazado_890796" data-name="Trazado 890796" d="M294.667,733.335c.081.924.165,1.848.254,2.754.2,1.95.049,3.928.656,5.494.062.156,3.352,3.825,3.352,3.825s.884.942,2.169,2.08l8.324-8.6c-.313-.442-.692-.969-1.125-1.562-3.392-4.7-9.931-13.56-13.024-16.853Z" transform="translate(-243.409 -557.222)" fill="#d47c74"/>
            <path id="Trazado_890797" data-name="Trazado 890797" d="M288.463,716.087a9.21,9.21,0,0,1,3.346,2.712c1.13,1.469,12.125,14.8,12.125,14.8l-11.251,11.623-5.532-5.137Z" transform="translate(-237.95 -554.038)" fill="#f35923"/>
            <path id="Trazado_890798" data-name="Trazado 890798" d="M149.4,1138.206a4.552,4.552,0,0,1,.027-1.25l.082-.551.42-2.656.071-.48,9.04-44.328.2-1.206h-.011c-.251-.066-8.118-1.91-12.3,1.091a5.868,5.868,0,0,0-1.855,2.155c-.005.005-.005.016-.011.027a7.1,7.1,0,0,0-.688,2.9c-.005.158-.011.311-.011.475,0,6.459-.138,31.971-2.26,40.5a.048.048,0,0,0-.006.027,22.171,22.171,0,0,0-.461,3.48,18.06,18.06,0,0,1-.262,2.1c-.076.491-.142.917-.147,1.146,0,.054-.005.109-.005.164-.011.633-.011.977-.011.977l10.126-.742-1.048-1.473a4.782,4.782,0,0,1-.709-1.451v-.006a3.38,3.38,0,0,1-.12-.518l-.005-.016c-.011-.066-.022-.136-.033-.208a1.446,1.446,0,0,1-.016-.153" transform="translate(-131.953 -823.516)" fill="#f6a49d"/>
            <path id="Trazado_890799" data-name="Trazado 890799" d="M150.534,1138.206a4.706,4.706,0,0,1,.251-1.921l9.389-47.344.2-1.206h-.011c-.251-.066-8.118-1.91-12.3,1.091a5.868,5.868,0,0,0-1.855,2.155c-.006.005-.006.016-.011.027-.082.224-.327,1.26-.688,2.9-1.86,8.364-.46,32.119-2.271,40.973a.048.048,0,0,0-.006.027,22.17,22.17,0,0,0-.461,3.48l7.823.2-.005-.016a1.361,1.361,0,0,1-.033-.208,1.454,1.454,0,0,1-.016-.153" transform="translate(-133.082 -823.516)" fill="#d47c74"/>
            <path id="Trazado_890800" data-name="Trazado 890800" d="M139.228,1288.336v.608a.934.934,0,0,0,.059.268,1.143,1.143,0,0,0,.111.15.626.626,0,0,0,.059.078v.006a.846.846,0,0,0,.1.066h9.564c.007,0,.007-.007.013-.007.026-.013.046-.039.078-.059a.737.737,0,0,0,.2-.255.685.685,0,0,0,.052-.255l.007-.007-.007-.1.013-.373-.006-.026,3.791.033v.026l-.007.242v.2a.714.714,0,0,0,.216.5.728.728,0,0,0,.111.085h15.447a.061.061,0,0,1-.006-.033,5.137,5.137,0,0,0-.1-.844,1.352,1.352,0,0,0-.033-.157,5.426,5.426,0,0,0-1.575-2.647c-.484-.451-8.021-4.086-13.394-6.668l-3.02-1.994a3.626,3.626,0,0,1-1.425-2.3.671.671,0,0,0-1.32.092l-.157,1.614h-.059l-3.589-.039-4.517-.059h-.046a55.236,55.236,0,0,0-.549,7.635Z" transform="translate(-130.513 -959.509)" fill="#615370"/>
            <path id="Trazado_890801" data-name="Trazado 890801" d="M190.459,1326.232v.2a.714.714,0,0,0,.216.5.736.736,0,0,0,.111.085h15.447a.059.059,0,0,1-.007-.033,5.107,5.107,0,0,0-.1-.843c-3.2-.026-9.537-.085-15.662-.15Z" transform="translate(-167.722 -997.012)" fill="#463b54"/>
            <path id="Trazado_890802" data-name="Trazado 890802" d="M139.228,1325.441v.608a.932.932,0,0,0,.059.268,1.112,1.112,0,0,0,.111.15.61.61,0,0,0,.059.079v.006a.814.814,0,0,0,.1.065h9.564c.007,0,.007-.006.013-.006.026-.013.046-.039.078-.059a.737.737,0,0,0,.2-.255.686.686,0,0,0,.052-.255l.007-.007-.007-.1.013-.373c-4.38-.046-8.256-.092-10.243-.117" transform="translate(-130.513 -996.614)" fill="#463b54"/>
            <path id="Trazado_890803" data-name="Trazado 890803" d="M256.033,1136.953a4.684,4.684,0,0,0,.026,1.628,4.745,4.745,0,0,0,.83,1.974l1.046,1.471-10.126.745s0-.346.013-.981c0-.052.007-.1.007-.163.013-.562.386-2.321.405-3.242.007-.19.007-.386.007-.588.007-.477.013-.98.013-1.51.007-.15.007-.3.013-.458.092-10.537-3.851-33.724-3.851-41.45a7.481,7.481,0,0,1,.712-3.4,5.869,5.869,0,0,1,1.856-2.157c4.183-3,12.047-1.157,12.3-1.092h.007l-.2,1.209-2.489,44.327-.072.477-.418,2.661Z" transform="translate(-206.911 -823.514)" fill="#f6a49d"/>
            <path id="Trazado_890804" data-name="Trazado 890804" d="M259.293,1087.73l-.2,1.209-2.489,44.327-.072.477-.418,2.661-.085.549a4.7,4.7,0,0,0,.026,1.628l-7.825-.2c.007-.19.007-.386.007-.588.007-.477.013-.981.013-1.51.007-.151.007-.3.013-.458.091-10.537-3.852-33.724-3.852-41.45a7.479,7.479,0,0,1,.712-3.4,5.871,5.871,0,0,1,1.856-2.157c4.184-3,12.048-1.157,12.3-1.092Z" transform="translate(-206.911 -823.513)" fill="#d47c74"/>
            <path id="Trazado_890805" data-name="Trazado 890805" d="M213.171,909.132l3.153,10.2v.005l.005.022v.005L220.722,943l.7,45.828h14.889l.977-46.87c.054-.845-1.356-39.807-1.356-39.807l-1.241-14.9-.087-.016-.726-.131-4.741-.829h-.016l-12.15.065-.294,1.56-.295,1.544-2.221,11.686-.142.742Z" transform="translate(-184.218 -677.648)" fill="#615370"/>
            <path id="Trazado_890806" data-name="Trazado 890806" d="M133.119,989.119h15.462l6.77-42.658c.709-2.8,2.8-26.384,2.837-26.8v-.033l1.62-8.838,3.715-3.328,3.323-5.046.169-1.129,1.7-11.337-2.553-.437-7.627-1.315-8.806-1.517-5.963.033a15.793,15.793,0,0,0-1.571,1.975,21.7,21.7,0,0,0-3.077,7.043c-.126.5-.246.993-.349,1.5-.218,1.025-.387,2.079-.529,3.137l-.169,1.4c-.005.033-.005.06-.011.093-.567,5.112-.093,32.592-.164,34.2Z" transform="translate(-126.076 -677.938)" fill="#615370"/>
            <path id="Trazado_890807" data-name="Trazado 890807" d="M254.842,1288.336v.608a.943.943,0,0,0,.059.268,1.142,1.142,0,0,0,.111.15.628.628,0,0,0,.059.078v.006a.845.845,0,0,0,.1.066h9.564c.007,0,.007-.007.013-.007.026-.013.046-.039.078-.059a.738.738,0,0,0,.2-.255.685.685,0,0,0,.052-.255l.007-.007-.007-.1.013-.373-.007-.026,3.791.033v.026l-.007.242v.2a.683.683,0,0,0,.327.588h15.447a.059.059,0,0,1-.007-.033,5.139,5.139,0,0,0-.1-.844,1.342,1.342,0,0,0-.033-.157,5.426,5.426,0,0,0-1.575-2.647c-.484-.451-8.021-4.086-13.394-6.668l-3.02-1.994a3.625,3.625,0,0,1-1.425-2.3.671.671,0,0,0-1.321.092l-.157,1.614h-.059l-3.589-.039-4.517-.059H255.4a55.283,55.283,0,0,0-.549,7.635Z" transform="translate(-214.484 -959.509)" fill="#615370"/>
            <path id="Trazado_890808" data-name="Trazado 890808" d="M306.073,1326.232v.2a.713.713,0,0,0,.216.5.736.736,0,0,0,.111.085h15.447a.059.059,0,0,1-.007-.033,5.13,5.13,0,0,0-.1-.843c-3.2-.026-9.537-.085-15.662-.15Z" transform="translate(-251.693 -997.012)" fill="#463b54"/>
            <path id="Trazado_890809" data-name="Trazado 890809" d="M254.842,1325.441v.608a.941.941,0,0,0,.059.268,1.112,1.112,0,0,0,.111.15.611.611,0,0,0,.059.079v.006a.813.813,0,0,0,.1.065h9.564c.007,0,.007-.006.013-.006.026-.013.046-.039.078-.059a.737.737,0,0,0,.2-.255.686.686,0,0,0,.052-.255l.007-.007-.007-.1.013-.373c-4.38-.046-8.256-.092-10.243-.117" transform="translate(-214.484 -996.614)" fill="#463b54"/>
            <path id="Trazado_890810" data-name="Trazado 890810" d="M190.843,902.7l-10.873-.642L169,901.807l-17.813-.4.17-1.4.85-6.909.51-4.138.32-2.589h.51l.9-.007,2.445-.013,5.962-.033,9.1-.046,12.152-.065h.013l4.831-.02.549-.006h.183Z" transform="translate(-139.199 -677.58)" fill="#615370"/>
            <path id="Trazado_890811" data-name="Trazado 890811" d="M220.039,978.742l-1.634-5.556,12.91-5.066Z" transform="translate(-188.019 -737.09)" fill="#524660"/>
            <path id="Trazado_890812" data-name="Trazado 890812" d="M223.056,922.093l-.92-.34,3.029-8.188,3.884-2.266,2.789-13.731.961.2-2.877,14.161-3.96,2.31Z" transform="translate(-190.73 -685.848)" fill="#524660"/>
            <rect id="Rectángulo_401654" data-name="Rectángulo 401654" width="14.871" height="0.981" transform="translate(33.809 226.106) rotate(-79.026)" fill="#524660"/>
            <path id="Trazado_890813" data-name="Trazado 890813" d="M153.219,911.768l-.285-.938c.088-.027,8.853-2.807,9.787-11.892l.975.1c-1,9.744-10.383,12.7-10.477,12.73" transform="translate(-140.468 -686.843)" fill="#524660"/>
            <path id="Trazado_890814" data-name="Trazado 890814" d="M279.814,911.8c-5.908-1.664-5.759-12.078-5.75-12.521l.98.02c0,.1-.145,10.1,5.035,11.557Z" transform="translate(-228.444 -687.093)" fill="#524660"/>
            <path id="Trazado_890815" data-name="Trazado 890815" d="M192.573,896.324H155.419l-.513,4.141h37.961Z" transform="translate(-141.9 -684.945)" fill="#524660"/>
            <rect id="Rectángulo_401655" data-name="Rectángulo 401655" width="3.759" height="5.556" transform="translate(22.469 210.673)" fill="#615370"/>
            <rect id="Rectángulo_401656" data-name="Rectángulo 401656" width="3.759" height="5.556" transform="translate(42.08 210.673)" fill="#615370"/>
            <path id="Trazado_890816" data-name="Trazado 890816" d="M231.615,899.524h-5.406a1.3,1.3,0,0,1-1.3-1.3v-2.683a1.3,1.3,0,0,1,1.3-1.3h5.406a1.3,1.3,0,0,1,1.3,1.3v2.683a1.3,1.3,0,0,1-1.3,1.3m-5.406-4.3a.321.321,0,0,0-.32.32v2.683a.321.321,0,0,0,.32.32h5.406a.321.321,0,0,0,.321-.32v-2.683a.321.321,0,0,0-.321-.32Z" transform="translate(-192.743 -683.431)" fill="#f8cd9e"/>
            <path id="Trazado_890817" data-name="Trazado 890817" d="M230.18,903.06H226.9v-1.008h3.282a.5.5,0,0,1,0,1.008" transform="translate(-194.188 -689.105)" fill="#f8cd9e"/>
            <path id="Trazado_890818" data-name="Trazado 890818" d="M267.341,729.831l-5.158-4.974-.654-17.473,4.517,1.3Z" transform="translate(-219.341 -547.716)" fill="#615370"/>
            <path id="Trazado_890819" data-name="Trazado 890819" d="M201.271,728.669l-4,5.347-2.615-28.056c1.575-.47,3.039-.909,3.85-1.157Z" transform="translate(-170.771 -545.842)" fill="#615370"/>
            <path id="Trazado_890820" data-name="Trazado 890820" d="M194.685,795.307l-14.517.735-22.222-1.608,9.557-3.621,2.151-25.625v-.033a5.4,5.4,0,0,1,.091-.654,5.849,5.849,0,0,1,5.7-4.792l10.583-.111a5.87,5.87,0,0,1,5.844,4.9,5.624,5.624,0,0,1,.065.582l.007.072,1.665,25.616.8,1.266Z" transform="translate(-144.108 -585.64)" fill="#615370"/>
            <path id="Trazado_890821" data-name="Trazado 890821" d="M223.013,778.167H200.722a5.342,5.342,0,0,1,.091-.654h22.127a5.549,5.549,0,0,1,.065.582Z" transform="translate(-175.176 -598.652)" fill="#524660"/>
            <path id="Trazado_890822" data-name="Trazado 890822" d="M217.038,766.379a.858.858,0,1,1-.858-.858.858.858,0,0,1,.858.858" transform="translate(-185.78 -589.942)" fill="#524660"/>
            <path id="Trazado_890823" data-name="Trazado 890823" d="M263.013,766.379a.858.858,0,1,1-.858-.858.858.858,0,0,1,.858.858" transform="translate(-219.172 -589.942)" fill="#524660"/>
            <path id="Trazado_890824" data-name="Trazado 890824" d="M220.147,803.151a8.348,8.348,0,0,1-8.338-8.338v-6.15h16.676v6.15a8.348,8.348,0,0,1-8.338,8.338m-7.432-13.582v5.244a7.432,7.432,0,1,0,14.864,0v-5.244Z" transform="translate(-183.229 -606.75)" fill="#524660"/>
            <path id="Trazado_890825" data-name="Trazado 890825" d="M238.25,1059.482l-.011-46.25-6.52-28.709.956-.217,6.544,28.816.011,46.36Z" transform="translate(-197.69 -748.846)" fill="#524660"/>
            <path id="Trazado_890826" data-name="Trazado 890826" d="M147.262,1028.464l-.977-.09,4.653-50.138-.647-37.433.98-.017.646,37.486Z" transform="translate(-135.639 -717.237)" fill="#524660"/>
            <path id="Trazado_890827" data-name="Trazado 890827" d="M182.835,1075.743a5.2,5.2,0,0,0,3.284,3.246,4.539,4.539,0,0,0,1.206.2.094.094,0,0,0,.054,0,4.787,4.787,0,0,0,1.14-.1c.125-.027.256-.065.376-.1a5.206,5.206,0,0,0,1.435-.644l.453-1.342a5.544,5.544,0,0,1-1.479.971,4.643,4.643,0,0,1-.955.317,4.229,4.229,0,0,1-.769.093h-.049a3.677,3.677,0,0,1-1.168-.169,4.392,4.392,0,0,1-2.76-2.755,7.262,7.262,0,0,1-.2-4.381c.033-.13.071-.267.109-.4a7.556,7.556,0,0,1,.6-1.435,6.16,6.16,0,0,1,3.983-3.3,3.881,3.881,0,0,1,3.808,1.276l-.005-1.151a4.707,4.707,0,0,0-3.972-.928,7.127,7.127,0,0,0-4.708,4.054,8.613,8.613,0,0,0-.491,1.25c-.065.218-.125.436-.175.66a8.016,8.016,0,0,0,.278,4.648" transform="translate(-161.825 -807.472)" fill="#524660"/>
            <path id="Trazado_890828" data-name="Trazado 890828" d="M276.055,1077.68h-.1a4.411,4.411,0,0,1-3.392-1.922,7.337,7.337,0,0,1-1.347-4.582c.007-.242.026-.484.052-.719.359-3.105,2.464-5.524,4.935-5.524h.1a3.991,3.991,0,0,1,2.151.719l-.111-1.02a4.654,4.654,0,0,0-2.02-.516H276.2c-2.987,0-5.432,2.772-5.772,6.419-.02.2-.033.405-.039.614a8.169,8.169,0,0,0,1.51,5.092,5.2,5.2,0,0,0,4.033,2.255h.124a4.831,4.831,0,0,0,1.026-.111,4.718,4.718,0,0,0,.889-.287l.111-.987a4.371,4.371,0,0,1-.876.392,3.745,3.745,0,0,1-1.15.177" transform="translate(-225.772 -806.812)" fill="#524660"/>
            <path id="Trazado_890829" data-name="Trazado 890829" d="M431.028,717.066s1.31-.489.848-1.382c-.424-.823-2.016-.737-2.016-.737s-.108-.846-1.353-1.073c-1.325-.244-7.24,1.233-8.13.572s1.26-1.34,2.012-2.063a5.376,5.376,0,0,0,1.121-2.068,29.567,29.567,0,0,0-6.168,3.257,51.685,51.685,0,0,0-6.108,6.331l-.337.4,4.208,4.3s.287-.184.741-.442h0a11.784,11.784,0,0,1,4.1-1.575c1.925-.146,8.628-1.327,9.111-1.78a2.4,2.4,0,0,0,.578-1.308,3.069,3.069,0,0,0,1.351-.767c.391-.49.044-1.673.044-1.673" transform="translate(-327.826 -549.845)" fill="#d47c74"/>
            <path id="Trazado_890830" data-name="Trazado 890830" d="M128.242,852.04l.055-.281,0,0,.04-.029,2.232-1.8,2.239-1.8-.255-.559-15.78-28.253-6.888.307c-1.6.931-3.1,3.719-2.263,5.375.322.638.734,1.394,1.263,2.282,1.357,2.279,19.354,24.761,19.354,24.761" transform="translate(-107.386 -629.013)" fill="#f6a49d"/>
            <path id="Trazado_890831" data-name="Trazado 890831" d="M181.146,920.567l.5.417c.019.016.039.033.061.049.036.031.075.065.118.1,1.456,1.208,3.64,2.988,4.958,3.983,1.7,1.279,4.055-1.016,4.055-1.016s.042.07.115.195l0,.005c.49.838,2.387,4.068,2.979,4.952.684,1.02,2.551,1.071,2.551,1.071s-1.45-6.076-4.1-8.938a37.089,37.089,0,0,0-7.292-5.447c-.148-.1-.229-.146-.229-.146Z" transform="translate(-160.958 -699.085)" fill="#f6a49d"/>
            <path id="Trazado_890832" data-name="Trazado 890832" d="M181.8,928.79c.607.913,4.513,7.917,4.987,8.478,1.094,1.292,1.611.4,1.611.4,1.539,1.211,2.531.134,2.531.134a1.59,1.59,0,0,0,1.636-.451c.565-.592-.625-4.166-1.136-5.607-.135-.374-.221-.6-.221-.6l-7.42-5.076-.024-.018-.131.191s-1.869,2.5-1.834,2.556" transform="translate(-161.43 -706.53)" fill="#f6a49d"/>
            <path id="Trazado_890833" data-name="Trazado 890833" d="M128.181,735.2l-5.583,15.25-.026-.007-.059-.006L111.159,748.4h-.013s.02-.046.059-.131c.013-.026.026-.065.039-.1.053-.111.111-.268.2-.451.065-.157.144-.34.229-.542.15-.36.333-.791.542-1.281,2.366-5.6,9.256-18.767,10.132-20.892a12.934,12.934,0,0,1,1.8-3.059,11.993,11.993,0,0,1,3.608-3.079c.19.941.536,2.667.9,4.648l-.8,6.988Z" transform="translate(-110.117 -556.057)" fill="#f6a49d"/>
            <path id="Trazado_890834" data-name="Trazado 890834" d="M112.132,751.016l.022.009,10.978,3.939.1-1.225.085.013L128.9,738.5l-.335-4.691a72.753,72.753,0,0,1-.607-10.391,18.393,18.393,0,0,0-3.1,1.834,12.674,12.674,0,0,0-1.794,3.057c-.955,2.307-10.716,22.169-10.716,22.169l-.214.536" transform="translate(-110.833 -559.363)" fill="#d47c74"/>
            <path id="Trazado_890835" data-name="Trazado 890835" d="M128.686,737.773l-5.815,11.443-1.634-.719-.053-.02-4.7-2.059-5.609-2.464-1.569-.686s9.726-20.1,11.507-22.463a18.643,18.643,0,0,1,5.441-4.613s.819,3.381,1.061,5.38c1.043,8.6,1.37,16.2,1.37,16.2" transform="translate(-108.781 -554.113)" fill="#f35923"/>
            <path id="Trazado_890836" data-name="Trazado 890836" d="M462.521,409.578c0,18.633-9.2,35.258-23.6,46.149a32.958,32.958,0,0,0-6.218,6.13A29.911,29.911,0,0,0,426.3,480.22v31.419a24.7,24.7,0,0,1-8.041,18.105,28.4,28.4,0,0,1-19.413,7.5c-15.163,0-27.454-11.463-27.454-25.6V480.22a30.655,30.655,0,0,0-12.539-24.428c-14.313-10.784-23.513-27.236-23.68-45.7q-.018-1.957.1-3.888c1.879-30.911,29.439-55.783,63.091-56.015,35.389-.243,64.157,26.439,64.157,59.387" transform="translate(-272.825 -288.285)" fill="#f8cd20"/>
            <g id="Grupo_1101514" data-name="Grupo 1101514" transform="translate(62.343 117.921)" opacity="0.5">
              <g id="Grupo_1101513" data-name="Grupo 1101513">
                <g id="Grupo_1101512" data-name="Grupo 1101512" clip-path="url(#clip-path-7)">
                  <path id="Trazado_890837" data-name="Trazado 890837" d="M432.7,610.507A29.911,29.911,0,0,0,426.3,628.87v31.419a24.7,24.7,0,0,1-8.041,18.105,28.4,28.4,0,0,1-19.412,7.5c-15.163,0-27.454-11.463-27.454-25.6V628.87a30.654,30.654,0,0,0-12.539-24.428c-14.313-10.784-23.513-27.236-23.679-45.7q-.018-1.957.1-3.888c15.838,32.872,51.255,55.765,92.408,55.765q2.526,0,5.023-.114" transform="translate(-335.169 -554.856)" fill="#fb9d7e"/>
                </g>
              </g>
            </g>
            <path id="Trazado_890838" data-name="Trazado 890838" d="M519.728,890.847v13.711c0,14.789-12.758,26.852-28.552,27.118-16.33.273-29.61-12.259-29.61-27.492V890.847a.816.816,0,0,1,.747-.787h.21c6.946-.01,49.524-.01,56.3,0a.76.76,0,0,0,.128,0l.037,0a.815.815,0,0,1,.743.787" transform="translate(-364.628 -680.389)" fill="#12263f"/>
            <path id="Trazado_890839" data-name="Trazado 890839" d="M508.226,899.156H450.762a4.552,4.552,0,1,1,0-9.1h57.464a4.552,4.552,0,0,1,0,9.1" transform="translate(-353.475 -680.389)" fill="#12263f"/>
            <path id="Trazado_890840" data-name="Trazado 890840" d="M508.226,932.417H450.762a4.552,4.552,0,1,1,0-9.1h57.464a4.552,4.552,0,0,1,0,9.1" transform="translate(-353.475 -704.547)" fill="#12263f"/>
            <g id="Grupo_1101517" data-name="Grupo 1101517" transform="translate(126.585 73.373)" opacity="0.74">
              <g id="Grupo_1101516" data-name="Grupo 1101516">
                <g id="Grupo_1101515" data-name="Grupo 1101515" clip-path="url(#clip-path-8)">
                  <path id="Trazado_890841" data-name="Trazado 890841" d="M616.494,444.615a5.915,5.915,0,0,1-5.916-5.915A34.814,34.814,0,0,0,575.8,403.923a5.916,5.916,0,0,1,0-11.831A46.66,46.66,0,0,1,622.41,438.7a5.915,5.915,0,0,1-5.916,5.915" transform="translate(-569.888 -392.092)" fill="#fff"/>
                </g>
              </g>
            </g>
            <path id="Trazado_890842" data-name="Trazado 890842" d="M506.08,511.415,493.213,554.1l19.648-.744L500.73,605.379l33.323-65.939-20.262.744,12.942-29.661Z" transform="translate(-387.614 -404.735)" fill="#f35923"/>
            <path id="Trazado_890843" data-name="Trazado 890843" d="M513.522,972.567v49.085H447.85V972.567a7.773,7.773,0,0,1,7.778-7.772h50.116a7.776,7.776,0,0,1,7.778,7.772" transform="translate(-354.666 -734.674)" fill="#016835"/>
            <path id="Trazado_890844" data-name="Trazado 890844" d="M746.109,784.209a23.562,23.562,0,0,1-3.762-.231c-3.172-.392-30.373-6.156-32.711-6.679a.051.051,0,0,1-.028,0l-.131-.029.288-.226,0-.005,0-.063.12-.575.622-2.956.176-.861.558-2.68.772-.033,2.432.15,29.891,1.852.224.016,2.121.131,3.386,5.556.641,1.045c-.116,2.109-2.612,5.541-4.6,5.592" transform="translate(-544.687 -593.098)" fill="#f6a49d"/>
            <path id="Trazado_890845" data-name="Trazado 890845" d="M667.951,765.552l-.692-.3c-.027-.012-.055-.023-.082-.038-.051-.02-.106-.043-.164-.069-2.008-.862-4.985-2.173-6.7-3.005-2.209-1.075-1.087-4.7-1.087-4.7s-.094-.007-.26-.015h-.007c-1.119-.064-5.438-.317-6.658-.461-1.409-.167-2.442-2.06-2.442-2.06s7.011-1.7,11.349-.476c3.833,1.088,8.1,3.842,9.434,4.636.177.1.27.158.27.158Z" transform="translate(-501.385 -581.563)" fill="#f6a49d"/>
            <path id="Trazado_890846" data-name="Trazado 890846" d="M674.029,774.669c-1.257-.144-10.513-.48-11.339-.674-1.9-.446-1.255-1.449-1.255-1.449-2.055-.946-1.468-2.532-1.468-2.532a1.836,1.836,0,0,1-.4-1.919c.312-.893,4.613-1.547,6.363-1.778.455-.057.736-.09.736-.09l9.12,4.964.031.015-.127.235s-1.591,3.237-1.665,3.228" transform="translate(-508.356 -590.455)" fill="#f6a49d"/>
            <path id="Trazado_890847" data-name="Trazado 890847" d="M833.033,743.779l-5.052,3.867-2.028,1.557-8.277,6.343-.078.061-.005.005-1.557,1.191-11.994-8.061,5.706-4.088.98-.7,6.809-4.875,2.089-1.5,6.853-4.9Z" transform="translate(-613.369 -566.091)" fill="#f6a49d"/>
            <path id="Trazado_890848" data-name="Trazado 890848" d="M872.206,712.8a15.364,15.364,0,0,1-5.465,16.648l-2.948,2.258-2.028,1.557-8.415-10.122,2.089-1.5,14.327-10.244a5.381,5.381,0,0,1,1.191-.665c.457.082.884.882,1.249,2.064" transform="translate(-649.182 -550.155)" fill="#d47c74"/>
            <path id="Trazado_890849" data-name="Trazado 890849" d="M881.14,709.75a20.643,20.643,0,0,0-1.658-3.8,7.761,7.761,0,0,0-4.774.17l-14.537,11.573.222.26,8.354,10.061.981,1.186s6.831-5.585,8.56-8.206a19.6,19.6,0,0,0,2.792-5.91,11.5,11.5,0,0,0,.061-5.33" transform="translate(-654.136 -546.455)" fill="#f35923"/>
          </g>
        </g>
      </g>
    </g>
  </g>
</svg>
