<svg xmlns="http://www.w3.org/2000/svg" xmlns:xlink="http://www.w3.org/1999/xlink" width="64" height="64" viewBox="0 0 64 64">
  <defs>
    <clipPath id="clip-path">
      <rect id="Rectángulo_401669" data-name="Rectángulo 401669" width="64" height="64" transform="translate(306.051 8177)" fill="#31845c" stroke="#707070" stroke-width="1"/>
    </clipPath>
  </defs>
  <g id="Grupo_1102071" data-name="Grupo 1102071" transform="translate(-303.051 -7689)">
    <g id="Enmascarar_grupo_1098719" data-name="Enmascarar grupo 1098719" transform="translate(-3 -488)" clip-path="url(#clip-path)">
      <g id="consumo-de-energia" transform="translate(306.049 8177)">
        <path id="Trazado_890860" data-name="Trazado 890860" d="M52.268,34.134A1.066,1.066,0,0,0,51.2,33.067h-32a1.067,1.067,0,1,0,0,2.133h32A1.066,1.066,0,0,0,52.268,34.134Z" fill="#31845c"/>
        <path id="Trazado_890861" data-name="Trazado 890861" d="M49.067,41.6H21.334a1.067,1.067,0,0,0,0,2.133H49.067a1.067,1.067,0,0,0,0-2.133Z" fill="#31845c"/>
        <path id="Trazado_890862" data-name="Trazado 890862" d="M55.212,49.377l5.432-18.63A4.029,4.029,0,0,0,56.781,25.6H53.287A18.985,18.985,0,0,0,54.4,19.2a19.2,19.2,0,0,0-38.4,0,18.959,18.959,0,0,0,1.115,6.4h-4.01l-1.074-6.445A3.879,3.879,0,0,0,8.12,16H4.268a1.067,1.067,0,0,0,0,2.133H8.12a1.779,1.779,0,0,1,1.807,1.373l5.748,34.486a4.4,4.4,0,0,0,4.136,3.579,4.221,4.221,0,0,0-.609,2.162,4.267,4.267,0,1,0,8.533,0,4.223,4.223,0,0,0-.593-2.133H41.128a4.223,4.223,0,0,0-.593,2.133,4.267,4.267,0,1,0,8.533,0,4.223,4.223,0,0,0-.593-2.133h3.793a1.067,1.067,0,0,0,0-2.133H20.157a2.347,2.347,0,0,1-2.378-1.825l-.229-1.375h33.79a4.01,4.01,0,0,0,3.872-2.891ZM25.6,59.734A2.133,2.133,0,1,1,23.467,57.6,2.136,2.136,0,0,1,25.6,59.734Zm21.334,0A2.133,2.133,0,1,1,44.8,57.6,2.136,2.136,0,0,1,46.934,59.734ZM18.134,19.2a17.067,17.067,0,1,1,34.134,0A16.824,16.824,0,0,1,51,25.6H38.315l5.109-6.642a1.858,1.858,0,0,0,.074-1.924A2,2,0,0,0,41.729,16H38.6L40.16,7.087a1.522,1.522,0,0,0-.986-1.65,1.545,1.545,0,0,0-1.844.537L26.975,19.441a1.858,1.858,0,0,0-.074,1.924,2,2,0,0,0,1.77,1.035H31.8l-.563,3.2H19.4a16.824,16.824,0,0,1-1.269-6.4Zm15.751,1.447a1.062,1.062,0,0,0-.817-.381H29.029L37.652,9.051l-1.369,7.833a1.066,1.066,0,0,0,1.052,1.249h4.037L35.625,25.6H33.4l.719-4.082a1.06,1.06,0,0,0-.235-.869ZM13.46,27.734h43.32a1.867,1.867,0,0,1,1.5.751,1.889,1.889,0,0,1,.311,1.669l-5.429,18.62a1.887,1.887,0,0,1-1.825,1.359H17.194l-3.733-22.4Z" fill="#31845c"/>
      </g>
    </g>
  </g>
</svg>
