<svg xmlns="http://www.w3.org/2000/svg" xmlns:xlink="http://www.w3.org/1999/xlink" width="64" height="64" viewBox="0 0 64 64">
  <defs>
    <clipPath id="clip-path">
      <rect id="Rectángulo_401670" data-name="Rectángulo 401670" width="64" height="64" transform="translate(615.051 8177)" fill="#016835" stroke="#707070" stroke-width="1"/>
    </clipPath>
  </defs>
  <g id="Grupo_1102072" data-name="Grupo 1102072" transform="translate(-615.051 -7689)">
    <g id="Enmascarar_grupo_1098720" data-name="Enmascarar grupo 1098720" transform="translate(0 -488)" clip-path="url(#clip-path)">
      <path id="consumo-de-energia_2_" data-name="consumo-de-energia (2)" d="M50.692,43.471a2.151,2.151,0,0,0-1.971-1.26H42.446V27.674a3.315,3.315,0,0,0-3.311-3.311h-.2l6.785-8.393a1.032,1.032,0,0,0-.8-1.681H35.134l.708-12.164A1.032,1.032,0,0,0,34,1.429L19.467,20.035A1.032,1.032,0,0,0,20.28,21.7H30l-.31,2.66H26.93a3.315,3.315,0,0,0-3.311,3.311V42.211H17.344a2.172,2.172,0,0,0-1.655,3.577L31.377,64.266a2.172,2.172,0,0,0,3.311,0L50.376,45.789a2.151,2.151,0,0,0,.315-2.318ZM22.4,19.638,33.589,5.307l-.58,9.954a1.032,1.032,0,0,0,1.03,1.092h8.713L31,30.889l1.179-10.1a1.032,1.032,0,0,0-1.025-1.152ZM48.8,44.452,33.114,62.93a.107.107,0,0,1-.164,0L17.262,44.452a.107.107,0,0,1,.082-.177h7.307a1.032,1.032,0,0,0,1.032-1.032V27.674a1.248,1.248,0,0,1,1.247-1.247h2.515l-.906,7.763a1.032,1.032,0,0,0,1.828.769l6.9-8.532h1.871a1.248,1.248,0,0,1,1.247,1.247V43.244a1.032,1.032,0,0,0,1.032,1.032h7.307a.107.107,0,0,1,.082.177Z" transform="translate(614.019 8175.968)" fill="#016835"/>
    </g>
  </g>
</svg>
