<svg xmlns="http://www.w3.org/2000/svg" xmlns:xlink="http://www.w3.org/1999/xlink" width="85" height="85" viewBox="0 0 85 85">
  <defs>
    <clipPath id="clip-path">
      <rect id="Rectángulo_401665" data-name="Rectángulo 401665" width="53.617" height="53.617" transform="translate(434.466 1136.66)" fill="#fff" stroke="#707070" stroke-width="1"/>
    </clipPath>
  </defs>
  <g id="Grupo_1102057" data-name="Grupo 1102057" transform="translate(-285.051 -941.201)">
    <g id="Grupo_1101569" data-name="Grupo 1101569" transform="translate(-133.949 -179.799)">
      <path id="Trazado_824488" data-name="Trazado 824488" d="M42.5,0A42.5,42.5,0,1,1,0,42.5,42.5,42.5,0,0,1,42.5,0Z" transform="translate(419 1121)" fill="#f35923"/>
      <g id="Enmascarar_grupo_1098807" data-name="Enmascarar grupo 1098807" transform="translate(0.226 0.031)" clip-path="url(#clip-path)">
        <g id="identificar" transform="translate(434.466 1136.66)">
          <path id="Trazado_891502" data-name="Trazado 891502" d="M33.814.787A18.8,18.8,0,0,0,18.3,29.853a1.221,1.221,0,0,1-.156,1.534l-6.389,6.389,4.089,4.089,6.389-6.389a1.221,1.221,0,0,1,1.534-.156A18.8,18.8,0,1,0,33.814.787Z" fill="#c5d3dd"/>
          <circle id="Elipse_11569" data-name="Elipse 11569" cx="14.457" cy="14.457" r="14.457" transform="translate(19.58 5.123)" fill="#f9f7f8"/>
          <path id="Trazado_891503" data-name="Trazado 891503" d="M38.316,5.766A14.462,14.462,0,0,1,25.569,31.3,14.459,14.459,0,1,0,38.316,5.766Z" fill="#dff6fd"/>
          <path id="Trazado_891504" data-name="Trazado 891504" d="M34.037,10.905,26.118,24.621H41.956Z" fill="#fdb441"/>
          <path id="Trazado_891505" data-name="Trazado 891505" d="M18.625,40.97l-5.979-5.979a.11.11,0,0,0-.155,0L.818,46.666a.11.11,0,0,0-.032.078v6.088H6.874a.11.11,0,0,0,.078-.032L18.625,41.125A.11.11,0,0,0,18.625,40.97Z" fill="#7a6d79"/>
          <g id="Grupo_1101787" data-name="Grupo 1101787">
            <path id="Trazado_891506" data-name="Trazado 891506" d="M9.882,14.818l-4.2-1.087a1.446,1.446,0,1,1,.725-2.8l4.2,1.087a1.446,1.446,0,0,1-.725,2.8Z" fill="#fe646f"/>
            <path id="Trazado_891507" data-name="Trazado 891507" d="M9.594,22.525l-4.329.265A1.446,1.446,0,0,1,5.088,19.9l4.329-.265a1.446,1.446,0,0,1,.177,2.886Z" fill="#fe646f"/>
            <path id="Trazado_891508" data-name="Trazado 891508" d="M14.1,5.14,10.44,2.807A1.446,1.446,0,0,0,8.885,5.245l3.656,2.333A1.446,1.446,0,1,0,14.1,5.14Z" fill="#fe646f"/>
          </g>
          <path id="Trazado_891509" data-name="Trazado 891509" d="M14.64,46.023,7.594,38.976a.129.129,0,0,1,0-.182L9.88,36.508a.129.129,0,0,1,.182,0l7.046,7.046a.129.129,0,0,1,0,.182l-2.286,2.286a.129.129,0,0,1-.182,0Z" fill="#c5d3dd"/>
          <path id="Trazado_891510" data-name="Trazado 891510" d="M34.037,34.822A15.243,15.243,0,1,0,18.794,19.58,15.26,15.26,0,0,0,34.037,34.822Zm0-28.914A13.672,13.672,0,1,1,20.365,19.58,13.687,13.687,0,0,1,34.037,5.908Z"/>
          <path id="Trazado_891511" data-name="Trazado 891511" d="M26.119,25.406H41.955a.785.785,0,0,0,.68-1.178l-1.42-2.46a.785.785,0,0,0-1.36.785l.74,1.282H27.479l6.558-11.359,3.95,6.841a.785.785,0,0,0,1.36-.785l-4.63-8.019a.785.785,0,0,0-1.36,0L25.438,24.228a.785.785,0,0,0,.68,1.178Z"/>
          <path id="Trazado_891512" data-name="Trazado 891512" d="M34.822,16.688a.785.785,0,0,0-1.571,0v2.158a.785.785,0,0,0,1.571,0Z"/>
          <circle id="Elipse_11570" data-name="Elipse 11570" cx="0.785" cy="0.785" r="0.785" transform="translate(33.25 20.889)"/>
          <path id="Trazado_891513" data-name="Trazado 891513" d="M5.487,14.491l4.2,1.087a2.231,2.231,0,1,0,1.119-4.32l-4.2-1.087a2.231,2.231,0,1,0-1.119,4.32Zm-.08-2.325a.66.66,0,0,1,.8-.474l4.2,1.087a.66.66,0,1,1-.331,1.279L5.88,12.97a.661.661,0,0,1-.474-.8Z"/>
          <path id="Trazado_891514" data-name="Trazado 891514" d="M5.313,23.574l4.329-.265h0a2.231,2.231,0,0,0-.273-4.454L5.04,19.12a2.231,2.231,0,0,0,.273,4.454Zm-.631-2.664a.656.656,0,0,1,.454-.222l4.329-.265a.66.66,0,0,1,.081,1.318l-4.329.265A.661.661,0,0,1,4.682,20.909Z"/>
          <path id="Trazado_891515" data-name="Trazado 891515" d="M8.462,5.907,12.118,8.24a2.231,2.231,0,1,0,2.4-3.762L10.863,2.145a2.231,2.231,0,0,0-2.4,3.762Zm.644-2.236a.661.661,0,0,1,.912-.2L13.674,5.8a.66.66,0,1,1-.71,1.113L9.307,4.583a.66.66,0,0,1-.2-.912Z"/>
          <path id="Trazado_891516" data-name="Trazado 891516" d="M47.882,5.735A19.619,19.619,0,0,0,21.8,4.268a.785.785,0,1,0,.98,1.227,18.023,18.023,0,0,1,29.26,14.3A18.012,18.012,0,0,1,24.193,34.663a2.016,2.016,0,0,0-2.519.258L17.68,38.915,14.7,35.936,18.7,31.942a2.016,2.016,0,0,0,.258-2.519A18.059,18.059,0,0,1,20.246,7.969a.785.785,0,1,0-1.2-1.011,19.632,19.632,0,0,0-1.405,23.325.433.433,0,0,1-.054.548l-3.994,3.994-.39-.39a.9.9,0,0,0-1.266,0l-1.425,1.425a.914.914,0,0,0-1.186.092L7.038,38.239a.914.914,0,0,0-.091,1.186L.262,46.111A.89.89,0,0,0,0,46.743v6.088a.785.785,0,0,0,.785.785H6.874a.889.889,0,0,0,.633-.262l6.685-6.685a.914.914,0,0,0,1.186-.092l2.286-2.286a.914.914,0,0,0,.092-1.186l1.425-1.425a.9.9,0,0,0,0-1.266l-.389-.389,3.994-3.994a.433.433,0,0,1,.548-.054A19.581,19.581,0,0,0,47.882,5.735ZM12.569,36.025l5.023,5.023-.94.94-5.023-5.023ZM14.732,45,13.8,44.07a.785.785,0,1,0-1.111,1.111l.385.385-6.48,6.479H1.571V47.023l6.48-6.479,2.043,2.043A.785.785,0,0,0,11.2,41.476L8.614,38.885l1.357-1.357,6.118,6.118Z"/>
        </g>
      </g>
    </g>
  </g>
</svg>
