<svg xmlns="http://www.w3.org/2000/svg" xmlns:xlink="http://www.w3.org/1999/xlink" width="64" height="64" viewBox="0 0 64 64">
  <defs>
    <clipPath id="clip-path">
      <rect id="Rectángulo_401671" data-name="Rectángulo 401671" width="64" height="64" transform="translate(922.051 8177)" fill="#016835" stroke="#707070" stroke-width="1"/>
    </clipPath>
  </defs>
  <g id="Grupo_1102073" data-name="Grupo 1102073" transform="translate(-922.051 -7689)">
    <g id="Enmascarar_grupo_1098721" data-name="Enmascarar grupo 1098721" transform="translate(0 -488)" clip-path="url(#clip-path)">
      <g id="consumo-de-energia_1_" data-name="consumo-de-energia (1)" transform="translate(916.336 8169.89)">
        <path id="Trazado_890863" data-name="Trazado 890863" d="M32.452,71.008h-.705A10.334,10.334,0,0,1,21.424,60.684V57.8a1.176,1.176,0,0,1,2.352,0v2.888a7.98,7.98,0,0,0,7.971,7.972h.705a7.98,7.98,0,0,0,7.971-7.972V16.624a9.411,9.411,0,0,1,18.821,0V39.272a1.176,1.176,0,0,1-2.352,0V16.624a7.059,7.059,0,1,0-14.118,0V60.684A10.335,10.335,0,0,1,32.452,71.008Z" fill="#016835"/>
        <path id="Trazado_890864" data-name="Trazado 890864" d="M27.066,50.737h-9.5a3.076,3.076,0,0,1,0-6.152h9.5a3.076,3.076,0,1,1,0,6.152Zm-9.5-3.8a.724.724,0,1,0,0,1.449h9.5a.724.724,0,0,0,0-1.449Z" fill="#016835"/>
        <path id="Trazado_890865" data-name="Trazado 890865" d="M27.066,54.539h-9.5a3.077,3.077,0,1,1,0-6.154h9.5a3.077,3.077,0,1,1,0,6.154Zm-9.5-3.8a.725.725,0,0,0,0,1.45h9.5a.725.725,0,0,0,0-1.45Z" fill="#016835"/>
        <path id="Trazado_890866" data-name="Trazado 890866" d="M22.316,58.339a4.982,4.982,0,0,1-4.977-4.976,1.176,1.176,0,0,1,1.176-1.176h7.6a1.176,1.176,0,0,1,1.176,1.176,4.981,4.981,0,0,1-4.976,4.976Zm-2.352-3.8a2.627,2.627,0,0,0,4.695,0Z" fill="#016835"/>
        <path id="Trazado_890867" data-name="Trazado 890867" d="M28.145,46.923l-.992-2.133a11.493,11.493,0,1,0-9.676,0l-.991,2.133a13.844,13.844,0,1,1,11.659,0Z" fill="#016835"/>
        <path id="Trazado_890868" data-name="Trazado 890868" d="M54.288,67.65a1.176,1.176,0,0,1-1.122-1.529l2.761-8.837H49.754A1.176,1.176,0,0,1,48.62,55.8l4.533-16.841a1.176,1.176,0,0,1,1.136-.871H64a1.176,1.176,0,0,1,1.077,1.646l-3.814,8.717h7.271a1.176,1.176,0,0,1,.9,1.934L55.186,67.234A1.176,1.176,0,0,1,54.288,67.65Zm-3-12.715h6.239a1.176,1.176,0,0,1,1.122,1.529l-1.505,4.821L66,50.819H59.47a1.176,1.176,0,0,1-1.077-1.646l3.813-8.726H55.19Z" fill="#016835"/>
        <path id="Trazado_890869" data-name="Trazado 890869" d="M11.288,23.078a1.176,1.176,0,0,1-.831-.344l-4.4-4.4a1.176,1.176,0,1,1,1.663-1.663l4.4,4.4a1.176,1.176,0,0,1-.831,2.007Z" fill="#016835"/>
        <path id="Trazado_890870" data-name="Trazado 890870" d="M32.883,23.078a1.176,1.176,0,0,1-.831-2.007l4.4-4.4a1.176,1.176,0,1,1,1.663,1.663l-4.4,4.4a1.176,1.176,0,0,1-.834.345Z" fill="#016835"/>
        <path id="Trazado_890871" data-name="Trazado 890871" d="M22.019,18.734a1.176,1.176,0,0,1-1.176-1.176V11.7a1.176,1.176,0,1,1,2.352,0v5.863A1.176,1.176,0,0,1,22.019,18.734Z" fill="#016835"/>
      </g>
    </g>
  </g>
</svg>
