<svg xmlns="http://www.w3.org/2000/svg" width="77" height="77" viewBox="0 0 77 77">
  <g id="Grupo_1102062" data-name="Grupo 1102062" transform="translate(-704.578 -791)">
    <g id="Grupo_1102061" data-name="Grupo 1102061">
      <g id="_17_Group_Idea" data-name="17 Group Idea" transform="translate(701.578 788)">
        <path id="Trazado_891603" data-name="Trazado 891603" d="M20.259,42.594a1.328,1.328,0,0,0,1.328-1.328,9.293,9.293,0,0,0-5.363-8.409,5.31,5.31,0,1,0-7.859,0A9.293,9.293,0,0,0,3,41.267a1.328,1.328,0,0,0,1.328,1.328ZM9.638,29.318a2.655,2.655,0,1,1,2.655,2.655A2.655,2.655,0,0,1,9.638,29.318Zm2.655,5.31a6.649,6.649,0,0,1,6.505,5.31H5.788a6.649,6.649,0,0,1,6.505-5.31Z" transform="translate(0 6.871)" fill="#f35923"/>
        <path id="Trazado_891604" data-name="Trazado 891604" d="M33.31,43a5.31,5.31,0,1,0,5.31,5.31A5.31,5.31,0,0,0,33.31,43Zm0,7.966a2.655,2.655,0,1,1,2.655-2.655A2.655,2.655,0,0,1,33.31,50.966Z" transform="translate(8.19 13.103)" fill="#f35923"/>
        <path id="Trazado_891605" data-name="Trazado 891605" d="M60.223,32.858a5.31,5.31,0,1,0-7.859,0A9.293,9.293,0,0,0,47,41.267a1.328,1.328,0,0,0,1.328,1.328H64.259a1.328,1.328,0,0,0,1.328-1.328,9.293,9.293,0,0,0-5.363-8.409Zm-6.585-3.539a2.655,2.655,0,1,1,2.655,2.655A2.655,2.655,0,0,1,53.638,29.318Zm-3.85,10.621a6.638,6.638,0,0,1,13.01,0Z" transform="translate(14.414 6.871)" fill="#f35923"/>
        <path id="Trazado_891606" data-name="Trazado 891606" d="M11.966,43.983a3.983,3.983,0,1,0-3.983,3.983A3.983,3.983,0,0,0,11.966,43.983ZM7.983,45.31A1.328,1.328,0,1,1,9.31,43.983,1.328,1.328,0,0,1,7.983,45.31Z" transform="translate(0.328 12.121)" fill="#f35923"/>
        <path id="Trazado_891607" data-name="Trazado 891607" d="M11.983,17.966A3.983,3.983,0,1,0,8,13.983,3.983,3.983,0,0,0,11.983,17.966Zm0-5.31a1.328,1.328,0,1,1-1.328,1.328A1.328,1.328,0,0,1,11.983,12.655Z" transform="translate(1.638 2.293)" fill="#f35923"/>
        <path id="Trazado_891608" data-name="Trazado 891608" d="M53.983,17.966A3.983,3.983,0,1,0,50,13.983a3.983,3.983,0,0,0,3.983,3.983Zm0-5.31a1.328,1.328,0,1,1-1.328,1.328A1.328,1.328,0,0,1,53.983,12.655Z" transform="translate(15.397 2.293)" fill="#f35923"/>
        <path id="Trazado_891609" data-name="Trazado 891609" d="M57.983,40a3.983,3.983,0,1,0,3.983,3.983A3.983,3.983,0,0,0,57.983,40Zm0,5.31a1.328,1.328,0,1,1,1.328-1.328A1.328,1.328,0,0,1,57.983,45.31Z" transform="translate(16.707 12.121)" fill="#f35923"/>
        <path id="Trazado_891610" data-name="Trazado 891610" d="M25.966,40.172a2.655,2.655,0,0,0,2.655,2.655v2.655a2.655,2.655,0,0,0,1.557,2.411l.885,3.542a2.655,2.655,0,0,0,2.577,2.013h5.892a2.655,2.655,0,0,0,2.577-2.013l.885-3.541a2.655,2.655,0,0,0,1.557-2.411V42.828a2.655,2.655,0,0,0,2.655-2.655c0-2.457,1.318-4.065,2.987-6.107,2.217-2.7,4.978-6.074,4.978-12.479a18.586,18.586,0,1,0-37.172,0c0,6.407,2.761,9.776,4.98,12.479C24.649,36.107,25.966,37.714,25.966,40.172ZM31.276,26.9H29.948a1.328,1.328,0,1,1,1.328-1.328Zm2.655,2.655h5.31V40.172h-5.31Zm5.6,21.241H33.64l-.664-2.655H40.2Zm2.364-5.31H31.276V42.828H41.9ZM36.586,5.655A15.948,15.948,0,0,1,52.517,21.586c0,5.456-2.225,8.174-4.381,10.8-1.76,2.153-3.584,4.381-3.584,7.785H41.9V29.552h1.328a3.983,3.983,0,1,0-3.983-3.983V26.9h-5.31V25.569a3.983,3.983,0,1,0-3.983,3.983h1.328V40.172H28.621c0-3.4-1.824-5.628-3.584-7.778-2.155-2.634-4.381-5.35-4.381-10.808A15.948,15.948,0,0,1,36.586,5.655ZM41.9,26.9V25.569A1.328,1.328,0,1,1,43.224,26.9Z" transform="translate(4.914)" fill="#f35923"/>
        <path id="Trazado_891611" data-name="Trazado 891611" d="M26.188,54.231a7.966,7.966,0,1,0-9.814,0A13.289,13.289,0,0,0,8,66.555a1.328,1.328,0,0,0,1.328,1.328h23.9a1.328,1.328,0,0,0,1.328-1.328,13.289,13.289,0,0,0-8.364-12.324ZM15.966,47.969a5.31,5.31,0,1,1,5.31,5.31A5.31,5.31,0,0,1,15.966,47.969Zm.186,17.259a5.268,5.268,0,0,1,1.37-2.426,1.327,1.327,0,1,0-1.877-1.877,7.9,7.9,0,0,0-2.218,4.3H10.737a10.621,10.621,0,0,1,21.077,0Z" transform="translate(1.638 12.118)" fill="#f35923"/>
        <path id="Trazado_891612" data-name="Trazado 891612" d="M54.188,54.231a7.966,7.966,0,1,0-9.814,0A13.289,13.289,0,0,0,36,66.555a1.328,1.328,0,0,0,1.328,1.328h23.9a1.328,1.328,0,0,0,1.328-1.328A13.289,13.289,0,0,0,54.188,54.231ZM43.966,47.969a5.31,5.31,0,1,1,5.31,5.31A5.31,5.31,0,0,1,43.966,47.969ZM57.125,65.227a7.894,7.894,0,0,0-2.22-4.3A1.328,1.328,0,1,0,53.029,62.8a5.256,5.256,0,0,1,1.37,2.425H38.734a10.621,10.621,0,0,1,21.077,0Z" transform="translate(10.81 12.118)" fill="#f35923"/>
      </g>
    </g>
  </g>
</svg>
