<svg xmlns="http://www.w3.org/2000/svg" xmlns:xlink="http://www.w3.org/1999/xlink" width="85" height="85" viewBox="0 0 85 85">
  <defs>
    <clipPath id="clip-path">
      <rect id="Rectángulo_401602" data-name="Rectángulo 401602" width="54" height="54" transform="translate(196.051 1864)" fill="#fff" stroke="#707070" stroke-width="1"/>
    </clipPath>
  </defs>
  <g id="Grupo_1102057" data-name="Grupo 1102057" transform="translate(-180.051 -1605)">
    <g id="Grupo_1101457" data-name="Grupo 1101457" transform="translate(0 -243)">
      <circle id="Elipse_11525" data-name="Elipse 11525" cx="42.5" cy="42.5" r="42.5" transform="translate(180.051 1848)" fill="#f35923"/>
      <g id="Enmascarar_grupo_1098712" data-name="Enmascarar grupo 1098712" clip-path="url(#clip-path)">
        <g id="mejora" transform="translate(195.45 1863.138)">
          <g id="Grupo_1101453" data-name="Grupo 1101453">
            <g id="Grupo_1101451" data-name="Grupo 1101451">
              <path id="Trazado_890557" data-name="Trazado 890557" d="M12.421,22.836H16.2a.54.54,0,0,1,.539.539v8.249a.54.54,0,0,1-.539.539H12.421a.54.54,0,0,1-.539-.539V23.375a.54.54,0,0,1,.539-.539Z" fill="#fe646f" fill-rule="evenodd"/>
              <path id="Trazado_890558" data-name="Trazado 890558" d="M15.126,22.836H16.2a.54.54,0,0,1,.539.539v8.249a.54.54,0,0,1-.539.539H15.126a.54.54,0,0,0,.539-.539V23.375a.54.54,0,0,0-.539-.539Z" fill="#fd4755" fill-rule="evenodd"/>
              <path id="Trazado_890559" data-name="Trazado 890559" d="M25.231,17.949H21.448a.54.54,0,0,0-.539.539V31.623a.54.54,0,0,0,.539.539h3.784a.54.54,0,0,0,.539-.539V18.488a.54.54,0,0,0-.539-.539Z" fill="#ffd064" fill-rule="evenodd"/>
              <path id="Trazado_890560" data-name="Trazado 890560" d="M25.231,17.949H24.153a.54.54,0,0,1,.539.539V31.623a.54.54,0,0,1-.539.539h1.078a.54.54,0,0,0,.539-.539V18.488a.54.54,0,0,0-.539-.539Z" fill="#ffc338" fill-rule="evenodd"/>
              <path id="Trazado_890561" data-name="Trazado 890561" d="M34.259,12.846H30.475a.54.54,0,0,0-.539.539V31.623a.54.54,0,0,0,.539.539h3.783a.54.54,0,0,0,.539-.539V13.386a.54.54,0,0,0-.539-.539Z" fill="#6cf5c2" fill-rule="evenodd"/>
              <path id="Trazado_890562" data-name="Trazado 890562" d="M34.259,12.846H33.18a.54.54,0,0,1,.539.539V31.623a.54.54,0,0,1-.539.539h1.078a.54.54,0,0,0,.539-.539V13.386a.54.54,0,0,0-.539-.539Z" fill="#00e499" fill-rule="evenodd"/>
              <path id="Trazado_890563" data-name="Trazado 890563" d="M39.5,8.256h3.784a.54.54,0,0,1,.539.539V31.623a.54.54,0,0,1-.539.539H39.5a.54.54,0,0,1-.539-.539V8.8a.54.54,0,0,1,.539-.539Z" fill="#8ac9fe" fill-rule="evenodd"/>
              <path id="Trazado_890564" data-name="Trazado 890564" d="M42.207,8.256h1.078a.54.54,0,0,1,.539.539V31.623a.54.54,0,0,1-.539.539H42.207a.54.54,0,0,0,.539-.539V8.8a.54.54,0,0,0-.539-.539Z" fill="#60b7ff" fill-rule="evenodd"/>
            </g>
            <g id="Grupo_1101452" data-name="Grupo 1101452">
              <path id="Trazado_890565" data-name="Trazado 890565" d="M27.6,26.646A23.473,23.473,0,0,0,4.124,50.119h8.75a14.723,14.723,0,0,1,29.446,0h8.75A23.473,23.473,0,0,0,27.6,26.646Z" fill="#8ac9fe" fill-rule="evenodd"/>
              <circle id="Elipse_11526" data-name="Elipse 11526" cx="3.356" cy="3.356" r="3.356" transform="translate(22.844 50.117) rotate(-45)" fill="#685e68"/>
              <path id="Trazado_890566" data-name="Trazado 890566" d="M27.6,46.763a3.356,3.356,0,1,1-.549,6.667,3.356,3.356,0,0,0,0-6.622,3.379,3.379,0,0,1,.549-.045Z" fill="#544854" fill-rule="evenodd"/>
              <path id="Trazado_890567" data-name="Trazado 890567" d="M40.35,42.757l7.579-4.376a23.59,23.59,0,0,0-8.593-8.593L34.96,37.367a14.8,14.8,0,0,1,5.39,5.39Z" fill="#6cf5c2" fill-rule="evenodd"/>
              <path id="Trazado_890568" data-name="Trazado 890568" d="M34.96,37.367l4.376-7.579A23.365,23.365,0,0,0,27.6,26.646V35.4a14.655,14.655,0,0,1,7.363,1.971Z" fill="#ffd064" fill-rule="evenodd"/>
              <path id="Trazado_890569" data-name="Trazado 890569" d="M27.6,35.4v-8.75a23.365,23.365,0,0,0-11.739,3.141l4.376,7.579A14.656,14.656,0,0,1,27.6,35.4Z" fill="#ffe177" fill-rule="evenodd"/>
              <path id="Trazado_890570" data-name="Trazado 890570" d="M20.235,37.367l-4.376-7.579a23.59,23.59,0,0,0-8.593,8.593l7.579,4.376a14.8,14.8,0,0,1,5.39-5.39Z" fill="#fd4755" fill-rule="evenodd"/>
              <path id="Trazado_890571" data-name="Trazado 890571" d="M14.845,42.757,7.265,38.381A23.365,23.365,0,0,0,4.124,50.119h8.75a14.656,14.656,0,0,1,1.97-7.363Z" fill="#fe646f" fill-rule="evenodd"/>
            </g>
          </g>
          <path id="Trazado_890572" data-name="Trazado 890572" d="M30.094,50.12A2.493,2.493,0,1,0,27.6,52.613,2.5,2.5,0,0,0,30.094,50.12ZM35.52,42.2a.86.86,0,0,1,0,1.219l-4.391,4.392a4.226,4.226,0,1,1-1.22-1.22L34.3,42.2a.86.86,0,0,1,1.219,0ZM50.2,49.257a22.419,22.419,0,0,0-2.6-9.685l-6.088,3.515a15.49,15.49,0,0,1,1.656,6.17Zm-9.554-7.664a15.709,15.709,0,0,0-4.516-4.515l3.516-6.089a22.79,22.79,0,0,1,7.088,7.089ZM19.076,37.079,15.56,30.99a22.79,22.79,0,0,0-7.088,7.089l6.088,3.515a15.709,15.709,0,0,1,4.517-4.515Zm-5.381,6.008a15.488,15.488,0,0,0-1.656,6.17H5.006a22.44,22.44,0,0,1,2.6-9.685Zm-.947-12.248a24.22,24.22,0,0,1,3.137-2.059V23.7H12.747Zm9.027-4.356a24.443,24.443,0,0,1,3.138-.551v-7.12H21.774Zm9.027-.49a24.291,24.291,0,0,1,3.137.622v-12.9H30.8Zm-4.063,1.535v7.032a15.453,15.453,0,0,0-6.17,1.655l-3.516-6.09a22.456,22.456,0,0,1,9.686-2.6ZM38.1,30.1a22.45,22.45,0,0,0-9.641-2.573v7.032a15.453,15.453,0,0,1,6.17,1.655L38.1,30.2Zm1.725-1.031a24.255,24.255,0,0,1,3.136,2.175V9.119H39.829ZM51.936,50.12a.862.862,0,0,1-.863.863h-8.75a.862.862,0,0,1-.862-.863,13.861,13.861,0,0,0-27.722,0,.862.862,0,0,1-.862.863H4.127a.863.863,0,0,1-.863-.863,24.178,24.178,0,0,1,7.128-17.208c.21-.21.425-.414.641-.616a.9.9,0,0,1-.012-.133V22.836a.863.863,0,0,1,.863-.863h4.863a.863.863,0,0,1,.862.863v5.081a24.07,24.07,0,0,1,2.44-.943V17.949a.863.863,0,0,1,.863-.862h4.862a.863.863,0,0,1,.863.862V25.8c.32-.012.641-.02.964-.02.495,0,.986.016,1.476.046V12.847a.862.862,0,0,1,.863-.863H34.8a.863.863,0,0,1,.863.863v14.3A23.9,23.9,0,0,1,38.1,28.154V8.257a.863.863,0,0,1,.863-.863h4.861a.862.862,0,0,1,.862.863V32.162a.86.86,0,0,1-.151.487c.091.087.18.174.269.262A24.182,24.182,0,0,1,51.936,50.12Zm-41.377-31.6a.862.862,0,0,1,.531-1.1A92.179,92.179,0,0,0,38.369,2.588H36.886a.863.863,0,0,1,0-1.725H40.78A.863.863,0,0,1,41.625,1.9l-.77,3.817a.864.864,0,0,1-.845.692.877.877,0,0,1-.172-.017.863.863,0,0,1-.675-1.016l.292-1.444a93.9,93.9,0,0,1-27.8,15.118.854.854,0,0,1-.284.048.863.863,0,0,1-.815-.579Z" fill="#242222" fill-rule="evenodd"/>
        </g>
      </g>
    </g>
  </g>
</svg>
