<svg xmlns="http://www.w3.org/2000/svg" xmlns:xlink="http://www.w3.org/1999/xlink" width="85" height="85" viewBox="0 0 85 85">
  <defs>
    <clipPath id="clip-path">
      <rect id="Rectángulo_401665" data-name="Rectángulo 401665" width="53.617" height="53.617" transform="translate(434.466 1136.66)" fill="#fff" stroke="#707070" stroke-width="1"/>
    </clipPath>
  </defs>
  <g id="Grupo_1102056" data-name="Grupo 1102056" transform="translate(-327.5 -984)">
    <g id="Grupo_1102055" data-name="Grupo 1102055" transform="translate(42.475 -11)">
      <g id="Grupo_1101569" data-name="Grupo 1101569" transform="translate(-133.975 -126)">
        <path id="Trazado_824488" data-name="Trazado 824488" d="M42.5,0A42.5,42.5,0,1,1,0,42.5,42.5,42.5,0,0,1,42.5,0Z" transform="translate(419 1121)" fill="#f35923"/>
        <g id="Enmascarar_grupo_1098813" data-name="Enmascarar grupo 1098813" transform="translate(0.226 0.031)" clip-path="url(#clip-path)">
          <g id="prioridad" transform="translate(434.466 1136.66)">
            <path id="Trazado_892584" data-name="Trazado 892584" d="M50.993,53.583H29.68a2.627,2.627,0,0,1-2.624-2.624V40.6a.785.785,0,0,1,1.571,0V50.959a1.054,1.054,0,0,0,1.053,1.053H50.993a1.054,1.054,0,0,0,1.053-1.053v-11.7a1.054,1.054,0,0,0-1.053-1.053h-4.04a.785.785,0,0,1,0-1.571h4.04a2.627,2.627,0,0,1,2.624,2.624v11.7A2.627,2.627,0,0,1,50.993,53.583Z" fill="#fff"/>
            <g id="Grupo_1101963" data-name="Grupo 1101963">
              <path id="Línea_616" data-name="Línea 616" d="M11.3.785H0A.785.785,0,0,1-.785,0,.785.785,0,0,1,0-.785H11.3A.785.785,0,0,1,12.086,0,.785.785,0,0,1,11.3.785Z" transform="translate(38.589 45.738)" fill="#fff"/>
              <path id="Línea_617" data-name="Línea 617" d="M1.658.785H0A.785.785,0,0,1-.785,0,.785.785,0,0,1,0-.785H1.658A.785.785,0,0,1,2.444,0,.785.785,0,0,1,1.658.785Z" transform="translate(38.589 48.47)" fill="#fff"/>
              <g id="Grupo_1101962" data-name="Grupo 1101962">
                <path id="Trazado_892585" data-name="Trazado 892585" d="M33.946,50.172h-.007a.785.785,0,0,1-.779-.792c0-.365.006-.77.009-1.191H30.6a.785.785,0,0,1-.688-1.165c.532-.965,2.3-4.148,2.682-4.619a1.217,1.217,0,0,1,1.311-.475,1.263,1.263,0,0,1,.84,1.138c.02.239.015,1.946.006,3.55h.069a.785.785,0,0,1,0,1.571h-.079c0,.542-.008.978-.01,1.2A.785.785,0,0,1,33.946,50.172Zm-2.011-3.554h1.245c0-.81.008-1.591.009-2.2C32.843,45.008,32.4,45.8,31.936,46.618Z" fill="#fff"/>
              </g>
            </g>
            <g id="Grupo_1101965" data-name="Grupo 1101965">
              <path id="Línea_618" data-name="Línea 618" d="M0,4.41a.783.783,0,0,1-.555-.23.785.785,0,0,1,0-1.111L3.069-.555a.785.785,0,0,1,1.111,0,.785.785,0,0,1,0,1.111L.555,4.18A.783.783,0,0,1,0,4.41Z" transform="translate(43.965 7.003)" fill="#fff"/>
              <g id="Grupo_1101964" data-name="Grupo 1101964">
                <path id="Línea_619" data-name="Línea 619" d="M0,2.2a.786.786,0,0,1-.754-.569A.785.785,0,0,1-.217.662L4.709-.755a.785.785,0,0,1,.972.538.785.785,0,0,1-.538.972L.217,2.172A.786.786,0,0,1,0,2.2Z" transform="translate(46.464 12.88)" fill="#fff"/>
                <path id="Línea_620" data-name="Línea 620" d="M0,5.712a.786.786,0,0,1-.217-.031.785.785,0,0,1-.538-.972L.662-.217a.785.785,0,0,1,.972-.538.785.785,0,0,1,.538.972L.755,5.144A.786.786,0,0,1,0,5.712Z" transform="translate(40.296 3.202)" fill="#fff"/>
              </g>
            </g>
            <path id="Trazado_892586" data-name="Trazado 892586" d="M38.493,41.382H23.8a2.627,2.627,0,0,1-2.624-2.624V28.395a.785.785,0,0,1,1.571,0V38.758A1.055,1.055,0,0,0,23.8,39.812H38.493a.785.785,0,1,1,0,1.571Z" fill="#fff"/>
            <path id="Trazado_892587" data-name="Trazado 892587" d="M45.113,41.382H42.1a.785.785,0,1,1,0-1.571h3.014a1.055,1.055,0,0,0,1.053-1.053v-11.7a1.055,1.055,0,0,0-1.053-1.054h-4.04a.785.785,0,1,1,0-1.571h4.04a2.627,2.627,0,0,1,2.624,2.624v11.7A2.627,2.627,0,0,1,45.113,41.382Z" fill="#fff"/>
            <path id="Línea_621" data-name="Línea 621" d="M11.3.785H0A.785.785,0,0,1-.785,0,.785.785,0,0,1,0-.785H11.3A.785.785,0,0,1,12.086,0,.785.785,0,0,1,11.3.785Z" transform="translate(32.711 33.537)" fill="#fff"/>
            <path id="Línea_622" data-name="Línea 622" d="M5.223.785H0A.785.785,0,0,1-.785,0,.785.785,0,0,1,0-.785H5.223A.785.785,0,0,1,6.008,0,.785.785,0,0,1,5.223.785Z" transform="translate(32.711 36.268)" fill="#fff"/>
            <path id="Trazado_892588" data-name="Trazado 892588" d="M39.235,29.18H17.923A2.627,2.627,0,0,1,15.3,26.556V16.194a.785.785,0,1,1,1.571,0V26.556a1.054,1.054,0,0,0,1.053,1.053H39.235a1.054,1.054,0,0,0,1.053-1.053v-11.7a1.054,1.054,0,0,0-1.053-1.053H35.2a.785.785,0,0,1,0-1.571h4.04a2.627,2.627,0,0,1,2.624,2.624v11.7A2.627,2.627,0,0,1,39.235,29.18Z" fill="#fff"/>
            <g id="Grupo_1101967" data-name="Grupo 1101967">
              <path id="Línea_623" data-name="Línea 623" d="M11.3.785H0A.785.785,0,0,1-.785,0,.785.785,0,0,1,0-.785H11.3A.785.785,0,0,1,12.086,0,.785.785,0,0,1,11.3.785Z" transform="translate(26.888 21.335)" fill="#fff"/>
              <path id="Línea_624" data-name="Línea 624" d="M7.932.785H0A.785.785,0,0,1-.785,0,.785.785,0,0,1,0-.785H7.932A.785.785,0,0,1,8.717,0,.785.785,0,0,1,7.932.785Z" transform="translate(26.888 24.067)" fill="#fff"/>
              <g id="Grupo_1101966" data-name="Grupo 1101966">
                <path id="Trazado_892589" data-name="Trazado 892589" d="M21.3,25.181a4.807,4.807,0,0,1-1.362-.065.812.812,0,0,1-.528-.535c-.132-.429.062-.683.448-1.189.3-.4.871-1.14,1.82-2.5a3.293,3.293,0,0,0,.508-1l.017-.13a.75.75,0,0,0-1.485-.105.785.785,0,1,1-1.541-.3,2.321,2.321,0,0,1,4.6.449.784.784,0,0,1-.006.1l-.03.232a.785.785,0,0,1-.014.078,4.664,4.664,0,0,1-.76,1.575c-.554.791-.98,1.378-1.3,1.811.487,0,1.043-.006,1.571-.013a.785.785,0,1,1,.02,1.571C22.386,25.177,21.757,25.181,21.3,25.181Z" fill="#fff"/>
              </g>
            </g>
            <path id="Trazado_892590" data-name="Trazado 892590" d="M33.356,16.979H12.044A2.627,2.627,0,0,1,9.42,14.355V2.658A2.627,2.627,0,0,1,12.044.033H33.356a2.627,2.627,0,0,1,2.624,2.624V4.841a.785.785,0,0,1-1.571,0V2.658A1.055,1.055,0,0,0,33.356,1.6H12.044a1.054,1.054,0,0,0-1.052,1.054v11.7a1.054,1.054,0,0,0,1.052,1.053H33.356a1.055,1.055,0,0,0,1.053-1.053V8.506a.785.785,0,1,1,1.571,0v5.849A2.627,2.627,0,0,1,33.356,16.979Z" fill="#fff"/>
            <path id="Línea_625" data-name="Línea 625" d="M11.3.785H0A.785.785,0,0,1-.785,0,.785.785,0,0,1,0-.785H11.3A.785.785,0,0,1,12.086,0,.785.785,0,0,1,11.3.785Z" transform="translate(20.827 8.506)" fill="#fff"/>
            <path id="Línea_626" data-name="Línea 626" d="M5.223.785H0A.785.785,0,0,1-.785,0,.785.785,0,0,1,0-.785H5.223A.785.785,0,0,1,6.008,0,.785.785,0,0,1,5.223.785Z" transform="translate(20.827 11.238)" fill="#fff"/>
            <path id="Trazado_892591" data-name="Trazado 892591" d="M16.783,40.3l-.093,0a16.188,16.188,0,0,1-9.721-3.732.785.785,0,1,1,1.005-1.207,14.617,14.617,0,0,0,8.776,3.37.783.783,0,1,0,.059-1.566,13.022,13.022,0,0,1-12.3-15.409.785.785,0,0,1,1.175-.529l.963.576a.257.257,0,0,0,.389-.217l.087-5.773a.258.258,0,0,0-.384-.229L1.7,18.391a.258.258,0,0,0-.006.447l1.16.693a.785.785,0,0,1,.356.877A14.6,14.6,0,0,0,5.587,32.829a.785.785,0,0,1-1.263.934A16.147,16.147,0,0,1,1.552,20.581l-.662-.4a1.829,1.829,0,0,1,.047-3.167L5.98,14.208A1.829,1.829,0,0,1,8.7,15.833l-.087,5.772A1.828,1.828,0,0,1,5.9,23.179,11.457,11.457,0,0,0,16.868,35.591a2.354,2.354,0,0,1-.085,4.707Z" fill="#fff"/>
            <g id="Grupo_1101968" data-name="Grupo 1101968">
              <path id="Trazado_892592" data-name="Trazado 892592" d="M15.635,12.606a2.319,2.319,0,0,1-2.321-2.321.785.785,0,1,1,1.571,0,.77.77,0,0,0,.007.106.75.75,0,1,0,.743-.856.785.785,0,1,1,0-1.571.75.75,0,1,0-.736-.9.785.785,0,1,1-1.541-.3A2.321,2.321,0,1,1,17.374,8.75a2.32,2.32,0,0,1-1.739,3.856Z" fill="#fff"/>
            </g>
            <g id="Grupo_1101969" data-name="Grupo 1101969">
              <path id="Trazado_892593" data-name="Trazado 892593" d="M27.483,37.636a.785.785,0,0,1-.785-.785V31.635h-.5a.785.785,0,1,1,0-1.571h1.283a.785.785,0,0,1,.785.785v6A.785.785,0,0,1,27.483,37.636Z" fill="#fff"/>
            </g>
          </g>
        </g>
      </g>
    </g>
  </g>
</svg>
