<svg xmlns="http://www.w3.org/2000/svg" xmlns:xlink="http://www.w3.org/1999/xlink" width="85" height="85" viewBox="0 0 85 85">
  <defs>
    <clipPath id="clip-path">
      <rect id="Rectángulo_401665" data-name="Rectángulo 401665" width="53.617" height="53.617" transform="translate(434.466 1136.66)" fill="#fff" stroke="#707070" stroke-width="1"/>
    </clipPath>
    <clipPath id="clip-path-2">
      <path id="path2989" d="M0-53.617H53.617V0H0Z" fill="#fff"/>
    </clipPath>
  </defs>
  <g id="Grupo_1102057" data-name="Grupo 1102057" transform="translate(-599.975 -995)">
    <g id="Grupo_1101593" data-name="Grupo 1101593" transform="translate(180.975 -126)">
      <path id="Trazado_824488" data-name="Trazado 824488" d="M42.5,0A42.5,42.5,0,1,1,0,42.5,42.5,42.5,0,0,1,42.5,0Z" transform="translate(419 1121)" fill="#f35923"/>
      <g id="Enmascarar_grupo_1098814" data-name="Enmascarar grupo 1098814" clip-path="url(#clip-path)">
        <g id="g2979" transform="translate(434.466 1190.277)">
          <g id="g2981" transform="translate(27.197 -39.714)">
            <path id="path2983" d="M0,.785H-15.41A.785.785,0,0,1-16.2,0a.785.785,0,0,1,.785-.785H0A.785.785,0,0,1,.785,0,.785.785,0,0,1,0,.785Z" fill="#fff"/>
          </g>
          <g id="g2985">
            <g id="g2987" clip-path="url(#clip-path-2)">
              <g id="g2993" transform="translate(11.787 -52.831)">
                <path id="path2995" d="M22.637,13.9H19.075a.785.785,0,1,1,0-1.571h3.562A1.331,1.331,0,0,0,23.967,11V2.115a1.331,1.331,0,0,0-1.33-1.33H0A.785.785,0,0,1-.785,0,.785.785,0,0,1,0-.785H22.637a2.9,2.9,0,0,1,2.9,2.9V11A2.9,2.9,0,0,1,22.637,13.9Z" fill="#fff"/>
              </g>
              <g id="g2997" transform="translate(11.787 -39.714)">
                <path id="path2999" d="M0,.785H-8.886a2.9,2.9,0,0,1-2.9-2.9V-11a2.9,2.9,0,0,1,2.9-2.9H0A2.9,2.9,0,0,1,2.9-11v8.886A2.9,2.9,0,0,1,0,.785ZM-8.886-12.332A1.332,1.332,0,0,0-10.216-11v8.886a1.332,1.332,0,0,0,1.33,1.33H0a1.332,1.332,0,0,0,1.33-1.33V-11A1.332,1.332,0,0,0,0-12.332Z" fill="#fff"/>
              </g>
              <g id="g3001" transform="translate(5.897 -49.658)">
                <path id="path3003" d="M1.447,7.556A.785.785,0,0,1,.662,6.77V.785H0A.785.785,0,0,1-.785,0,.785.785,0,0,1,0-.785H1.447A.785.785,0,0,1,2.232,0V6.77A.785.785,0,0,1,1.447,7.556Z" fill="#fff"/>
              </g>
              <g id="g3005" transform="translate(33.155 -47.965)">
                <path id="path3007" d="M0,.785H-8.251A.785.785,0,0,1-9.037,0a.785.785,0,0,1,.785-.785H0A.785.785,0,0,1,.785,0,.785.785,0,0,1,0,.785Z" fill="#fff"/>
              </g>
              <g id="g3009" transform="translate(21.519 -47.965)">
                <path id="path3011" d="M0,.785H-2.116A.785.785,0,0,1-2.9,0a.785.785,0,0,1,.785-.785H0A.785.785,0,0,1,.785,0,.785.785,0,0,1,0,.785Z" fill="#fff"/>
              </g>
              <g id="g3013" transform="translate(24.904 -44.58)">
                <path id="path3015" d="M0,.785H-7.617A.785.785,0,0,1-8.4,0a.785.785,0,0,1,.785-.785H0A.785.785,0,0,1,.785,0,.785.785,0,0,1,0,.785Z" fill="#fff"/>
              </g>
              <g id="g3017" transform="translate(31.04 -44.58)">
                <path id="path3019" d="M0,.785H-2.75A.785.785,0,0,1-3.536,0,.785.785,0,0,1-2.75-.785H0A.785.785,0,0,1,.785,0,.785.785,0,0,1,0,.785Z" fill="#fff"/>
              </g>
              <g id="g3021" transform="translate(16.23 -33.367)">
                <path id="path3023" d="M22.638,13.9H0a.785.785,0,0,1-.785-.785A.785.785,0,0,1,0,12.332H22.638A1.332,1.332,0,0,0,23.968,11V2.116a1.332,1.332,0,0,0-1.33-1.33H0A.785.785,0,0,1-.785,0,.785.785,0,0,1,0-.785H22.638a2.9,2.9,0,0,1,2.9,2.9V11A2.9,2.9,0,0,1,22.638,13.9Z" fill="#fff"/>
              </g>
              <g id="g3025" transform="translate(16.23 -20.25)">
                <path id="path3027" d="M0,.785H-8.886a2.9,2.9,0,0,1-2.9-2.9V-11a2.9,2.9,0,0,1,2.9-2.9H0A2.9,2.9,0,0,1,2.9-11v8.886A2.9,2.9,0,0,1,0,.785ZM-8.886-12.332A1.332,1.332,0,0,0-10.216-11v8.886a1.332,1.332,0,0,0,1.33,1.33H0a1.332,1.332,0,0,0,1.33-1.33V-11A1.332,1.332,0,0,0,0-12.332Z" fill="#fff"/>
              </g>
              <g id="g3029" transform="translate(37.598 -28.501)">
                <path id="path3031" d="M0,.785H-8.251A.785.785,0,0,1-9.037,0a.785.785,0,0,1,.785-.785H0A.785.785,0,0,1,.785,0,.785.785,0,0,1,0,.785Z" fill="#fff"/>
              </g>
              <g id="g3033" transform="translate(25.962 -28.501)">
                <path id="path3035" d="M0,.785H-2.116A.785.785,0,0,1-2.9,0a.785.785,0,0,1,.785-.785H0A.785.785,0,0,1,.785,0,.785.785,0,0,1,0,.785Z" fill="#fff"/>
              </g>
              <g id="g3037" transform="translate(29.347 -25.116)">
                <path id="path3039" d="M0,.785H-7.617A.785.785,0,0,1-8.4,0a.785.785,0,0,1,.785-.785H0A.785.785,0,0,1,.785,0,.785.785,0,0,1,0,.785Z" fill="#fff"/>
              </g>
              <g id="g3041" transform="translate(35.483 -25.116)">
                <path id="path3043" d="M0,.785H-2.75A.785.785,0,0,1-3.536,0,.785.785,0,0,1-2.75-.785H0A.785.785,0,0,1,.785,0,.785.785,0,0,1,0,.785Z" fill="#fff"/>
              </g>
              <g id="g3045" transform="translate(13.618 -23.423)">
                <path id="path3047" d="M0,.785H-3.4A.785.785,0,0,1-4.1.348.785.785,0,0,1-4.02-.477c.01-.013.3-.405,2.348-3.326.426-.636.6-.953.6-1.261a.921.921,0,0,0-.92-.92.921.921,0,0,0-.9.741.785.785,0,0,1-.922.619.785.785,0,0,1-.619-.922A2.5,2.5,0,0,1-1.988-7.556,2.494,2.494,0,0,1,.5-5.065,3.8,3.8,0,0,1-.372-2.923l-.009.013c-.663.947-1.143,1.63-1.491,2.124H0A.785.785,0,0,1,.785,0,.785.785,0,0,1,0,.785Z" fill="#fff"/>
              </g>
              <g id="g3049" transform="translate(22.294 -13.903)">
                <path id="path3051" d="M12.131,13.9H-10.507a.785.785,0,0,1-.785-.785.785.785,0,0,1,.785-.785H12.131A1.331,1.331,0,0,0,13.461,11V2.115a1.331,1.331,0,0,0-1.33-1.33H0A.785.785,0,0,1-.785,0,.785.785,0,0,1,0-.785H12.131a2.9,2.9,0,0,1,2.9,2.9V11A2.9,2.9,0,0,1,12.131,13.9Z" fill="#fff"/>
              </g>
              <g id="g3053" transform="translate(18.629 -13.903)">
                <path id="path3055" d="M0,.785H-6.841A.785.785,0,0,1-7.627,0a.785.785,0,0,1,.785-.785H0A.785.785,0,0,1,.785,0,.785.785,0,0,1,0,.785Z" fill="#fff"/>
              </g>
              <g id="g3057" transform="translate(11.787 -0.785)">
                <path id="path3059" d="M0,.785H-8.886a2.9,2.9,0,0,1-2.9-2.9V-11a2.9,2.9,0,0,1,2.9-2.9H0A2.9,2.9,0,0,1,2.9-11v8.886A2.9,2.9,0,0,1,0,.785ZM-8.886-12.332A1.332,1.332,0,0,0-10.216-11v8.886a1.332,1.332,0,0,0,1.33,1.33H0a1.332,1.332,0,0,0,1.33-1.33V-11A1.332,1.332,0,0,0,0-12.332Z" fill="#fff"/>
              </g>
              <g id="g3061" transform="translate(33.155 -9.037)">
                <path id="path3063" d="M0,.785H-8.251A.785.785,0,0,1-9.037,0a.785.785,0,0,1,.785-.785H0A.785.785,0,0,1,.785,0,.785.785,0,0,1,0,.785Z" fill="#fff"/>
              </g>
              <g id="g3065" transform="translate(21.519 -9.037)">
                <path id="path3067" d="M0,.785H-2.116A.785.785,0,0,1-2.9,0a.785.785,0,0,1,.785-.785H0A.785.785,0,0,1,.785,0,.785.785,0,0,1,0,.785Z" fill="#fff"/>
              </g>
              <g id="g3069" transform="translate(24.904 -5.651)">
                <path id="path3071" d="M0,.785H-7.617A.785.785,0,0,1-8.4,0a.785.785,0,0,1,.785-.785H0A.785.785,0,0,1,.785,0,.785.785,0,0,1,0,.785Z" fill="#fff"/>
              </g>
              <g id="g3073" transform="translate(31.04 -5.651)">
                <path id="path3075" d="M0,.785H-2.75A.785.785,0,0,1-3.536,0,.785.785,0,0,1-2.75-.785H0A.785.785,0,0,1,.785,0,.785.785,0,0,1,0,.785Z" fill="#fff"/>
              </g>
              <g id="g3077" transform="translate(5.683 -9.365)">
                <path id="path3079" d="M1.661,6.191A2.476,2.476,0,0,1-.817,3.713a.785.785,0,0,1,.785-.785.785.785,0,0,1,.785.785.921.921,0,0,0,.009.127.907.907,0,1,0,.9-1.034.785.785,0,1,1,0-1.571A.907.907,0,1,0,.771.151.785.785,0,0,1-.151.771.785.785,0,0,1-.771-.151a2.478,2.478,0,1,1,4.24,2.172A2.477,2.477,0,0,1,1.661,6.191Z" fill="#fff"/>
              </g>
              <g id="g3081" transform="translate(48.142 -33.308)">
                <path id="path3083" d="M-.846,33.308H-2.538A1.633,1.633,0,0,1-4.17,31.677V-11.848l-.707.707a1.621,1.621,0,0,1-1.156.478,1.619,1.619,0,0,1-1.153-.479l-1.2-1.195a1.622,1.622,0,0,1-.478-1.156,1.619,1.619,0,0,1,.479-1.153l4.936-4.937a2.481,2.481,0,0,1,3.5,0L5-14.645a1.618,1.618,0,0,1,.478,1.152A1.622,1.622,0,0,1,5-12.338l-1.2,1.2a1.618,1.618,0,0,1-1.153.478,1.619,1.619,0,0,1-1.154-.479l-.707-.706v8.184A.785.785,0,0,1,0-2.88a.785.785,0,0,1-.785-.785V-13.745A.785.785,0,0,1-.3-14.47a.785.785,0,0,1,.856.17L2.6-12.253a.057.057,0,0,0,.043.018.056.056,0,0,0,.042-.017l1.2-1.2a.059.059,0,0,0,.018-.043.056.056,0,0,0-.017-.042l-4.937-4.938a.908.908,0,0,0-1.283,0L-7.27-13.535a.057.057,0,0,0-.018.043.059.059,0,0,0,.018.044l1.2,1.2a.054.054,0,0,0,.043.018.059.059,0,0,0,.044-.018L-3.94-14.3a.785.785,0,0,1,.856-.17.785.785,0,0,1,.485.726V31.677a.061.061,0,0,0,.061.061H-.846a.06.06,0,0,0,.061-.061V0A.785.785,0,0,1,0-.785.785.785,0,0,1,.785,0V31.677A1.633,1.633,0,0,1-.846,33.308Z" fill="#fff"/>
              </g>
            </g>
          </g>
        </g>
      </g>
    </g>
  </g>
</svg>
