<svg xmlns="http://www.w3.org/2000/svg" xmlns:xlink="http://www.w3.org/1999/xlink" width="275.051" height="159.369" viewBox="0 0 275.051 159.369">
  <defs>
    <clipPath id="clip-path">
      <rect id="Rect치ngulo_400902" data-name="Rect치ngulo 400902" width="72.922" height="64.648" fill="#f8cd20"/>
    </clipPath>
    <clipPath id="clip-path-2">
      <rect id="Rect치ngulo_401794" data-name="Rect치ngulo 401794" width="150" height="150" transform="translate(409.949 5849)" fill="#fff" stroke="#707070" stroke-width="1"/>
    </clipPath>
  </defs>
  <g id="Grupo_1102066" data-name="Grupo 1102066" transform="translate(-4883.01 9342.465)">
    <g id="Grupo_1101646" data-name="Grupo 1101646" transform="translate(4473.061 -15183.465)">
      <path id="_119740" data-name="119740" d="M27.59,154.369l-.271-.094H14.7A14.7,14.7,0,0,1,0,139.572V109.006A14.719,14.719,0,0,1,5.827,97.184c4-2.987,8.178-8.044,5.646-15.3C7.07,69.256,9.16,58.243,18.655,50.52s16.859-15.9,7.3-25.855q-.256-.267-.495-.537C17.2,14.772,24.17,0,36.65,0H168.526l-.007.025a77.137,77.137,0,0,1-1.934,154.25c-.347,0-.692-.011-1.037-.016l-.008.016Z" transform="translate(441.277 5841)" fill="#38b449"/>
      <g id="Grupo_1101577" data-name="Grupo 1101577" transform="translate(551.925 5935.72)">
        <g id="Grupo_1098724" data-name="Grupo 1098724" transform="translate(0 0)">
          <g id="Grupo_1098723" data-name="Grupo 1098723" clip-path="url(#clip-path)">
            <path id="Trazado_872910" data-name="Trazado 872910" d="M0,1.456A1.456,1.456,0,1,0,1.456,0,1.456,1.456,0,0,0,0,1.456" transform="translate(70.01)" fill="#f8cd20"/>
            <path id="Trazado_872911" data-name="Trazado 872911" d="M28.954,1.456A1.456,1.456,0,1,0,30.41,0a1.456,1.456,0,0,0-1.456,1.456" transform="translate(27.054)" fill="#f8cd20"/>
            <path id="Trazado_872912" data-name="Trazado 872912" d="M57.907,1.456A1.456,1.456,0,1,0,59.363,0a1.456,1.456,0,0,0-1.456,1.456" transform="translate(-15.901)" fill="#f8cd20"/>
            <path id="Trazado_872913" data-name="Trazado 872913" d="M86.86,1.456A1.456,1.456,0,1,0,88.316,0,1.456,1.456,0,0,0,86.86,1.456" transform="translate(-58.856)" fill="#f8cd20"/>
            <path id="Trazado_872914" data-name="Trazado 872914" d="M115.813,1.456A1.456,1.456,0,1,0,117.269,0a1.456,1.456,0,0,0-1.456,1.456" transform="translate(-101.811)" fill="#f8cd20"/>
            <path id="Trazado_872915" data-name="Trazado 872915" d="M144.767,1.456A1.456,1.456,0,1,0,146.223,0a1.456,1.456,0,0,0-1.456,1.456" transform="translate(-144.767)" fill="#f8cd20"/>
            <path id="Trazado_872916" data-name="Trazado 872916" d="M0,33.371a1.456,1.456,0,1,0,1.456-1.456A1.456,1.456,0,0,0,0,33.371" transform="translate(70.01 -16.481)" fill="#f8cd20"/>
            <path id="Trazado_872917" data-name="Trazado 872917" d="M28.954,33.371a1.456,1.456,0,1,0,1.456-1.456,1.456,1.456,0,0,0-1.456,1.456" transform="translate(27.054 -16.481)" fill="#f8cd20"/>
            <path id="Trazado_872918" data-name="Trazado 872918" d="M57.907,33.371a1.456,1.456,0,1,0,1.456-1.456,1.456,1.456,0,0,0-1.456,1.456" transform="translate(-15.901 -16.481)" fill="#f8cd20"/>
            <path id="Trazado_872919" data-name="Trazado 872919" d="M86.86,33.371a1.456,1.456,0,1,0,1.456-1.456,1.456,1.456,0,0,0-1.456,1.456" transform="translate(-58.856 -16.481)" fill="#f8cd20"/>
            <path id="Trazado_872920" data-name="Trazado 872920" d="M115.813,33.371a1.456,1.456,0,1,0,1.456-1.456,1.456,1.456,0,0,0-1.456,1.456" transform="translate(-101.811 -16.481)" fill="#f8cd20"/>
            <path id="Trazado_872921" data-name="Trazado 872921" d="M144.767,33.371a1.456,1.456,0,1,0,1.456-1.456,1.456,1.456,0,0,0-1.456,1.456" transform="translate(-144.767 -16.481)" fill="#f8cd20"/>
            <path id="Trazado_872922" data-name="Trazado 872922" d="M0,65.286A1.456,1.456,0,1,0,1.456,63.83,1.456,1.456,0,0,0,0,65.286" transform="translate(70.01 -32.961)" fill="#f8cd20"/>
            <path id="Trazado_872923" data-name="Trazado 872923" d="M28.954,65.286A1.456,1.456,0,1,0,30.41,63.83a1.456,1.456,0,0,0-1.456,1.456" transform="translate(27.054 -32.961)" fill="#f8cd20"/>
            <path id="Trazado_872924" data-name="Trazado 872924" d="M57.907,65.286a1.456,1.456,0,1,0,1.456-1.456,1.456,1.456,0,0,0-1.456,1.456" transform="translate(-15.901 -32.961)" fill="#f8cd20"/>
            <path id="Trazado_872925" data-name="Trazado 872925" d="M86.86,65.286a1.456,1.456,0,1,0,1.456-1.456,1.456,1.456,0,0,0-1.456,1.456" transform="translate(-58.856 -32.961)" fill="#f8cd20"/>
            <path id="Trazado_872926" data-name="Trazado 872926" d="M115.813,65.286a1.456,1.456,0,1,0,1.456-1.456,1.456,1.456,0,0,0-1.456,1.456" transform="translate(-101.811 -32.961)" fill="#f8cd20"/>
            <path id="Trazado_872927" data-name="Trazado 872927" d="M144.767,65.286a1.456,1.456,0,1,0,1.456-1.456,1.456,1.456,0,0,0-1.456,1.456" transform="translate(-144.767 -32.961)" fill="#f8cd20"/>
            <path id="Trazado_872928" data-name="Trazado 872928" d="M0,97.2a1.456,1.456,0,1,0,1.456-1.456A1.456,1.456,0,0,0,0,97.2" transform="translate(70.01 -49.442)" fill="#f8cd20"/>
            <path id="Trazado_872929" data-name="Trazado 872929" d="M28.954,97.2a1.456,1.456,0,1,0,1.456-1.456A1.456,1.456,0,0,0,28.954,97.2" transform="translate(27.054 -49.442)" fill="#f8cd20"/>
            <path id="Trazado_872930" data-name="Trazado 872930" d="M57.907,97.2a1.456,1.456,0,1,0,1.456-1.456A1.456,1.456,0,0,0,57.907,97.2" transform="translate(-15.901 -49.442)" fill="#f8cd20"/>
            <path id="Trazado_872931" data-name="Trazado 872931" d="M86.86,97.2a1.456,1.456,0,1,0,1.456-1.456A1.456,1.456,0,0,0,86.86,97.2" transform="translate(-58.856 -49.442)" fill="#f8cd20"/>
            <path id="Trazado_872932" data-name="Trazado 872932" d="M115.813,97.2a1.456,1.456,0,1,0,1.456-1.456,1.456,1.456,0,0,0-1.456,1.456" transform="translate(-101.811 -49.442)" fill="#f8cd20"/>
            <path id="Trazado_872933" data-name="Trazado 872933" d="M144.767,97.2a1.456,1.456,0,1,0,1.456-1.456,1.456,1.456,0,0,0-1.456,1.456" transform="translate(-144.767 -49.442)" fill="#f8cd20"/>
            <path id="Trazado_872934" data-name="Trazado 872934" d="M0,129.116a1.456,1.456,0,1,0,1.456-1.456A1.456,1.456,0,0,0,0,129.116" transform="translate(70.01 -65.923)" fill="#f8cd20"/>
            <path id="Trazado_872935" data-name="Trazado 872935" d="M28.954,129.116a1.456,1.456,0,1,0,1.456-1.456,1.456,1.456,0,0,0-1.456,1.456" transform="translate(27.054 -65.923)" fill="#f8cd20"/>
            <path id="Trazado_872936" data-name="Trazado 872936" d="M57.907,129.116a1.456,1.456,0,1,0,1.456-1.456,1.456,1.456,0,0,0-1.456,1.456" transform="translate(-15.901 -65.923)" fill="#f8cd20"/>
            <path id="Trazado_872937" data-name="Trazado 872937" d="M86.86,129.116a1.456,1.456,0,1,0,1.456-1.456,1.456,1.456,0,0,0-1.456,1.456" transform="translate(-58.856 -65.923)" fill="#f8cd20"/>
            <path id="Trazado_872938" data-name="Trazado 872938" d="M115.813,129.116a1.456,1.456,0,1,0,1.456-1.456,1.456,1.456,0,0,0-1.456,1.456" transform="translate(-101.811 -65.923)" fill="#f8cd20"/>
            <path id="Trazado_872939" data-name="Trazado 872939" d="M144.767,129.116a1.456,1.456,0,1,0,1.456-1.456,1.456,1.456,0,0,0-1.456,1.456" transform="translate(-144.767 -65.923)" fill="#f8cd20"/>
          </g>
        </g>
      </g>
      <g id="Enmascarar_grupo_1098793" data-name="Enmascarar grupo 1098793" clip-path="url(#clip-path-2)">
        <g id="linea-electrica" transform="translate(396.711 5837.353)">
          <path id="Trazado_891290" data-name="Trazado 891290" d="M95.246,59.747h8.316v99.622H95.246Z" fill="#ffa329"/>
          <path id="Trazado_891291" data-name="Trazado 891291" d="M112.474,62.74H86.333a3.7,3.7,0,0,1-3.7-3.7v-8.59h7.408v4.89H108.77v-4.89h7.408v8.594a3.7,3.7,0,0,1-3.7,3.7Z" fill="#aaaaa0"/>
          <path id="Trazado_891292" data-name="Trazado 891292" d="M68.923,55.672H19.6a3.7,3.7,0,0,1-3.7-3.7V40.485H23.3v7.779H65.219V40.485h7.408V51.968a3.7,3.7,0,0,1-3.7,3.7Z" fill="#aaaaa0"/>
          <path id="Trazado_891293" data-name="Trazado 891293" d="M38.7,25.3H49.817V159.369H38.7Z" fill="#ffa329"/>
          <path id="Trazado_891294" data-name="Trazado 891294" d="M58.023,13.814v7.779H47.965V13.814H40.557v7.779H30.5V13.814H23.09V25.3a3.7,3.7,0,0,0,3.7,3.7H61.727a3.7,3.7,0,0,0,3.7-3.7V13.814Z" fill="#aaaaa0"/>
          <path id="Trazado_891295" data-name="Trazado 891295" d="M110.661,83.454,73.676,106.829v52.54H147.76v-52.54Z" fill="#aaaaa0"/>
          <g id="Grupo_1101666" data-name="Grupo 1101666">
            <path id="Trazado_891296" data-name="Trazado 891296" d="M156.1,118.906,110.651,91.312,65.345,118.9l-4.816-7.91,47.71-29.055a4.629,4.629,0,0,1,4.811,0l47.859,29.055Z" fill="#ffa329"/>
            <path id="Trazado_891297" data-name="Trazado 891297" d="M117.941,128.645h20v30.724h-20Z" fill="#ffa329"/>
            <path id="Trazado_891298" data-name="Trazado 891298" d="M83.492,120.866H108.31v18.87H83.492Z" fill="#ffa329"/>
          </g>
          <path id="Trazado_891299" data-name="Trazado 891299" d="M162.062,109.145,114.2,80.091a6.829,6.829,0,0,0-7.121,0l-1.3.79V66.257q.57-.6,1.087-1.239h5.6a5.933,5.933,0,0,0,5.927-5.927V50.5l-2.223-2.223H108.77L106.547,50.5v2.667H92.26V52.5a23.856,23.856,0,0,0,.37-4.176H90.081l-.044-.044H82.629L80.406,50.5v8.594a5.9,5.9,0,0,0,1.539,3.97,28.956,28.956,0,0,1-5.668,4.572c-4.682-2.068-8.211-5.542-9.631-9.684h2.276a5.933,5.933,0,0,0,5.927-5.927V40.54l-2.223-2.223H65.218L63,40.54V46.1H52.04V31.279h9.688a5.934,5.934,0,0,0,5.927-5.927V13.869l-2.223-2.223H58.023L55.8,13.869v5.556H50.188V13.869l-2.223-2.223H40.557l-2.223,2.223v5.556H32.721V13.869L30.5,11.647H23.09l-2.223,2.223V25.352a5.934,5.934,0,0,0,5.927,5.927h9.688V46.1H25.525V40.54L23.3,38.317H15.895L13.672,40.54V52.023A5.934,5.934,0,0,0,19.6,57.95h3.558A30.8,30.8,0,0,0,36.482,72.181v87.243l2.223,2.223H49.817l2.223-2.223v-82.3a44.009,44.009,0,0,0,4.845.269,41.545,41.545,0,0,0,19.759-4.863,29.347,29.347,0,0,0,9.6,1.587,29.757,29.757,0,0,0,6.783-.781V88.655l-33.65,20.5-.741,3.054,4.812,7.91,3.054.741,4.953-3.016v41.584l2.223,2.223h74.085l2.223-2.223V117.846l4.966,3.015,3.053-.747L162.8,112.2ZM110.876,55.5l.114-.114V52.72h2.963v6.371a1.482,1.482,0,0,1-1.482,1.482h-2.905A17.016,17.016,0,0,0,110.88,55.5ZM36.482,66.976a26.093,26.093,0,0,1-8.4-9.025h8.4Zm0-13.47H19.6a1.482,1.482,0,0,1-1.482-1.482V42.762H21.08v5.556L23.3,50.541H36.482Zm28.737-2.963,2.223-2.223V42.764h2.963v9.261a1.482,1.482,0,0,1-1.482,1.482H52.04V50.543ZM47.595,157.2H40.927V31.279h6.668ZM26.794,26.834a1.482,1.482,0,0,1-1.482-1.482V16.092h2.963v5.556L30.5,23.871H40.557l2.223-2.223V16.092h2.963v5.556l2.223,2.223H58.023l2.223-2.223V16.092h2.963v9.261a1.482,1.482,0,0,1-1.482,1.482Zm30.09,46.118a39.743,39.743,0,0,1-4.846-.3V57.95h9.978A20.348,20.348,0,0,0,71.469,70.1a38,38,0,0,1-14.585,2.848ZM90.762,57.61h15.179a13.565,13.565,0,0,1-1.34,2.963H89.3a26.048,26.048,0,0,0,1.463-2.963Zm10.581,12.285v13.7L97.471,85.95V71.908a26.052,26.052,0,0,0,3.869-2.014Zm-3.871-2.866v-2.01h3.14a20.237,20.237,0,0,1-3.143,2.01ZM84.851,52.72h2.823a21.08,21.08,0,0,1-2.8,6.6,1.466,1.466,0,0,1-.024-.234Zm1.389,16.96a25.735,25.735,0,0,1-4.585-.412,32,32,0,0,0,4.484-4.26c.067,0,.128.01.193.01h6.691v3.75a25.383,25.383,0,0,1-6.783.912ZM135.722,157.2H120.164V130.923h15.558Zm9.816,0h-5.371V128.7l-2.223-2.223h-20l-2.223,2.223v28.5H75.9V115.133l34.752-21.165,34.887,21.179Zm9.818-41.293L111.8,89.467h-2.309L66.087,115.9l-2.5-4.112,45.813-27.9a2.4,2.4,0,0,1,2.5,0l45.959,27.9Z"/>
          <path id="Trazado_891300" data-name="Trazado 891300" d="M83.492,118.7l-2.223,2.223v18.87l2.223,2.223H108.31l2.223-2.223v-18.87L108.31,118.7Zm22.6,18.87H85.715V123.144h20.373Z"/>
        </g>
      </g>
    </g>
  </g>
</svg>
