<svg xmlns="http://www.w3.org/2000/svg" xmlns:xlink="http://www.w3.org/1999/xlink" width="400" height="189.275" viewBox="0 0 400 189.275">
  <defs>
    <clipPath id="clip-path">
      <rect id="Rectángulo_401457" data-name="Rectángulo 401457" width="286.508" height="189.275" fill="none"/>
    </clipPath>
  </defs>
  <g id="Grupo_1102060" data-name="Grupo 1102060" transform="translate(-180 -2938.167)">
    <g id="Grupo_1099532" data-name="Grupo 1099532" transform="translate(-420 -163.862)">
      <rect id="Rectángulo_401369" data-name="Rectángulo 401369" width="400" height="127.304" transform="translate(600 3164)" fill="#cce1d7"/>
      <g id="Grupo_1099529" data-name="Grupo 1099529" transform="translate(656.746 3102.029)">
        <rect id="Rectángulo_401437" data-name="Rectángulo 401437" width="250.339" height="142.349" transform="translate(36.169 46.926)" fill="#fcded3"/>
        <path id="Trazado_881689" data-name="Trazado 881689" d="M311.5,172.087V233.5H90.105V173.941l36.053-17.814,29.716,2.215,26.42-.653,30.764-15.515,26.6,11.405,22.717-3.408,33.766,11.366Z" transform="translate(-37.807 -59.655)" fill="#f35923"/>
        <g id="Grupo_1099528" data-name="Grupo 1099528">
          <g id="Grupo_1099527" data-name="Grupo 1099527" clip-path="url(#clip-path)">
            <path id="Trazado_881690" data-name="Trazado 881690" d="M89.852,174.038a.351.351,0,0,1-.156-.665l35.877-17.813a.318.318,0,0,1,.182-.035l29.892,2.215,26.307-.652,30.693-15.479a.351.351,0,0,1,.3-.009l26.51,11.366,22.683-3.428a.362.362,0,0,1,.165.015l33.7,11.4a.364.364,0,0,1,.086.043l15.358,10.55a.351.351,0,0,1-.4.578L295.731,161.6l-33.574-11.357-22.7,3.43a.361.361,0,0,1-.191-.025l-26.45-11.341L182.2,157.748a.344.344,0,0,1-.15.038l-26.42.653L125.8,156.23,90.008,174a.348.348,0,0,1-.156.037" transform="translate(-37.554 -59.402)" fill="#fff"/>
            <path id="Trazado_881691" data-name="Trazado 881691" d="M90.105,252.428l35.877-15.2,29.892-16.77,26.42-.345,30.939-15,26.6,24.294,22.366-5.624,33.766-8.5L311.5,222.09v37.823H90.105Z" transform="translate(-37.807 -86.065)" fill="#c3471c"/>
            <path id="Trazado_881692" data-name="Trazado 881692" d="M151.792,167.665a.175.175,0,0,1-.175-.175v-1.4a.175.175,0,1,1,.351,0v1.4a.175.175,0,0,1-.175.175" transform="translate(-63.617 -69.615)" fill="#cfccff"/>
            <path id="Trazado_881693" data-name="Trazado 881693" d="M151.792,242.081a.175.175,0,0,1-.175-.175v-2.814a.175.175,0,1,1,.351,0v2.814a.175.175,0,0,1-.175.175m0-7.035a.176.176,0,0,1-.175-.176v-2.814a.175.175,0,1,1,.351,0v2.814a.176.176,0,0,1-.175.176m0-7.035a.175.175,0,0,1-.175-.175v-2.815a.175.175,0,0,1,.351,0v2.815a.175.175,0,0,1-.175.175m0-7.036a.176.176,0,0,1-.175-.175v-2.814a.175.175,0,1,1,.351,0V220.8a.175.175,0,0,1-.175.175m0-7.035a.176.176,0,0,1-.175-.176v-2.814a.175.175,0,1,1,.351,0v2.814a.176.176,0,0,1-.175.176m0-7.035a.175.175,0,0,1-.175-.175v-2.814a.175.175,0,0,1,.351,0v2.814a.175.175,0,0,1-.175.175m0-7.035a.175.175,0,0,1-.175-.175v-2.814a.175.175,0,1,1,.351,0V199.7a.175.175,0,0,1-.175.175m0-7.035a.175.175,0,0,1-.175-.175v-2.814a.175.175,0,1,1,.351,0v2.814a.175.175,0,0,1-.175.175m0-7.035a.175.175,0,0,1-.175-.175v-2.813a.175.175,0,1,1,.351,0v2.813a.175.175,0,0,1-.175.175m0-7.035a.175.175,0,0,1-.175-.175v-2.814a.175.175,0,1,1,.351,0v2.814a.175.175,0,0,1-.175.175" transform="translate(-63.617 -73.681)" fill="#feefe9"/>
            <path id="Trazado_881694" data-name="Trazado 881694" d="M151.792,298.563a.176.176,0,0,1-.175-.175v-1.4a.175.175,0,1,1,.351,0v1.4a.175.175,0,0,1-.175.175" transform="translate(-63.617 -124.539)" fill="#cfccff"/>
            <path id="Trazado_881695" data-name="Trazado 881695" d="M203.293,171.482a.175.175,0,0,1-.175-.175v-1.4a.175.175,0,1,1,.351,0v1.4a.175.175,0,0,1-.175.175" transform="translate(-85.227 -71.217)" fill="#cfccff"/>
            <path id="Trazado_881696" data-name="Trazado 881696" d="M203.293,243.717a.176.176,0,0,1-.175-.175v-2.73a.175.175,0,1,1,.351,0v2.73a.175.175,0,0,1-.175.175m0-6.826a.175.175,0,0,1-.175-.175v-2.73a.175.175,0,1,1,.351,0v2.73a.175.175,0,0,1-.175.175m0-6.826a.176.176,0,0,1-.175-.176v-2.73a.175.175,0,1,1,.351,0v2.73a.176.176,0,0,1-.175.176m0-6.826a.176.176,0,0,1-.175-.175v-2.73a.175.175,0,0,1,.351,0v2.73a.175.175,0,0,1-.175.175m0-6.826a.176.176,0,0,1-.175-.175v-2.731a.175.175,0,1,1,.351,0v2.731a.175.175,0,0,1-.175.175m0-6.826a.176.176,0,0,1-.175-.175V206.68a.175.175,0,1,1,.351,0v2.731a.175.175,0,0,1-.175.175m0-6.826a.175.175,0,0,1-.175-.175v-2.731a.175.175,0,0,1,.351,0v2.731a.175.175,0,0,1-.175.175m0-6.827a.175.175,0,0,1-.175-.175v-2.73a.175.175,0,1,1,.351,0v2.73a.175.175,0,0,1-.175.175m0-6.826a.176.176,0,0,1-.175-.175V186.2a.175.175,0,1,1,.351,0v2.73a.175.175,0,0,1-.175.175m0-6.826a.175.175,0,0,1-.175-.175v-2.73a.175.175,0,1,1,.351,0v2.73a.175.175,0,0,1-.175.175" transform="translate(-85.227 -75.191)" fill="#feefe9"/>
            <path id="Trazado_881697" data-name="Trazado 881697" d="M203.293,298.563a.176.176,0,0,1-.175-.175v-1.4a.175.175,0,1,1,.351,0v1.4a.175.175,0,0,1-.175.175" transform="translate(-85.227 -124.539)" fill="#cfccff"/>
            <path id="Trazado_881698" data-name="Trazado 881698" d="M248.813,170.357a.175.175,0,0,1-.175-.175v-1.4a.175.175,0,1,1,.351,0v1.4a.175.175,0,0,1-.175.175" transform="translate(-104.327 -70.745)" fill="#cfccff"/>
            <path id="Trazado_881699" data-name="Trazado 881699" d="M248.813,243.235a.175.175,0,0,1-.175-.175v-2.755a.175.175,0,0,1,.351,0v2.755a.176.176,0,0,1-.175.175m0-6.888a.175.175,0,0,1-.175-.175v-2.755a.175.175,0,0,1,.351,0v2.755a.176.176,0,0,1-.175.175m0-6.888a.175.175,0,0,1-.175-.175V226.53a.175.175,0,1,1,.351,0v2.755a.175.175,0,0,1-.175.175m0-6.888a.175.175,0,0,1-.175-.175v-2.755a.175.175,0,0,1,.351,0V222.4a.175.175,0,0,1-.175.175m0-6.888a.175.175,0,0,1-.175-.175v-2.755a.175.175,0,0,1,.351,0v2.755a.175.175,0,0,1-.175.175m0-6.888a.175.175,0,0,1-.175-.175v-2.755a.175.175,0,0,1,.351,0v2.755a.175.175,0,0,1-.175.175m0-6.888a.175.175,0,0,1-.175-.175v-2.755a.175.175,0,0,1,.351,0v2.755a.175.175,0,0,1-.175.175m0-6.888a.175.175,0,0,1-.175-.175v-2.755a.175.175,0,0,1,.351,0v2.755a.175.175,0,0,1-.175.175m0-6.887a.175.175,0,0,1-.175-.175V185.2a.175.175,0,1,1,.351,0v2.755a.176.176,0,0,1-.175.175m0-6.888a.175.175,0,0,1-.175-.175v-2.755a.175.175,0,0,1,.351,0v2.755a.175.175,0,0,1-.175.175" transform="translate(-104.327 -74.746)" fill="#feefe9"/>
            <path id="Trazado_881700" data-name="Trazado 881700" d="M248.813,298.563a.175.175,0,0,1-.175-.175v-1.4a.175.175,0,1,1,.351,0v1.4a.176.176,0,0,1-.175.175" transform="translate(-104.327 -124.539)" fill="#cfccff"/>
            <path id="Trazado_881701" data-name="Trazado 881701" d="M301.817,143.626a.175.175,0,0,1-.175-.175v-1.4a.175.175,0,0,1,.351,0v1.4a.175.175,0,0,1-.175.175" transform="translate(-126.567 -59.529)" fill="#cfccff"/>
            <path id="Trazado_881702" data-name="Trazado 881702" d="M301.817,231.995a.175.175,0,0,1-.175-.175v-2.81a.175.175,0,1,1,.351,0v2.81a.175.175,0,0,1-.175.175m0-7.026a.176.176,0,0,1-.175-.175v-2.81a.175.175,0,0,1,.351,0v2.81a.176.176,0,0,1-.175.175m0-7.025a.176.176,0,0,1-.175-.175v-2.81a.175.175,0,1,1,.351,0v2.81a.176.176,0,0,1-.175.175m0-7.026a.175.175,0,0,1-.175-.175v-2.811a.175.175,0,1,1,.351,0v2.811a.175.175,0,0,1-.175.175m0-7.026a.176.176,0,0,1-.175-.176v-2.81a.175.175,0,1,1,.351,0v2.81a.176.176,0,0,1-.175.176m0-7.026a.175.175,0,0,1-.175-.175v-2.811a.175.175,0,1,1,.351,0v2.811a.175.175,0,0,1-.175.175m0-7.026a.176.176,0,0,1-.175-.175v-2.81a.175.175,0,1,1,.351,0v2.81a.176.176,0,0,1-.175.175m0-7.025a.175.175,0,0,1-.175-.175V179.83a.175.175,0,0,1,.351,0v2.811a.175.175,0,0,1-.175.175m0-7.025a.176.176,0,0,1-.175-.176V172.8a.175.175,0,1,1,.351,0v2.81a.176.176,0,0,1-.175.176m0-7.027a.175.175,0,0,1-.175-.175v-2.81a.175.175,0,1,1,.351,0v2.81a.175.175,0,0,1-.175.175m0-7.025a.176.176,0,0,1-.175-.175v-2.81a.175.175,0,0,1,.351,0v2.81a.176.176,0,0,1-.175.175m0-7.026a.175.175,0,0,1-.175-.175v-2.81a.175.175,0,1,1,.351,0v2.81a.175.175,0,0,1-.175.175" transform="translate(-126.567 -63.59)" fill="#feefe9"/>
            <path id="Trazado_881703" data-name="Trazado 881703" d="M301.817,298.563a.176.176,0,0,1-.175-.175v-1.4a.175.175,0,1,1,.351,0v1.4a.176.176,0,0,1-.175.175" transform="translate(-126.567 -124.539)" fill="#cfccff"/>
            <path id="Trazado_881704" data-name="Trazado 881704" d="M347.65,163.276a.175.175,0,0,1-.175-.175v-1.4a.175.175,0,1,1,.351,0v1.4a.175.175,0,0,1-.175.175" transform="translate(-145.798 -67.774)" fill="#cfccff"/>
            <path id="Trazado_881705" data-name="Trazado 881705" d="M347.65,240.2a.176.176,0,0,1-.175-.175v-2.91a.175.175,0,1,1,.351,0v2.91a.176.176,0,0,1-.175.175m0-7.275a.175.175,0,0,1-.175-.175v-2.91a.175.175,0,1,1,.351,0v2.91a.175.175,0,0,1-.175.175m0-7.275a.176.176,0,0,1-.175-.175v-2.911a.175.175,0,1,1,.351,0v2.911a.176.176,0,0,1-.175.175m0-7.275a.176.176,0,0,1-.175-.175v-2.911a.175.175,0,0,1,.351,0V218.2a.176.176,0,0,1-.175.175m0-7.276a.176.176,0,0,1-.175-.175v-2.91a.175.175,0,1,1,.351,0v2.91a.176.176,0,0,1-.175.175m0-7.275a.176.176,0,0,1-.175-.175v-2.91a.175.175,0,1,1,.351,0v2.91a.176.176,0,0,1-.175.175m0-7.275a.175.175,0,0,1-.175-.175v-2.91a.175.175,0,1,1,.351,0v2.91a.175.175,0,0,1-.175.175m0-7.275a.176.176,0,0,1-.175-.175v-2.911a.175.175,0,1,1,.351,0V189.1a.176.176,0,0,1-.175.175m0-7.276a.175.175,0,0,1-.175-.175v-2.91a.175.175,0,1,1,.351,0v2.91a.175.175,0,0,1-.175.175m0-7.275a.175.175,0,0,1-.175-.175v-2.91a.175.175,0,1,1,.351,0v2.91a.175.175,0,0,1-.175.175" transform="translate(-145.798 -71.943)" fill="#feefe9"/>
            <path id="Trazado_881706" data-name="Trazado 881706" d="M347.65,298.563a.176.176,0,0,1-.175-.175v-1.4a.175.175,0,1,1,.351,0v1.4a.176.176,0,0,1-.175.175" transform="translate(-145.798 -124.539)" fill="#cfccff"/>
            <path id="Trazado_881707" data-name="Trazado 881707" d="M386.789,157.344a.175.175,0,0,1-.175-.175v-1.4a.175.175,0,1,1,.351,0v1.4a.175.175,0,0,1-.175.175" transform="translate(-162.22 -65.285)" fill="#cfccff"/>
            <path id="Trazado_881708" data-name="Trazado 881708" d="M386.789,237.765a.176.176,0,0,1-.175-.175v-2.778a.175.175,0,1,1,.351,0v2.778a.176.176,0,0,1-.175.175m0-6.945a.176.176,0,0,1-.175-.175v-2.778a.175.175,0,1,1,.351,0v2.778a.175.175,0,0,1-.175.175m0-6.945a.176.176,0,0,1-.175-.175v-2.777a.175.175,0,0,1,.351,0V223.7a.176.176,0,0,1-.175.175m0-6.945a.176.176,0,0,1-.175-.175v-2.778a.175.175,0,1,1,.351,0v2.778a.175.175,0,0,1-.175.175m0-6.945a.176.176,0,0,1-.175-.175v-2.778a.175.175,0,1,1,.351,0v2.778a.175.175,0,0,1-.175.175m0-6.945a.176.176,0,0,1-.175-.175v-2.778a.175.175,0,1,1,.351,0v2.778a.176.176,0,0,1-.175.175m0-6.945a.176.176,0,0,1-.175-.175v-2.777a.175.175,0,1,1,.351,0v2.777a.176.176,0,0,1-.175.175m0-6.945a.176.176,0,0,1-.175-.175V186.2a.175.175,0,1,1,.351,0v2.778a.176.176,0,0,1-.175.175m0-6.945a.176.176,0,0,1-.175-.175v-2.778a.175.175,0,1,1,.351,0v2.778a.176.176,0,0,1-.175.175m0-6.945a.175.175,0,0,1-.175-.175v-2.778a.175.175,0,1,1,.351,0v2.778a.175.175,0,0,1-.175.175m0-6.945a.176.176,0,0,1-.175-.175v-2.778a.175.175,0,1,1,.351,0v2.778a.175.175,0,0,1-.175.175" transform="translate(-162.22 -69.311)" fill="#feefe9"/>
            <path id="Trazado_881709" data-name="Trazado 881709" d="M386.789,298.563a.176.176,0,0,1-.175-.175v-1.4a.175.175,0,1,1,.351,0v1.4a.176.176,0,0,1-.175.175" transform="translate(-162.22 -124.539)" fill="#cfccff"/>
            <path id="Trazado_881710" data-name="Trazado 881710" d="M444.966,176.987a.175.175,0,0,1-.175-.175v-1.4a.175.175,0,1,1,.351,0v1.4a.175.175,0,0,1-.175.175" transform="translate(-186.631 -73.527)" fill="#cfccff"/>
            <path id="Trazado_881711" data-name="Trazado 881711" d="M444.966,245.964a.176.176,0,0,1-.175-.175v-2.882a.175.175,0,1,1,.351,0v2.882a.176.176,0,0,1-.175.175m0-7.2a.176.176,0,0,1-.175-.175V235.7a.175.175,0,1,1,.351,0v2.882a.176.176,0,0,1-.175.175m0-7.2a.176.176,0,0,1-.175-.175V228.5a.175.175,0,1,1,.351,0v2.882a.176.176,0,0,1-.175.175m0-7.2a.176.176,0,0,1-.175-.176v-2.881a.175.175,0,1,1,.351,0v2.881a.176.176,0,0,1-.175.176m0-7.2a.175.175,0,0,1-.175-.175V214.09a.175.175,0,1,1,.351,0v2.881a.175.175,0,0,1-.175.175m0-7.2a.175.175,0,0,1-.175-.175v-2.882a.175.175,0,1,1,.351,0v2.882a.175.175,0,0,1-.175.175m0-7.2a.176.176,0,0,1-.175-.175v-2.882a.175.175,0,0,1,.351,0v2.882a.176.176,0,0,1-.175.175m0-7.2a.176.176,0,0,1-.175-.175v-2.882a.175.175,0,1,1,.351,0v2.882a.176.176,0,0,1-.175.175m0-7.2a.176.176,0,0,1-.175-.175v-2.882a.175.175,0,1,1,.351,0v2.882a.176.176,0,0,1-.175.175" transform="translate(-186.631 -77.665)" fill="#feefe9"/>
            <path id="Trazado_881712" data-name="Trazado 881712" d="M444.966,298.563a.176.176,0,0,1-.175-.175v-1.4a.175.175,0,1,1,.351,0v1.4a.176.176,0,0,1-.175.175" transform="translate(-186.631 -124.539)" fill="#cfccff"/>
            <path id="Trazado_881713" data-name="Trazado 881713" d="M348.482,159.983a2.548,2.548,0,1,1-2.547-2.548,2.547,2.547,0,0,1,2.547,2.548" transform="translate(-144.083 -66.059)" fill="#226c2c"/>
            <path id="Trazado_881714" data-name="Trazado 881714" d="M348.314,160.425a1.937,1.937,0,1,1-1.937-1.937,1.937,1.937,0,0,1,1.937,1.937" transform="translate(-144.525 -66.5)" fill="#38b449"/>
            <path id="Trazado_881715" data-name="Trazado 881715" d="M445.8,173.693a2.548,2.548,0,1,1-2.547-2.547,2.547,2.547,0,0,1,2.547,2.547" transform="translate(-184.916 -71.812)" fill="#226c2c"/>
            <path id="Trazado_881716" data-name="Trazado 881716" d="M445.631,174.135a1.937,1.937,0,1,1-1.937-1.937,1.937,1.937,0,0,1,1.937,1.937" transform="translate(-185.358 -72.253)" fill="#38b449"/>
            <path id="Trazado_881717" data-name="Trazado 881717" d="M302.649,140.332a2.548,2.548,0,1,1-2.547-2.547,2.547,2.547,0,0,1,2.547,2.547" transform="translate(-124.852 -57.814)" fill="#226c2c"/>
            <path id="Trazado_881718" data-name="Trazado 881718" d="M302.481,140.774a1.937,1.937,0,1,1-1.937-1.937,1.937,1.937,0,0,1,1.937,1.937" transform="translate(-125.293 -58.255)" fill="#38b449"/>
            <path id="Trazado_881719" data-name="Trazado 881719" d="M249.646,167.063a2.548,2.548,0,1,1-2.547-2.547,2.547,2.547,0,0,1,2.547,2.547" transform="translate(-102.612 -69.03)" fill="#226c2c"/>
            <path id="Trazado_881720" data-name="Trazado 881720" d="M249.477,167.5a1.937,1.937,0,1,1-1.937-1.937,1.937,1.937,0,0,1,1.937,1.937" transform="translate(-103.053 -69.471)" fill="#38b449"/>
            <path id="Trazado_881721" data-name="Trazado 881721" d="M204.125,168.188a2.548,2.548,0,1,1-2.547-2.547,2.547,2.547,0,0,1,2.547,2.547" transform="translate(-83.512 -69.502)" fill="#226c2c"/>
            <path id="Trazado_881722" data-name="Trazado 881722" d="M203.957,168.63a1.937,1.937,0,1,1-1.937-1.937,1.937,1.937,0,0,1,1.937,1.937" transform="translate(-83.953 -69.943)" fill="#38b449"/>
            <path id="Trazado_881723" data-name="Trazado 881723" d="M152.624,164.372a2.548,2.548,0,1,1-2.547-2.547,2.547,2.547,0,0,1,2.547,2.547" transform="translate(-61.902 -67.901)" fill="#226c2c"/>
            <path id="Trazado_881724" data-name="Trazado 881724" d="M152.456,164.814a1.937,1.937,0,1,1-1.937-1.937,1.937,1.937,0,0,1,1.937,1.937" transform="translate(-62.344 -68.342)" fill="#38b449"/>
            <path id="Trazado_881725" data-name="Trazado 881725" d="M314.245,216.234H89.5V100.18h.7V215.533H314.245Z" transform="translate(-37.554 -42.035)" fill="#fff"/>
            <rect id="Rectángulo_401438" data-name="Rectángulo 401438" width="24.975" height="5.429" transform="translate(203.788 55.193)" fill="#f8cd20"/>
            <rect id="Rectángulo_401439" data-name="Rectángulo 401439" width="38.916" height="5.429" transform="translate(234.778 55.193)" fill="#f8cd20"/>
            <path id="Trazado_881726" data-name="Trazado 881726" d="M390.223,147.323a11.937,11.937,0,1,1-11.937-11.937,11.937,11.937,0,0,1,11.937,11.937" transform="translate(-153.717 -56.807)" fill="#ebf8ed"/>
            <path id="Trazado_881727" data-name="Trazado 881727" d="M388.745,151.182a6.6,6.6,0,1,1-6.6-6.6,6.6,6.6,0,0,1,6.6,6.6" transform="translate(-157.577 -60.666)" fill="#d7f0db"/>
            <path id="Trazado_881728" data-name="Trazado 881728" d="M388.163,152.7a4.5,4.5,0,1,1-4.5-4.5,4.5,4.5,0,0,1,4.5,4.5" transform="translate(-159.096 -62.185)" fill="#afe1b6"/>
            <path id="Trazado_881729" data-name="Trazado 881729" d="M387.579,154.221a2.395,2.395,0,1,1-2.395-2.394,2.395,2.395,0,0,1,2.395,2.394" transform="translate(-160.616 -63.706)" fill="#38b449"/>
            <path id="Trazado_881749" data-name="Trazado 881749" d="M0,0H114.085V84.456H0Z" fill="#01532a"/>
            <path id="Trazado_881730" data-name="Trazado 881730" d="M39.219,90.394,28.571,105.516A35.562,35.562,0,0,1,15.314,87.638l17.552-5.8a16.945,16.945,0,0,0,6.353,8.551" transform="translate(-6.426 -34.341)" fill="#fff"/>
            <path id="Trazado_881731" data-name="Trazado 881731" d="M94.057,47.012a35.475,35.475,0,0,1-55.9,29L48.8,60.893a16.986,16.986,0,1,0,9.779-30.869V11.536A35.475,35.475,0,0,1,94.057,47.012" transform="translate(-16.01 -4.84)" fill="#f8cd20"/>
            <path id="Trazado_881732" data-name="Trazado 881732" d="M47.706,11.536V30.024A16.991,16.991,0,0,0,31.575,52.343l-17.552,5.8a35.486,35.486,0,0,1,33.683-46.6" transform="translate(-5.135 -4.84)" fill="#f35923"/>
            <rect id="Rectángulo_401441" data-name="Rectángulo 401441" width="22.123" height="4.298" transform="translate(85.448 60.305)" fill="#f35923"/>
            <rect id="Rectángulo_401442" data-name="Rectángulo 401442" width="27.813" height="4.298" transform="translate(79.758 69.594)" fill="#f35923"/>
            <rect id="Rectángulo_401443" data-name="Rectángulo 401443" width="7.058" height="4.75" transform="translate(95.084 35.967)" fill="#f8cd20"/>
            <rect id="Rectángulo_401444" data-name="Rectángulo 401444" width="7.058" height="4.75" transform="translate(95.084 25.007)" fill="#fff"/>
            <rect id="Rectángulo_401445" data-name="Rectángulo 401445" width="7.058" height="4.75" transform="translate(95.084 14.048)" fill="#f35923"/>
            <path id="Trazado_881733" data-name="Trazado 881733" d="M117.547,87.67H2.761V2.513H117.547Zm-114.085-.7H116.846V3.214H3.462Z" transform="translate(-1.158 -1.054)" fill="#f04965"/>
            <rect id="Rectángulo_401446" data-name="Rectángulo 401446" width="33.069" height="4.886" transform="translate(123.54 25.878)" fill="#38b449"/>
            <rect id="Rectángulo_401447" data-name="Rectángulo 401447" width="33.069" height="4.886" transform="translate(123.54 6.696)" fill="#38b449"/>
            <rect id="Rectángulo_401448" data-name="Rectángulo 401448" width="20.644" height="4.886" transform="translate(123.54 13.98)" fill="#38b449"/>
            <rect id="Rectángulo_401449" data-name="Rectángulo 401449" width="15.925" height="3.523" transform="translate(22.337 99.871)" fill="#016835"/>
            <rect id="Rectángulo_401450" data-name="Rectángulo 401450" width="31.307" height="3.523" transform="translate(14.646 105.329)" fill="#016835"/>
            <rect id="Rectángulo_401451" data-name="Rectángulo 401451" width="23.163" height="3.523" transform="translate(18.718 110.788)" fill="#016835"/>
            <rect id="Rectángulo_401452" data-name="Rectángulo 401452" width="15.925" height="3.523" transform="translate(22.337 126.005)" fill="#016835"/>
            <rect id="Rectángulo_401453" data-name="Rectángulo 401453" width="31.307" height="3.523" transform="translate(14.646 131.463)" fill="#016835"/>
            <rect id="Rectángulo_401454" data-name="Rectángulo 401454" width="23.163" height="3.523" transform="translate(18.718 136.922)" fill="#016835"/>
            <path id="Trazado_881734" data-name="Trazado 881734" d="M240.771,109.664H212.247V97.657h28.524Zm-27.823-.7H240.07v-10.6H212.948Z" transform="translate(-89.057 -40.976)" fill="#013f20"/>
            <rect id="Rectángulo_401455" data-name="Rectángulo 401455" width="27.823" height="11.306" transform="translate(123.54 57.031)" fill="#ebf8ed"/>
            <g id="Grupo_1099531" data-name="Grupo 1099531" transform="translate(136.088 60.691)">
              <path id="Trazado_881735" data-name="Trazado 881735" d="M234.471,107.231V106.8l1.647-2.153h.663l-1.623,2.153-.311-.1h2.65v.525Zm1.834.759v-.759l.019-.525v-.673h.582v1.958Z" transform="translate(-234.471 -104.601)" fill="#01532a"/>
              <path id="Trazado_881736" data-name="Trazado 881736" d="M240.662,109.89a.4.4,0,0,1-.277-.685.411.411,0,0,1,.554,0,.376.376,0,0,1,.115.288.388.388,0,0,1-.392.4" transform="translate(-236.905 -106.468)" fill="#01532a"/>
              <path id="Trazado_881737" data-name="Trazado 881737" d="M242.186,107.231V106.8l1.647-2.153h.663l-1.623,2.153-.31-.1h2.65v.525Zm1.834.759v-.759l.019-.525v-.673h.583v1.958Z" transform="translate(-237.707 -104.601)" fill="#01532a"/>
              <path id="Trazado_881738" data-name="Trazado 881738" d="M248.059,107.99v-3.1l.272.282h-.979v-.521h1.327v3.342Z" transform="translate(-239.876 -104.601)" fill="#01532a"/>
              <path id="Trazado_881739" data-name="Trazado 881739" d="M252.176,108a1.308,1.308,0,0,1-.713-.2,1.348,1.348,0,0,1-.5-.585,2.488,2.488,0,0,1,0-1.867,1.35,1.35,0,0,1,.5-.584,1.372,1.372,0,0,1,1.43,0,1.372,1.372,0,0,1,.5.584,2.459,2.459,0,0,1,0,1.867,1.37,1.37,0,0,1-.5.585,1.306,1.306,0,0,1-.716.2m0-.539a.666.666,0,0,0,.406-.127.824.824,0,0,0,.27-.389,2.3,2.3,0,0,0,0-1.33.827.827,0,0,0-.27-.387.705.705,0,0,0-.8,0,.822.822,0,0,0-.272.387,2.316,2.316,0,0,0,0,1.33.819.819,0,0,0,.272.389.662.662,0,0,0,.4.127" transform="translate(-241.314 -104.566)" fill="#01532a"/>
            </g>
            <path id="Trazado_881740" data-name="Trazado 881740" d="M219.962,104.588l-2.024,3.506h4.049Z" transform="translate(-91.445 -43.884)" fill="#f35923"/>
            <path id="Trazado_881741" data-name="Trazado 881741" d="M240.771,84.2H212.247V72.193h28.524Zm-27.823-.7H240.07v-10.6H212.948Z" transform="translate(-89.057 -30.292)" fill="#013f20"/>
            <rect id="Rectángulo_401456" data-name="Rectángulo 401456" width="27.823" height="11.306" transform="translate(123.54 42.251)" fill="#ebf8ed"/>
            <g id="Grupo_1099530" data-name="Grupo 1099530" transform="translate(133.125 45.912)">
              <path id="Trazado_881742" data-name="Trazado 881742" d="M230.07,82.527v-3.1l.272.282h-.979v-.521h1.327v3.342Z" transform="translate(-229.364 -79.138)" fill="#016835"/>
              <path id="Trazado_881743" data-name="Trazado 881743" d="M232.711,81.768v-.43l1.647-2.153h.663L233.4,81.338l-.311-.1h2.65v.525Zm1.833.759v-.759l.019-.525v-.673h.582v1.958Z" transform="translate(-230.769 -79.138)" fill="#016835"/>
              <path id="Trazado_881744" data-name="Trazado 881744" d="M238.9,84.428a.4.4,0,0,1-.277-.685.411.411,0,0,1,.554,0,.376.376,0,0,1,.115.288.388.388,0,0,1-.392.4" transform="translate(-233.203 -81.005)" fill="#016835"/>
              <path id="Trazado_881745" data-name="Trazado 881745" d="M241.533,82.575a2.345,2.345,0,0,1-.689-.1,1.692,1.692,0,0,1-.566-.284l.267-.482a1.453,1.453,0,0,0,.439.239,1.617,1.617,0,0,0,.54.091.863.863,0,0,0,.52-.136.464.464,0,0,0,.014-.732.9.9,0,0,0-.554-.134H241.2v-.425l.955-1.136.081.234H240.44v-.521h2.277V79.6l-.955,1.136-.325-.191h.186a1.349,1.349,0,0,1,.924.275.9.9,0,0,1,.308.7,1,1,0,0,1-.143.521,1.024,1.024,0,0,1-.437.385,1.668,1.668,0,0,1-.742.145" transform="translate(-233.944 -79.138)" fill="#016835"/>
              <path id="Trazado_881746" data-name="Trazado 881746" d="M246.746,82.541a1.9,1.9,0,0,1-.721-.124,1.07,1.07,0,0,1-.473-.351.873.873,0,0,1-.167-.532.817.817,0,0,1,.163-.516,1,1,0,0,1,.467-.32,2.5,2.5,0,0,1,1.464,0,1.007,1.007,0,0,1,.472.322.814.814,0,0,1,.165.514.867.867,0,0,1-.169.532,1.084,1.084,0,0,1-.478.351,1.921,1.921,0,0,1-.723.124m0-1.628a1.916,1.916,0,0,1-.664-.1.919.919,0,0,1-.427-.3.761.761,0,0,1-.151-.475.8.8,0,0,1,.155-.494,1.008,1.008,0,0,1,.437-.322,1.915,1.915,0,0,1,1.3,0,1.023,1.023,0,0,1,.439.322.8.8,0,0,1,.157.494.761.761,0,0,1-.15.475.919.919,0,0,1-.432.3,1.95,1.95,0,0,1-.668.1m0,1.141a.915.915,0,0,0,.544-.143.487.487,0,0,0,0-.788.915.915,0,0,0-.544-.143.9.9,0,0,0-.54.143.494.494,0,0,0,0,.788.9.9,0,0,0,.54.143m0-1.523a.771.771,0,0,0,.468-.127.428.428,0,0,0,0-.69.788.788,0,0,0-.463-.124.766.766,0,0,0-.459.124.434.434,0,0,0,0,.69.753.753,0,0,0,.461.127" transform="translate(-236.087 -79.104)" fill="#016835"/>
              <path id="Trazado_881747" data-name="Trazado 881747" d="M252.176,82.54a1.308,1.308,0,0,1-.713-.2,1.348,1.348,0,0,1-.5-.585,2.488,2.488,0,0,1,0-1.867,1.35,1.35,0,0,1,.5-.584,1.372,1.372,0,0,1,1.43,0,1.372,1.372,0,0,1,.5.584,2.459,2.459,0,0,1,0,1.867,1.37,1.37,0,0,1-.5.585,1.306,1.306,0,0,1-.716.2m0-.539a.666.666,0,0,0,.406-.127.824.824,0,0,0,.27-.389,2.3,2.3,0,0,0,0-1.33.827.827,0,0,0-.27-.387.705.705,0,0,0-.8,0,.822.822,0,0,0-.272.387,2.316,2.316,0,0,0,0,1.33.819.819,0,0,0,.272.389.662.662,0,0,0,.4.127" transform="translate(-238.351 -79.103)" fill="#016835"/>
            </g>
            <path id="Trazado_881748" data-name="Trazado 881748" d="M219.962,79.125l-2.024,3.506h4.049Z" transform="translate(-91.445 -33.2)" fill="#f35923"/>
          </g>
        </g>
      </g>
    </g>
  </g>
</svg>
