<svg xmlns="http://www.w3.org/2000/svg" xmlns:xlink="http://www.w3.org/1999/xlink" width="85" height="85" viewBox="0 0 85 85">
  <defs>
    <clipPath id="clip-path">
      <rect id="Rectángulo_401665" data-name="Rectángulo 401665" width="53.617" height="53.617" transform="translate(434.466 1136.66)" fill="#fff" stroke="#707070" stroke-width="1"/>
    </clipPath>
    <clipPath id="clip-path-2">
      <path id="path5730" d="M0-53.617H53.617V0H0Z" fill="#fff"/>
    </clipPath>
  </defs>
  <g id="Grupo_1102059" data-name="Grupo 1102059" transform="translate(-1229.975 -995)">
    <g id="Grupo_1101595" data-name="Grupo 1101595" transform="translate(810.975 -126)">
      <path id="Trazado_824488" data-name="Trazado 824488" d="M42.5,0A42.5,42.5,0,1,1,0,42.5,42.5,42.5,0,0,1,42.5,0Z" transform="translate(419 1121)" fill="#f35923"/>
      <g id="Enmascarar_grupo_1098816" data-name="Enmascarar grupo 1098816" clip-path="url(#clip-path)">
        <g id="g5724" transform="translate(434.466 1190.277)">
          <g id="g5726">
            <g id="g5728" clip-path="url(#clip-path-2)">
              <g id="g5734" transform="translate(36.652 -3.142)">
                <path id="path5736" d="M0,1.047H-19.687A3.355,3.355,0,0,1-23.038-2.3a3.355,3.355,0,0,1,3.351-3.351H0A3.355,3.355,0,0,1,3.351-2.3,3.355,3.355,0,0,1,0,1.047ZM-19.687-3.56A1.258,1.258,0,0,0-20.944-2.3a1.258,1.258,0,0,0,1.257,1.257H0A1.258,1.258,0,0,0,1.257-2.3,1.258,1.258,0,0,0,0-3.56Z" fill="#fff"/>
              </g>
              <g id="g5738" transform="translate(34.675 -7.749)">
                <path id="path5740" d="M0,1.047H-15.734a1.047,1.047,0,0,1-.828-.406,1.047,1.047,0,0,1-.186-.9l1.518-5.864a1.047,1.047,0,0,1,1.014-.785h12.7A1.047,1.047,0,0,1-.5-6.127L1.014-.262a1.047,1.047,0,0,1-.186.9A1.047,1.047,0,0,1,0,1.047ZM-14.381-1.047H-1.353l-.976-3.77H-13.405Z" fill="#fff"/>
              </g>
              <g id="g5742" transform="translate(31.521 -50.475)">
                <path id="path5744" d="M16.86,37.909H-22.976a1.047,1.047,0,0,1-1.047-1.047,1.047,1.047,0,0,1,1.047-1.047H16.86A3.145,3.145,0,0,0,20,32.673V4.189A3.145,3.145,0,0,0,16.86,1.047H0A1.047,1.047,0,0,1-1.047,0,1.047,1.047,0,0,1,0-1.047H16.86A5.242,5.242,0,0,1,22.1,4.189V32.673A5.242,5.242,0,0,1,16.86,37.909Z" fill="#fff"/>
              </g>
              <g id="g5746" transform="translate(1.955 -15.198)">
                <path id="path5748" d="M0,1.047A1.045,1.045,0,0,1-.82.651,5.253,5.253,0,0,1-1.955-2.6V-31.088a5.242,5.242,0,0,1,5.236-5.236h16.86a1.047,1.047,0,0,1,1.047,1.047,1.047,1.047,0,0,1-1.047,1.047H3.281A3.145,3.145,0,0,0,.14-31.088V-2.6A3.108,3.108,0,0,0,.82-.652,1.047,1.047,0,0,1,.651.82,1.043,1.043,0,0,1,0,1.047Z" fill="#fff"/>
              </g>
              <g id="g5750" transform="translate(8.124 -21.153)">
                <path id="path5752" d="M0,1.047H-6.623A1.047,1.047,0,0,1-7.67,0,1.047,1.047,0,0,1-6.623-1.047H0A1.047,1.047,0,0,1,1.047,0,1.047,1.047,0,0,1,0,1.047Z" fill="#fff"/>
              </g>
              <g id="g5754" transform="translate(15.147 -20.216)">
                <path id="path5756" d="M-11.285,11.167a3.837,3.837,0,0,1-2.731-1.131,3.866,3.866,0,0,1,0-5.461l9.295-9.295a1.047,1.047,0,0,1,1.481,0,1.047,1.047,0,0,1,0,1.481l-9.295,9.295a1.77,1.77,0,0,0,0,2.5,1.756,1.756,0,0,0,1.25.518,1.756,1.756,0,0,0,1.25-.518L-.74-.74A1.047,1.047,0,0,1,.74-.74,1.047,1.047,0,0,1,.74.74l-9.295,9.295A3.836,3.836,0,0,1-11.285,11.167Z" fill="#fff"/>
              </g>
              <g id="g5758" transform="translate(21.18 -18.64)">
                <path id="path5760" d="M0,1.047a12.553,12.553,0,0,1-8.935-3.7,12.553,12.553,0,0,1-3.7-8.935,12.553,12.553,0,0,1,3.7-8.935A12.553,12.553,0,0,1,0-24.225a12.553,12.553,0,0,1,8.935,3.7,12.553,12.553,0,0,1,3.7,8.935,12.553,12.553,0,0,1-3.7,8.935A12.553,12.553,0,0,1,0,1.047ZM0-22.131A10.554,10.554,0,0,0-10.542-11.589,10.554,10.554,0,0,0,0-1.047,10.554,10.554,0,0,0,10.542-11.589,10.554,10.554,0,0,0,0-22.131Z" fill="#fff"/>
              </g>
              <g id="g5762" transform="translate(21.18 -34.662)">
                <path id="path5764" d="M0-1.047a9.262,9.262,0,0,1,8.234,5,1.047,1.047,0,0,1,0,.969A9.262,9.262,0,0,1,0,9.913a9.262,9.262,0,0,1-8.234-5,1.047,1.047,0,0,1,0-.969A9.262,9.262,0,0,1,0-1.047Zm6.1,5.48A7.171,7.171,0,0,0,0,1.047,7.171,7.171,0,0,0-6.1,4.433,7.171,7.171,0,0,0,0,7.819,7.171,7.171,0,0,0,6.1,4.433Z" fill="#fff"/>
              </g>
              <g id="g5766" transform="translate(23.938 -30.229)">
                <path id="path5768" d="M-2.758-3.8A3.809,3.809,0,0,1,1.047,0a3.809,3.809,0,0,1-3.8,3.8A3.809,3.809,0,0,1-6.563,0,3.809,3.809,0,0,1-2.758-3.8Zm0,5.515A1.712,1.712,0,0,0-1.047,0,1.712,1.712,0,0,0-2.758-1.711,1.712,1.712,0,0,0-4.468,0,1.712,1.712,0,0,0-2.758,1.711Z" fill="#fff"/>
              </g>
              <g id="g5770" transform="translate(47.962 -38.625)">
                <path id="path5772" d="M0,1.047H-10.535A1.047,1.047,0,0,1-11.583,0a1.047,1.047,0,0,1,1.047-1.047H0A1.047,1.047,0,0,1,1.047,0,1.047,1.047,0,0,1,0,1.047Z" fill="#fff"/>
              </g>
              <g id="g5774" transform="translate(47.962 -43.652)">
                <path id="path5776" d="M0,1.047H-6.062A1.047,1.047,0,0,1-7.109,0,1.047,1.047,0,0,1-6.062-1.047H0A1.047,1.047,0,0,1,1.047,0,1.047,1.047,0,0,1,0,1.047Z" fill="#fff"/>
              </g>
              <g id="g5778" transform="translate(37.338 -43.652)">
                <path id="path5780" fill="#fff"/>
              </g>
              <g id="g5782" transform="translate(47.962 -33.599)">
                <path id="path5784" fill="#fff"/>
              </g>
              <g id="g5786" transform="translate(42.694 -33.599)">
                <path id="path5788" fill="#fff"/>
              </g>
              <g id="g5790" transform="translate(37.426 -33.599)">
                <path id="path5792" fill="#fff"/>
              </g>
              <g id="g5794" transform="translate(40.788 -28.572)">
                <path id="path5796" d="M0,1.047H-3.362A1.047,1.047,0,0,1-4.409,0,1.047,1.047,0,0,1-3.362-1.047H0A1.047,1.047,0,0,1,1.047,0,1.047,1.047,0,0,1,0,1.047Z" fill="#fff"/>
              </g>
              <g id="g5798" transform="translate(45.396 -28.572)">
                <path id="path5800" d="M3.449,1.047H0A1.047,1.047,0,0,1-1.047,0,1.047,1.047,0,0,1,0-1.047H3.449A1.047,1.047,0,0,1,4.5,0,1.047,1.047,0,0,1,3.449,1.047Z" fill="#fff"/>
              </g>
              <g id="g5802" transform="translate(28.486 -21.234)">
                <path id="path5804" d="M23.35,1.047H0A1.047,1.047,0,0,1-1.047,0,1.047,1.047,0,0,1,0-1.047H23.35A1.047,1.047,0,0,1,24.4,0,1.047,1.047,0,0,1,23.35,1.047Z" fill="#fff"/>
              </g>
              <g id="g5806" transform="translate(26.808 -50.475)">
                <path id="path5808" fill="#fff"/>
              </g>
            </g>
          </g>
        </g>
      </g>
    </g>
  </g>
</svg>
