<svg xmlns="http://www.w3.org/2000/svg" xmlns:xlink="http://www.w3.org/1999/xlink" width="202.402" height="44.5" viewBox="0 0 202.402 44.5">
  <defs>
    <clipPath id="clip-path">
      <rect id="Rectángulo_401402" data-name="Rectángulo 401402" width="44.5" height="202.402" fill="none"/>
    </clipPath>
  </defs>
  <g id="Grupo_1102055" data-name="Grupo 1102055" transform="translate(-915 -265.324)">
    <g id="Grupo_1099513" data-name="Grupo 1099513" transform="translate(915 309.824) rotate(-90)">
      <g id="Grupo_1099512" data-name="Grupo 1099512" clip-path="url(#clip-path)">
        <path id="Trazado_881542" data-name="Trazado 881542" d="M22.332,194.94a21.9,21.9,0,1,0,21.9,21.9,21.9,21.9,0,0,0-21.9-21.9m0,33.609a11.711,11.711,0,1,1,11.711-11.711,11.711,11.711,0,0,1-11.711,11.711" transform="translate(-0.082 -36.686)" fill="#ebf8ed"/>
        <path id="Trazado_881543" data-name="Trazado 881543" d="M22.25,239.007a22.25,22.25,0,1,1,22.25-22.25,22.275,22.275,0,0,1-22.25,22.25m0-43.8A21.546,21.546,0,1,0,43.8,216.757,21.57,21.57,0,0,0,22.25,195.211m0,33.609a12.063,12.063,0,1,1,12.063-12.063A12.077,12.077,0,0,1,22.25,228.82m0-23.421a11.359,11.359,0,1,0,11.359,11.359A11.372,11.372,0,0,0,22.25,205.4" transform="translate(0 -36.605)" fill="#016835"/>
        <path id="Trazado_881544" data-name="Trazado 881544" d="M22.332,130.1A21.9,21.9,0,0,0,.434,152H10.621a11.711,11.711,0,1,1,11.711,11.711V173.9a21.9,21.9,0,0,0,0-43.8" transform="translate(-0.082 -24.485)" fill="#ebf8ed"/>
        <path id="Trazado_881545" data-name="Trazado 881545" d="M22.25,174.172a22.25,22.25,0,1,1,22.25-22.25,22.275,22.275,0,0,1-22.25,22.25m0-43.8A21.546,21.546,0,1,0,43.8,151.922,21.57,21.57,0,0,0,22.25,130.376m0,33.609a12.063,12.063,0,1,1,12.063-12.063A12.077,12.077,0,0,1,22.25,163.985m0-23.421a11.359,11.359,0,1,0,11.359,11.359A11.372,11.372,0,0,0,22.25,140.563" transform="translate(0 -24.403)" fill="#016835"/>
        <path id="Trazado_881546" data-name="Trazado 881546" d="M22.332,65.269a21.9,21.9,0,0,0-21.9,21.9H10.621a11.711,11.711,0,0,1,23.422,0H44.229a21.9,21.9,0,0,0-21.9-21.9" transform="translate(-0.082 -12.283)" fill="#ebf8ed"/>
        <path id="Trazado_881547" data-name="Trazado 881547" d="M22.25,109.336A22.25,22.25,0,1,1,44.5,87.086a22.275,22.275,0,0,1-22.25,22.25m0-43.8A21.546,21.546,0,1,0,43.8,87.086,21.57,21.57,0,0,0,22.25,65.54m0,33.609A12.063,12.063,0,1,1,34.313,87.086,12.077,12.077,0,0,1,22.25,99.149m0-23.421A11.359,11.359,0,1,0,33.609,87.086,11.372,11.372,0,0,0,22.25,75.727" transform="translate(0 -12.202)" fill="#016835"/>
        <path id="Trazado_881548" data-name="Trazado 881548" d="M27.408.434V10.621a11.711,11.711,0,0,1,11.71,11.71H49.306a21.9,21.9,0,0,0-21.9-21.9" transform="translate(-5.158 -0.082)" fill="#ebf8ed"/>
        <path id="Trazado_881549" data-name="Trazado 881549" d="M22.25,44.5A22.25,22.25,0,1,1,44.5,22.25,22.275,22.275,0,0,1,22.25,44.5m0-43.8A21.546,21.546,0,1,0,43.8,22.25,21.57,21.57,0,0,0,22.25.7m0,33.609A12.063,12.063,0,1,1,34.313,22.25,12.077,12.077,0,0,1,22.25,34.313m0-23.421A11.359,11.359,0,1,0,33.609,22.25,11.372,11.372,0,0,0,22.25,10.891" fill="#016835"/>
      </g>
    </g>
  </g>
</svg>
