<svg xmlns="http://www.w3.org/2000/svg" width="54.09" height="64.709" viewBox="0 0 54.09 64.709">
  <g id="Grupo_1102058" data-name="Grupo 1102058" transform="translate(-180.319 -1788.276)">
    <g id="Layer_x0020_1" transform="translate(94.137 1744.276)">
      <path id="Trazado_881553" data-name="Trazado 881553" d="M115.986,108.709h-9.605a4.8,4.8,0,0,1-4.8-4.8v-3.539a.391.391,0,0,0-.253-.126l-3.16,1.769a4.917,4.917,0,0,1-6.572-1.769l-4.8-8.341a4.886,4.886,0,0,1,1.769-6.572l3.16-1.769v-.379l-3.16-1.769a4.886,4.886,0,0,1-1.769-6.572l4.8-8.341a4.917,4.917,0,0,1,6.572-1.769l3.16,1.9c0-.126.126-.126.253-.253V62.831a4.8,4.8,0,0,1,4.8-4.8h5.687l5.687-12.007A3.332,3.332,0,0,1,120.915,44h15.8a3.516,3.516,0,0,1,2.907,5.561L131.911,60.43c2.528,0,5.055-.379,6.193,2.022a3.72,3.72,0,0,1-.506,3.792l-4.171,4.929,2.149,3.665a4.886,4.886,0,0,1-1.769,6.572l-3.16,1.769v.379l3.16,1.769a4.886,4.886,0,0,1,1.769,6.572l-4.8,8.341a4.917,4.917,0,0,1-6.572,1.769l-3.16-1.769c-.126,0-.126,0-.253.126v3.539A4.8,4.8,0,0,1,115.986,108.709Zm-6.572-40.443a1.609,1.609,0,0,0,1.39,2.149l6.319.126a1.016,1.016,0,0,1,1.011,1.39l-5.94,16.809a1.5,1.5,0,0,0,2.528,1.517L136.082,64.98a1.566,1.566,0,0,0-1.264-2.528h-4.929a.943.943,0,0,1-.758-1.517l8.847-12.512a1.51,1.51,0,0,0-1.264-2.4h-15.8a1.367,1.367,0,0,0-1.39.885Zm1.643-8.215h-4.676a2.805,2.805,0,0,0-2.78,2.78V67c0,.885-.885,1.011-1.769,1.643a1.4,1.4,0,0,1-1.011,0L97.155,66.5a2.853,2.853,0,0,0-3.792,1.011l-4.8,8.341a2.712,2.712,0,0,0,1.011,3.792l3.665,2.149c.632.379.379,1.264.506,2.275a1.064,1.064,0,0,1-.506.885L89.572,87.1a2.712,2.712,0,0,0-1.011,3.792l4.8,8.341a2.853,2.853,0,0,0,3.792,1.011l3.665-2.149c.632-.379,1.264.253,2.149.758a.95.95,0,0,1,.632.885v4.171a2.805,2.805,0,0,0,2.78,2.78h9.605a2.805,2.805,0,0,0,2.78-2.78V99.736c0-.885.758-1.011,1.769-1.517a.954.954,0,0,1,1.011-.126l3.539,2.149A2.975,2.975,0,0,0,129,99.23l4.8-8.341A2.821,2.821,0,0,0,132.8,87.1l-3.665-2.149c-.758-.379-.506-1.264-.506-2.275a.846.846,0,0,1,.506-.885l3.665-2.149a2.821,2.821,0,0,0,1.011-3.792l-1.769-3.033-6.319,7.457a14.89,14.89,0,1,1-18.452-11.248,3.5,3.5,0,0,1,.379-1.643ZM107.9,70.92a12.846,12.846,0,1,0,16.051,11.5l-7.709,9.1a3.459,3.459,0,0,1-4.423.758,3.61,3.61,0,0,1-1.517-4.3l5.435-15.419-5.055-.126A4.105,4.105,0,0,1,107.9,70.92Z" transform="translate(0)" fill="#12263f" fill-rule="evenodd"/>
      <path id="Trazado_881554" data-name="Trazado 881554" d="M139.5,191.222a14.89,14.89,0,1,1-18.452-11.248,3.5,3.5,0,0,1,.379-1.643l3.412-7.33h-4.676a2.805,2.805,0,0,0-2.78,2.78v4.171c0,.885-.885,1.011-1.769,1.643a1.4,1.4,0,0,1-1.011,0l-3.665-2.149a2.853,2.853,0,0,0-3.792,1.011l-4.8,8.341a2.712,2.712,0,0,0,1.011,3.792l3.665,2.149c.632.379.379,1.264.506,2.275a1.064,1.064,0,0,1-.506.885l-3.665,2.149a2.712,2.712,0,0,0-1.011,3.792l4.8,8.341a2.853,2.853,0,0,0,3.792,1.011l3.665-2.149c.632-.379,1.264.253,2.149.758a.95.95,0,0,1,.632.885v4.171a2.805,2.805,0,0,0,2.78,2.78h9.605a2.805,2.805,0,0,0,2.78-2.78v-4.171c0-.885.758-1.011,1.769-1.517a.954.954,0,0,1,1.011-.126l3.539,2.149a2.975,2.975,0,0,0,3.918-1.011l4.8-8.341a2.821,2.821,0,0,0-1.011-3.792l-3.665-2.149c-.758-.379-.506-1.264-.506-2.275a.846.846,0,0,1,.506-.885l3.665-2.149a2.821,2.821,0,0,0,1.011-3.792l-1.769-3.033Z" transform="translate(-13.785 -110.949)" fill="#f35923" fill-rule="evenodd"/>
      <path id="Trazado_881555" data-name="Trazado 881555" d="M274.546,104.235l21.359-25.277a1.566,1.566,0,0,0-1.264-2.528h-4.929a.943.943,0,0,1-.758-1.517L297.8,62.4a1.51,1.51,0,0,0-1.264-2.4h-15.8a1.367,1.367,0,0,0-1.39.885L269.238,82.244a1.609,1.609,0,0,0,1.39,2.149l6.319.126a1.016,1.016,0,0,1,1.011,1.39l-5.94,16.809A1.5,1.5,0,0,0,274.546,104.235Z" transform="translate(-159.824 -13.978)" fill="#f8cd20" fill-rule="evenodd"/>
    </g>
  </g>
</svg>
