<svg xmlns="http://www.w3.org/2000/svg" xmlns:xlink="http://www.w3.org/1999/xlink" width="101.461" height="101.461" viewBox="0 0 101.461 101.461">
  <defs>
    <clipPath id="clip-path">
      <rect id="Rect치ngulo_401665" data-name="Rect치ngulo 401665" width="64" height="64" transform="translate(437.461 1139.693)" fill="#fff" stroke="#707070" stroke-width="1"/>
    </clipPath>
  </defs>
  <g id="Grupo_1102057" data-name="Grupo 1102057" transform="translate(-228.27 -10067.205)">
    <g id="Grupo_1101985" data-name="Grupo 1101985" transform="translate(-190.73 8946.205)">
      <path id="Trazado_824488" data-name="Trazado 824488" d="M50.73,0A50.73,50.73,0,1,1,0,50.73,50.73,50.73,0,0,1,50.73,0Z" transform="translate(419 1121)" fill="#016835"/>
      <g id="Enmascarar_grupo_1098718" data-name="Enmascarar grupo 1098718" clip-path="url(#clip-path)">
        <g id="ver-la-pelicula" transform="translate(434.552 1136.784)">
          <path id="Trazado_890852" data-name="Trazado 890852" d="M29.091,48H40.727V59.636H29.091Z" fill="#8fa5a5"/>
          <rect id="Rect치ngulo_401666" data-name="Rect치ngulo 401666" width="61.091" height="42.182" rx="5.818" transform="translate(4.364 10.182)" fill="#f35923"/>
          <path id="Trazado_890853" data-name="Trazado 890853" d="M7.418,10.909A5.793,5.793,0,0,0,4.364,16V46.545a5.818,5.818,0,0,0,5.818,5.818H59.636a5.769,5.769,0,0,0,3.8-1.443Z" fill="#c3471c"/>
          <path id="Trazado_890854" data-name="Trazado 890854" d="M34.909,17.455A13.818,13.818,0,1,0,48.727,31.273,13.818,13.818,0,0,0,34.909,17.455Zm5.056,15.078-7.2,4.159a1.455,1.455,0,0,1-2.182-1.26V27.114a1.455,1.455,0,0,1,2.182-1.26l7.2,4.159a1.455,1.455,0,0,1,0,2.519Z" fill="#eaeff0"/>
          <path id="Trazado_890855" data-name="Trazado 890855" d="M38.707,33.258l-5.945,3.433a1.455,1.455,0,0,1-2.182-1.26V27.453l-6.545-4.679A13.809,13.809,0,1,0,46.481,38.812Z" fill="#d9e1e2"/>
          <path id="Trazado_890856" data-name="Trazado 890856" d="M59.636,8.727H10.182A7.281,7.281,0,0,0,2.909,16V46.545a7.281,7.281,0,0,0,7.273,7.273H27.636v4.364H13.091a1.455,1.455,0,1,0,0,2.909H56.727a1.455,1.455,0,1,0,0-2.909H42.182V53.818H59.636a7.281,7.281,0,0,0,7.273-7.273V16a7.281,7.281,0,0,0-7.273-7.273ZM39.273,58.182H30.545V53.818h8.727ZM64,46.545a4.364,4.364,0,0,1-4.364,4.364H10.182a4.364,4.364,0,0,1-4.364-4.364V16a4.364,4.364,0,0,1,4.364-4.364H59.636A4.364,4.364,0,0,1,64,16Z" fill="#12263f"/>
          <path id="Trazado_890857" data-name="Trazado 890857" d="M40.694,28.753l-7.2-4.159a2.909,2.909,0,0,0-4.364,2.519v8.317a2.909,2.909,0,0,0,4.364,2.519l7.2-4.159a2.909,2.909,0,0,0,0-5.039Zm-8.659,6.678V27.114l7.2,4.159Z" fill="#12263f"/>
          <path id="Trazado_890858" data-name="Trazado 890858" d="M34.909,16A15.273,15.273,0,1,0,50.182,31.273,15.273,15.273,0,0,0,34.909,16Zm0,27.636A12.364,12.364,0,1,1,47.273,31.273,12.364,12.364,0,0,1,34.909,43.636Z" fill="#12263f"/>
        </g>
      </g>
    </g>
  </g>
</svg>
